#N canvas 241 124 1441 728 10;
#X obj 696 64 select 0 1 2 3 4 5;
#X obj 172 270 *~;
#X obj 196 236 line~;
#X msg 197 211 \$1 20;
#X obj 171 49 inlet~;
#X obj 586 60 inlet;
#X obj 171 312 outlet~;
#X obj 239 123 bng 15 250 50 0 empty empty empty 17 7 0 10 -262144
-1 -1;
#X msg 294 154 0 1 \, 1 0 \, 2 0 \, 3 0 \, 4 0 \, 5 0;
#X obj 560 222 route 0 1 2 3 4 5;
#X msg 480 155 0 0 \, 1 1 \, 2 0 \, 3 0 \, 4 0 \, 5 0;
#X msg 664 157 0 0 \, 1 0 \, 2 1 \, 3 0 \, 4 0 \, 5 0;
#X msg 845 156 0 0 \, 1 0 \, 2 0 \, 3 1 \, 4 0 \, 5 0;
#X msg 1027 155 0 0 \, 1 0 \, 2 0 \, 3 0 \, 4 1 \, 5 0;
#X msg 1212 154 0 0 \, 1 0 \, 2 0 \, 3 0 \, 4 0 \, 5 1;
#X obj 255 299 *~;
#X obj 279 265 line~;
#X msg 280 240 \$1 20;
#X obj 254 341 outlet~;
#X obj 338 326 *~;
#X obj 362 292 line~;
#X msg 363 267 \$1 20;
#X obj 337 368 outlet~;
#X obj 410 352 *~;
#X obj 434 318 line~;
#X msg 435 293 \$1 20;
#X obj 409 394 outlet~;
#X obj 489 374 *~;
#X obj 513 340 line~;
#X msg 514 315 \$1 20;
#X obj 488 416 outlet~;
#X obj 561 392 *~;
#X obj 585 358 line~;
#X msg 586 333 \$1 20;
#X obj 560 434 outlet~;
#X connect 0 0 8 0;
#X connect 0 1 10 0;
#X connect 0 2 11 0;
#X connect 0 3 12 0;
#X connect 0 4 13 0;
#X connect 0 5 14 0;
#X connect 1 0 6 0;
#X connect 2 0 1 1;
#X connect 3 0 2 0;
#X connect 4 0 1 0;
#X connect 4 0 15 0;
#X connect 4 0 19 0;
#X connect 4 0 23 0;
#X connect 4 0 27 0;
#X connect 4 0 31 0;
#X connect 5 0 0 0;
#X connect 7 0 8 0;
#X connect 8 0 9 0;
#X connect 9 0 3 0;
#X connect 9 1 17 0;
#X connect 9 2 21 0;
#X connect 9 3 25 0;
#X connect 9 4 29 0;
#X connect 9 5 33 0;
#X connect 10 0 9 0;
#X connect 11 0 9 0;
#X connect 12 0 9 0;
#X connect 13 0 9 0;
#X connect 14 0 9 0;
#X connect 15 0 18 0;
#X connect 16 0 15 1;
#X connect 17 0 16 0;
#X connect 19 0 22 0;
#X connect 20 0 19 1;
#X connect 21 0 20 0;
#X connect 23 0 26 0;
#X connect 24 0 23 1;
#X connect 25 0 24 0;
#X connect 27 0 30 0;
#X connect 28 0 27 1;
#X connect 29 0 28 0;
#X connect 31 0 34 0;
#X connect 32 0 31 1;
#X connect 33 0 32 0;
