#N canvas 0 0 1547 558 10;
#X obj 134 110 inlet~;
#X obj 134 233 outlet~;
#X obj 134 170 *~;
#X obj 572 118 inlet~;
#X obj 202 112 inlet~;
#X obj 202 235 outlet~;
#X obj 202 172 *~;
#X obj 268 110 inlet~;
#X obj 268 233 outlet~;
#X obj 268 170 *~;
#X obj 327 107 inlet~;
#X obj 327 230 outlet~;
#X obj 327 167 *~;
#X obj 389 105 inlet~;
#X obj 389 228 outlet~;
#X obj 389 165 *~;
#X obj 450 101 inlet~;
#X obj 450 224 outlet~;
#X obj 450 161 *~;
#X connect 0 0 2 0;
#X connect 2 0 1 0;
#X connect 3 0 2 1;
#X connect 3 0 6 1;
#X connect 3 0 9 1;
#X connect 3 0 12 1;
#X connect 3 0 15 1;
#X connect 3 0 18 1;
#X connect 4 0 6 0;
#X connect 6 0 5 0;
#X connect 7 0 9 0;
#X connect 9 0 8 0;
#X connect 10 0 12 0;
#X connect 12 0 11 0;
#X connect 13 0 15 0;
#X connect 15 0 14 0;
#X connect 16 0 18 0;
#X connect 18 0 17 0;
