#N canvas 1338 93 820 599 10;
#X declare -stdpath /usr/lib/pd/extra/tof;
#X declare -path ../../ussstools;
#X obj 219 73 usss.granular mygran;
#X obj 517 119 usss.envelope myenv;
#X obj 328 468 usss.output myout;
#X obj 36 249 metro 1000;
#X obj 33 209 tgl 15 0 empty empty empty 17 7 0 10 -262144 -1 -1 0
1;
#X obj 32 292 send myenv.trigger;
#X obj 114 62 ctlin;
#X floatatom 89 104 5 0 0 0 - - -;
#X floatatom 130 101 5 0 0 0 - - -;
#X obj 58 133 usss.zmap 0 127 50 500;
#X floatatom 60 162 5 0 0 0 - - -;
#X obj 65 340 send myenv.total_time;
#X obj 90 522 s mygran.randpitch;
#X obj 94 441 usss.zmap 0 127 0 4;
#X obj 257 498 abs;
#X obj 243 460 - 4;
#X floatatom 266 531 5 0 0 0 - - -;
#X obj 575 365 usss.reverb myrev;
#X obj 580 37 usss.zmap 0 127 0 1;
#X obj 755 85 abs;
#X floatatom 764 118 5 0 0 0 - - -;
#X obj 741 47 - 1;
#X obj 739 148 s myrev.dry;
#X obj 575 68 s myrev.wet;
#X obj 679 64 sel 1;
#X msg 682 88 1;
#X obj 728 218 s myrev.freeze;
#X obj 716 95 bng 15 250 50 0 empty empty empty 17 7 0 10 -262144 -1
-1;
#X msg 722 123 0;
#X obj 136 -19 declare -stdpath /usr/lib/pd/extra/tof;
#X obj 134 5 declare -path ../../ussstools;
#X connect 0 0 1 0;
#X connect 0 1 1 1;
#X connect 1 0 17 0;
#X connect 1 1 17 1;
#X connect 3 0 5 0;
#X connect 4 0 3 0;
#X connect 6 0 7 0;
#X connect 6 0 18 0;
#X connect 6 1 8 0;
#X connect 7 0 9 0;
#X connect 7 0 13 0;
#X connect 9 0 10 0;
#X connect 10 0 3 1;
#X connect 10 0 11 0;
#X connect 13 0 15 0;
#X connect 14 0 12 0;
#X connect 14 0 16 0;
#X connect 15 0 14 0;
#X connect 17 0 2 0;
#X connect 17 1 2 1;
#X connect 18 0 21 0;
#X connect 18 0 23 0;
#X connect 18 0 24 0;
#X connect 19 0 20 0;
#X connect 20 0 22 0;
#X connect 21 0 19 0;
#X connect 24 0 25 0;
#X connect 24 1 27 0;
#X connect 25 0 26 0;
#X connect 27 0 28 0;
#X connect 28 0 26 0;
