#N canvas 43 116 1237 811 10;
#X declare -path ../../ussstools;
#X obj 38 502 usss.output myout;
#X obj 36 421 usss.panner1 mypanl;
#N canvas 1101 350 714 554 arrays 0;
#X obj 27 216 soundfiler;
#X floatatom 27 238 0 0 0 0 - - -;
#X msg 25 18 read -resize /home/adrian/soundfiles/drumz/Kick01.wav
kick \;;
#X msg 35 45 read -resize /home/adrian/soundfiles/drumz/Snare01.wav
snare \;;
#X msg 50 125 read -resize /home/adrian/soundfiles/drumz/Rimshot01.wav
rim \;;
#X msg 53 163 read -resize /home/adrian/soundfiles/drumz/ZildjianSizzle.wav
sizzle;
#X msg 45 84 read -resize /home/adrian/soundfiles/drumz/ClosedHiHat01.wav
hihat \;;
#N canvas 0 22 450 300 (subpatch) 0;
#X array left 65940 float 2;
#X coords 0 1 65940 -1 100 50 1;
#X restore 406 37 graph;
#N canvas 0 22 450 300 (subpatch) 0;
#X array right 65940 float 2;
#X coords 0 1 65940 -1 100 50 1 0 0;
#X restore 405 109 graph;
#X msg 538 68 bang;
#X obj 538 89 openpanel;
#X obj 538 110 t s b;
#X obj 584 110 float \$0;
#X obj 538 131 route float;
#X obj 539 185 pack s s;
#X msg 539 206 read -resize \$1 \$2;
#X obj 538 152 makefilename %d-sample;
#X msg 28 327 read -resize /Volumes/AudioDisk1/zvisby2013/cointest.wav
snare;
#X msg 28 361 read -resize /Volumes/AudioDisk1/zvisby2013/metallic_hit3.wav
hihat;
#X msg 28 395 read -resize /Volumes/AudioDisk1/zvisby2013/Snare01.wav
kick;
#X msg 29 285 read -resize /Volumes/AudioDisk1/zvisby2013/Snare01.wav
left right;
#X connect 0 0 1 0;
#X connect 2 0 0 0;
#X connect 3 0 0 0;
#X connect 4 0 0 0;
#X connect 5 0 0 0;
#X connect 6 0 0 0;
#X connect 9 0 10 0;
#X connect 10 0 11 0;
#X connect 11 0 14 0;
#X connect 11 1 12 0;
#X connect 12 0 13 0;
#X connect 13 0 16 0;
#X connect 14 0 15 0;
#X connect 16 0 14 1;
#X connect 17 0 0 0;
#X connect 18 0 0 0;
#X connect 19 0 0 0;
#X connect 20 0 0 0;
#X restore 317 54 pd arrays;
#X obj 33 177 hradio 15 1 0 16 empty empty empty 0 -8 0 10 -262144
-1 -1 0;
#X obj 42 58 metro 1000;
#X obj 44 130 counter 0 4;
#X obj 45 -21 sel 1;
#X msg 77 78 0;
#X obj 44 5 t b b;
#X msg 40 31 1;
#X msg 41 -45 1;
#X msg 69 -44 0;
#X obj 148 32 expr (60000 / $f1);
#X floatatom 148 1 5 0 0 0 - - -;
#X obj 35 244 coll pattern1.coll;
#C restore;
#X msg 111 209 write;
#X floatatom 147 244 5 0 0 0 - - -;
#X floatatom 113 78 5 0 0 0 - - -;
#X obj 50 210 + 1;
#X obj 36 287 unpack 0 0 0 0 0 0;
#X obj 35 325 sel 1;
#X msg 36 355 0 22050;
#X msg 125 358 0 22050;
#X obj 125 325 sel 1;
#X msg 76 209 read;
#X obj 506 99 blipvis;
#X obj 268 112 r gest;
#X obj 36 393 tabplay~ left;
#X obj 125 393 tabplay~ right;
#X floatatom 509 57 5 0 0 0 - - -;
#X obj 479 38 bng 15 250 50 0 empty empty empty 17 7 0 10 -262144 -1
-1;
#X floatatom 563 57 5 0 0 0 - - -;
#X obj 546 36 bng 15 250 50 0 empty empty empty 17 7 0 10 -262144 -1
-1;
#X obj 505 528 swishvis;
#X obj 583 483 tgl 15 0 empty empty empty 17 7 0 10 -262144 -1 -1 0
1;
#X obj 526 482 bng 15 250 50 0 empty empty empty 17 7 0 10 -262144
-1 -1;
#X obj 669 391 usss.envelope myenv;
#X obj 679 622 s myenv.total_time;
#X floatatom 547 479 5 0 0 0 - - -;
#X obj 458 139 usss.varispeed myvs;
#X obj 459 334 addoriginal;
#X obj 542 616 s myenv.trigger;
#X obj 434 477 s filterswipe;
#X floatatom 433 454 5 0 0 0 - - -;
#X msg 431 430 500;
#X obj 428 406 loadbang;
#X obj 763 332 addoriginal;
#X obj 507 424 key;
#X obj 528 448 sel 32;
#X obj 773 -15 usss.granular mygran;
#X obj 992 429 bcf2000control;
#X obj 992 466 r f1;
#X obj 1014 540 metro 100;
#X obj 1012 513 tgl 15 0 empty empty empty 17 7 0 10 -262144 -1 -1
0 1;
#X floatatom 1066 514 5 0 0 0 - - -;
#X obj 1067 484 r f2;
#X obj 1014 570 s myenv.trigger;
#X obj 985 626 r f3;
#X obj 985 656 s myenv.total_time;
#X obj 824 661 r f4;
#X obj 990 95 usss.delay myd;
#X obj 429 3 declare -path ../../ussstools;
#X connect 1 0 0 0;
#X connect 1 1 0 1;
#X connect 5 0 3 0;
#X connect 5 0 18 0;
#X connect 6 0 8 0;
#X connect 6 1 4 0;
#X connect 7 0 5 2;
#X connect 8 0 9 0;
#X connect 8 1 7 0;
#X connect 9 0 4 0;
#X connect 10 0 6 0;
#X connect 11 0 6 0;
#X connect 12 0 4 1;
#X connect 13 0 12 0;
#X connect 14 0 19 0;
#X connect 14 1 16 0;
#X connect 15 0 14 0;
#X connect 17 0 5 4;
#X connect 18 0 14 0;
#X connect 19 0 20 0;
#X connect 19 1 23 0;
#X connect 20 0 21 0;
#X connect 21 0 27 0;
#X connect 22 0 28 0;
#X connect 23 0 22 0;
#X connect 24 0 14 0;
#X connect 26 0 5 0;
#X connect 27 0 1 0;
#X connect 28 0 1 0;
#X connect 29 0 25 1;
#X connect 30 0 25 0;
#X connect 31 0 25 3;
#X connect 32 0 25 2;
#X connect 33 0 0 0;
#X connect 33 1 0 1;
#X connect 34 0 33 4;
#X connect 35 0 33 2;
#X connect 35 0 41 0;
#X connect 36 0 33 0;
#X connect 36 0 60 0;
#X connect 36 1 33 1;
#X connect 36 1 60 1;
#X connect 38 0 33 3;
#X connect 39 0 40 0;
#X connect 39 1 40 1;
#X connect 40 0 36 0;
#X connect 40 1 36 1;
#X connect 43 0 42 0;
#X connect 44 0 43 0;
#X connect 45 0 44 0;
#X connect 46 0 36 0;
#X connect 46 1 36 1;
#X connect 47 0 48 0;
#X connect 48 0 35 0;
#X connect 49 0 46 0;
#X connect 49 1 46 1;
#X connect 51 0 43 0;
#X connect 52 0 56 0;
#X connect 53 0 52 0;
#X connect 54 0 52 1;
#X connect 55 0 54 0;
#X connect 57 0 58 0;
#X connect 59 0 38 0;
#X connect 60 0 33 0;
#X connect 60 1 33 1;
