#N canvas 329 77 978 914 10;
#X declare -path ussstools;
#X declare -path ../../ussstools/ussstools;
#X declare -stdpath /usr/lib/pd/extra/tof;
#X declare -stdpath /home/adrian/usss_coursebook/ussstools;
#X declare -stdpath E:/ussstools/ussstools/ussstools/;
#X obj 359 25 declare -path ussstools;
#X obj 13 596 usss.output myout;
#X floatatom 73 106 5 0 0 0 - - -;
#X obj 117 12 ctlin;
#X floatatom 130 45 5 0 0 0 - - -;
#X floatatom 52 45 5 0 0 0 - - -;
#X obj 35 299 *~;
#X obj 105 299 *~;
#X obj 473 131 usss.granular myg;
#X floatatom 191 60 5 0 0 0 - - -;
#X obj 73 138 phasor~;
#X obj 75 207 expr~ $v1 < 1;
#X obj 74 171 *~;
#X floatatom 136 155 5 0 0 0 - - -;
#X obj 75 242 lop~ 10;
#X text 361 2 check your path to ussstools;
#X obj 362 50 declare -path ../../ussstools/ussstools;
#X obj 256 129 loadbang;
#X msg 256 150 5;
#X text 179 172 adjust this for blips;
#X obj 74 83 usss.zmap 0 127 0 50;
#X text 459 103 sound input - granular or sustained sound;
#X obj 33 327 *~;
#X obj 263 217 usss.zmap 5 100 1 5;
#X floatatom 259 246 5 0 0 0 - - -;
#X obj 105 325 *~;
#N canvas 27 137 791 520 combank 0;
#X obj 34 73 usss.combfilt c1;
#X obj 250 73 usss.combfilt c2;
#X obj 474 70 usss.combfilt c3;
#X obj 34 238 usss.combfilt c4;
#X obj 253 238 usss.combfilt c5;
#X obj 475 230 usss.combfilt c6;
#X obj 34 27 inlet~;
#X obj 295 17 inlet~;
#X obj 63 423 outlet~;
#X obj 335 428 outlet~;
#X obj 441 11 unpack 0 0 0 0 0 0;
#X obj 441 -21 inlet;
#X connect 0 0 8 0;
#X connect 0 1 9 0;
#X connect 1 0 8 0;
#X connect 1 1 9 0;
#X connect 2 0 8 0;
#X connect 2 1 9 0;
#X connect 3 0 8 0;
#X connect 3 1 9 0;
#X connect 4 0 8 0;
#X connect 4 1 9 0;
#X connect 5 0 8 0;
#X connect 5 1 9 0;
#X connect 6 0 0 0;
#X connect 6 0 1 0;
#X connect 6 0 2 0;
#X connect 6 0 3 0;
#X connect 6 0 4 0;
#X connect 6 0 5 0;
#X connect 7 0 0 1;
#X connect 7 0 1 1;
#X connect 7 0 2 1;
#X connect 7 0 3 1;
#X connect 7 0 4 1;
#X connect 7 0 5 1;
#X connect 10 0 0 2;
#X connect 10 1 1 2;
#X connect 10 2 2 2;
#X connect 10 3 3 2;
#X connect 10 4 4 2;
#X connect 10 5 5 2;
#X connect 11 0 10 0;
#X restore 36 370 pd combank;
#X obj 361 285 notein;
#X floatatom 358 321 5 0 0 0 - - -;
#X msg 226 304 48 51 54 57 60 63;
#X msg 226 327 46 51 56 62 67 73;
#X msg 227 351 48 52 55 60 64 67;
#X obj 622 127 declare -stdpath /usr/lib/pd/extra/tof;
#X obj 624 153 declare -stdpath /home/adrian/usss_coursebook/ussstools
;
#X obj 52 11 ctlin 81;
#X floatatom 264 85 5 0 0 0 - - -;
#X obj 265 53 ctlin 82;
#X msg 231 397 78 79 80 81 82 83;
#X obj 276 612 metro 1000;
#X obj 276 584 tgl 15 0 empty empty empty 17 7 0 10 -262144 -1 -1 0
1;
#X obj 13 417 usss.fftfilter;
#X obj 824 523 table ajmrandgen;
#X obj 483 566 until;
#X msg 483 500 6;
#X obj 485 625 counter 0 0;
#X obj 483 532 t f b f;
#X msg 504 599 1;
#X obj 489 790 tabwrite ajmrandgen;
#X obj 489 763 pack 0 0;
#X obj 485 649 t f b;
#X obj 760 687 tabread ajmrandgen;
#X obj 760 594 until;
#X msg 760 528 6;
#X obj 760 659 counter 0 0;
#X msg 781 627 1;
#X obj 489 733 swap;
#X obj 723 717 list prepend;
#X obj 710 746 list append;
#X obj 700 721 bng 15 250 50 0 empty empty empty 17 7 0 10 -262144
-1 -1;
#X obj 813 725 t l;
#X obj 883 687 bng 15 250 50 0 empty empty empty 17 7 0 10 -262144
-1 -1;
#X obj 762 560 t f b f b;
#X obj 747 420 t b b b;
#X obj 754 388 bng 15 250 50 0 empty empty empty 17 7 0 10 -262144
-1 -1;
#X obj 535 675 random 30;
#X obj 536 699 + 70;
#X obj 239 646 random 10;
#X obj 239 676 + 20;
#X obj 346 640 random 500;
#X obj 345 671 + 500;
#X floatatom 346 704 5 0 0 0 - - -;
#X obj 237 706 s blipfreq;
#X obj -16 13 r blipfreq;
#X floatatom 276 676 5 0 0 0 - - -;
#X floatatom 301 647 5 0 0 0 - - -;
#X floatatom 418 640 5 0 0 0 - - -;
#X floatatom 387 672 5 0 0 0 - - -;
#X floatatom 597 674 5 0 0 0 - - -;
#X floatatom 569 698 5 0 0 0 - - -;
#X obj 103 179 clip 9 127;
#X obj 729 777 print;
#X obj 618 19 declare -stdpath E:/ussstools/ussstools/ussstools/;
#X connect 2 0 10 0;
#X connect 3 1 4 0;
#X connect 5 0 20 0;
#X connect 6 0 22 0;
#X connect 7 0 25 0;
#X connect 8 0 6 1;
#X connect 8 1 7 1;
#X connect 9 0 20 4;
#X connect 10 0 12 0;
#X connect 11 0 14 0;
#X connect 12 0 11 0;
#X connect 13 0 23 0;
#X connect 13 0 79 0;
#X connect 14 0 7 0;
#X connect 14 0 6 0;
#X connect 17 0 18 0;
#X connect 18 0 13 0;
#X connect 20 0 2 0;
#X connect 22 0 40 0;
#X connect 23 0 24 0;
#X connect 24 0 22 1;
#X connect 24 0 25 1;
#X connect 25 0 40 1;
#X connect 27 0 28 0;
#X connect 29 0 26 2;
#X connect 30 0 26 2;
#X connect 31 0 26 2;
#X connect 34 0 5 0;
#X connect 35 0 13 0;
#X connect 36 0 35 0;
#X connect 37 0 26 2;
#X connect 38 0 66 0;
#X connect 38 0 68 0;
#X connect 38 0 63 0;
#X connect 39 0 38 0;
#X connect 40 0 1 0;
#X connect 40 1 1 1;
#X connect 42 0 44 0;
#X connect 43 0 45 0;
#X connect 44 0 49 0;
#X connect 45 0 42 0;
#X connect 45 1 46 0;
#X connect 45 2 44 4;
#X connect 46 0 44 2;
#X connect 48 0 47 0;
#X connect 49 0 55 0;
#X connect 49 1 64 0;
#X connect 50 0 56 0;
#X connect 51 0 53 0;
#X connect 52 0 61 0;
#X connect 53 0 50 0;
#X connect 54 0 53 2;
#X connect 55 0 48 0;
#X connect 55 1 48 1;
#X connect 56 0 57 1;
#X connect 56 0 59 0;
#X connect 57 0 26 2;
#X connect 57 0 80 0;
#X connect 58 0 57 0;
#X connect 59 0 56 1;
#X connect 60 0 56 1;
#X connect 61 0 51 0;
#X connect 61 1 54 0;
#X connect 61 2 53 4;
#X connect 61 3 60 0;
#X connect 62 0 58 0;
#X connect 62 1 52 0;
#X connect 62 2 43 0;
#X connect 63 0 62 0;
#X connect 64 0 65 0;
#X connect 65 0 55 1;
#X connect 66 0 67 0;
#X connect 67 0 71 0;
#X connect 68 0 69 0;
#X connect 69 0 70 0;
#X connect 70 0 38 1;
#X connect 72 0 5 0;
#X connect 73 0 67 1;
#X connect 74 0 66 1;
#X connect 75 0 68 1;
#X connect 76 0 69 1;
#X connect 77 0 64 1;
#X connect 78 0 65 1;
#X connect 79 0 12 1;
