#N canvas 43 151 1237 847 10;
#X declare -path ../../ussstools;
#X obj 36 421 usss.panner1 mypanl;
#N canvas 1708 419 714 554 arrays 0;
#X obj 27 216 soundfiler;
#X floatatom 27 238 0 0 0 0 - - -;
#X msg 25 18 read -resize /home/adrian/soundfiles/drumz/Kick01.wav
kick \;;
#X msg 35 45 read -resize /home/adrian/soundfiles/drumz/Snare01.wav
snare \;;
#X msg 50 125 read -resize /home/adrian/soundfiles/drumz/Rimshot01.wav
rim \;;
#X msg 53 163 read -resize /home/adrian/soundfiles/drumz/ZildjianSizzle.wav
sizzle;
#X msg 45 84 read -resize /home/adrian/soundfiles/drumz/ClosedHiHat01.wav
hihat \;;
#N canvas 0 22 450 300 (subpatch) 0;
#X array left 65940 float 2;
#X coords 0 1 65940 -1 100 50 1;
#X restore 406 37 graph;
#N canvas 0 22 450 300 (subpatch) 0;
#X array right 65940 float 2;
#X coords 0 1 65940 -1 100 50 1 0 0;
#X restore 405 109 graph;
#X msg 538 68 bang;
#X obj 538 89 openpanel;
#X obj 538 110 t s b;
#X obj 584 110 float \$0;
#X obj 538 131 route float;
#X obj 539 185 pack s s;
#X msg 539 206 read -resize \$1 \$2;
#X obj 538 152 makefilename %d-sample;
#X msg 28 327 read -resize /Volumes/AudioDisk1/zvisby2013/cointest.wav
snare;
#X msg 28 361 read -resize /Volumes/AudioDisk1/zvisby2013/metallic_hit3.wav
hihat;
#X msg 28 395 read -resize /Volumes/AudioDisk1/zvisby2013/Snare01.wav
kick;
#X msg 29 285 read -resize /Volumes/AudioDisk1/zvisby2013/Snare01.wav
left right;
#X connect 0 0 1 0;
#X connect 2 0 0 0;
#X connect 3 0 0 0;
#X connect 4 0 0 0;
#X connect 5 0 0 0;
#X connect 6 0 0 0;
#X connect 9 0 10 0;
#X connect 10 0 11 0;
#X connect 11 0 14 0;
#X connect 11 1 12 0;
#X connect 12 0 13 0;
#X connect 13 0 16 0;
#X connect 14 0 15 0;
#X connect 16 0 14 1;
#X connect 17 0 0 0;
#X connect 18 0 0 0;
#X connect 19 0 0 0;
#X connect 20 0 0 0;
#X restore 291 -6 pd arrays;
#X obj 33 177 hradio 15 1 0 16 empty empty empty 0 -8 0 10 -262144
-1 -1 0;
#X obj 42 58 metro 1000;
#X obj 44 130 counter 0 4;
#X obj 45 -21 sel 1;
#X msg 77 78 0;
#X obj 44 5 t b b;
#X msg 40 31 1;
#X msg 41 -45 1;
#X msg 69 -44 0;
#X obj 148 32 expr (60000 / $f1);
#X floatatom 148 1 5 0 0 0 - - -;
#X obj 35 244 coll pattern1.coll;
#C restore;
#X msg 111 209 write;
#X floatatom 147 244 5 0 0 0 - - -;
#X floatatom 113 78 5 0 0 0 - - -;
#X obj 50 210 + 1;
#X obj 36 287 unpack 0 0 0 0 0 0;
#X obj 35 325 sel 1;
#X msg 36 355 0 22050;
#X msg 125 358 0 22050;
#X obj 125 325 sel 1;
#X msg 76 209 read;
#X obj 506 99 blipvis;
#X obj 152 106 r gest;
#X obj 36 393 tabplay~ left;
#X obj 125 393 tabplay~ right;
#X floatatom 509 57 5 0 0 0 - - -;
#X obj 479 38 bng 15 250 50 0 empty empty empty 17 7 0 10 -262144 -1
-1;
#X floatatom 563 57 5 0 0 0 - - -;
#X obj 546 36 bng 15 250 50 0 empty empty empty 17 7 0 10 -262144 -1
-1;
#X obj 561 570 swishvis;
#X obj 583 483 tgl 15 0 empty empty empty 17 7 0 10 -262144 -1 -1 0
1;
#X obj 526 482 bng 15 250 50 0 empty empty empty 17 7 0 10 -262144
-1 -1;
#X obj 669 391 usss.envelope myenv;
#X obj 490 648 s myenv.total_time;
#X floatatom 547 479 5 0 0 0 - - -;
#X obj 458 139 usss.varispeed myvs;
#X obj 459 334 addoriginal;
#X obj 390 651 s myenv.trigger;
#X obj 434 477 s filterswipe;
#X floatatom 433 454 5 0 0 0 - - -;
#X msg 431 430 500;
#X obj 428 406 loadbang;
#X obj 763 332 addoriginal;
#X obj 507 424 key;
#X obj 773 -15 usss.granular mygran;
#X obj 90 556 usss.output4 myout;
#X obj 977 332 addoriginal;
#X obj 987 -15 usss.granular mygran2;
#X obj 883 391 usss.envelope myenv2;
#X obj 751 690 s myenv2.trigger;
#X obj 863 686 s myenv2.total_time;
#X obj 669 633 swishvis;
#X obj 866 647 tgl 15 0 empty empty empty 17 7 0 10 -262144 -1 -1 0
1;
#X obj 809 646 bng 15 250 50 0 empty empty empty 17 7 0 10 -262144
-1 -1;
#X floatatom 830 643 5 0 0 0 - - -;
#X obj 299 287 metro 1000;
#X obj 329 254 tgl 15 0 empty empty empty 17 7 0 10 -262144 -1 -1 0
1;
#X obj 298 323 random 1000;
#X obj 324 363 gate;
#X obj 280 357 tgl 15 0 empty empty empty 17 7 0 10 -262144 -1 -1 0
1;
#X floatatom 361 402 5 0 0 0 - - -;
#X floatatom 377 247 5 0 0 0 - - -;
#X obj 308 183 usss.zmap 0 127 50 500;
#X floatatom 423 150 5 0 0 0 - - -;
#X obj 210 227 usss.zmap 0 127 0.2 4;
#X floatatom 209 318 5 0 0 0 - - -;
#X obj 200 253 s mygran.mainpitch;
#X obj 180 279 s mygran2.mainpitch;
#X floatatom 320 145 5 0 0 0 - - -;
#X obj 307 111 ctlin 4;
#X obj 243 85 ctlin 72;
#X floatatom 264 205 5 0 0 0 - - -;
#X obj 528 448 sel 32 108 107;
#X obj 1049 627 random 127;
#X obj 1129 625 random 127;
#X obj 1048 652 usss.zmap 0 127 0.2 4;
#X obj 1156 700 s mygran.mainpitch;
#X obj 1018 704 s mygran2.mainpitch;
#X floatatom 1351 619 5 0 0 0 - - -;
#X obj 1219 653 usss.zmap 0 127 0.2 4;
#X floatatom 1285 612 5 0 0 0 - - -;
#X obj 1093 407 addoriginal;
#X obj 1094 443 addoriginal;
#X floatatom 998 669 5 0 0 0 - - -;
#X obj 1278 62 s mygran.position;
#X obj 1288 85 s mygran2.position;
#X floatatom 1298 19 5 0 0 0 - - -;
#X obj 360 51 ctlin;
#X floatatom 375 79 5 0 0 0 - - -;
#X obj 1235 -35 ctlin 93;
#X obj 1245 -5 usss.zmap 0 127 0 0.2;
#X floatatom 1375 -31 5 0 0 0 - - -;
#X floatatom 1336 -33 5 0 0 0 - - -;
#X floatatom 390 335 5 0 0 0 - - -;
#X obj 471 -30 declare -path ../../ussstools;
#X connect 4 0 2 0;
#X connect 4 0 17 0;
#X connect 5 0 7 0;
#X connect 5 1 3 0;
#X connect 6 0 4 2;
#X connect 7 0 8 0;
#X connect 7 1 6 0;
#X connect 8 0 3 0;
#X connect 9 0 5 0;
#X connect 10 0 5 0;
#X connect 11 0 3 1;
#X connect 12 0 11 0;
#X connect 13 0 18 0;
#X connect 13 1 15 0;
#X connect 14 0 13 0;
#X connect 16 0 4 4;
#X connect 17 0 13 0;
#X connect 18 0 19 0;
#X connect 18 1 22 0;
#X connect 19 0 20 0;
#X connect 20 0 26 0;
#X connect 21 0 27 0;
#X connect 22 0 21 0;
#X connect 23 0 13 0;
#X connect 25 0 4 0;
#X connect 26 0 0 0;
#X connect 27 0 0 0;
#X connect 28 0 24 1;
#X connect 29 0 24 0;
#X connect 30 0 24 3;
#X connect 31 0 24 2;
#X connect 32 0 48 0;
#X connect 32 1 48 1;
#X connect 33 0 32 4;
#X connect 34 0 32 2;
#X connect 34 0 40 0;
#X connect 35 0 32 0;
#X connect 35 1 32 1;
#X connect 37 0 32 3;
#X connect 37 0 36 0;
#X connect 38 0 39 0;
#X connect 38 1 39 1;
#X connect 39 0 48 0;
#X connect 39 1 48 1;
#X connect 42 0 41 0;
#X connect 43 0 42 0;
#X connect 44 0 43 0;
#X connect 45 0 35 0;
#X connect 45 1 35 1;
#X connect 46 0 75 0;
#X connect 47 0 45 0;
#X connect 47 0 84 0;
#X connect 47 1 45 1;
#X connect 47 1 84 1;
#X connect 49 0 51 0;
#X connect 49 1 51 1;
#X connect 50 0 49 0;
#X connect 50 0 85 0;
#X connect 50 1 49 1;
#X connect 50 1 85 1;
#X connect 51 0 54 0;
#X connect 51 1 54 1;
#X connect 54 0 48 2;
#X connect 54 1 48 3;
#X connect 55 0 54 4;
#X connect 56 0 54 2;
#X connect 56 0 52 0;
#X connect 57 0 54 3;
#X connect 57 0 53 0;
#X connect 58 0 60 0;
#X connect 58 0 34 0;
#X connect 58 0 56 0;
#X connect 59 0 58 0;
#X connect 60 0 61 1;
#X connect 61 0 63 0;
#X connect 62 0 61 0;
#X connect 63 0 58 1;
#X connect 63 0 37 0;
#X connect 63 0 57 0;
#X connect 64 0 58 1;
#X connect 64 0 63 0;
#X connect 65 0 64 0;
#X connect 66 0 65 4;
#X connect 67 0 68 0;
#X connect 67 0 69 0;
#X connect 67 0 70 0;
#X connect 72 0 65 0;
#X connect 72 1 71 0;
#X connect 73 0 67 0;
#X connect 74 0 67 4;
#X connect 75 0 34 0;
#X connect 75 0 56 0;
#X connect 75 1 33 0;
#X connect 75 1 76 0;
#X connect 75 2 77 0;
#X connect 75 2 55 0;
#X connect 76 0 78 0;
#X connect 77 0 82 0;
#X connect 78 0 80 0;
#X connect 78 0 86 0;
#X connect 81 0 78 4;
#X connect 81 0 82 4;
#X connect 82 0 79 0;
#X connect 83 0 78 3;
#X connect 83 0 82 3;
#X connect 84 0 48 0;
#X connect 84 1 48 1;
#X connect 85 0 48 2;
#X connect 85 1 48 3;
#X connect 89 0 87 0;
#X connect 89 0 88 0;
#X connect 90 1 91 0;
#X connect 92 0 93 0;
#X connect 93 0 89 0;
#X connect 94 0 93 4;
#X connect 95 0 93 3;
#X connect 96 0 60 1;
