#N canvas 26 24 850 650 10;
#X declare -path ussstools;
#X declare -stdpath /usr/lib/pd/extra/tof;
#X declare -stdpath /home/adrian/usss_coursebook/ussstools;
#X obj 586 -10 declare -path ussstools;
#X obj 39 466 usss.output myout;
#X obj 258 249 usss.bandpass mybp;
#X obj 514 376 usss.reverb myrev;
#X obj 256 147 usss.panner1 mypan;
#X obj 326 44 phasor~;
#X floatatom 326 19 5 0 0 0 - - -;
#X obj 326 72 *~ 2;
#X obj 327 100 -~ 1;
#X obj 596 284 s coords;
#X obj 594 234 pack f f;
#X floatatom 551 147 5 0 0 0 - - -;
#X floatatom 680 141 5 0 0 0 - - -;
#X msg 595 258 goto \$1 \$2;
#X obj 618 155 bang;
#X obj 593 52 metro 1000;
#X obj 592 21 tgl 15 0 empty empty empty 17 7 0 10 -262144 -1 -1 0
1;
#X obj 681 193 line;
#X obj 548 205 line;
#X obj 541 177 pack 0 0;
#X obj 682 168 pack 0 0;
#X floatatom 668 20 5 0 0 0 - - -;
#X obj 392 37 / 100;
#X obj 394 63 * 0.25;
#X obj 381 92 s mypan.pan;
#X obj 673 255 / 100;
#X obj 673 280 s myrev.dry;
#X obj 748 229 - 100;
#X obj 748 252 / 100;
#X obj 751 275 abs;
#X obj 718 310 s myrev.wet;
#X obj 450 6 / 5;
#X obj 550 99 random 95;
#X obj 549 126 + 5;
#X obj 675 114 + 5;
#X obj 669 91 random 95;
#X floatatom 475 -19 5 0 0 0 - - -;
#X obj 29 -59 declare -stdpath /usr/lib/pd/extra/tof;
#X obj 31 -33 declare -stdpath /home/adrian/usss_coursebook/ussstools
;
#X connect 2 0 3 0;
#X connect 2 1 3 1;
#X connect 3 0 1 0;
#X connect 3 1 1 1;
#X connect 4 0 2 0;
#X connect 4 1 2 1;
#X connect 5 0 7 0;
#X connect 6 0 5 0;
#X connect 7 0 8 0;
#X connect 8 0 4 0;
#X connect 10 0 13 0;
#X connect 11 0 19 0;
#X connect 12 0 20 0;
#X connect 13 0 9 0;
#X connect 14 0 10 0;
#X connect 15 0 32 0;
#X connect 15 0 35 0;
#X connect 16 0 15 0;
#X connect 17 0 14 0;
#X connect 17 0 10 1;
#X connect 17 0 25 0;
#X connect 17 0 27 0;
#X connect 18 0 10 0;
#X connect 18 0 22 0;
#X connect 18 0 31 0;
#X connect 19 0 18 0;
#X connect 20 0 17 0;
#X connect 21 0 15 1;
#X connect 21 0 19 1;
#X connect 21 0 20 1;
#X connect 22 0 23 0;
#X connect 23 0 24 0;
#X connect 25 0 26 0;
#X connect 27 0 28 0;
#X connect 28 0 29 0;
#X connect 29 0 30 0;
#X connect 31 0 6 0;
#X connect 32 0 33 0;
#X connect 33 0 11 0;
#X connect 34 0 12 0;
#X connect 35 0 34 0;
#X connect 36 0 31 1;
