#N canvas 252 81 717 561 10;
#X declare -path ussstools;
#X declare -path ../../ussstools/ussstools;
#X declare -stdpath /usr/lib/pd/extra/tof;
#X declare -stdpath /home/adrian/usss_coursebook/ussstools;
#X obj 359 25 declare -path ussstools;
#X obj 22 399 usss.output myout;
#X floatatom 73 106 5 0 0 0 - - -;
#X obj 117 12 ctlin;
#X floatatom 130 45 5 0 0 0 - - -;
#X obj 52 11 ctlin 74;
#X floatatom 52 45 5 0 0 0 - - -;
#X obj 21 307 *~;
#X obj 152 305 *~;
#X obj 471 153 usss.granular myg;
#X floatatom 191 60 5 0 0 0 - - -;
#X obj 73 138 phasor~;
#X obj 75 207 expr~ $v1 < 1;
#X obj 74 171 *~;
#X floatatom 136 155 5 0 0 0 - - -;
#X obj 75 242 lop~ 10;
#X text 361 2 check your path to ussstools;
#X obj 362 50 declare -path ../../ussstools/ussstools;
#X obj 256 129 loadbang;
#X msg 256 150 5;
#X text 134 172 adjust this for blips;
#X obj 74 83 usss.zmap 0 127 0 50;
#X text 419 125 sound input - granular or sustained sound;
#X obj 352 72 declare -stdpath /usr/lib/pd/extra/tof;
#X obj 354 98 declare -stdpath /home/adrian/usss_coursebook/ussstools
;
#X connect 2 0 11 0;
#X connect 3 1 4 0;
#X connect 5 0 6 0;
#X connect 6 0 21 0;
#X connect 7 0 1 0;
#X connect 8 0 1 1;
#X connect 9 0 7 1;
#X connect 9 1 8 1;
#X connect 10 0 21 4;
#X connect 11 0 13 0;
#X connect 12 0 15 0;
#X connect 13 0 12 0;
#X connect 14 0 13 1;
#X connect 15 0 8 0;
#X connect 15 0 7 0;
#X connect 18 0 19 0;
#X connect 19 0 14 0;
#X connect 21 0 2 0;
