#N canvas 43 151 1237 847 10;
#X declare -path ../../ussstools;
#N canvas 1708 419 714 554 arrays 0;
#X obj 27 216 soundfiler;
#X floatatom 27 238 0 0 0 0 - - -;
#X msg 25 18 read -resize /home/adrian/soundfiles/drumz/Kick01.wav
kick \;;
#X msg 35 45 read -resize /home/adrian/soundfiles/drumz/Snare01.wav
snare \;;
#X msg 50 125 read -resize /home/adrian/soundfiles/drumz/Rimshot01.wav
rim \;;
#X msg 53 163 read -resize /home/adrian/soundfiles/drumz/ZildjianSizzle.wav
sizzle;
#X msg 45 84 read -resize /home/adrian/soundfiles/drumz/ClosedHiHat01.wav
hihat \;;
#N canvas 0 22 450 300 (subpatch) 0;
#X array left 65940 float 2;
#X coords 0 1 65940 -1 100 50 1;
#X restore 406 37 graph;
#N canvas 0 22 450 300 (subpatch) 0;
#X array right 65940 float 2;
#X coords 0 1 65940 -1 100 50 1 0 0;
#X restore 405 109 graph;
#X msg 538 68 bang;
#X obj 538 89 openpanel;
#X obj 538 110 t s b;
#X obj 584 110 float \$0;
#X obj 538 131 route float;
#X obj 539 185 pack s s;
#X msg 539 206 read -resize \$1 \$2;
#X obj 538 152 makefilename %d-sample;
#X msg 28 327 read -resize /Volumes/AudioDisk1/zvisby2013/cointest.wav
snare;
#X msg 28 361 read -resize /Volumes/AudioDisk1/zvisby2013/metallic_hit3.wav
hihat;
#X msg 28 395 read -resize /Volumes/AudioDisk1/zvisby2013/Snare01.wav
kick;
#X msg 29 285 read -resize /Volumes/AudioDisk1/zvisby2013/Snare01.wav
left right;
#X connect 0 0 1 0;
#X connect 2 0 0 0;
#X connect 3 0 0 0;
#X connect 4 0 0 0;
#X connect 5 0 0 0;
#X connect 6 0 0 0;
#X connect 9 0 10 0;
#X connect 10 0 11 0;
#X connect 11 0 14 0;
#X connect 11 1 12 0;
#X connect 12 0 13 0;
#X connect 13 0 16 0;
#X connect 14 0 15 0;
#X connect 16 0 14 1;
#X connect 17 0 0 0;
#X connect 18 0 0 0;
#X connect 19 0 0 0;
#X connect 20 0 0 0;
#X restore 291 -6 pd arrays;
#X obj 506 99 blipvis;
#X floatatom 509 57 5 0 0 0 - - -;
#X obj 479 38 bng 15 250 50 0 empty empty empty 17 7 0 10 -262144 -1
-1;
#X floatatom 563 57 5 0 0 0 - - -;
#X obj 546 36 bng 15 250 50 0 empty empty empty 17 7 0 10 -262144 -1
-1;
#X obj 561 570 swishvis;
#X obj 583 483 tgl 15 0 empty empty empty 17 7 0 10 -262144 -1 -1 0
1;
#X obj 526 482 bng 15 250 50 0 empty empty empty 17 7 0 10 -262144
-1 -1;
#X obj 877 385 usss.envelope myenv;
#X obj 435 518 s myenv.total_time;
#X floatatom 628 408 5 0 0 0 - - -;
#X obj 458 139 usss.varispeed myvs;
#X obj 459 334 addoriginal;
#X obj 335 521 s myenv.trigger;
#X obj 434 477 s filterswipe;
#X floatatom 433 454 5 0 0 0 - - -;
#X msg 431 430 500;
#X obj 428 406 loadbang;
#X obj 763 332 addoriginal;
#X obj 507 424 key;
#X obj 773 -15 usss.granular mygran;
#X obj 90 556 usss.output4 myout;
#X obj 977 331 addoriginal;
#X obj 987 -15 usss.granular mygran2;
#X obj 1099 386 usss.envelope myenv2;
#X obj 619 487 s myenv2.trigger;
#X obj 731 483 s myenv2.total_time;
#X obj 1043 615 swishvis;
#X obj 734 444 tgl 15 0 empty empty empty 17 7 0 10 -262144 -1 -1 0
1;
#X obj 677 443 bng 15 250 50 0 empty empty empty 17 7 0 10 -262144
-1 -1;
#X floatatom 680 405 5 0 0 0 - - -;
#X obj 299 287 metro 1000;
#X obj 329 254 tgl 15 0 empty empty empty 17 7 0 10 -262144 -1 -1 0
1;
#X obj 298 323 random 1000;
#X obj 324 363 gate;
#X obj 280 357 tgl 15 0 empty empty empty 17 7 0 10 -262144 -1 -1 0
1;
#X floatatom 361 402 5 0 0 0 - - -;
#X floatatom 377 247 5 0 0 0 - - -;
#X obj 308 183 usss.zmap 0 127 50 500;
#X floatatom 423 150 5 0 0 0 - - -;
#X obj 59 205 usss.zmap 0 127 0.2 4;
#X floatatom 58 296 5 0 0 0 - - -;
#X obj 49 231 s mygran.mainpitch;
#X floatatom 320 145 5 0 0 0 - - -;
#X obj 307 111 ctlin 4;
#X obj 92 63 ctlin 72;
#X floatatom 173 169 5 0 0 0 - - -;
#X obj 528 448 sel 32 108 107;
#X obj 1278 62 s mygran.position;
#X obj 1288 85 s mygran2.position;
#X floatatom 1298 19 5 0 0 0 - - -;
#X obj 360 51 ctlin;
#X floatatom 375 79 5 0 0 0 - - -;
#X obj 1235 -35 ctlin 93;
#X obj 1245 -5 usss.zmap 0 127 0 0.2;
#X floatatom 1375 -31 5 0 0 0 - - -;
#X floatatom 1336 -33 5 0 0 0 - - -;
#X floatatom 390 335 5 0 0 0 - - -;
#X obj 836 645 usss.shapee myshap1;
#X obj 1043 645 usss.shapee myshap2;
#X obj 1203 145 usss.varispeed myvs2;
#X obj 1325 330 usss.varispeed myvs3;
#X obj 37 -19 declare -path ../../ussstools;
#X connect 2 0 1 1;
#X connect 3 0 1 0;
#X connect 4 0 1 3;
#X connect 5 0 1 2;
#X connect 6 0 59 0;
#X connect 6 1 59 1;
#X connect 7 0 6 4;
#X connect 8 0 6 2;
#X connect 8 0 14 0;
#X connect 9 0 6 0;
#X connect 9 1 6 1;
#X connect 11 0 6 3;
#X connect 11 0 10 0;
#X connect 12 0 13 0;
#X connect 12 1 13 1;
#X connect 13 0 59 2;
#X connect 13 0 60 3;
#X connect 13 1 59 3;
#X connect 13 1 60 2;
#X connect 16 0 15 0;
#X connect 17 0 16 0;
#X connect 18 0 17 0;
#X connect 19 0 59 0;
#X connect 19 1 59 1;
#X connect 20 0 48 0;
#X connect 21 0 19 0;
#X connect 21 0 9 0;
#X connect 21 1 19 1;
#X connect 21 1 9 1;
#X connect 23 0 60 0;
#X connect 23 1 60 1;
#X connect 24 0 23 0;
#X connect 24 0 25 0;
#X connect 24 1 23 1;
#X connect 24 1 25 1;
#X connect 25 0 28 0;
#X connect 25 1 28 1;
#X connect 28 0 60 0;
#X connect 28 1 60 1;
#X connect 29 0 28 4;
#X connect 30 0 28 2;
#X connect 30 0 26 0;
#X connect 31 0 28 3;
#X connect 31 0 27 0;
#X connect 32 0 34 0;
#X connect 32 0 8 0;
#X connect 32 0 30 0;
#X connect 33 0 32 0;
#X connect 34 0 35 1;
#X connect 35 0 37 0;
#X connect 36 0 35 0;
#X connect 37 0 32 1;
#X connect 37 0 11 0;
#X connect 37 0 31 0;
#X connect 38 0 32 1;
#X connect 38 0 37 0;
#X connect 39 0 38 0;
#X connect 40 0 39 4;
#X connect 41 0 42 0;
#X connect 41 0 43 0;
#X connect 45 0 39 0;
#X connect 45 1 44 0;
#X connect 46 0 41 0;
#X connect 47 0 41 4;
#X connect 48 0 8 0;
#X connect 48 0 30 0;
#X connect 48 1 7 0;
#X connect 48 2 29 0;
#X connect 51 0 49 0;
#X connect 51 0 50 0;
#X connect 52 1 53 0;
#X connect 54 0 55 0;
#X connect 55 0 51 0;
#X connect 56 0 55 4;
#X connect 57 0 55 3;
#X connect 58 0 34 1;
#X connect 59 0 22 0;
#X connect 59 1 22 1;
#X connect 60 0 22 2;
#X connect 60 1 22 3;
