#N canvas 1616 293 772 548 10;
#X declare -stdpath /usr/lib/pd/extra/tof;
#X declare -stdpath /home/adrian/usss_coursebook/ussstools;
#X obj 137 541 dac~;
#X obj 565 153 soundfiler;
#N canvas 0 0 450 300 (subpatch) 0;
#X array array1 4e+06 float 2;
#X coords 0 1 4e+06 -1 200 140 1;
#X restore 505 204 graph;
#N canvas 0 0 450 300 (subpatch) 0;
#X array array2 4e+06 float 2;
#X coords 0 1 4e+06 -1 200 140 1;
#X restore 505 365 graph;
#X obj 62 409 tabread4~ array1;
#X obj 176 407 tabread4~ array2;
#X obj 101 372 line~;
#X obj 130 473 *~;
#X obj 189 445 hsl 128 15 0 1 0 0 empty empty empty -2 -8 0 10 -260097
-1 -1 0 1;
#X floatatom 189 485 5 0 0 0 - - -;
#X obj 155 474 *~;
#X msg 207 47 \; pd dsp \$1;
#X obj 204 17 tgl 15 0 empty empty empty 17 7 0 10 -262144 -1 -1 0
1;
#X msg 43 28 0 \, 44100 5000;
#X obj 158 114 metro;
#X obj 158 84 tgl 15 0 empty empty empty 17 7 0 10 -262144 -1 -1 0
1;
#X floatatom 159 218 10 0 0 0 - - -;
#X floatatom 197 88 5 0 0 0 - - -;
#X obj 101 246 t f f;
#X obj 112 316 pack 0 0 0;
#X msg 94 348 \$1 \, \$2 \$3;
#X obj 157 147 random 100;
#X obj 159 187 * 4410;
#X obj 183 270 + 44100;
#X obj 212 331 float;
#X floatatom 295 308 5 0 0 0 - - -;
#X obj 183 292 t f b;
#X floatatom 278 227 5 0 0 0 - - -;
#X obj 295 285 / 44.1;
#X obj 256 261 float;
#X obj 254 225 bng 15 250 50 0 empty empty empty 17 7 0 10 -262144
-1 -1;
#X obj 280 156 hsl 128 15 0 44100 0 0 empty empty empty -2 -8 0 10
-262144 -1 -1 0 1;
#X msg 532 114 read -resize \$1 array1 array2;
#X obj 530 85 openpanel;
#X obj 535 56 bng 15 250 50 0 empty empty empty 17 7 0 10 -262144 -1
-1;
#X obj 341 11 declare -stdpath /usr/lib/pd/extra/tof;
#X obj 343 37 declare -stdpath /home/adrian/usss_coursebook/ussstools
;
#X connect 4 0 7 0;
#X connect 5 0 10 0;
#X connect 6 0 4 0;
#X connect 6 0 5 0;
#X connect 7 0 0 0;
#X connect 8 0 7 1;
#X connect 8 0 9 0;
#X connect 8 0 10 1;
#X connect 10 0 0 1;
#X connect 12 0 11 0;
#X connect 14 0 21 0;
#X connect 14 0 30 0;
#X connect 15 0 14 0;
#X connect 16 0 18 0;
#X connect 17 0 14 1;
#X connect 18 0 19 0;
#X connect 18 1 23 0;
#X connect 19 0 20 0;
#X connect 20 0 6 0;
#X connect 21 0 22 0;
#X connect 22 0 16 0;
#X connect 23 0 26 0;
#X connect 24 0 19 2;
#X connect 25 0 24 1;
#X connect 26 0 19 1;
#X connect 26 1 24 0;
#X connect 27 0 29 1;
#X connect 28 0 25 0;
#X connect 29 0 23 1;
#X connect 29 0 28 0;
#X connect 30 0 29 0;
#X connect 31 0 27 0;
#X connect 32 0 1 0;
#X connect 33 0 32 0;
#X connect 34 0 33 0;
