#N canvas 230 195 1050 676 10;
#X declare -path ../../ussstools;
#X obj 83 474 usss.output myout;
#X obj 761 109 bcf2000control;
#X obj 771 203 r f1;
#X obj 769 233 s mysh.transposition;
#X obj 772 268 r f2;
#X obj 770 298 s mysh.chunksize;
#X obj 771 358 s mysh.precision;
#X obj 773 328 r f3;
#X obj 647 521 s mysf1.play;
#X obj 652 549 s mysf2.play;
#X obj 620 469 tgl 15 0 empty empty empty 17 7 0 10 -262144 -1 -1 0
1;
#X obj 100 34 usss.granularX myg;
#X obj 439 64 declare -path ../../ussstools;
#X connect 2 0 3 0;
#X connect 4 0 5 0;
#X connect 7 0 6 0;
#X connect 10 0 8 0;
#X connect 10 0 9 0;
#X connect 11 0 0 0;
#X connect 11 1 0 1;
#X connect 11 2 0 0;
#X connect 11 3 0 1;
#X connect 11 4 0 0;
#X connect 11 5 0 1;
#X connect 11 6 0 0;
#X connect 11 7 0 1;
