#N canvas 154 248 717 588 10;
#X declare -path ../../ussstools;
#X obj 80 244 usss.output4 my4out;
#X obj 80 49 usss.sfplay4 mysf4;
#X obj 78 21 declare -path ../../ussstools;
#X connect 1 0 0 0;
#X connect 1 1 0 1;
#X connect 1 2 0 2;
#X connect 1 3 0 3;
