#N canvas 91 89 1093 834 10;
#X declare -path ../../ussstools;
#X obj 160 510 usss.output6 my6out;
#N canvas 1280 109 783 827 players 1;
#X obj 285 12 usss.sfplay4 mysf4;
#X obj 505 20 usss.sfplay6 mysf6;
#X obj 56 25 usss.sfplay mysf;
#X obj 53 541 outlet~;
#X obj 128 542 outlet~;
#X obj 206 540 outlet~;
#X obj 285 539 outlet~;
#X obj 370 537 outlet~;
#X obj 474 535 outlet~;
#X obj 115 246 usss.reverb myr1;
#X obj 538 252 usss.reverb myr3;
#X obj 329 253 usss.reverb myr2;
#X connect 0 0 9 0;
#X connect 0 1 9 1;
#X connect 0 2 10 0;
#X connect 0 3 10 1;
#X connect 1 0 9 0;
#X connect 1 1 9 1;
#X connect 1 2 11 0;
#X connect 1 3 11 1;
#X connect 1 4 10 0;
#X connect 1 5 10 1;
#X connect 2 0 9 0;
#X connect 2 1 9 1;
#X connect 9 0 3 0;
#X connect 9 1 4 0;
#X connect 10 0 7 0;
#X connect 10 1 8 0;
#X connect 11 0 5 0;
#X connect 11 1 6 0;
#X restore 88 271 pd players;
#N canvas 2137 106 925 524 bcfcontrol 0;
#X obj 77 63 ctlin;
#X obj 45 117 nbx 5 14 -1e+37 1e+37 0 0 empty empty empty 0 -6 0 10
-262144 -1 -1 0 256;
#X obj 113 117 nbx 5 14 -1e+37 1e+37 0 0 empty empty empty 0 -6 0 10
-262144 -1 -1 0 256;
#X text 245 59 make sure you have alsa-midi and bcf2000 - pd connected
;
#X obj 45 229 route 81 82 83 84 85 86 87 88;
#X obj 282 229 route 1 2 3 4 5 6 7 8;
#X obj 69 172 swap;
#X floatatom 39 263 5 0 0 0 - - -;
#X floatatom 53 305 5 0 0 0 - - -;
#X floatatom 70 286 5 0 0 0 - - -;
#X floatatom 97 308 5 0 0 0 - - -;
#X floatatom 110 283 5 0 0 0 - - -;
#X floatatom 143 307 5 0 0 0 - - -;
#X floatatom 162 282 5 0 0 0 - - -;
#X floatatom 197 283 5 0 0 0 - - -;
#X obj 69 144 pack 0 0;
#X obj 69 198 pack;
#X text 646 177 bcfader = preset number bcdial = preset dial bccontrol
1 - 16 = 1 - 8 fader 9 - 16 dial;
#X obj 654 381 bcf2000fader 0 127 0 1 f8;
#X text 332 207 dials;
#X text 112 208 faders;
#X obj 40 351 bcf2000fader 0 127 0 1 f1;
#X obj 278 261 bcf2000fader 0 127 0 1 d1;
#X obj 327 305 bcf2000fader 0 127 0 1 d3;
#X obj 295 284 bcf2000fader 0 127 0 2 d2;
#X obj 487 303 bcf2000fader 0 127 0 500 d4;
#X obj 659 303 bcf2000fader 0 127 0 1000 d5;
#X obj 218 351 bcf2000fader 0 127 0 1 f2;
#X obj 398 352 bcf2000fader 0 127 0 1 f3;
#X obj 558 352 bcf2000fader 0 127 0 1 f4;
#X obj 158 383 bcf2000fader 0 127 0 1 f5;
#X obj 330 383 bcf2000fader 0 127 0 1 f6;
#X obj 495 380 bcf2000fader 0 127 0 1 f7;
#X connect 0 0 1 0;
#X connect 0 1 2 0;
#X connect 1 0 15 0;
#X connect 2 0 15 1;
#X connect 4 0 7 0;
#X connect 4 1 8 0;
#X connect 4 2 9 0;
#X connect 4 3 10 0;
#X connect 4 4 11 0;
#X connect 4 5 12 0;
#X connect 4 6 13 0;
#X connect 4 7 14 0;
#X connect 4 8 5 0;
#X connect 5 0 22 0;
#X connect 5 1 24 0;
#X connect 5 2 23 0;
#X connect 5 3 25 0;
#X connect 5 4 26 0;
#X connect 6 0 16 0;
#X connect 6 1 16 1;
#X connect 7 0 21 0;
#X connect 8 0 27 0;
#X connect 9 0 28 0;
#X connect 10 0 29 0;
#X connect 11 0 30 0;
#X connect 12 0 31 0;
#X connect 13 0 32 0;
#X connect 14 0 18 0;
#X connect 15 0 6 0;
#X connect 16 0 4 0;
#X restore 268 73 pd bcfcontrol;
#X obj 484 356 usss.shapee mys2;
#X obj 282 351 usss.shapee mys2;
#X obj 52 349 usss.shapee mys2;
#X obj 550 529 r f1;
#X obj 555 562 s mys2.morph;
#X obj 772 24 usss.sfplay6 mysfplay6a;
#X obj 783 461 usss.sfplay6 mysfplay6b;
#X obj 803 302 r f2;
#X obj 874 300 r f3;
#X obj 943 296 r f4;
#X obj 795 333 s myr1.dry;
#X obj 866 331 s myr2.dry;
#X obj 936 325 s myr3.dry;
#X obj 796 363 r f5;
#X obj 867 361 r f6;
#X obj 936 357 r f7;
#X obj 929 386 s myr3.wet;
#X obj 859 393 s myr2.wet;
#X obj 788 394 s myr1.wet;
#X obj 440 -58 usss.granular mygran;
#X obj 115 4 declare -path ../../ussstools;
#X connect 1 0 5 0;
#X connect 1 1 5 1;
#X connect 1 2 4 0;
#X connect 1 3 4 1;
#X connect 1 4 3 0;
#X connect 1 5 3 1;
#X connect 3 0 0 4;
#X connect 3 1 0 5;
#X connect 4 0 0 2;
#X connect 4 1 0 3;
#X connect 5 0 0 0;
#X connect 5 1 0 1;
#X connect 6 0 7 0;
#X connect 8 0 5 2;
#X connect 8 1 5 3;
#X connect 8 2 4 2;
#X connect 8 3 4 3;
#X connect 8 4 3 2;
#X connect 8 5 3 3;
#X connect 9 0 0 0;
#X connect 9 1 0 1;
#X connect 9 2 0 2;
#X connect 9 3 0 3;
#X connect 9 4 0 4;
#X connect 9 5 0 5;
#X connect 10 0 13 0;
#X connect 11 0 14 0;
#X connect 12 0 15 0;
#X connect 16 0 21 0;
#X connect 17 0 20 0;
#X connect 18 0 19 0;
#X connect 22 0 5 2;
#X connect 22 0 4 2;
#X connect 22 0 3 2;
#X connect 22 1 5 3;
#X connect 22 1 4 3;
#X connect 22 1 3 3;
