#N canvas 104 103 745 643 10;
#X declare -path ../../ussstools;
#X obj -132 36 usss.sfplay4 mysf4;
#X obj -129 388 usss.output6 my6out;
#X obj 87 35 usss.sfplay6 mysf6;
#X obj -341 35 usss.sfplay mysf;
#X obj -130 8 declare -path ../../ussstools;
#X connect 0 0 1 0;
#X connect 0 1 1 1;
#X connect 0 2 1 4;
#X connect 0 2 1 2;
#X connect 0 3 1 5;
#X connect 0 3 1 3;
#X connect 2 0 1 0;
#X connect 2 1 1 1;
#X connect 2 2 1 2;
#X connect 2 3 1 3;
#X connect 2 4 1 4;
#X connect 2 5 1 5;
#X connect 3 0 1 0;
#X connect 3 1 1 1;
