#N canvas 43 108 1237 819 10;
#X declare -path ../../ussstools;
#X obj 52 394 usss.output6 my6out;
#N canvas 1777 82 783 369 players 1;
#X obj 285 12 usss.sfplay4 mysf4;
#X obj 505 20 usss.sfplay6 mysf6;
#X obj 56 25 usss.sfplay mysf;
#X obj 120 303 outlet~;
#X obj 195 304 outlet~;
#X obj 273 302 outlet~;
#X obj 352 301 outlet~;
#X obj 437 299 outlet~;
#X obj 541 297 outlet~;
#X connect 0 0 3 0;
#X connect 0 1 4 0;
#X connect 0 2 7 0;
#X connect 0 3 8 0;
#X connect 1 0 3 0;
#X connect 1 1 4 0;
#X connect 1 2 5 0;
#X connect 1 3 6 0;
#X connect 1 4 7 0;
#X connect 1 5 8 0;
#X connect 2 0 3 0;
#X connect 2 1 4 0;
#X restore 89 93 pd players;
#X obj 1435 309 r f1;
#X obj 1437 342 s my6out.amp;
#N canvas 2137 106 925 524 bcfcontrol 0;
#X obj 77 63 ctlin;
#X obj 45 117 nbx 5 14 -1e+37 1e+37 0 0 empty empty empty 0 -6 0 10
-262144 -1 -1 0 256;
#X obj 113 117 nbx 5 14 -1e+37 1e+37 0 0 empty empty empty 0 -6 0 10
-262144 -1 -1 0 256;
#X text 245 59 make sure you have alsa-midi and bcf2000 - pd connected
;
#X obj 45 229 route 81 82 83 84 85 86 87 88;
#X obj 282 229 route 1 2 3 4 5 6 7 8;
#X obj 69 172 swap;
#X floatatom 39 263 5 0 0 0 - - -;
#X floatatom 53 305 5 0 0 0 - - -;
#X floatatom 70 286 5 0 0 0 - - -;
#X floatatom 97 308 5 0 0 0 - - -;
#X floatatom 110 283 5 0 0 0 - - -;
#X floatatom 143 307 5 0 0 0 - - -;
#X floatatom 162 282 5 0 0 0 - - -;
#X floatatom 197 283 5 0 0 0 - - -;
#X obj 69 144 pack 0 0;
#X obj 69 198 pack;
#X text 646 177 bcfader = preset number bcdial = preset dial bccontrol
1 - 16 = 1 - 8 fader 9 - 16 dial;
#X obj 654 381 bcf2000fader 0 127 0 1 f8;
#X text 332 207 dials;
#X text 112 208 faders;
#X obj 40 351 bcf2000fader 0 127 0 1 f1;
#X obj 278 261 bcf2000fader 0 127 0 1 d1;
#X obj 218 351 bcf2000fader 0 127 -15 15 f2;
#X obj 398 352 bcf2000fader 0 127 -15 15 f3;
#X obj 559 351 bcf2000fader 0 127 -15 15 f4;
#X obj 327 305 bcf2000fader 0 127 0 1 d3;
#X obj 295 284 bcf2000fader 0 127 0 2 d2;
#X obj 487 303 bcf2000fader 0 127 0 500 d4;
#X obj 659 303 bcf2000fader 0 127 0 1000 d5;
#X obj 170 382 bcf2000fader 0 127 0 300 f5;
#X obj 330 383 bcf2000fader 0 127 0 300 f6;
#X obj 495 380 bcf2000fader 0 127 0 300 f7;
#X connect 0 0 1 0;
#X connect 0 1 2 0;
#X connect 1 0 15 0;
#X connect 2 0 15 1;
#X connect 4 0 7 0;
#X connect 4 1 8 0;
#X connect 4 2 9 0;
#X connect 4 3 10 0;
#X connect 4 4 11 0;
#X connect 4 5 12 0;
#X connect 4 6 13 0;
#X connect 4 7 14 0;
#X connect 4 8 5 0;
#X connect 5 0 22 0;
#X connect 5 1 27 0;
#X connect 5 2 26 0;
#X connect 5 3 28 0;
#X connect 5 4 29 0;
#X connect 6 0 16 0;
#X connect 6 1 16 1;
#X connect 7 0 21 0;
#X connect 8 0 23 0;
#X connect 9 0 24 0;
#X connect 10 0 25 0;
#X connect 11 0 30 0;
#X connect 12 0 31 0;
#X connect 13 0 32 0;
#X connect 14 0 18 0;
#X connect 15 0 6 0;
#X connect 16 0 4 0;
#X restore 1373 43 pd bcfcontrol;
#X obj 960 295 r f2;
#X obj 1002 296 r f3;
#X obj 1040 294 r f4;
#X obj 1067 371 r f5;
#X obj 1109 372 r f6;
#X obj 1147 370 r f7;
#X obj 1424 446 s myg1.graingain;
#X obj 1426 484 s myg2.graingain;
#X obj 1428 536 s myg3.graingain;
#X obj 1365 419 r f8;
#X obj 1306 177 r d1;
#X obj 1365 475 - 0.3;
#X floatatom 1385 451 5 0 0 0 - - -;
#X obj 1403 97 r d2;
#X obj 1406 131 s myg1.mainpitch;
#X obj 1415 160 s myg2.mainpitch;
#X obj 1425 186 s myg3.mainpitch;
#X floatatom 1439 104 5 0 0 0 - - -;
#X obj 1134 55 r d3;
#X obj 1131 98 s myps4.gainL;
#X obj 1304 95 s myps6.gainL;
#X obj 1219 96 s myps5.gainL;
#X obj 1133 123 s myps4.gainR;
#X obj 1221 120 s myps5.gainR;
#X obj 1307 119 s myps6.gainR;
#N canvas 1860 464 700 415 envelopes 1;
#X obj 45 40 inlet~;
#X obj 115 41 inlet~;
#X obj 287 36 inlet~;
#X obj 370 39 inlet~;
#X obj 478 28 inlet~;
#X obj 545 25 inlet~;
#X obj 34 316 outlet~;
#X obj 114 317 outlet~;
#X obj 277 315 outlet~;
#X obj 185 318 outlet~;
#X obj 471 312 outlet~;
#X obj 552 306 outlet~;
#X obj 29 70 usss.envelope myenv1;
#X obj 234 70 usss.envelope myenv2;
#X obj 439 71 usss.envelope myenv3;
#X connect 0 0 12 0;
#X connect 1 0 12 1;
#X connect 2 0 13 0;
#X connect 3 0 13 1;
#X connect 4 0 14 0;
#X connect 5 0 14 1;
#X connect 12 0 6 0;
#X connect 12 1 7 0;
#X connect 13 0 9 0;
#X connect 13 1 8 0;
#X connect 14 0 10 0;
#X connect 14 1 11 0;
#X restore 85 140 pd envelopes;
#N canvas 1633 305 927 499 reverbs 1;
#X obj 80 96 inlet~;
#X obj 150 97 inlet~;
#X obj 340 92 inlet~;
#X obj 423 95 inlet~;
#X obj 594 85 inlet~;
#X obj 661 82 inlet~;
#X obj 69 372 outlet~;
#X obj 149 373 outlet~;
#X obj 330 371 outlet~;
#X obj 238 374 outlet~;
#X obj 587 369 outlet~;
#X obj 668 363 outlet~;
#X obj 46 131 usss.reverb myr1;
#X obj 287 126 usss.reverb myr2;
#X obj 555 128 usss.reverb myr3;
#X connect 0 0 12 0;
#X connect 1 0 12 1;
#X connect 2 0 13 0;
#X connect 3 0 13 1;
#X connect 4 0 14 0;
#X connect 5 0 14 1;
#X connect 12 0 6 0;
#X connect 12 1 7 0;
#X connect 13 0 9 0;
#X connect 13 1 8 0;
#X connect 14 0 10 0;
#X connect 14 1 11 0;
#X restore 453 318 pd reverbs;
#X obj 655 127 key;
#X obj 657 173 sel 32;
#X obj 658 218 s myenv1.trigger;
#X obj 673 248 s myenv2.trigger;
#X obj 684 274 s myenv3.trigger;
#X floatatom 708 134 5 0 0 0 - - -;
#X obj 790 93 r d4;
#X obj 878 111 s myenv1.total_time;
#X obj 878 139 s myenv2.total_time;
#X obj 878 170 s myenv3.total_time;
#X floatatom 824 91 5 0 0 0 - - -;
#X obj 485 172 metro 100;
#X obj 485 125 tgl 15 0 empty empty empty 17 7 0 10 -262144 -1 -1 0
1;
#X floatatom 569 150 5 0 0 0 - - -;
#X obj 569 121 r d5;
#X obj 255 50 usss.sfplay myshapplay;
#X obj 335 396 usss.pitchshift myps1;
#X obj 554 399 usss.pitchshift myps2;
#X obj 771 401 usss.pitchshift myps3;
#X obj 1068 410 s myps1.window;
#X obj 1080 438 s myps2.window;
#X obj 1089 462 s myps3.window;
#X obj 1156 548 s myr1.freeze;
#X obj 1150 519 bng 15 250 50 0 empty empty empty 17 7 0 10 -262144
-1 -1;
#X obj 1157 571 s myr2.freeze;
#X obj 1155 598 s myr3.freeze;
#X obj 1308 210 s myps1.feedback;
#X obj 1309 237 s myps2.feedback;
#X obj 1319 260 s myps3.feedback;
#X obj 899 342 s myps1.transposition;
#X obj 1036 340 s myps2.transposition;
#X obj 1169 339 s myps3.transposition;
#X obj 702 33 tgl 33 0 empty empty empty 17 7 0 10 -262144 -1 -1 0
1;
#X obj 702 75 gate;
#X obj 36 16 declare -path ../../ussstools;
#X connect 1 0 30 0;
#X connect 1 1 30 1;
#X connect 1 2 30 2;
#X connect 1 3 30 3;
#X connect 1 4 30 4;
#X connect 1 5 30 5;
#X connect 2 0 3 0;
#X connect 5 0 61 0;
#X connect 6 0 62 0;
#X connect 7 0 63 0;
#X connect 8 0 51 0;
#X connect 9 0 52 0;
#X connect 10 0 53 0;
#X connect 14 0 11 0;
#X connect 14 0 16 0;
#X connect 15 0 58 0;
#X connect 15 0 59 0;
#X connect 15 0 60 0;
#X connect 16 0 12 0;
#X connect 16 0 13 0;
#X connect 17 0 16 1;
#X connect 18 0 19 0;
#X connect 18 0 20 0;
#X connect 18 0 21 0;
#X connect 18 0 22 0;
#X connect 23 0 24 0;
#X connect 23 0 27 0;
#X connect 23 0 26 0;
#X connect 23 0 28 0;
#X connect 23 0 25 0;
#X connect 23 0 29 0;
#X connect 30 0 31 0;
#X connect 30 1 31 1;
#X connect 30 2 31 2;
#X connect 30 3 31 3;
#X connect 30 4 31 4;
#X connect 30 5 31 5;
#X connect 31 0 48 0;
#X connect 31 1 48 1;
#X connect 31 2 49 0;
#X connect 31 3 49 1;
#X connect 31 4 50 0;
#X connect 31 5 50 1;
#X connect 32 0 33 0;
#X connect 32 0 37 0;
#X connect 33 0 34 0;
#X connect 33 0 35 0;
#X connect 33 0 36 0;
#X connect 38 0 42 0;
#X connect 42 0 39 0;
#X connect 42 0 40 0;
#X connect 42 0 41 0;
#X connect 43 0 34 0;
#X connect 43 0 35 0;
#X connect 43 0 36 0;
#X connect 44 0 43 0;
#X connect 45 0 43 1;
#X connect 45 0 65 1;
#X connect 46 0 45 0;
#X connect 48 0 0 0;
#X connect 48 1 0 1;
#X connect 49 0 0 2;
#X connect 49 1 0 3;
#X connect 50 0 0 4;
#X connect 50 1 0 5;
#X connect 55 0 54 0;
#X connect 55 0 56 0;
#X connect 55 0 57 0;
#X connect 64 0 65 0;
#X connect 65 0 42 0;
