#N canvas 93 221 1237 680 10;
#X declare -path ../../ussstools;
#X obj 48 348 usss.output6 my6out;
#N canvas 64 113 1212 659 players 0;
#X obj 382 66 usss.sfplay4 mysf4;
#X obj 602 74 usss.sfplay6 mysf6;
#X obj 153 79 usss.sfplay mysf;
#X obj 217 357 outlet~;
#X obj 292 358 outlet~;
#X obj 370 356 outlet~;
#X obj 449 355 outlet~;
#X obj 534 353 outlet~;
#X obj 638 351 outlet~;
#X connect 0 0 3 0;
#X connect 0 1 4 0;
#X connect 0 2 7 0;
#X connect 0 3 8 0;
#X connect 1 0 3 0;
#X connect 1 1 4 0;
#X connect 1 2 5 0;
#X connect 1 3 6 0;
#X connect 1 4 7 0;
#X connect 1 5 8 0;
#X connect 2 0 3 0;
#X connect 2 1 4 0;
#X restore -22 237 pd players;
#N canvas 1797 483 763 488 granulars 1;
#X obj -1486 17 usss.granular myg1;
#X obj -1268 19 usss.granular myg2;
#X obj -1056 20 usss.granular myg3;
#X obj -1476 374 outlet~;
#X obj -1267 377 outlet~;
#X obj -1338 386 outlet~;
#X obj -1098 381 outlet~;
#X obj -1029 375 outlet~;
#X obj -877 374 outlet~;
#X connect 0 0 3 0;
#X connect 0 1 5 0;
#X connect 1 0 4 0;
#X connect 1 1 6 0;
#X connect 2 0 7 0;
#X connect 2 1 8 0;
#X restore 230 89 pd granulars;
#X obj 1435 309 r f1;
#X obj 1437 342 s my6out.amp;
#N canvas 2137 106 925 524 bcfcontrol 0;
#X obj 77 63 ctlin;
#X obj 45 117 nbx 5 14 -1e+37 1e+37 0 0 empty empty empty 0 -6 0 10
-262144 -1 -1 0 256;
#X obj 113 117 nbx 5 14 -1e+37 1e+37 0 0 empty empty empty 0 -6 0 10
-262144 -1 -1 0 256;
#X text 245 59 make sure you have alsa-midi and bcf2000 - pd connected
;
#X obj 45 229 route 81 82 83 84 85 86 87 88;
#X obj 282 229 route 1 2 3 4 5 6 7 8;
#X obj 69 172 swap;
#X floatatom 39 263 5 0 0 0 - - -;
#X floatatom 53 305 5 0 0 0 - - -;
#X floatatom 70 286 5 0 0 0 - - -;
#X floatatom 97 308 5 0 0 0 - - -;
#X floatatom 110 283 5 0 0 0 - - -;
#X floatatom 143 307 5 0 0 0 - - -;
#X floatatom 162 282 5 0 0 0 - - -;
#X floatatom 197 283 5 0 0 0 - - -;
#X obj 69 144 pack 0 0;
#X obj 69 198 pack;
#X text 646 177 bcfader = preset number bcdial = preset dial bccontrol
1 - 16 = 1 - 8 fader 9 - 16 dial;
#X obj 170 382 bcf2000fader 0 127 0 1 f5;
#X obj 495 380 bcf2000fader 0 127 0 1 f7;
#X obj 654 381 bcf2000fader 0 127 0 1 f8;
#X text 332 207 dials;
#X text 112 208 faders;
#X obj 40 351 bcf2000fader 0 127 0 1 f1;
#X obj 330 383 bcf2000fader 0 127 0 1 f6;
#X obj 278 261 bcf2000fader 0 127 0 1 d1;
#X obj 218 351 bcf2000fader 0 127 -15 15 f2;
#X obj 398 352 bcf2000fader 0 127 -15 15 f3;
#X obj 559 351 bcf2000fader 0 127 -15 15 f4;
#X obj 327 305 bcf2000fader 0 127 0 1 d3;
#X obj 295 284 bcf2000fader 0 127 0 2 d2;
#X obj 487 303 bcf2000fader 0 127 0 500 d4;
#X obj 659 303 bcf2000fader 0 127 0 500 d5;
#X connect 0 0 1 0;
#X connect 0 1 2 0;
#X connect 1 0 15 0;
#X connect 2 0 15 1;
#X connect 4 0 7 0;
#X connect 4 1 8 0;
#X connect 4 2 9 0;
#X connect 4 3 10 0;
#X connect 4 4 11 0;
#X connect 4 5 12 0;
#X connect 4 6 13 0;
#X connect 4 7 14 0;
#X connect 4 8 5 0;
#X connect 5 0 25 0;
#X connect 5 1 30 0;
#X connect 5 2 29 0;
#X connect 5 3 31 0;
#X connect 5 4 32 0;
#X connect 6 0 16 0;
#X connect 6 1 16 1;
#X connect 7 0 23 0;
#X connect 8 0 26 0;
#X connect 9 0 27 0;
#X connect 10 0 28 0;
#X connect 11 0 18 0;
#X connect 12 0 24 0;
#X connect 13 0 19 0;
#X connect 14 0 20 0;
#X connect 15 0 6 0;
#X connect 16 0 4 0;
#X restore 1373 43 pd bcfcontrol;
#X obj 960 295 r f2;
#X obj 1002 296 r f3;
#X obj 1040 294 r f4;
#X obj 973 386 r f5;
#X obj 1015 387 r f6;
#X obj 1053 385 r f7;
#X obj 912 433 s myg1.position;
#X obj 1077 426 s myg2.position;
#X obj 1191 423 s myg3.position;
#X obj 1424 446 s myg1.graingain;
#X obj 1426 484 s myg2.graingain;
#X obj 1428 536 s myg3.graingain;
#X obj 1365 419 r f8;
#X obj 1306 177 r d1;
#X obj 1365 475 - 0.3;
#X floatatom 1385 451 5 0 0 0 - - -;
#X obj 1403 97 r d2;
#X obj 1406 131 s myg1.mainpitch;
#X obj 1415 160 s myg2.mainpitch;
#X obj 1425 186 s myg3.mainpitch;
#X floatatom 1439 104 5 0 0 0 - - -;
#N canvas 1707 82 853 468 pitchshifters 1;
#X obj 47 57 inlet~;
#X obj 215 59 inlet~;
#X obj 267 62 inlet~;
#X obj 424 56 inlet~;
#X obj 474 55 inlet~;
#X obj 631 56 inlet~;
#X obj 43 361 outlet~;
#X obj 217 361 outlet~;
#X obj 261 359 outlet~;
#X obj 437 363 outlet~;
#X obj 488 360 outlet~;
#X obj 656 351 outlet~;
#X obj 44 94 usss.pitchshift myps4;
#X obj 254 90 usss.pitchshift myps5;
#X obj 462 94 usss.pitchshift myps6;
#X connect 0 0 12 0;
#X connect 1 0 12 1;
#X connect 2 0 13 0;
#X connect 3 0 13 1;
#X connect 4 0 14 0;
#X connect 5 0 14 1;
#X connect 12 0 6 0;
#X connect 12 1 7 0;
#X connect 13 0 8 0;
#X connect 13 1 9 0;
#X connect 14 0 10 0;
#X connect 14 1 11 0;
#X restore 243 144 pd pitchshifters;
#X obj 1134 55 r d3;
#X obj 1131 98 s myps4.gainL;
#X obj 1304 95 s myps6.gainL;
#X obj 1219 96 s myps5.gainL;
#X obj 1133 123 s myps4.gainR;
#X obj 1221 120 s myps5.gainR;
#X obj 899 342 s myps4.transposition;
#X obj 1064 335 s myps5.transposition;
#X obj 1178 332 s myps6.transposition;
#X obj 1307 119 s myps6.gainR;
#X obj 1308 210 s myps4.feedback;
#X obj 1309 237 s myps5.feedback;
#X obj 1320 260 s myps6.feedback;
#N canvas 353 136 927 499 envelopes 0;
#X obj 80 96 inlet~;
#X obj 150 97 inlet~;
#X obj 340 92 inlet~;
#X obj 423 95 inlet~;
#X obj 594 85 inlet~;
#X obj 661 82 inlet~;
#X obj 69 372 outlet~;
#X obj 149 373 outlet~;
#X obj 330 371 outlet~;
#X obj 238 374 outlet~;
#X obj 587 369 outlet~;
#X obj 668 363 outlet~;
#X obj 64 126 usss.envelope myenv1;
#X obj 287 126 usss.envelope myenv2;
#X obj 555 128 usss.envelope myenv3;
#X connect 0 0 12 0;
#X connect 1 0 12 1;
#X connect 2 0 13 0;
#X connect 3 0 13 1;
#X connect 4 0 14 0;
#X connect 5 0 14 1;
#X connect 12 0 6 0;
#X connect 12 1 7 0;
#X connect 13 0 9 0;
#X connect 13 1 8 0;
#X connect 14 0 10 0;
#X connect 14 1 11 0;
#X restore 250 189 pd envelopes;
#N canvas 786 125 927 499 reverbs 0;
#X obj 80 96 inlet~;
#X obj 150 97 inlet~;
#X obj 340 92 inlet~;
#X obj 423 95 inlet~;
#X obj 594 85 inlet~;
#X obj 661 82 inlet~;
#X obj 69 372 outlet~;
#X obj 149 373 outlet~;
#X obj 330 371 outlet~;
#X obj 238 374 outlet~;
#X obj 587 369 outlet~;
#X obj 668 363 outlet~;
#X obj 46 131 usss.reverb myr1;
#X obj 287 126 usss.reverb myr2;
#X obj 555 128 usss.reverb myr3;
#X connect 0 0 12 0;
#X connect 1 0 12 1;
#X connect 2 0 13 0;
#X connect 3 0 13 1;
#X connect 4 0 14 0;
#X connect 5 0 14 1;
#X connect 12 0 6 0;
#X connect 12 1 7 0;
#X connect 13 0 9 0;
#X connect 13 1 8 0;
#X connect 14 0 10 0;
#X connect 14 1 11 0;
#X restore 248 229 pd reverbs;
#X obj 655 127 key;
#X obj 657 173 sel 32;
#X obj 658 218 s myenv1.trigger;
#X obj 673 248 s myenv2.trigger;
#X obj 684 274 s myenv3.trigger;
#X floatatom 708 134 5 0 0 0 - - -;
#X obj 631 397 r d4;
#X obj 625 443 s myenv1.total_time;
#X obj 625 471 s myenv2.total_time;
#X obj 625 502 s myenv3.total_time;
#X floatatom 681 392 5 0 0 0 - - -;
#X obj 485 172 metro 100;
#X obj 485 125 tgl 15 0 empty empty empty 17 7 0 10 -262144 -1 -1 0
1;
#X floatatom 569 170 5 0 0 0 - - -;
#X obj 550 130 r d5;
#X obj 552 269 random;
#X obj 544 310 +;
#X floatatom 576 307 5 0 0 0 - - -;
#X floatatom 540 341 5 0 0 0 - - -;
#X obj 82 21 declare -path ../../ussstools;
#X connect 1 0 0 0;
#X connect 1 1 0 1;
#X connect 1 2 0 2;
#X connect 1 3 0 3;
#X connect 1 4 0 4;
#X connect 1 5 0 5;
#X connect 2 0 27 0;
#X connect 2 1 27 1;
#X connect 2 2 27 2;
#X connect 2 3 27 3;
#X connect 2 4 27 4;
#X connect 2 5 27 5;
#X connect 3 0 4 0;
#X connect 6 0 34 0;
#X connect 7 0 35 0;
#X connect 8 0 36 0;
#X connect 9 0 12 0;
#X connect 10 0 13 0;
#X connect 11 0 14 0;
#X connect 18 0 15 0;
#X connect 18 0 20 0;
#X connect 19 0 38 0;
#X connect 19 0 39 0;
#X connect 19 0 40 0;
#X connect 20 0 16 0;
#X connect 20 0 17 0;
#X connect 21 0 20 1;
#X connect 22 0 23 0;
#X connect 22 0 24 0;
#X connect 22 0 25 0;
#X connect 22 0 26 0;
#X connect 27 0 41 0;
#X connect 27 1 41 1;
#X connect 27 2 41 2;
#X connect 27 3 41 3;
#X connect 27 4 41 4;
#X connect 27 5 41 5;
#X connect 28 0 29 0;
#X connect 28 0 32 0;
#X connect 28 0 31 0;
#X connect 28 0 33 0;
#X connect 28 0 30 0;
#X connect 28 0 37 0;
#X connect 41 0 42 0;
#X connect 41 1 42 1;
#X connect 41 2 42 2;
#X connect 41 3 42 3;
#X connect 41 4 42 4;
#X connect 41 5 42 5;
#X connect 42 0 0 0;
#X connect 42 1 0 1;
#X connect 42 2 0 2;
#X connect 42 3 0 3;
#X connect 42 4 0 4;
#X connect 42 5 0 5;
#X connect 43 0 44 0;
#X connect 43 0 48 0;
#X connect 44 0 45 0;
#X connect 44 0 46 0;
#X connect 44 0 47 0;
#X connect 49 0 50 0;
#X connect 49 0 51 0;
#X connect 49 0 52 0;
#X connect 49 0 53 0;
#X connect 54 0 45 0;
#X connect 54 0 46 0;
#X connect 54 0 47 0;
#X connect 54 0 58 0;
#X connect 55 0 54 0;
#X connect 56 0 58 1;
#X connect 57 0 56 0;
#X connect 58 0 59 0;
#X connect 59 0 54 1;
#X connect 59 0 61 0;
#X connect 60 0 59 1;
