#N canvas 78 244 1050 680 10;
#X declare -path ../../ussstools;
#X obj 48 348 usss.output6 my6out;
#N canvas 64 113 1212 659 players 0;
#X obj 382 66 usss.sfplay4 mysf4;
#X obj 602 74 usss.sfplay6 mysf6;
#X obj 153 79 usss.sfplay mysf;
#X obj 217 357 outlet~;
#X obj 292 358 outlet~;
#X obj 370 356 outlet~;
#X obj 449 355 outlet~;
#X obj 534 353 outlet~;
#X obj 638 351 outlet~;
#X connect 0 0 3 0;
#X connect 0 1 4 0;
#X connect 0 2 7 0;
#X connect 0 3 8 0;
#X connect 1 0 3 0;
#X connect 1 1 4 0;
#X connect 1 2 5 0;
#X connect 1 3 6 0;
#X connect 1 4 7 0;
#X connect 1 5 8 0;
#X connect 2 0 3 0;
#X connect 2 1 4 0;
#X restore -22 237 pd players;
#N canvas 1797 379 763 488 granulars 1;
#X obj -1486 17 usss.granular myg1;
#X obj -1268 19 usss.granular myg2;
#X obj -1056 20 usss.granular myg3;
#X obj -1476 374 outlet~;
#X obj -1267 377 outlet~;
#X obj -1338 386 outlet~;
#X obj -1098 381 outlet~;
#X obj -1029 375 outlet~;
#X obj -877 374 outlet~;
#X connect 0 0 3 0;
#X connect 0 1 5 0;
#X connect 1 0 4 0;
#X connect 1 1 6 0;
#X connect 2 0 7 0;
#X connect 2 1 8 0;
#X restore 230 89 pd granulars;
#N canvas 1280 82 853 468 pitchshifters 1;
#X obj 44 94 usss.pitchshift myps1;
#X obj 254 91 usss.pitchshift myps2;
#X obj 461 93 usss.pitchshift myps3;
#X obj 47 57 inlet~;
#X obj 215 59 inlet~;
#X obj 267 62 inlet~;
#X obj 424 56 inlet~;
#X obj 474 55 inlet~;
#X obj 631 56 inlet~;
#X obj 43 361 outlet~;
#X obj 217 361 outlet~;
#X obj 261 359 outlet~;
#X obj 437 363 outlet~;
#X obj 488 360 outlet~;
#X obj 656 351 outlet~;
#X connect 0 0 9 0;
#X connect 0 1 10 0;
#X connect 1 0 11 0;
#X connect 1 1 12 0;
#X connect 2 0 13 0;
#X connect 2 1 14 0;
#X connect 3 0 0 0;
#X connect 4 0 0 1;
#X connect 5 0 1 0;
#X connect 6 0 1 1;
#X connect 7 0 2 0;
#X connect 8 0 2 1;
#X restore 230 158 pd pitchshifters;
#X obj 918 350 r f1;
#X obj 920 383 s my6out.amp;
#N canvas 2137 106 925 524 bcfcontrol 0;
#X obj 77 63 ctlin;
#X obj 45 117 nbx 5 14 -1e+37 1e+37 0 0 empty empty empty 0 -6 0 10
-262144 -1 -1 0 256;
#X obj 113 117 nbx 5 14 -1e+37 1e+37 0 0 empty empty empty 0 -6 0 10
-262144 -1 -1 0 256;
#X text 245 59 make sure you have alsa-midi and bcf2000 - pd connected
;
#X obj 45 229 route 81 82 83 84 85 86 87 88;
#X obj 282 229 route 1 2 3 4 5 6 7 8;
#X obj 69 172 swap;
#X floatatom 39 263 5 0 0 0 - - -;
#X floatatom 53 305 5 0 0 0 - - -;
#X floatatom 70 286 5 0 0 0 - - -;
#X floatatom 97 308 5 0 0 0 - - -;
#X floatatom 110 283 5 0 0 0 - - -;
#X floatatom 143 307 5 0 0 0 - - -;
#X floatatom 162 282 5 0 0 0 - - -;
#X floatatom 197 283 5 0 0 0 - - -;
#X obj 69 144 pack 0 0;
#X obj 69 198 pack;
#X text 646 177 bcfader = preset number bcdial = preset dial bccontrol
1 - 16 = 1 - 8 fader 9 - 16 dial;
#X obj 170 382 bcf2000fader 0 127 0 1 f5;
#X obj 495 380 bcf2000fader 0 127 0 1 f7;
#X obj 654 381 bcf2000fader 0 127 0 1 f8;
#X text 332 207 dials;
#X text 112 208 faders;
#X obj 40 351 bcf2000fader 0 127 0 1 f1;
#X obj 330 383 bcf2000fader 0 127 0 1 f6;
#X obj 278 261 bcf2000fader 0 127 0 1 d1;
#X obj 218 351 bcf2000fader 0 127 -15 15 f2;
#X obj 398 352 bcf2000fader 0 127 -15 15 f3;
#X obj 559 351 bcf2000fader 0 127 -15 15 f4;
#X obj 295 284 bcf2000fader 0 127 0 2 d2;
#X obj 327 305 bcf2000fader 0 127 0 2 d3;
#X connect 0 0 1 0;
#X connect 0 1 2 0;
#X connect 1 0 15 0;
#X connect 2 0 15 1;
#X connect 4 0 7 0;
#X connect 4 1 8 0;
#X connect 4 2 9 0;
#X connect 4 3 10 0;
#X connect 4 4 11 0;
#X connect 4 5 12 0;
#X connect 4 6 13 0;
#X connect 4 7 14 0;
#X connect 4 8 5 0;
#X connect 5 0 25 0;
#X connect 5 1 29 0;
#X connect 5 2 30 0;
#X connect 6 0 16 0;
#X connect 6 1 16 1;
#X connect 7 0 23 0;
#X connect 8 0 26 0;
#X connect 9 0 27 0;
#X connect 10 0 28 0;
#X connect 11 0 18 0;
#X connect 12 0 24 0;
#X connect 13 0 19 0;
#X connect 14 0 20 0;
#X connect 15 0 6 0;
#X connect 16 0 4 0;
#X restore 856 84 pd bcfcontrol;
#X obj 443 336 r f2;
#X obj 485 337 r f3;
#X obj 523 335 r f4;
#X obj 382 383 s myps1.transposition;
#X obj 547 376 s myps2.transposition;
#X obj 661 373 s myps3.transposition;
#X obj 456 427 r f5;
#X obj 498 428 r f6;
#X obj 536 426 r f7;
#X obj 395 474 s myg1.position;
#X obj 560 467 s myg2.position;
#X obj 674 464 s myg3.position;
#X obj 907 487 s myg1.graingain;
#X obj 909 525 s myg2.graingain;
#X obj 911 577 s myg3.graingain;
#X obj 848 460 r f8;
#X obj 395 198 gatethresh;
#X obj 231 222 6in6outgate;
#X obj 631 242 bng 15 250 50 0 empty empty empty 17 7 0 10 -262144
-1 -1;
#X msg 470 165 set 60 100 40 100;
#X msg 468 126 set 70 100 60 100;
#X obj 217 257 six-vdelays ades2 1000;
#X obj 629 265 s ades2.bang;
#X obj 789 218 r d1;
#X obj 791 251 s myps1.feedback;
#X obj 792 278 s myps2.feedback;
#X obj 803 301 s myps3.feedback;
#X floatatom 364 244 5 0 0 0 - - -;
#X obj 631 203 r gateoff;
#X msg 464 101 set 85 100 70 100;
#X floatatom 605 109 5 0 0 0 - - -;
#X floatatom 638 109 5 0 0 0 - - -;
#X msg 466 189 set \$1 100 \$2 100;
#X obj 605 148 pack 0 0;
#X obj 623 128 t b f;
#X obj 848 516 - 0.3;
#X floatatom 868 492 5 0 0 0 - - -;
#X obj 886 138 r d2;
#X obj 889 172 s myg1.mainpitch;
#X obj 898 201 s myg2.mainpitch;
#X obj 908 227 s myg3.mainpitch;
#X floatatom 922 145 5 0 0 0 - - -;
#N canvas 1707 82 853 468 pitchshifters 1;
#X obj 47 57 inlet~;
#X obj 215 59 inlet~;
#X obj 267 62 inlet~;
#X obj 424 56 inlet~;
#X obj 474 55 inlet~;
#X obj 631 56 inlet~;
#X obj 43 361 outlet~;
#X obj 217 361 outlet~;
#X obj 261 359 outlet~;
#X obj 437 363 outlet~;
#X obj 488 360 outlet~;
#X obj 656 351 outlet~;
#X obj 44 94 usss.pitchshift myps4;
#X obj 254 90 usss.pitchshift myps5;
#X obj 462 94 usss.pitchshift myps6;
#X connect 0 0 12 0;
#X connect 1 0 12 1;
#X connect 2 0 13 0;
#X connect 3 0 13 1;
#X connect 4 0 14 0;
#X connect 5 0 14 1;
#X connect 12 0 6 0;
#X connect 12 1 7 0;
#X connect 13 0 8 0;
#X connect 13 1 9 0;
#X connect 14 0 10 0;
#X connect 14 1 11 0;
#X restore 242 289 pd pitchshifters;
#X obj 755 75 r d3;
#X obj 757 108 s myps4.feedback;
#X obj 758 135 s myps5.feedback;
#X obj 769 158 s myps6.feedback;
#X obj 178 29 declare -path ../../ussstools;
#X connect 1 0 0 0;
#X connect 1 1 0 1;
#X connect 1 2 0 2;
#X connect 1 3 0 3;
#X connect 1 4 0 4;
#X connect 1 5 0 5;
#X connect 2 0 3 0;
#X connect 2 1 3 1;
#X connect 2 2 3 2;
#X connect 2 3 3 3;
#X connect 2 4 3 4;
#X connect 2 5 3 5;
#X connect 3 0 23 0;
#X connect 3 0 24 0;
#X connect 3 1 24 1;
#X connect 3 2 24 2;
#X connect 3 3 24 3;
#X connect 3 4 24 4;
#X connect 3 5 24 5;
#X connect 4 0 5 0;
#X connect 7 0 10 0;
#X connect 8 0 11 0;
#X connect 9 0 12 0;
#X connect 13 0 16 0;
#X connect 14 0 17 0;
#X connect 15 0 18 0;
#X connect 22 0 19 0;
#X connect 22 0 42 0;
#X connect 23 0 24 6;
#X connect 24 0 28 0;
#X connect 24 1 28 1;
#X connect 24 2 28 2;
#X connect 24 3 28 3;
#X connect 24 4 28 4;
#X connect 24 5 28 5;
#X connect 25 0 29 0;
#X connect 26 0 23 1;
#X connect 27 0 23 1;
#X connect 28 0 49 0;
#X connect 28 1 49 1;
#X connect 28 2 49 2;
#X connect 28 3 49 3;
#X connect 28 4 49 4;
#X connect 28 5 49 5;
#X connect 30 0 31 0;
#X connect 30 0 32 0;
#X connect 30 0 33 0;
#X connect 34 0 28 6;
#X connect 36 0 23 1;
#X connect 37 0 40 0;
#X connect 38 0 41 0;
#X connect 39 0 23 1;
#X connect 40 0 39 0;
#X connect 41 0 40 0;
#X connect 41 1 40 1;
#X connect 42 0 20 0;
#X connect 42 0 21 0;
#X connect 43 0 42 1;
#X connect 44 0 45 0;
#X connect 44 0 46 0;
#X connect 44 0 47 0;
#X connect 44 0 48 0;
#X connect 49 0 0 0;
#X connect 49 1 0 1;
#X connect 49 2 0 2;
#X connect 49 3 0 3;
#X connect 49 4 0 4;
#X connect 49 5 0 5;
#X connect 50 0 51 0;
#X connect 50 0 52 0;
#X connect 50 0 53 0;
