#N canvas 43 111 1237 811 10;
#X declare -path ../../ussstools;
#X obj 38 502 usss.output myout;
#X obj 506 99 blipvis;
#X floatatom 509 57 5 0 0 0 - - -;
#X obj 479 38 bng 15 250 50 0 empty empty empty 17 7 0 10 -262144 -1
-1;
#X floatatom 563 57 5 0 0 0 - - -;
#X obj 546 36 bng 15 250 50 0 empty empty empty 17 7 0 10 -262144 -1
-1;
#X obj 505 528 swishvis;
#X obj 583 483 tgl 15 0 empty empty empty 17 7 0 10 -262144 -1 -1 0
1;
#X obj 526 482 bng 15 250 50 0 empty empty empty 17 7 0 10 -262144
-1 -1;
#X obj 669 391 usss.envelope myenv;
#X obj 679 622 s myenv.total_time;
#X floatatom 547 479 5 0 0 0 - - -;
#X obj 458 139 usss.varispeed myvs;
#X obj 459 334 addoriginal;
#X obj 542 616 s myenv.trigger;
#X obj 434 477 s filterswipe;
#X floatatom 433 454 5 0 0 0 - - -;
#X msg 431 430 500;
#X obj 428 406 loadbang;
#X obj 763 332 addoriginal;
#X obj 507 424 key;
#X obj 528 448 sel 32;
#X obj 773 -15 usss.granular mygran;
#X obj 992 429 bcf2000control;
#X obj 992 466 r f1;
#X obj 1014 540 metro 100;
#X obj 1012 513 tgl 15 0 empty empty empty 17 7 0 10 -262144 -1 -1
0 1;
#X floatatom 1066 514 5 0 0 0 - - -;
#X obj 1067 484 r f2;
#X obj 1014 570 s myenv.trigger;
#X obj 985 626 r f3;
#X obj 985 656 s myenv.total_time;
#X obj 824 661 r f4;
#X obj 990 95 usss.delay myd;
#X obj 261 493 usss.pitchshift myps;
#X obj 174 415 addoriginal;
#X obj 896 641 r f5;
#X obj 888 683 s mygran.position;
#X obj 1122 605 r f6;
#X obj 1131 640 s mygran.mainpitch;
#X obj 118 12 declare -path ../../ussstools;
#X connect 2 0 1 1;
#X connect 3 0 1 0;
#X connect 4 0 1 3;
#X connect 5 0 1 2;
#X connect 6 0 34 0;
#X connect 6 0 35 0;
#X connect 6 1 34 1;
#X connect 6 1 35 1;
#X connect 7 0 6 4;
#X connect 8 0 6 2;
#X connect 8 0 14 0;
#X connect 9 0 6 0;
#X connect 9 0 33 0;
#X connect 9 1 6 1;
#X connect 9 1 33 1;
#X connect 11 0 6 3;
#X connect 12 0 13 0;
#X connect 12 1 13 1;
#X connect 13 0 9 0;
#X connect 13 1 9 1;
#X connect 16 0 15 0;
#X connect 17 0 16 0;
#X connect 18 0 17 0;
#X connect 19 0 9 0;
#X connect 19 1 9 1;
#X connect 20 0 21 0;
#X connect 21 0 8 0;
#X connect 22 0 19 0;
#X connect 22 1 19 1;
#X connect 24 0 16 0;
#X connect 25 0 29 0;
#X connect 26 0 25 0;
#X connect 27 0 25 1;
#X connect 28 0 27 0;
#X connect 30 0 31 0;
#X connect 32 0 11 0;
#X connect 33 0 6 0;
#X connect 33 1 6 1;
#X connect 34 0 0 0;
#X connect 34 1 0 1;
#X connect 35 0 0 0;
#X connect 35 1 0 1;
#X connect 36 0 37 0;
#X connect 38 0 39 0;
