#N canvas 43 82 1237 941 10;
#X declare -path ../../ussstools;
#X obj 77 29 usss.granular mygran;
#X obj 1174 477 usss.envfol one;
#X obj 1288 478 usss.envfol two;
#X obj 1166 555 usss.envfol three;
#X obj 1280 556 usss.envfol four;
#X obj 495 738 usss.output4 my4out;
#X obj 82 390 usss.envelope myenv;
#X obj 1051 144 key;
#X obj 1045 176 sel 32;
#X obj 1042 201 s myenv.trigger;
#X obj 404 161 usss.dynamicreson mydres1;
#X obj 634 160 usss.dynamicreson mydres2;
#X obj 1181 178 random 100;
#X obj 1182 207 / 100;
#X obj 1256 203 / 100;
#X obj 1255 177 random 100;
#X obj 1178 240 pack;
#X obj 1174 277 s mydres1.delpad;
#X obj 1332 177 random 100;
#X obj 1333 206 / 100;
#X obj 1409 199 / 100;
#X obj 1408 173 random 100;
#X obj 1329 239 pack;
#X obj 1325 276 s mydres2.delpad;
#X obj 1022 348 f;
#X obj 1066 347 f;
#X floatatom 1027 303 5 0 0 0 - - -;
#X floatatom 1079 303 5 0 0 0 - - -;
#X obj 1022 372 pack f f;
#X obj 930 306 t b b;
#X obj 930 279 bng 15 250 50 0 empty empty empty 17 7 0 10 -262144
-1 -1;
#X obj 1164 342 f;
#X obj 1208 341 f;
#X floatatom 1178 312 5 0 0 0 - - -;
#X floatatom 1230 312 5 0 0 0 - - -;
#X obj 1164 366 pack f f;
#X obj 1009 411 s mydres1.initfreq;
#X obj 1166 406 s mydres2.initfreq;
#X obj 82 692 metro 1000;
#X obj 84 663 tgl 15 0 empty empty empty 17 7 0 10 -262144 -1 -1 0
1;
#X obj 123 841 s myenv.total_time;
#X obj 77 738 random 500;
#X obj 77 766 + 100;
#X obj 73 804 t f b;
#X obj 43 840 s playit;
#X obj 986 111 r playit;
#X obj 414 23 declare -path ../../ussstools;
#X connect 0 0 6 0;
#X connect 0 1 6 1;
#X connect 6 0 10 0;
#X connect 6 0 11 0;
#X connect 6 1 10 1;
#X connect 6 1 11 1;
#X connect 7 0 8 0;
#X connect 8 0 9 0;
#X connect 8 0 12 0;
#X connect 8 0 15 0;
#X connect 8 0 18 0;
#X connect 8 0 21 0;
#X connect 10 0 5 0;
#X connect 10 1 5 1;
#X connect 11 0 5 2;
#X connect 11 1 5 3;
#X connect 12 0 13 0;
#X connect 13 0 16 0;
#X connect 14 0 16 1;
#X connect 15 0 14 0;
#X connect 16 0 17 0;
#X connect 18 0 19 0;
#X connect 19 0 22 0;
#X connect 20 0 22 1;
#X connect 21 0 20 0;
#X connect 22 0 23 0;
#X connect 24 0 28 0;
#X connect 25 0 28 1;
#X connect 26 0 24 1;
#X connect 27 0 25 1;
#X connect 28 0 36 0;
#X connect 29 0 24 0;
#X connect 29 0 31 0;
#X connect 29 1 25 0;
#X connect 29 1 32 0;
#X connect 30 0 29 0;
#X connect 31 0 35 0;
#X connect 32 0 35 1;
#X connect 33 0 31 1;
#X connect 34 0 32 1;
#X connect 35 0 37 0;
#X connect 38 0 41 0;
#X connect 39 0 38 0;
#X connect 41 0 42 0;
#X connect 42 0 38 1;
#X connect 42 0 43 0;
#X connect 43 0 44 0;
#X connect 43 1 40 0;
#X connect 45 0 9 0;
