#N canvas 154 248 1050 676 10;
#X declare -lib iemgui;
#X declare -path ../../ussstools;
#X declare -path ../../ussstools;
#X obj 442 24 usss.sfplay mysf;
#X obj 164 426 usss.output myout;
#X obj 123 48 usss.samplehold mysh;
#X obj 440 257 usss.dynamicreson mydr;
#X obj 761 109 bcf2000control;
#X obj 771 203 r f1;
#X obj 769 233 s mysh.transposition;
#X obj 772 268 r f2;
#X obj 770 298 s mysh.chunksize;
#X obj 771 358 s mysh.precision;
#X obj 773 328 r f3;
#X obj 676 31 declare -path ../../ussstools;
#X connect 2 0 3 0;
#X connect 2 1 3 1;
#X connect 3 0 1 0;
#X connect 3 1 1 1;
#X connect 5 0 6 0;
#X connect 7 0 8 0;
#X connect 10 0 9 0;
