#N canvas 1712 413 1258 555 10;
#X obj 216 129 randomcdpfilters;
#X obj 218 87 t b b b b b b b b b b b b;
#X obj 196 42 bng 15 250 50 0 empty empty empty 17 7 0 10 -262144 -1
-1;
#X msg 215 220 \$1 0.8 \$2 0.8 \$3 0.8 \$4 0.8 \$5 0.7 \$6 0.6 \$7
0.6 \$8 0.5 \$9 0.4 \$10 0.4 \$11 0.4 \$12 0.4;
#X obj 215 166 pack 0 0 0 0 0 0 0 0 0 0 0 0;
#X obj 215 264 print;
#X obj 665 243 print;
#X msg 665 199 \$1 0 \$2 0 \$3 0.8 \$4 0.8 \$5 0.7 \$6 0.6 \$7 0.6
\$8 0.5 \$9 0.4 \$10 0.4 \$11 0 \$12 0;
#X obj 664 154 pack 0 0 0 0 0 0 0 0 0 0 0 0;
#X obj 654 91 float;
#X obj 652 65 bng 15 250 50 0 empty empty empty 17 7 0 10 -262144 -1
-1;
#X floatatom 690 67 5 0 0 0 - - -;
#X obj 652 117 squeezecdpfilters 1.1;
#X obj 359 286 notein;
#X obj 275 491 print;
#X obj 264 339 float;
#X obj 262 313 bng 15 250 50 0 empty empty empty 17 7 0 10 -262144
-1 -1;
#X floatatom 300 315 5 0 0 0 - - -;
#X obj 273 403 pack 0 0 0 0 0 0 0 0 0 0 0 0;
#X msg 258 437 \$1 0.8 \$2 0.8 \$3 0.8 \$4 0.8 \$5 0.7 \$6 0.6 \$7
0.6 \$8 0.5 \$9 0.4 \$10 0.4 \$11 0.4 \$12 0.4;
#X obj 262 365 midinotecdpfilters 7 5 4 3 5 6 3 3 7 5 10;
#X obj 357 307 stripnote;
#X text 701 318 diminished;
#X text 700 340 major;
#X text 701 364 minor;
#X msg 544 411 7 5 4 3 5 6 3 3 7 5 10;
#X msg 543 316 3 3 3 3 3 3 3 3 3 3 3;
#X msg 544 339 4 3 5 4 3 5 4 3 5 4 3;
#X msg 542 364 4 3 5 4 3 5 4 3 5 4 3;
#X msg 544 388 6 5 1 6 5 1 6 5 1 6 5;
#X connect 0 0 4 0;
#X connect 0 1 4 1;
#X connect 0 2 4 2;
#X connect 0 3 4 3;
#X connect 0 4 4 4;
#X connect 0 5 4 5;
#X connect 0 6 4 6;
#X connect 0 7 4 7;
#X connect 0 8 4 8;
#X connect 0 9 4 9;
#X connect 0 10 4 10;
#X connect 0 11 4 11;
#X connect 1 0 0 0;
#X connect 1 1 0 1;
#X connect 1 2 0 2;
#X connect 1 3 0 3;
#X connect 1 4 0 4;
#X connect 1 5 0 5;
#X connect 1 6 0 6;
#X connect 1 7 0 7;
#X connect 1 8 0 8;
#X connect 1 9 0 9;
#X connect 1 10 0 10;
#X connect 1 11 0 11;
#X connect 2 0 1 0;
#X connect 3 0 5 0;
#X connect 4 0 3 0;
#X connect 7 0 6 0;
#X connect 8 0 7 0;
#X connect 9 0 12 0;
#X connect 10 0 9 0;
#X connect 11 0 9 1;
#X connect 12 0 8 0;
#X connect 12 1 8 1;
#X connect 12 2 8 2;
#X connect 12 3 8 3;
#X connect 12 4 8 4;
#X connect 12 5 8 5;
#X connect 12 6 8 6;
#X connect 12 7 8 7;
#X connect 12 8 8 8;
#X connect 12 9 8 9;
#X connect 12 10 8 10;
#X connect 12 11 8 11;
#X connect 13 0 21 0;
#X connect 13 1 21 1;
#X connect 15 0 20 0;
#X connect 16 0 15 0;
#X connect 17 0 15 1;
#X connect 18 0 19 0;
#X connect 19 0 14 0;
#X connect 20 0 18 0;
#X connect 20 1 18 1;
#X connect 20 2 18 2;
#X connect 20 3 18 3;
#X connect 20 4 18 4;
#X connect 20 5 18 5;
#X connect 20 6 18 6;
#X connect 20 7 18 7;
#X connect 20 8 18 8;
#X connect 20 9 18 9;
#X connect 20 10 18 10;
#X connect 20 11 18 11;
#X connect 21 0 15 0;
#X connect 25 0 20 0;
#X connect 26 0 20 0;
#X connect 27 0 20 0;
#X connect 28 0 20 0;
#X connect 29 0 20 0;
