#N canvas 210 83 1122 576 10;
#X obj 212 117 inlet~;
#X obj 213 151 env~;
#X obj 212 225 threshold~ 70 100 50 100;
#X obj 283 188 inlet;
#X obj 257 306 line~;
#X obj 207 272 pack 0 20;
#X msg 210 249 1;
#X obj 342 272 pack 0 20;
#X msg 345 249 0;
#X obj 259 337 outlet~;
#X obj 210 192 sig~;
#X obj 416 276 send gateoff;
#X connect 0 0 1 0;
#X connect 1 0 10 0;
#X connect 2 0 6 0;
#X connect 2 1 8 0;
#X connect 2 1 11 0;
#X connect 3 0 2 0;
#X connect 4 0 9 0;
#X connect 5 0 4 0;
#X connect 6 0 5 0;
#X connect 7 0 4 0;
#X connect 8 0 7 0;
#X connect 10 0 2 0;
