#N canvas 1280 82 1222 882 10;
#X declare -stdpath /usr/lib/pd/extra/tof;
#X declare -lib iemgui;
#X declare -path ../../ussstools;
#X declare -path ../../ussstools;
#X obj 45 427 usss.output myout;
#X obj 582 87 declare -stdpath /usr/lib/pd/extra/tof;
#X text 574 44 You can set the point data by sending a list with the
following format: initialValue delay1 value1 delay2 value2;
#X obj 1099 56 tof/breakpoints 100 50 3000 \$0r \$0s \$0d;
#X obj 39 83 usss.granular myg1;
#X text 116 17 comment;
#X obj 302 155 random 100;
#X obj 391 221 random 100;
#X obj 448 187 expr 100 - $f1;
#X obj 329 288 f;
#X obj 376 289 f;
#X obj 309 94 t b b b b b;
#X obj 338 324 +;
#X obj 292 375 pack f f f;
#X obj 302 53 bng 15 250 50 0 empty empty empty 17 7 0 10 -262144 -1
-1;
#X obj 412 286 r myg1.max;
#X floatatom 427 312 7 0 0 0 - - -;
#X obj 375 589 line;
#X msg 296 417 \$1 \, \$2 \$3;
#X msg 378 547 1000 \, 200 1000;
#X obj 371 343 expr ($f1*$f2*0.01);
#X obj 359 622 * 0.01;
#X obj 359 668 send myg1.position;
#X obj 226 671 gate;
#X obj 206 648 tgl 15 0 empty empty empty 17 7 0 10 -262144 -1 -1 0
1;
#X obj 287 290 f;
#X obj 373 448 delay;
#X obj 375 399 bng 15 250 50 0 empty empty empty 17 7 0 10 -262144
-1 -1;
#X obj 404 34 key;
#X obj 407 69 sel 32;
#X floatatom 378 154 5 0 0 0 - - -;
#N canvas 0 0 1149 702 breakpointplay 0;
#X obj 339 71 r myg1.max;
#X floatatom 339 106 7 0 0 0 - - -;
#X msg 340 130 duration \$1;
#X obj 294 296 line;
#X floatatom 294 339 5 0 0 0 - - -;
#X obj 115 180 bng 15 250 50 0 empty empty empty 17 7 0 10 -262144
-1 -1;
#X obj 315 90 bng 15 250 50 0 empty empty empty 17 7 0 10 -262144 -1
-1;
#X floatatom 430 103 5 0 0 0 - - -;
#X obj 137 480 random 100;
#X obj 138 503 * 0.01;
#X obj 231 496 * 0.01;
#X obj 430 482 * 0.01;
#X obj 342 464 random 100;
#X obj 343 487 * 0.01;
#X obj 256 628 print;
#X obj 229 520 *;
#X obj 423 513 *;
#X obj 512 456 random 100;
#X obj 513 479 * 0.01;
#X obj 112 202 t b b;
#X obj 588 479 * 0.01;
#X obj 581 510 *;
#X obj 670 453 random 100;
#X obj 671 476 * 0.01;
#X obj 329 593 pack f f f f f f f;
#X msg 311 624 \$1 \$2 \$3 \$4 \$5 \$6 \$7;
#X obj 573 132 bng 15 250 50 0 empty empty empty 17 7 0 10 -262144
-1 -1;
#X obj 601 299 line;
#X floatatom 601 342 5 0 0 0 - - -;
#X obj 603 320 usss.zmap 0 1 0 2;
#X text 619 125 backspace to delete points;
#X floatatom 191 397 5 0 0 0 - - -;
#X obj 139 524 +;
#X obj 338 517 +;
#X obj 507 512 +;
#X obj 667 514 +;
#X text 184 375 rand fac;
#X obj 56 398 hsl 128 15 0 1 0 0 empty empty empty -2 -8 0 10 -262144
-1 -1 0 1;
#X floatatom 49 423 5 0 0 0 - - -;
#X floatatom 641 551 5 0 0 0 - - -;
#X obj 230 473 random 25;
#X obj 429 459 random 25;
#X obj 587 456 random 25;
#X msg 600 90 0.5 2500 0.5;
#X floatatom 719 304 5 0 0 0 - - -;
#X obj 298 180 breakpoints 200 100;
#X obj 586 183 breakpoints 200 100;
#X obj 601 380 send myg2.mainpitch;
#X obj 213 86 f;
#X obj 208 65 bng 15 250 50 0 empty empty empty 17 7 0 10 -262144 -1
-1;
#X msg 209 125 0 \$1 1;
#X obj 145 121 bng 15 250 50 0 empty empty empty 17 7 0 10 -262144
-1 -1;
#X obj 289 384 send myg1.position;
#X connect 0 0 1 0;
#X connect 1 0 2 0;
#X connect 1 0 15 1;
#X connect 1 0 16 1;
#X connect 1 0 21 1;
#X connect 1 0 48 1;
#X connect 2 0 45 0;
#X connect 2 0 46 0;
#X connect 3 0 4 0;
#X connect 4 0 52 0;
#X connect 5 0 19 0;
#X connect 6 0 1 0;
#X connect 7 0 2 0;
#X connect 7 0 15 1;
#X connect 7 0 16 1;
#X connect 7 0 21 1;
#X connect 8 0 9 0;
#X connect 9 0 32 0;
#X connect 10 0 15 0;
#X connect 11 0 16 0;
#X connect 12 0 13 0;
#X connect 13 0 33 0;
#X connect 15 0 24 1;
#X connect 16 0 24 3;
#X connect 17 0 18 0;
#X connect 18 0 34 0;
#X connect 19 0 45 0;
#X connect 19 0 46 0;
#X connect 20 0 21 0;
#X connect 21 0 24 5;
#X connect 22 0 23 0;
#X connect 23 0 35 0;
#X connect 24 0 14 0;
#X connect 24 0 25 0;
#X connect 25 0 45 0;
#X connect 25 0 46 0;
#X connect 26 0 45 0;
#X connect 26 0 46 0;
#X connect 27 0 29 0;
#X connect 28 0 47 0;
#X connect 29 0 28 0;
#X connect 31 0 8 1;
#X connect 31 0 12 1;
#X connect 31 0 17 1;
#X connect 31 0 22 1;
#X connect 32 0 24 0;
#X connect 33 0 24 2;
#X connect 34 0 24 4;
#X connect 35 0 24 6;
#X connect 35 0 39 0;
#X connect 37 0 38 0;
#X connect 38 0 32 1;
#X connect 38 0 33 1;
#X connect 38 0 34 1;
#X connect 38 0 35 1;
#X connect 40 0 10 0;
#X connect 41 0 11 0;
#X connect 42 0 20 0;
#X connect 43 0 46 0;
#X connect 44 0 29 4;
#X connect 45 0 3 0;
#X connect 46 0 27 0;
#X connect 48 0 50 0;
#X connect 49 0 48 0;
#X connect 50 0 45 0;
#X connect 51 0 45 0;
#X restore 1046 144 pd breakpointplay;
#X obj 650 333 usss.dynamicreson mydr;
#X obj 984 280 bcf2000control;
#X obj 930 426 r f1;
#X obj 932 449 s mydr.original;
#X obj 936 480 r f2;
#X obj 937 502 s mydr.resonvolume;
#X obj 627 188 metro 100;
#X obj 626 212 random 300;
#X obj 626 238 + 500;
#X obj 626 162 tgl 15 0 empty empty empty 17 7 0 10 -262144 -1 -1 0
1;
#X obj 627 267 s myg1.grainsize;
#X obj 734 214 s myg1.grainsizemax;
#X floatatom 734 187 5 0 0 0 - - -;
#X floatatom 689 189 5 0 0 0 - - -;
#X floatatom 673 160 5 0 0 0 - - -;
#X floatatom 663 236 5 0 0 0 - - -;
#X obj 943 549 r f3;
#X obj 970 624 r f4;
#X obj 967 663 s myg1.mainpitch;
#X obj 584 27 declare -path ../../ussstools;
#X connect 4 0 32 0;
#X connect 4 1 32 1;
#X connect 6 0 8 0;
#X connect 6 0 9 1;
#X connect 6 0 25 1;
#X connect 7 0 10 1;
#X connect 8 0 7 1;
#X connect 9 0 12 0;
#X connect 10 0 12 1;
#X connect 10 0 20 0;
#X connect 10 0 27 0;
#X connect 11 0 25 0;
#X connect 11 1 9 0;
#X connect 11 2 10 0;
#X connect 11 3 7 0;
#X connect 11 4 6 0;
#X connect 12 0 13 1;
#X connect 13 0 18 0;
#X connect 14 0 11 0;
#X connect 15 0 16 0;
#X connect 16 0 20 1;
#X connect 17 0 21 0;
#X connect 18 0 17 0;
#X connect 19 0 17 0;
#X connect 20 0 13 2;
#X connect 20 0 26 1;
#X connect 21 0 22 0;
#X connect 23 0 14 0;
#X connect 24 0 23 0;
#X connect 25 0 13 0;
#X connect 26 0 23 1;
#X connect 27 0 26 0;
#X connect 28 0 29 0;
#X connect 29 0 14 0;
#X connect 30 0 6 1;
#X connect 32 0 0 0;
#X connect 32 1 0 1;
#X connect 34 0 35 0;
#X connect 36 0 37 0;
#X connect 38 0 39 0;
#X connect 39 0 40 0;
#X connect 40 0 42 0;
#X connect 41 0 38 0;
#X connect 44 0 43 0;
#X connect 45 0 39 1;
#X connect 46 0 38 1;
#X connect 47 0 40 1;
#X connect 48 0 45 0;
#X connect 49 0 50 0;
