#N canvas 386 102 894 852 10;
#X declare -path ../../ussstools;
#X obj 46 50 usss.granular myg1;
#X text 116 17 comment;
#X obj 47 464 usss.output6 myout;
#X obj 257 50 usss.granular myg2;
#X obj 471 53 usss.granular myg3;
#N canvas 1689 263 871 515 bcf 1;
#X obj 77 63 ctlin;
#X obj 45 117 nbx 5 14 -1e+37 1e+37 0 0 empty empty empty 0 -6 0 10
-262144 -1 -1 0 256;
#X obj 113 117 nbx 5 14 -1e+37 1e+37 0 0 empty empty empty 0 -6 0 10
-262144 -1 -1 0 256;
#X text 245 59 make sure you have alsa-midi and bcf2000 - pd connected
;
#X obj 45 229 route 81 82 83 84 85 86 87 88;
#X obj 282 229 route 1 2 3 4 5 6 7 8;
#X obj 69 172 swap;
#X floatatom 39 263 5 0 0 0 - - -;
#X floatatom 53 305 5 0 0 0 - - -;
#X floatatom 70 286 5 0 0 0 - - -;
#X floatatom 97 308 5 0 0 0 - - -;
#X floatatom 110 283 5 0 0 0 - - -;
#X floatatom 143 307 5 0 0 0 - - -;
#X floatatom 162 282 5 0 0 0 - - -;
#X floatatom 197 283 5 0 0 0 - - -;
#X obj 69 144 pack 0 0;
#X obj 69 198 pack;
#X text 646 177 bcfader = preset number bcdial = preset dial bccontrol
1 - 16 = 1 - 8 fader 9 - 16 dial;
#X obj 170 382 bcf2000fader 0 127 0 1 f5;
#X obj 495 380 bcf2000fader 0 127 0 1 f7;
#X obj 654 381 bcf2000fader 0 127 0 1 f8;
#X text 332 207 dials;
#X text 112 208 faders;
#X obj 559 351 bcf2000fader 0 127 0 10000 f4;
#X obj 330 383 bcf2000fader 0 127 0 4 f6;
#X obj 40 351 bcf2000fader 0 127 0 1 f1;
#X obj 213 351 bcf2000fader 0 127 0 1 f2;
#X obj 398 352 bcf2000fader 0 127 0 1 f3;
#X connect 0 0 1 0;
#X connect 0 1 2 0;
#X connect 1 0 15 0;
#X connect 2 0 15 1;
#X connect 4 0 7 0;
#X connect 4 1 8 0;
#X connect 4 2 9 0;
#X connect 4 3 10 0;
#X connect 4 4 11 0;
#X connect 4 5 12 0;
#X connect 4 6 13 0;
#X connect 4 7 14 0;
#X connect 4 8 5 0;
#X connect 6 0 16 0;
#X connect 6 1 16 1;
#X connect 7 0 25 0;
#X connect 8 0 26 0;
#X connect 9 0 27 0;
#X connect 10 0 23 0;
#X connect 11 0 18 0;
#X connect 12 0 24 0;
#X connect 13 0 19 0;
#X connect 14 0 20 0;
#X connect 15 0 6 0;
#X connect 16 0 4 0;
#X restore 720 176 pd bcf;
#X obj 722 212 r f1;
#X obj 724 271 r f2;
#X obj 724 330 r f3;
#X obj 719 245 s myg1.position;
#X obj 721 302 s myg2.position;
#X obj 721 361 s myg3.position;
#X obj 510 537 line;
#X obj 510 568 s myg1.mainpitch;
#X obj 562 601 s myg2.mainpitch;
#X obj 606 636 s myg3.mainpitch;
#X obj 647 541 line;
#X obj 576 538 line;
#X obj 597 449 bng 15 250 50 0 empty empty empty 17 7 0 10 -262144
-1 -1;
#X msg 505 490 1 \, 0.1 5500;
#X msg 582 492 1 \, 0.12 4000;
#X msg 671 493 1 \, 0.09 4500;
#X msg 762 524 1 100;
#X obj 434 20 declare -path ../../ussstools;
#X connect 0 0 2 0;
#X connect 0 1 2 1;
#X connect 3 0 2 2;
#X connect 3 1 2 3;
#X connect 4 0 2 4;
#X connect 4 1 2 5;
#X connect 6 0 9 0;
#X connect 7 0 10 0;
#X connect 8 0 11 0;
#X connect 12 0 13 0;
#X connect 16 0 15 0;
#X connect 17 0 14 0;
#X connect 18 0 19 0;
#X connect 18 0 20 0;
#X connect 18 0 21 0;
#X connect 19 0 12 0;
#X connect 20 0 17 0;
#X connect 21 0 16 0;
#X connect 22 0 17 0;
#X connect 22 0 16 0;
#X connect 22 0 12 0;
