#N canvas 1280 108 1222 882 10;
#X declare -stdpath /usr/lib/pd/extra/tof;
#X declare -path ../../ussstools;
#X obj 31 484 usss.output myout;
#X obj 576 183 r myg1.max;
#X floatatom 576 218 7 0 0 0 - - -;
#X msg 577 242 duration \$1;
#X obj 531 408 line;
#X floatatom 531 451 5 0 0 0 - - -;
#X obj 352 292 bng 15 250 50 0 empty empty empty 17 7 0 10 -262144
-1 -1;
#X obj 365 110 declare -stdpath /usr/lib/pd/extra/tof;
#X obj 552 202 bng 15 250 50 0 empty empty empty 17 7 0 10 -262144
-1 -1;
#X floatatom 667 215 5 0 0 0 - - -;
#X obj 374 592 random 100;
#X obj 375 615 * 0.01;
#X obj 468 608 * 0.01;
#X obj 667 594 * 0.01;
#X obj 579 576 random 100;
#X obj 580 599 * 0.01;
#X obj 308 426 bng 15 250 50 0 empty empty empty 17 7 0 10 -262144
-1 -1;
#X obj 493 740 print;
#X text 357 67 You can set the point data by sending a list with the
following format: initialValue delay1 value1 delay2 value2;
#X obj 466 632 *;
#X obj 660 625 *;
#X obj 749 568 random 100;
#X obj 750 591 * 0.01;
#X obj 349 314 t b b;
#X obj 825 591 * 0.01;
#X obj 818 622 *;
#X obj 907 565 random 100;
#X obj 908 588 * 0.01;
#X obj 566 705 pack f f f f f f f;
#X msg 548 736 \$1 \$2 \$3 \$4 \$5 \$6 \$7;
#X obj 810 244 bng 15 250 50 0 empty empty empty 17 7 0 10 -262144
-1 -1;
#X obj 838 411 line;
#X floatatom 838 454 5 0 0 0 - - -;
#X obj 840 432 usss.zmap 0 1 0 2;
#X text 856 237 backspace to delete points;
#X floatatom 428 509 5 0 0 0 - - -;
#X obj 376 636 +;
#X obj 575 629 +;
#X obj 744 624 +;
#X obj 904 626 +;
#X text 421 487 rand fac;
#X text 295 487 offset;
#X obj 293 510 hsl 128 15 0 1 0 0 empty empty empty -2 -8 0 10 -262144
-1 -1 0 1;
#X floatatom 286 535 5 0 0 0 - - -;
#X floatatom 878 663 5 0 0 0 - - -;
#X obj 467 585 random 25;
#X obj 666 571 random 25;
#X obj 824 568 random 25;
#X msg 837 202 0.5 2500 0.5;
#X floatatom 956 416 5 0 0 0 - - -;
#X obj 882 79 tof/breakpoints 100 50 3000 \$0r \$0s \$0d;
#X obj 535 292 breakpoints 200 100;
#X obj 823 295 breakpoints 200 100;
#X obj 25 135 usss.granular myg1;
#X text 116 17 comment;
#X obj 838 492 send myg2.mainpitch;
#X obj 450 198 f;
#X obj 445 177 bng 15 250 50 0 empty empty empty 17 7 0 10 -262144
-1 -1;
#X msg 446 237 0 \$1 1;
#X obj 382 233 bng 15 250 50 0 empty empty empty 17 7 0 10 -262144
-1 -1;
#X obj 526 496 send myg1.position;
#X obj 363 136 declare -path ../../ussstools;
#X connect 1 0 2 0;
#X connect 2 0 3 0;
#X connect 2 0 19 1;
#X connect 2 0 20 1;
#X connect 2 0 25 1;
#X connect 2 0 56 1;
#X connect 3 0 51 0;
#X connect 3 0 52 0;
#X connect 4 0 5 0;
#X connect 5 0 60 0;
#X connect 6 0 23 0;
#X connect 8 0 2 0;
#X connect 9 0 3 0;
#X connect 9 0 19 1;
#X connect 9 0 20 1;
#X connect 9 0 25 1;
#X connect 10 0 11 0;
#X connect 11 0 36 0;
#X connect 12 0 19 0;
#X connect 13 0 20 0;
#X connect 14 0 15 0;
#X connect 15 0 37 0;
#X connect 16 0 10 0;
#X connect 16 0 14 0;
#X connect 16 0 21 0;
#X connect 16 0 26 0;
#X connect 16 0 45 0;
#X connect 16 0 46 0;
#X connect 16 0 47 0;
#X connect 19 0 28 1;
#X connect 20 0 28 3;
#X connect 21 0 22 0;
#X connect 22 0 38 0;
#X connect 23 0 51 0;
#X connect 23 0 52 0;
#X connect 23 1 16 0;
#X connect 24 0 25 0;
#X connect 25 0 28 5;
#X connect 26 0 27 0;
#X connect 27 0 39 0;
#X connect 28 0 17 0;
#X connect 28 0 29 0;
#X connect 29 0 51 0;
#X connect 29 0 52 0;
#X connect 30 0 51 0;
#X connect 30 0 52 0;
#X connect 31 0 33 0;
#X connect 32 0 55 0;
#X connect 33 0 32 0;
#X connect 35 0 10 1;
#X connect 35 0 14 1;
#X connect 35 0 21 1;
#X connect 35 0 26 1;
#X connect 36 0 28 0;
#X connect 37 0 28 2;
#X connect 38 0 28 4;
#X connect 39 0 28 6;
#X connect 39 0 44 0;
#X connect 42 0 43 0;
#X connect 43 0 36 1;
#X connect 43 0 37 1;
#X connect 43 0 38 1;
#X connect 43 0 39 1;
#X connect 45 0 12 0;
#X connect 46 0 13 0;
#X connect 47 0 24 0;
#X connect 48 0 52 0;
#X connect 49 0 33 4;
#X connect 51 0 4 0;
#X connect 52 0 31 0;
#X connect 53 0 0 0;
#X connect 53 1 0 1;
#X connect 56 0 58 0;
#X connect 57 0 56 0;
#X connect 58 0 51 0;
#X connect 59 0 51 0;
