#N canvas 1715 183 1488 811 10;
#X obj 280 313 outlet;
#X obj 130 298 outlet;
#X obj 62 136 inlet;
#X obj 121 204 t f f;
#X obj 209 202 t f f;
#X obj 410 309 outlet;
#X obj 339 198 t f f;
#X obj 520 304 outlet;
#X obj 449 193 t f f;
#X obj 613 296 outlet;
#X obj 542 185 t f f;
#X obj 732 291 outlet;
#X obj 661 180 t f f;
#X obj 846 291 outlet;
#X obj 775 180 t f f;
#X obj 940 284 outlet;
#X obj 869 173 t f f;
#X obj 1057 272 outlet;
#X obj 986 161 t f f;
#X obj 1174 276 outlet;
#X obj 1103 165 t f f;
#X obj 1272 274 outlet;
#X obj 1201 163 t f f;
#X obj 213 161 + \$2;
#X obj 343 157 + \$3;
#X obj 453 152 + \$4;
#X obj 546 144 + \$5;
#X obj 665 139 + \$6;
#X obj 779 139 + \$7;
#X obj 873 132 + \$8;
#X obj 990 120 + \$9;
#X obj 1107 124 + \$10;
#X obj 1205 122 + \$11;
#X obj 110 165 + \$1;
#X obj 55 296 outlet;
#X obj 46 202 t f f;
#X obj 600 38 inlet;
#X obj 600 70 unpack 0 0 0 0 0 0 0 0 0 0 0;
#X connect 2 0 35 0;
#X connect 3 0 1 0;
#X connect 3 1 23 0;
#X connect 4 0 0 0;
#X connect 4 1 24 0;
#X connect 6 0 5 0;
#X connect 6 1 25 0;
#X connect 8 0 7 0;
#X connect 8 1 26 0;
#X connect 10 0 9 0;
#X connect 10 1 27 0;
#X connect 12 0 11 0;
#X connect 12 1 28 0;
#X connect 14 0 13 0;
#X connect 14 1 29 0;
#X connect 16 0 15 0;
#X connect 16 1 30 0;
#X connect 18 0 17 0;
#X connect 18 1 31 0;
#X connect 20 0 19 0;
#X connect 20 1 32 0;
#X connect 22 0 21 0;
#X connect 23 0 4 0;
#X connect 24 0 6 0;
#X connect 25 0 8 0;
#X connect 26 0 10 0;
#X connect 27 0 12 0;
#X connect 28 0 14 0;
#X connect 29 0 16 0;
#X connect 30 0 18 0;
#X connect 31 0 20 0;
#X connect 32 0 22 0;
#X connect 33 0 3 0;
#X connect 35 0 34 0;
#X connect 35 1 33 0;
#X connect 36 0 37 0;
#X connect 37 0 33 1;
#X connect 37 1 23 1;
#X connect 37 2 24 1;
#X connect 37 3 25 1;
#X connect 37 4 26 1;
#X connect 37 5 27 1;
#X connect 37 6 28 1;
#X connect 37 7 29 1;
#X connect 37 8 30 1;
#X connect 37 9 31 1;
#X connect 37 10 32 1;
#X coords 0 0 4 1 0 0 0;
