#N canvas 1280 82 1121 942 10;
#X declare -path E:/USSSTOOLSKIT/ussstools;
#X declare -path ../../ussstools;
#X obj 131 12 grid grid1 200 0 199 200 0 199 1 1 1 10 10 263 145;
#X floatatom 131 237 5 0 0 0 - - -;
#X floatatom 349 234 5 0 0 0 - - -;
#X obj 131 277 usss.zmap 0 200 0 1;
#X obj 349 272 usss.zmap 0 200 0 1;
#X floatatom 88 447 5 0 0 0 - - -;
#X obj 131 329 expr 1.5 - sqrt(pow(abs($f1-0) \, 2) + pow(abs($f2-1)
\, 2));
#X obj 151 359 expr 1.5 - sqrt(pow(abs($f1-1) \, 2) + pow(abs($f2-1)
\, 2));
#X obj 168 386 expr 1.5 - sqrt(pow(abs($f1-0) \, 2) + pow(abs($f2-0)
\, 2));
#X obj 186 415 expr 1.5 - sqrt(pow(abs($f1-1) \, 2) + pow(abs($f2-0)
\, 2));
#X obj 642 72 usss.varispeed myv;
#X obj 89 683 *~;
#X floatatom 86 498 5 0 0 0 - - -;
#X obj 89 730 usss.output6 my6out;
#X obj 87 473 usss.zmap 0 1.5 0 4;
#X obj 86 528 exp;
#X obj 80 652 line~;
#X msg 79 624 \$1 20;
#X obj 83 562 usss.zmap 0 55 0 1;
#X floatatom 78 599 5 0 0 0 - - -;
#X floatatom 247 450 5 0 0 0 - - -;
#X obj 248 686 *~;
#X floatatom 245 501 5 0 0 0 - - -;
#X obj 246 476 usss.zmap 0 1.5 0 4;
#X obj 245 531 exp;
#X obj 239 655 line~;
#X msg 238 627 \$1 20;
#X obj 242 565 usss.zmap 0 55 0 1;
#X floatatom 237 602 5 0 0 0 - - -;
#X floatatom 407 455 5 0 0 0 - - -;
#X obj 408 691 *~;
#X floatatom 405 506 5 0 0 0 - - -;
#X obj 406 481 usss.zmap 0 1.5 0 4;
#X obj 405 536 exp;
#X obj 399 660 line~;
#X msg 398 632 \$1 20;
#X obj 402 570 usss.zmap 0 55 0 1;
#X floatatom 397 607 5 0 0 0 - - -;
#X floatatom 549 452 5 0 0 0 - - -;
#X obj 550 688 *~;
#X floatatom 547 503 5 0 0 0 - - -;
#X obj 548 478 usss.zmap 0 1.5 0 4;
#X obj 547 533 exp;
#X obj 541 657 line~;
#X msg 540 629 \$1 20;
#X obj 544 567 usss.zmap 0 55 0 1;
#X floatatom 539 604 5 0 0 0 - - -;
#X obj 764 428 usssspatguts 0 1;
#X obj 641 319 pack f f;
#X obj 397 57 declare -path ../../ussstools;
#X connect 0 0 1 0;
#X connect 0 1 2 0;
#X connect 1 0 3 0;
#X connect 2 0 4 0;
#X connect 3 0 6 0;
#X connect 3 0 7 0;
#X connect 3 0 8 0;
#X connect 3 0 9 0;
#X connect 3 0 48 0;
#X connect 4 0 6 1;
#X connect 4 0 7 1;
#X connect 4 0 9 1;
#X connect 4 0 48 1;
#X connect 5 0 14 0;
#X connect 6 0 5 0;
#X connect 7 0 20 0;
#X connect 8 0 29 0;
#X connect 9 0 38 0;
#X connect 10 0 11 0;
#X connect 10 0 30 0;
#X connect 10 0 47 0;
#X connect 10 1 21 0;
#X connect 10 1 39 0;
#X connect 11 0 13 0;
#X connect 12 0 15 0;
#X connect 14 0 12 0;
#X connect 15 0 18 0;
#X connect 16 0 11 1;
#X connect 17 0 16 0;
#X connect 18 0 19 0;
#X connect 19 0 17 0;
#X connect 20 0 23 0;
#X connect 21 0 13 1;
#X connect 22 0 24 0;
#X connect 23 0 22 0;
#X connect 24 0 27 0;
#X connect 25 0 21 1;
#X connect 26 0 25 0;
#X connect 27 0 28 0;
#X connect 28 0 26 0;
#X connect 29 0 32 0;
#X connect 30 0 13 4;
#X connect 31 0 33 0;
#X connect 32 0 31 0;
#X connect 33 0 36 0;
#X connect 34 0 30 1;
#X connect 35 0 34 0;
#X connect 36 0 37 0;
#X connect 37 0 35 0;
#X connect 38 0 41 0;
#X connect 39 0 13 5;
#X connect 40 0 42 0;
#X connect 41 0 40 0;
#X connect 42 0 45 0;
#X connect 43 0 39 1;
#X connect 44 0 43 0;
#X connect 45 0 46 0;
#X connect 46 0 44 0;
#X connect 48 0 47 1;
