#N canvas 399 295 881 577 10;
#X declare -path ../../ussstools;
#X obj 253 505 dac~ 1 2 3 4 5 6 7 8;
#X obj 164 455 *~;
#X obj 198 455 *~;
#X obj 426 446 *~;
#X obj 460 446 *~;
#X obj 520 303 osc~;
#X obj 523 234 hsl 128 15 0 1 0 0 empty empty rate -2 -8 0 10 -262144
-1 -1 5080 1;
#X obj 519 371 expr~ 1 - $v1;
#X obj 255 454 *~;
#X obj 288 453 *~;
#X obj 324 452 *~;
#X obj 357 451 *~;
#X obj 165 292 *~;
#X obj 358 292 *~;
#X obj 374 256 line~;
#X obj 377 180 hsl 60 15 0 1 0 0 empty empty file_gain -2 -8 0 10 -262144
-1 -1 1180 1;
#X floatatom 374 207 5 0 0 0 - - -;
#X msg 374 231 \$1 10;
#X floatatom 520 279 5 0 0 0 - - -;
#X msg 695 327 \; pd dsp 1;
#X msg 697 373 \; pd dsp 0;
#X msg 458 217 0.4;
#X msg 371 145 0.2;
#X obj 458 128 loadbang;
#X obj 520 254 * 15;
#X obj 120 58 usss.varispeed myv;
#X text -9 61 OPEN RUMMAGE.WAV;
#X obj 542 55 declare -path ../../ussstools;
#X connect 1 0 0 0;
#X connect 2 0 0 1;
#X connect 3 0 0 6;
#X connect 4 0 0 7;
#X connect 5 0 7 0;
#X connect 5 0 10 1;
#X connect 5 0 8 1;
#X connect 5 0 1 1;
#X connect 5 0 3 1;
#X connect 6 0 24 0;
#X connect 7 0 4 1;
#X connect 7 0 11 1;
#X connect 7 0 9 1;
#X connect 7 0 2 1;
#X connect 8 0 0 2;
#X connect 9 0 0 3;
#X connect 10 0 0 4;
#X connect 11 0 0 5;
#X connect 12 0 1 0;
#X connect 12 0 8 0;
#X connect 13 0 2 0;
#X connect 13 0 9 0;
#X connect 13 0 11 0;
#X connect 13 0 4 0;
#X connect 13 0 10 0;
#X connect 13 0 3 0;
#X connect 14 0 12 1;
#X connect 14 0 13 1;
#X connect 15 0 16 0;
#X connect 16 0 17 0;
#X connect 17 0 14 0;
#X connect 18 0 5 0;
#X connect 21 0 6 0;
#X connect 22 0 15 0;
#X connect 23 0 22 0;
#X connect 23 0 21 0;
#X connect 24 0 18 0;
#X connect 25 0 12 0;
#X connect 25 1 13 0;
