#N canvas 175 146 918 845 10;
#X declare -path ../../ussstools;
#X declare -path E:/USSSTOOLSKIT/ussstools;
#X declare -path USSSTOOLSKIT/ussstools;
#X declare -path E:/USSSTOOLSKIT/ussstools;
#X declare -path E:/USSSTOOLSKIT/ussstools;
#X declare -path E:/USSSTOOLSKIT/ussstools;
#X declare -path E:/USSSTOOLSKIT/ussstools;
#X declare -path E:/USSSTOOLSKIT/ussstools;
#X declare -path E:/USSSTOOLSKIT/ussstools;
#X declare -path E:/USSSTOOLSKIT/ussstools;
#X obj 117 493 usss.output8 myout8;
#X obj 345 41 declare -path ../../ussstools;
#X obj 116 42 usss.varispeed myv;
#X obj 117 219 usss.multipan8 mypan;
#X msg 473 237 0 1 1 1 0 0.6 1 0.6 0 0.3 1 0.3 0 0 1 0;
#X obj 473 269 s mypan.speakerpositions;
#X obj 475 361 metro 200;
#X obj 475 334 tgl 15 0 empty empty empty 17 7 0 10 -262144 -1 -1 0
1;
#X obj 475 390 random 100;
#X obj 475 419 usss.zmap 0 100 -1 2;
#X obj 475 448 pack 0 200;
#X obj 475 477 line;
#X obj 475 506 send mypan.direction;
#X floatatom 553 335 5 0 0 0 - - -;
#X connect 2 0 3 0;
#X connect 2 1 3 1;
#X connect 3 0 0 0;
#X connect 3 1 0 1;
#X connect 3 2 0 2;
#X connect 3 3 0 3;
#X connect 3 4 0 4;
#X connect 3 5 0 5;
#X connect 3 6 0 6;
#X connect 3 7 0 7;
#X connect 4 0 5 0;
#X connect 6 0 8 0;
#X connect 7 0 6 0;
#X connect 8 0 9 0;
#X connect 9 0 10 0;
#X connect 10 0 11 0;
#X connect 11 0 12 0;
#X connect 13 0 6 1;
#X connect 13 0 10 1;
