#N canvas 220 98 670 729 10;
#X declare -path ../../ussstools;
#X obj 211 81 usss.varispeed myvs;
#X obj 227 424 usss.output myout;
#X obj 252 345 usss.ringmod myring;
#X obj 439 307 ctlin;
#X obj 441 341 usss.zmap 0 127 0 30;
#X obj -1 80 usss.granular mygran;
#X obj 223 285 addoriginal;
#X floatatom 487 311 5 0 0 0 - - -;
#X floatatom 555 320 5 0 0 0 - - -;
#X obj 436 37 declare -path ../../ussstools;
#X connect 0 0 6 0;
#X connect 0 1 6 1;
#X connect 2 0 1 0;
#X connect 2 1 1 1;
#X connect 3 0 4 0;
#X connect 4 0 2 2;
#X connect 4 0 7 0;
#X connect 5 0 1 0;
#X connect 5 1 1 1;
#X connect 6 0 2 0;
#X connect 6 1 2 1;
#X connect 8 0 4 4;
