#N canvas 61 187 1199 814 10;
#X declare -path ../../ussstools;
#X obj 211 81 usss.varispeed myvs;
#X obj 252 345 usss.ringmod myring;
#X obj 441 341 usss.zmap 0 127 0 30;
#X obj -1 80 usss.granular mygran;
#X obj 223 285 addoriginal;
#X floatatom 438 361 5 0 0 0 - - -;
#X floatatom 555 320 5 0 0 0 - - -;
#X obj 641 377 usss.ringmod myring;
#X obj 850 356 usss.zmap 0 127 0 30;
#X obj 632 300 addoriginal;
#X floatatom 850 378 5 0 0 0 - - -;
#X floatatom 964 335 5 0 0 0 - - -;
#X obj 241 466 usss.output4 myout4;
#X obj 848 322 ctlin 93;
#X floatatom 484 277 5 0 0 0 - - -;
#X obj 645 138 ctlin;
#X floatatom 657 180 5 0 0 0 - - -;
#X obj 439 307 ctlin 4;
#X floatatom 735 242 5 0 0 0 - - -;
#X obj 766 100 ctlin 72;
#X obj 766 126 usss.zmap 0 127 0 1;
#X obj 767 151 s mygran.position;
#X obj 15 447 addoriginal;
#X obj 16 490 addoriginal;
#X obj 835 551 metro 1000;
#X obj 835 509 tgl 15 0 empty empty empty 17 7 0 10 -262144 -1 -1 0
1;
#X obj 839 589 random 100;
#X floatatom 927 567 5 0 0 0 - - -;
#X obj 843 634 + 100;
#X floatatom 837 669 5 0 0 0 - - -;
#X floatatom 894 614 5 0 0 0 - - -;
#X obj 836 715 s specialgrainsize;
#X floatatom 900 524 5 0 0 0 - - -;
#X obj 474 26 declare -path ../../ussstools;
#X connect 0 0 4 0;
#X connect 0 0 9 0;
#X connect 0 1 4 1;
#X connect 0 1 9 1;
#X connect 1 0 12 0;
#X connect 1 1 12 1;
#X connect 2 0 5 0;
#X connect 3 0 22 0;
#X connect 3 0 23 0;
#X connect 3 1 22 1;
#X connect 3 1 23 1;
#X connect 4 0 1 0;
#X connect 4 1 1 1;
#X connect 5 0 1 2;
#X connect 6 0 2 4;
#X connect 7 0 12 2;
#X connect 7 1 12 3;
#X connect 8 0 7 2;
#X connect 8 0 10 0;
#X connect 9 0 7 0;
#X connect 9 1 7 1;
#X connect 11 0 8 4;
#X connect 13 0 8 0;
#X connect 15 1 16 0;
#X connect 17 0 2 0;
#X connect 17 0 14 0;
#X connect 18 0 6 0;
#X connect 18 0 11 0;
#X connect 19 0 20 0;
#X connect 20 0 21 0;
#X connect 22 0 1 0;
#X connect 22 1 1 1;
#X connect 23 0 7 0;
#X connect 23 1 7 1;
#X connect 24 0 26 0;
#X connect 25 0 24 0;
#X connect 26 0 28 0;
#X connect 27 0 26 1;
#X connect 28 0 29 0;
#X connect 29 0 31 0;
#X connect 30 0 28 1;
#X connect 32 0 24 1;
