#N canvas 1697 121 1488 811 10;
#X obj 57 170 random 100;
#X obj 136 169 random 200;
#X obj 57 207 + 100;
#X obj 55 245 outlet;
#X obj 138 243 outlet;
#X obj 254 236 outlet;
#X obj 426 233 outlet;
#X obj 963 139 inlet;
#X obj 500 237 outlet;
#X obj 583 240 outlet;
#X obj 757 237 outlet;
#X obj 973 245 outlet;
#X obj 677 126 inlet;
#X obj 328 126 inlet;
#X obj -42 133 inlet;
#X obj 834 240 outlet;
#X obj 680 233 outlet;
#X obj 339 231 outlet;
#X obj -32 239 outlet;
#X obj 836 131 inlet;
#X obj 56 124 inlet;
#X obj 131 129 inlet;
#X obj 251 124 inlet;
#X obj 427 118 inlet;
#X obj 500 113 inlet;
#X obj 588 118 inlet;
#X obj 750 119 inlet;
#X obj 678 159 random 2000;
#X obj 248 168 random 300;
#X obj 249 200 + 200;
#X obj 136 204 + 100;
#X obj -37 170 random 50;
#X obj -35 199 + 50;
#X obj 333 163 random 400;
#X obj 334 195 + 300;
#X obj 421 164 random 700;
#X obj 423 194 + 300;
#X obj 502 162 random 1000;
#X obj 502 199 + 500;
#X obj 581 166 random 1500;
#X obj 581 201 + 500;
#X obj 678 194 + 500;
#X obj 751 169 random 2500;
#X obj 752 201 + 500;
#X obj 836 165 random 3000;
#X obj 836 202 + 500;
#X obj 967 176 random 3500;
#X obj 970 206 + 500;
#X connect 0 0 2 0;
#X connect 1 0 30 0;
#X connect 2 0 3 0;
#X connect 7 0 46 0;
#X connect 12 0 27 0;
#X connect 13 0 33 0;
#X connect 14 0 31 0;
#X connect 19 0 44 0;
#X connect 20 0 0 0;
#X connect 21 0 1 0;
#X connect 22 0 28 0;
#X connect 23 0 35 0;
#X connect 24 0 37 0;
#X connect 25 0 39 0;
#X connect 26 0 42 0;
#X connect 27 0 41 0;
#X connect 28 0 29 0;
#X connect 29 0 5 0;
#X connect 30 0 4 0;
#X connect 31 0 32 0;
#X connect 32 0 18 0;
#X connect 33 0 34 0;
#X connect 34 0 17 0;
#X connect 35 0 36 0;
#X connect 36 0 6 0;
#X connect 37 0 38 0;
#X connect 38 0 8 0;
#X connect 39 0 40 0;
#X connect 40 0 9 0;
#X connect 41 0 16 0;
#X connect 42 0 43 0;
#X connect 43 0 10 0;
#X connect 44 0 45 0;
#X connect 45 0 15 0;
#X connect 46 0 47 0;
#X connect 47 0 11 0;
#X coords 0 0 4 1 0 0 0;
