#N canvas 0 0 348 338 10;
#X obj 137 170 line~;
#X obj 137 144 pack 0 20;
#X obj 137 87 random \$1;
#X obj 137 62 inlet;
#X obj 137 193 outlet~;
#X obj 189 62 inlet;
#X obj 137 115 * \$2;
#X connect 0 0 4 0;
#X connect 1 0 0 0;
#X connect 2 0 6 0;
#X connect 3 0 2 0;
#X connect 5 0 2 1;
#X connect 6 0 1 0;
