#N canvas 105 88 1175 847 10;
#X declare -path ../../ussstools;
#X obj 492 188 usss.varispeed myvs;
#X obj 486 370 addoriginal;
#X obj 32 379 addoriginal;
#X obj 42 32 usss.granular mygran;
#X obj 80 562 usss.output4 myout;
#X obj 246 378 addoriginal;
#X obj 256 32 usss.granular mygran2;
#X obj 13 437 usss.shapee myshap1;
#X obj 453 439 usss.shapee myshap2;
#X obj 497 130 bcf2000control;
#X obj 704 370 addoriginal;
#X obj 706 190 usss.varispeed myvs1;
#X obj 440 30 declare -path ../../ussstools;
#X connect 0 0 1 0;
#X connect 0 1 1 1;
#X connect 1 0 8 0;
#X connect 1 1 8 1;
#X connect 2 0 7 0;
#X connect 2 1 7 1;
#X connect 3 0 2 0;
#X connect 3 1 2 1;
#X connect 5 0 7 2;
#X connect 5 1 7 3;
#X connect 6 0 5 0;
#X connect 6 1 5 1;
#X connect 7 0 4 0;
#X connect 7 1 4 1;
#X connect 10 0 8 2;
#X connect 10 1 8 3;
#X connect 11 0 10 0;
#X connect 11 1 10 1;
