#N canvas 174 86 1351 677 10;
#X obj 304 152 inlet~;
#X obj 374 155 inlet~;
#X obj 450 155 inlet~;
#X obj 522 159 inlet~;
#X obj 589 156 inlet~;
#X obj 666 155 inlet~;
#X obj 282 357 outlet~;
#X obj 371 353 outlet~;
#X obj 467 359 outlet~;
#X obj 587 346 outlet~;
#X obj 771 347 outlet~;
#X obj 687 351 outlet~;
#X obj 306 200 delwrite~ \$1.d1 \$2;
#X obj 374 181 delwrite~ \$1.d2 \$2;
#X obj 453 206 delwrite~ \$1.d3 \$2;
#X obj 527 183 delwrite~ \$1.d4 \$2;
#X obj 596 214 delwrite~ \$1.d5 \$2;
#X obj 664 184 delwrite~ \$1.d6 \$2;
#X obj 280 270 vd~ \$1.d1;
#X obj 352 273 vd~ \$1.d2;
#X obj 433 277 vd~ \$1.d3;
#X obj 522 276 vd~ \$1.d4;
#X obj 604 274 vd~ \$1.d5;
#X obj 698 275 vd~ \$1.d6;
#X obj 969 175 bng 15 250 50 0 empty empty empty 17 7 0 10 -262144
-1 -1;
#X obj 959 138 r \$1.bang;
#X obj 850 230 rnumsig \$2;
#X obj 895 256 rnumsig \$2;
#X obj 917 288 rnumsig \$2;
#X obj 951 315 rnumsig \$2;
#X obj 985 343 rnumsig \$2;
#X obj 1003 367 rnumsig \$2;
#X obj 1079 177 inlet;
#X connect 0 0 12 0;
#X connect 1 0 13 0;
#X connect 2 0 14 0;
#X connect 3 0 15 0;
#X connect 4 0 16 0;
#X connect 5 0 17 0;
#X connect 18 0 6 0;
#X connect 19 0 7 0;
#X connect 20 0 8 0;
#X connect 21 0 9 0;
#X connect 22 0 11 0;
#X connect 23 0 10 0;
#X connect 24 0 26 0;
#X connect 24 0 27 0;
#X connect 24 0 28 0;
#X connect 24 0 29 0;
#X connect 24 0 30 0;
#X connect 24 0 31 0;
#X connect 25 0 24 0;
#X connect 26 0 18 0;
#X connect 27 0 19 0;
#X connect 28 0 20 0;
#X connect 29 0 21 0;
#X connect 30 0 22 0;
#X connect 31 0 23 0;
#X connect 32 0 26 1;
#X connect 32 0 27 1;
#X connect 32 0 28 1;
#X connect 32 0 29 1;
#X connect 32 0 30 1;
#X connect 32 0 31 1;
