#N canvas 1715 183 1488 811 10;
#X obj 203 314 outlet;
#X obj 53 299 outlet;
#X obj 42 132 inlet;
#X obj 42 167 * \$1;
#X obj 136 162 * \$1;
#X obj 44 205 t f f;
#X obj 132 203 t f f;
#X obj 333 310 outlet;
#X obj 266 158 * \$1;
#X obj 262 199 t f f;
#X obj 443 305 outlet;
#X obj 376 153 * \$1;
#X obj 372 194 t f f;
#X obj 536 297 outlet;
#X obj 469 145 * \$1;
#X obj 465 186 t f f;
#X obj 655 292 outlet;
#X obj 588 140 * \$1;
#X obj 584 181 t f f;
#X obj 769 292 outlet;
#X obj 702 140 * \$1;
#X obj 698 181 t f f;
#X obj 863 285 outlet;
#X obj 796 133 * \$1;
#X obj 792 174 t f f;
#X obj 980 273 outlet;
#X obj 913 121 * \$1;
#X obj 909 162 t f f;
#X obj 1097 277 outlet;
#X obj 1030 125 * \$1;
#X obj 1026 166 t f f;
#X obj 1195 275 outlet;
#X obj 1128 123 * \$1;
#X obj 1124 164 t f f;
#X obj 1291 273 outlet;
#X obj 1224 121 * \$1;
#X obj 1220 162 t f f;
#X connect 2 0 3 0;
#X connect 3 0 5 0;
#X connect 4 0 6 0;
#X connect 5 0 1 0;
#X connect 5 1 4 0;
#X connect 6 0 0 0;
#X connect 6 1 8 0;
#X connect 8 0 9 0;
#X connect 9 0 7 0;
#X connect 9 1 11 0;
#X connect 11 0 12 0;
#X connect 12 0 10 0;
#X connect 12 1 14 0;
#X connect 14 0 15 0;
#X connect 15 0 13 0;
#X connect 15 1 17 0;
#X connect 17 0 18 0;
#X connect 18 0 16 0;
#X connect 18 1 20 0;
#X connect 20 0 21 0;
#X connect 21 0 19 0;
#X connect 21 1 23 0;
#X connect 23 0 24 0;
#X connect 24 0 22 0;
#X connect 24 1 26 0;
#X connect 26 0 27 0;
#X connect 27 0 25 0;
#X connect 27 1 29 0;
#X connect 29 0 30 0;
#X connect 30 0 28 0;
#X connect 30 1 32 0;
#X connect 32 0 33 0;
#X connect 33 0 31 0;
#X connect 33 1 35 0;
#X connect 35 0 36 0;
#X connect 36 0 34 0;
#X coords 0 0 4 1 0 0 0;
