#N canvas 223 82 936 844 10;
#X declare -path ../../ussstools;
#X obj 29 -30 usss.granular mygran;
#X obj 28 603 usss.output myout;
#X obj 234 445 metro 1000;
#X obj 234 413 tgl 15 0 empty empty empty 17 7 0 10 -262144 -1 -1 0
1;
#X obj 272 357 hsl 128 15 0 127 0 0 empty empty empty -2 -8 0 10 -262144
-1 -1 0 1;
#X floatatom 267 417 5 0 0 0 - - -;
#X obj 234 475 send myenv.trigger;
#X obj 269 397 * 10;
#X text 236 502 move mouse to bottom of draw box;
#X text 236 517 it should change angle to right slanting;
#X text 236 531 draw your envelope;
#X obj 269 329 ctlin;
#X floatatom 380 444 5 0 0 0 - - -;
#X obj 379 423 * 3;
#X obj 380 472 send myenv.total_time;
#X obj 452 372 / 127;
#X obj 452 397 send mygran.position;
#X obj 28 330 usss.envelope myenv;
#X floatatom 416 446 5 0 0 0 - - -;
#X obj 416 376 vsl 10 64 1 10 0 0 empty empty empty 0 -9 0 10 -262144
-1 -1 0 1;
#X obj 555 462 gate;
#X obj 555 433 tgl 15 0 empty empty empty 17 7 0 10 -262144 -1 -1 0
1;
#X obj 555 532 send mygran.position;
#X obj 555 488 random 500;
#X obj 555 510 / 500;
#X text 581 433 optional randomisation;
#X text 592 445 of granular position;
#X obj 483 534 random 127;
#X obj 483 555 / 127;
#X obj 482 577 expr (1.0 - $f1);
#X obj 29 562 *~;
#X obj 92 561 *~;
#X text 462 593 optional random weighting;
#X text 473 605 in the stereo space;
#X obj 743 490 random;
#X obj 723 513 gate;
#X obj 723 491 tgl 15 0 empty empty empty 17 7 0 10 -262144 -1 -1 0
1;
#X obj 775 466 r ransdur;
#X obj 304 415 s ransdur;
#X obj 723 534 + 30;
#X text 758 509 optional randomisation;
#X text 769 521 envelope trigger;
#X obj 723 562 send myenv.total_time;
#X obj 257 -19 declare -path ../../ussstools;
#X connect 0 0 17 0;
#X connect 0 1 17 1;
#X connect 2 0 6 0;
#X connect 2 0 20 1;
#X connect 3 0 2 0;
#X connect 4 0 7 0;
#X connect 4 0 13 0;
#X connect 4 0 15 0;
#X connect 5 0 2 1;
#X connect 5 0 38 0;
#X connect 7 0 5 0;
#X connect 11 0 4 0;
#X connect 12 0 14 0;
#X connect 13 0 12 0;
#X connect 15 0 16 0;
#X connect 17 0 30 0;
#X connect 17 1 31 0;
#X connect 18 0 13 1;
#X connect 19 0 18 0;
#X connect 20 0 23 0;
#X connect 20 0 27 0;
#X connect 20 0 34 0;
#X connect 21 0 20 0;
#X connect 23 0 24 0;
#X connect 24 0 22 0;
#X connect 27 0 28 0;
#X connect 28 0 29 0;
#X connect 28 0 30 1;
#X connect 29 0 31 1;
#X connect 30 0 1 0;
#X connect 31 0 1 1;
#X connect 34 0 35 1;
#X connect 35 0 39 0;
#X connect 36 0 35 0;
#X connect 37 0 34 1;
#X connect 39 0 2 1;
#X connect 39 0 42 0;
