#N canvas 223 82 956 850 10;
#X declare -path ../../ussstools;
#X obj 77 29 usss.granular mygran;
#X obj 410 715 usss.output myout;
#X obj 409 365 usss.shapee myshap;
#X obj 740 24 usss.granular mygran2;
#X floatatom 625 459 5 0 0 0 - - -;
#X obj 299 184 usss.sfplay mysf1;
#X obj 527 185 usss.sfplay mysf2;
#X obj 409 475 usss.delay mydel;
#X obj 670 433 loadbang;
#X msg 670 458 35;
#X text 616 505 set to 75;
#X text 615 542 set to 0.1;
#X text 616 576 set to 1;
#X obj 413 133 declare -path ../../ussstools;
#X connect 0 0 2 0;
#X connect 0 1 2 1;
#X connect 2 0 7 0;
#X connect 2 1 7 1;
#X connect 3 0 2 2;
#X connect 3 1 2 3;
#X connect 4 0 7 2;
#X connect 5 0 2 0;
#X connect 5 1 2 1;
#X connect 6 0 2 2;
#X connect 6 1 2 3;
#X connect 7 0 1 0;
#X connect 7 1 1 1;
#X connect 8 0 9 0;
#X connect 9 0 4 0;
