#N canvas 220 87 649 845 10;
#X declare -path ../../ussstools;
#X obj 29 -30 usss.granular mygran;
#X obj 27 568 usss.output myout;
#X obj 234 445 metro 1000;
#X obj 234 413 tgl 15 0 empty empty empty 17 7 0 10 -262144 -1 -1 0
1;
#X obj 272 357 hsl 128 15 0 127 0 0 empty empty empty -2 -8 0 10 -262144
-1 -1 0 1;
#X floatatom 267 417 5 0 0 0 - - -;
#X obj 234 475 send myenv.trigger;
#X obj 269 397 * 10;
#X text 236 502 move mouse to bottom of draw box;
#X text 236 517 it should change angle to right slanting;
#X text 236 531 draw your envelope;
#X obj 269 329 ctlin;
#X floatatom 349 446 5 0 0 0 - - -;
#X obj 348 425 * 3;
#X obj 349 474 send myenv.total_time;
#X obj 452 372 / 127;
#X obj 452 397 send mygran.position;
#X obj 28 330 usss.envelope myenv;
#X floatatom 385 448 5 0 0 0 - - -;
#X obj 385 378 vsl 10 64 1 10 0 0 empty empty empty 0 -9 0 10 -262144
-1 -1 0 1;
#X obj 257 -19 declare -path ../../ussstools;
#X connect 0 0 17 0;
#X connect 0 1 17 1;
#X connect 2 0 6 0;
#X connect 3 0 2 0;
#X connect 4 0 7 0;
#X connect 4 0 13 0;
#X connect 4 0 15 0;
#X connect 5 0 2 1;
#X connect 7 0 5 0;
#X connect 11 0 4 0;
#X connect 12 0 14 0;
#X connect 13 0 12 0;
#X connect 15 0 16 0;
#X connect 17 0 1 0;
#X connect 17 1 1 1;
#X connect 18 0 13 1;
#X connect 19 0 18 0;
