#N canvas 613 131 941 372 10;
#X obj -6 202 *~;
#X obj 146 116 Line~;
#X obj 494 113 Line~;
#X obj 493 140 expr~ exp($v1);
#X obj 145 47 float 1000;
#X floatatom 203 25 5 0 0 0 - - -;
#X obj 146 23 bng 15 250 50 0 empty empty empty 17 7 0 10 -262144 -1
-1;
#X msg 494 85 -1 \, 3 \$1;
#X obj 277 194 *~ 500;
#X obj -36 149 *~;
#X obj -5 225 *~ 0.05;
#X obj 494 59 gate 2;
#X obj 468 59 + 1;
#X obj 468 25 tgl 15 0 empty empty empty 17 7 0 10 -262144 -1 -1 0
1;
#X msg 563 84 3 \, -1 \$1;
#X obj -37 118 vcf~ 100 2;
#X msg 94 96 2;
#X obj 435 84 loadbang;
#X text 485 17 1 = down swipe 0 = up swipe;
#X obj -5 259 outlet~;
#X obj -38 83 inlet~;
#X obj 465 2 inlet;
#X obj 197 3 inlet;
#X obj 140 -3 inlet;
#X obj 33 81 inlet~;
#X obj 35 158 *~;
#X obj 36 123 vcf~ 100 2;
#X obj 56 205 *~;
#X obj 57 228 *~ 0.05;
#X obj 57 262 outlet~;
#X obj 340 215 r filterswipe;
#X msg 194 104 0 \, 1 50 1 \$1 0 50;
#X text 256 75 continuous;
#X text 309 107 envelope;
#X msg 146 75 1 \, 1 50 1 \$1 1 50;
#X connect 0 0 10 0;
#X connect 1 0 0 1;
#X connect 1 0 27 1;
#X connect 2 0 3 0;
#X connect 3 0 9 1;
#X connect 3 0 8 0;
#X connect 3 0 25 1;
#X connect 4 0 11 1;
#X connect 4 0 34 0;
#X connect 5 0 4 1;
#X connect 6 0 4 0;
#X connect 7 0 2 0;
#X connect 8 0 15 1;
#X connect 8 0 26 1;
#X connect 9 0 0 0;
#X connect 10 0 19 0;
#X connect 11 0 7 0;
#X connect 11 1 14 0;
#X connect 12 0 11 0;
#X connect 13 0 12 0;
#X connect 14 0 2 0;
#X connect 15 0 9 0;
#X connect 16 0 15 2;
#X connect 16 0 26 2;
#X connect 17 0 13 0;
#X connect 17 0 16 0;
#X connect 20 0 15 0;
#X connect 21 0 13 0;
#X connect 22 0 5 0;
#X connect 23 0 6 0;
#X connect 24 0 26 0;
#X connect 25 0 27 0;
#X connect 26 0 25 0;
#X connect 27 0 28 0;
#X connect 28 0 29 0;
#X connect 30 0 8 1;
#X connect 34 0 1 0;
