#N canvas 211 553 941 372 10;
#X obj 53 240 dac~;
#X msg -39 24 \; pd dsp \$1;
#X obj -39 1 tgl 15 0 empty empty empty 17 7 0 10 -262144 -1 -1 1 1
;
#X obj 52 187 *~;
#X obj -38 83 noise~;
#X obj 66 107 Line~;
#X msg 66 54 0 \, 1 50 1 \$1 0 50;
#X obj 285 106 Line~;
#X obj 284 133 expr~ exp($v1);
#X obj 145 15 float 1000;
#X floatatom 203 -7 5 0 0 0 - - -;
#X obj 146 -9 bng 15 250 50 0 empty empty empty 17 7 0 10 -262144 -1
-1;
#X msg 285 78 -1 \, 3 \$1;
#X obj 156 197 *~ 500;
#X obj -36 149 *~;
#X obj 53 210 *~ 0.05;
#X obj 285 52 gate 2;
#X obj 259 52 + 1;
#X obj 259 18 tgl 15 0 empty empty empty 17 7 0 10 -262144 -1 -1 0
1;
#X msg 354 77 3 \, -1 \$1;
#X obj -37 118 vcf~ 100 2;
#X msg 20 94 2;
#X obj 226 77 loadbang;
#X text 276 10 1 = down swipe 0 = up swipe;
#X connect 2 0 1 0;
#X connect 3 0 15 0;
#X connect 4 0 20 0;
#X connect 5 0 3 1;
#X connect 6 0 5 0;
#X connect 7 0 8 0;
#X connect 8 0 14 1;
#X connect 8 0 13 0;
#X connect 9 0 16 1;
#X connect 9 0 6 0;
#X connect 10 0 9 1;
#X connect 11 0 9 0;
#X connect 12 0 7 0;
#X connect 13 0 20 1;
#X connect 14 0 3 0;
#X connect 15 0 0 0;
#X connect 15 0 0 1;
#X connect 16 0 12 0;
#X connect 16 1 19 0;
#X connect 17 0 16 0;
#X connect 18 0 17 0;
#X connect 19 0 7 0;
#X connect 20 0 14 0;
#X connect 21 0 20 2;
#X connect 22 0 18 0;
#X connect 22 0 21 0;
