#N canvas 507 87 773 830 10;
#X declare -path E:/USSSTOOLSKIT/ussstools;
#X declare -path USSSTOOLSKIT/ussstools;
#X declare -path E:/USSSTOOLSKIT/ussstools;
#X declare -path E:/USSSTOOLSKIT/ussstools;
#X declare -path E:/USSSTOOLSKIT/ussstools;
#X declare -path E:/USSSTOOLSKIT/ussstools;
#X declare -path E:/USSSTOOLSKIT/ussstools;
#X declare -path E:/USSSTOOLSKIT/ussstools;
#X declare -path E:/USSSTOOLSKIT/ussstools;
#X declare -path ../../ussstools;
#X declare -path ../../ussstools;
#X obj 73 59 usss.varispeed myv;
#X obj 73 532 usss.output8 myout;
#X obj 74 246 usss.multipan8 mypan;
#X obj 414 355 s mypan.speakerpositions;
#X msg 414 327 0 1 1 1 0 0.6 1 0.6 0 0.3 1 0.3 0 0 1 0;
#X text 416 386 comment;
#X obj 476 431 tgl 15 0 empty empty empty 17 7 0 10 -262144 -1 -1 0
1;
#X obj 477 491 random 100;
#X obj 477 599 line;
#X floatatom 545 433 5 0 0 0 - - -;
#X obj 477 636 send mypan.direction;
#X obj 477 528 usss.zmap 0 100 -1 2;
#X obj 477 459 metro 200;
#X obj 477 565 pack 0 200;
#X obj 318 30 declare -path ../../ussstools;
#X connect 0 0 2 0;
#X connect 0 1 2 1;
#X connect 2 0 1 0;
#X connect 2 1 1 1;
#X connect 2 2 1 2;
#X connect 2 3 1 3;
#X connect 2 4 1 4;
#X connect 2 5 1 5;
#X connect 2 6 1 6;
#X connect 2 7 1 7;
#X connect 4 0 3 0;
#X connect 6 0 12 0;
#X connect 7 0 11 0;
#X connect 8 0 10 0;
#X connect 9 0 12 1;
#X connect 9 0 13 1;
#X connect 11 0 13 0;
#X connect 12 0 7 0;
#X connect 13 0 8 0;
