#N canvas 43 54 1237 970 10;
#X declare -path E:/USSSTOOLSKIT/ussstools;
#X declare -path E:/USSSTOOLSKIT/ussstools;
#X declare -path E:/USSSTOOLSKIT/ussstools;
#X declare -path E:/USSSTOOLSKIT/ussstools;
#X declare -path E:/USSSTOOLSKIT/ussstools;
#X declare -path E:/USSSTOOLSKIT/ussstools;
#X declare -path E:/USSSTOOLSKIT/ussstools;
#X declare -path E:/USSSTOOLSKIT/ussstools;
#X declare -path ../../ussstools;
#X obj 131 12 grid grid1 200 0 199 200 0 199 1 1 1 10 10 309.563 171.994
;
#X floatatom 131 237 5 0 0 0 - - -;
#X floatatom 349 234 5 0 0 0 - - -;
#X obj 131 277 usss.zmap 0 200 0 1;
#X obj 349 272 usss.zmap 0 200 0 1;
#X obj 639 72 usss.varispeed myv;
#X obj 131 321 pack f f;
#X obj 91 377 usss.spatpanguts 0 1;
#X obj 242 382 usss.spatpanguts 1 1;
#X obj 243 512 usss.spatpanguts 1 0;
#X obj 103 502 usss.spatpanguts 0 0;
#X obj 542 588 sin;
#X floatatom 704 619 5 0 0 0 - - -;
#X obj 550 353 tgl 15 0 empty empty empty 17 7 0 10 -262144 -1 -1 0
1;
#X obj 549 382 metro 500;
#X floatatom 543 629 5 0 0 0 - - -;
#X floatatom 602 355 5 0 0 0 - - -;
#X msg 537 832 goto \$1 \$2;
#X obj 536 798 pack f f;
#X floatatom 548 481 5 0 0 0 - - -;
#X obj 548 452 counter 0 100;
#X obj 704 671 usss.zmap -1 1 0 200;
#X obj 545 529 usss.zmap 0 100 0 6.28;
#X obj 708 494 usss.zmap 0 100 0 6.28;
#X msg 567 426 1;
#X obj 542 669 usss.zmap -1 1 0 200;
#X floatatom 821 629 5 0 0 0 - - -;
#X floatatom 779 629 5 0 0 0 - - -;
#X obj 537 726 +;
#X obj 703 742 +;
#X floatatom 792 724 5 0 0 0 - - -;
#X floatatom 750 724 5 0 0 0 - - -;
#X obj 705 558 expr $f2 * cos($f1);
#X floatatom 828 534 5 -1 1 0 - - -;
#X floatatom 814 699 5 0 0 0 - - -;
#X obj 790 606 * -1;
#X floatatom 857 580 5 0 0 0 - - -;
#X obj 251 459 usss.spatpanguts 1 0.333;
#X obj 68 418 usss.spatpanguts 0 0.6;
#X obj 258 411 usss.spatpanguts 1 0.6;
#X obj 897 361 loadbang;
#X msg 895 405 50 1 100;
#X obj 893 433 unpack 0 0 0;
#X obj 609 425 bng 15 250 50 0 empty empty empty 17 7 0 10 -262144
-1 -1;
#X text 864 531 1 clock -1 anticlock;
#X text 896 580 radius;
#X text 852 698 centered;
#X obj 91 458 usss.spatpanguts 0 0.3;
#X obj -35 555 noise~;
#X obj 51 574 *~;
#X obj 67 555 tgl 15 0 empty empty empty 17 7 0 10 -262144 -1 -1 0
1;
#X obj 92 575 *~;
#X obj 108 556 tgl 15 0 empty empty empty 17 7 0 10 -262144 -1 -1 0
1;
#X obj 135 573 *~;
#X obj 151 554 tgl 15 0 empty empty empty 17 7 0 10 -262144 -1 -1 0
1;
#X obj 177 571 *~;
#X obj 193 552 tgl 15 0 empty empty empty 17 7 0 10 -262144 -1 -1 0
1;
#X obj 223 567 *~;
#X obj 239 548 tgl 15 0 empty empty empty 17 7 0 10 -262144 -1 -1 0
1;
#X obj 263 567 *~;
#X obj 279 548 tgl 15 0 empty empty empty 17 7 0 10 -262144 -1 -1 0
1;
#X obj 302 567 *~;
#X obj 318 548 tgl 15 0 empty empty empty 17 7 0 10 -262144 -1 -1 0
1;
#X obj 338 569 *~;
#X obj 354 550 tgl 15 0 empty empty empty 17 7 0 10 -262144 -1 -1 0
1;
#X obj 968 206 key;
#X floatatom 955 250 5 0 0 0 - - -;
#X obj 899 274 sel 97 115 100 102 106 107 108 59;
#X obj 50 629 usss.output8cub my8;
#X obj 531 46 declare -path ../../ussstools;
#X connect 0 0 1 0;
#X connect 0 1 2 0;
#X connect 1 0 3 0;
#X connect 2 0 4 0;
#X connect 3 0 6 0;
#X connect 4 0 6 1;
#X connect 5 0 7 0;
#X connect 5 0 10 0;
#X connect 5 0 38 0;
#X connect 5 0 47 0;
#X connect 5 0 49 0;
#X connect 5 0 51 0;
#X connect 5 0 53 0;
#X connect 5 0 55 0;
#X connect 5 0 57 0;
#X connect 5 0 59 0;
#X connect 5 0 61 0;
#X connect 5 0 63 0;
#X connect 5 1 8 0;
#X connect 5 1 9 0;
#X connect 5 1 37 0;
#X connect 5 1 39 0;
#X connect 6 0 7 1;
#X connect 6 0 8 1;
#X connect 6 0 9 1;
#X connect 6 0 10 1;
#X connect 6 0 38 1;
#X connect 6 0 39 1;
#X connect 6 0 47 1;
#X connect 6 0 37 1;
#X connect 11 0 15 0;
#X connect 12 0 21 0;
#X connect 13 0 14 0;
#X connect 14 0 20 0;
#X connect 15 0 25 0;
#X connect 16 0 14 1;
#X connect 17 0 0 0;
#X connect 18 0 17 0;
#X connect 19 0 22 0;
#X connect 19 0 23 0;
#X connect 20 0 19 0;
#X connect 21 0 29 0;
#X connect 22 0 11 0;
#X connect 23 0 32 0;
#X connect 24 0 20 1;
#X connect 25 0 28 0;
#X connect 26 0 21 4;
#X connect 26 0 25 4;
#X connect 27 0 25 3;
#X connect 27 0 21 3;
#X connect 28 0 18 0;
#X connect 29 0 18 1;
#X connect 30 0 29 1;
#X connect 31 0 28 1;
#X connect 32 0 12 0;
#X connect 33 0 32 1;
#X connect 34 0 31 0;
#X connect 34 0 30 0;
#X connect 35 0 27 0;
#X connect 36 0 35 0;
#X connect 36 0 26 0;
#X connect 40 0 41 0;
#X connect 41 0 42 0;
#X connect 42 0 16 0;
#X connect 42 1 33 0;
#X connect 42 1 43 0;
#X connect 42 2 36 0;
#X connect 43 0 24 0;
#X connect 49 0 68 0;
#X connect 50 0 49 1;
#X connect 51 0 68 1;
#X connect 52 0 51 1;
#X connect 53 0 68 2;
#X connect 54 0 53 1;
#X connect 55 0 68 3;
#X connect 56 0 55 1;
#X connect 57 0 68 4;
#X connect 58 0 57 1;
#X connect 59 0 68 5;
#X connect 60 0 59 1;
#X connect 61 0 68 6;
#X connect 62 0 61 1;
#X connect 63 0 68 7;
#X connect 64 0 63 1;
#X connect 66 0 67 0;
#X connect 67 0 62 0;
#X connect 67 1 58 0;
#X connect 67 2 54 0;
#X connect 67 3 50 0;
#X connect 67 4 52 0;
#X connect 67 5 56 0;
#X connect 67 6 60 0;
#X connect 67 7 64 0;
