#N canvas 1280 82 1121 942 10;
#X declare -path E:/USSSTOOLSKIT/ussstools;
#X declare -path E:/USSSTOOLSKIT/ussstools;
#X declare -path E:/USSSTOOLSKIT/ussstools;
#X declare -path E:/USSSTOOLSKIT/ussstools;
#X declare -path ../../ussstools;
#X obj 131 12 grid grid1 200 0 199 200 0 199 1 1 1 10 10 238 88;
#X floatatom 131 237 5 0 0 0 - - -;
#X floatatom 349 234 5 0 0 0 - - -;
#X obj 131 277 usss.zmap 0 200 0 1;
#X obj 349 272 usss.zmap 0 200 0 1;
#X obj 639 72 usss.varispeed myv;
#X obj 89 730 usss.output6 my6out;
#X obj 92 377 usssspatguts 0 1;
#X obj 131 321 pack f f;
#X obj 242 382 usssspatguts 1 1;
#X obj 95 442 usssspatguts 0 0;
#X obj 245 441 usssspatguts 1 0;
#X obj 374 55 declare -path ../../ussstools;
#X connect 0 0 1 0;
#X connect 0 1 2 0;
#X connect 1 0 3 0;
#X connect 2 0 4 0;
#X connect 3 0 8 0;
#X connect 4 0 8 1;
#X connect 5 0 7 0;
#X connect 5 0 10 0;
#X connect 5 1 9 0;
#X connect 5 1 11 0;
#X connect 7 0 6 0;
#X connect 8 0 7 1;
#X connect 8 0 9 1;
#X connect 8 0 10 1;
#X connect 8 0 11 1;
#X connect 9 0 6 1;
#X connect 10 0 6 4;
#X connect 11 0 6 5;
