#N canvas 43 99 663 540 10;
#X declare -path ../../ussstools;
#X obj 172 455 *~;
#X obj 194 229 usss.zmap 0 1.5 0 4;
#X obj 193 284 exp;
#X obj 187 408 line~;
#X msg 186 380 \$1 20;
#X obj 190 318 usss.zmap 0 55 0 1;
#X obj 147 143 expr 1.5 - sqrt(pow(abs($f1-$f2) \, 2) + pow(abs($f3-$f4)
\, 2));
#X obj 268 89 \$1;
#X obj 420 88 \$2;
#X obj 287 39 loadbang;
#X obj 122 45 inlet;
#X obj 116 79 unpack f f;
#X obj 49 238 inlet~;
#X obj 164 489 outlet~;
#X obj 406 36 declare -path ../../ussstools;
#X connect 0 0 13 0;
#X connect 1 0 2 0;
#X connect 2 0 5 0;
#X connect 3 0 0 1;
#X connect 4 0 3 0;
#X connect 5 0 4 0;
#X connect 6 0 1 0;
#X connect 7 0 6 1;
#X connect 8 0 6 3;
#X connect 9 0 7 0;
#X connect 9 0 8 0;
#X connect 10 0 11 0;
#X connect 11 0 6 0;
#X connect 11 1 6 2;
#X connect 12 0 0 0;
