#N canvas 159 82 1121 942 10;
#X declare -path E:/USSSTOOLSKIT/ussstools;
#X declare -path E:/USSSTOOLSKIT/ussstools;
#X declare -path E:/USSSTOOLSKIT/ussstools;
#X declare -path E:/USSSTOOLSKIT/ussstools;
#X declare -path E:/USSSTOOLSKIT/ussstools;
#X declare -path E:/USSSTOOLSKIT/ussstools;
#X declare -path ../../ussstools;
#X obj 131 12 grid grid1 200 0 199 200 0 199 1 1 1 10 10 204.489 194.265
;
#X floatatom 131 237 5 0 0 0 - - -;
#X floatatom 349 234 5 0 0 0 - - -;
#X obj 131 277 usss.zmap 0 200 0 1;
#X obj 349 272 usss.zmap 0 200 0 1;
#X obj 639 72 usss.varispeed myv;
#X obj 89 730 usss.output6 my6out;
#X obj 131 321 pack f f;
#X obj 91 377 usss.spatpanguts 0 1;
#X obj 242 382 usss.spatpanguts 1 1;
#X obj 245 441 usss.spatpanguts 1 0;
#X obj 95 442 usss.spatpanguts 0 0;
#X obj 101 409 usss.spatpanguts 0 0.5;
#X obj 258 411 usss.spatpanguts 1 0.5;
#X obj 542 588 sin;
#X floatatom 704 619 5 0 0 0 - - -;
#X obj 550 353 tgl 15 0 empty empty empty 17 7 0 10 -262144 -1 -1 0
1;
#X obj 549 382 metro 500;
#X floatatom 543 629 5 0 0 0 - - -;
#X floatatom 602 355 5 0 0 0 - - -;
#X msg 537 832 goto \$1 \$2;
#X obj 536 798 pack f f;
#X floatatom 548 481 5 0 0 0 - - -;
#X obj 548 452 counter 0 100;
#X obj 704 671 usss.zmap -1 1 0 200;
#X obj 545 529 usss.zmap 0 100 0 6.28;
#X obj 708 494 usss.zmap 0 100 0 6.28;
#X msg 567 426 1;
#X obj 542 669 usss.zmap -1 1 0 200;
#X floatatom 821 629 5 0 0 0 - - -;
#X floatatom 779 629 5 0 0 0 - - -;
#X obj 537 726 +;
#X obj 703 742 +;
#X floatatom 792 724 5 0 0 0 - - -;
#X floatatom 750 724 5 0 0 0 - - -;
#X obj 705 558 expr $f2 * cos($f1);
#X floatatom 828 534 5 -1 1 0 - - -;
#X floatatom 814 699 5 0 0 0 - - -;
#X obj 790 606 * -1;
#X floatatom 857 580 5 0 0 0 - - -;
#X obj 776 26 declare -path ../../ussstools;
#X connect 0 0 1 0;
#X connect 0 1 2 0;
#X connect 1 0 3 0;
#X connect 2 0 4 0;
#X connect 3 0 7 0;
#X connect 4 0 7 1;
#X connect 5 0 8 0;
#X connect 5 0 11 0;
#X connect 5 0 12 0;
#X connect 5 1 9 0;
#X connect 5 1 10 0;
#X connect 5 1 13 0;
#X connect 7 0 8 1;
#X connect 7 0 9 1;
#X connect 7 0 10 1;
#X connect 7 0 11 1;
#X connect 7 0 12 1;
#X connect 7 0 13 1;
#X connect 8 0 6 0;
#X connect 9 0 6 1;
#X connect 10 0 6 5;
#X connect 11 0 6 4;
#X connect 12 0 6 2;
#X connect 13 0 6 3;
#X connect 14 0 18 0;
#X connect 15 0 24 0;
#X connect 16 0 17 0;
#X connect 17 0 23 0;
#X connect 18 0 28 0;
#X connect 19 0 17 1;
#X connect 20 0 0 0;
#X connect 21 0 20 0;
#X connect 22 0 25 0;
#X connect 22 0 26 0;
#X connect 23 0 22 0;
#X connect 24 0 32 0;
#X connect 25 0 14 0;
#X connect 26 0 35 0;
#X connect 27 0 23 1;
#X connect 28 0 31 0;
#X connect 29 0 24 4;
#X connect 29 0 28 4;
#X connect 30 0 28 3;
#X connect 30 0 24 3;
#X connect 31 0 21 0;
#X connect 32 0 21 1;
#X connect 33 0 32 1;
#X connect 34 0 31 1;
#X connect 35 0 15 0;
#X connect 36 0 35 1;
#X connect 37 0 34 0;
#X connect 37 0 33 0;
#X connect 38 0 30 0;
#X connect 39 0 38 0;
#X connect 39 0 29 0;
