#N canvas 1387 113 765 663 10;
#X declare -path ../../ussstools;
#X obj 34 368 usss.output myout;
#X obj 33 16 usss.granular mygran;
#X obj 251 281 s mygran.position;
#X obj 252 119 tgl 15 0 empty empty empty 17 7 0 10 -262144 -1 -1 0
1;
#X floatatom 342 212 5 0 0 1 start_point_(0-100) - -;
#X obj 252 146 metro 10;
#X obj 252 254 / 100;
#X obj 252 229 counter 0 100;
#X msg 327 149 0;
#X msg 337 168 1;
#X msg 346 188 2;
#X text 358 146 counter direction;
#X text 381 158 0 = up;
#X text 381 170 1 = down;
#X text 381 182 2 = up and down;
#X floatatom 282 118 5 0 0 1 speed - -;
#X obj 35 -18 declare -path ../../ussstools;
#X connect 1 0 0 0;
#X connect 1 1 0 1;
#X connect 3 0 5 0;
#X connect 4 0 7 2;
#X connect 5 0 7 0;
#X connect 6 0 2 0;
#X connect 7 0 6 0;
#X connect 8 0 7 1;
#X connect 9 0 7 1;
#X connect 10 0 7 1;
#X connect 15 0 5 1;
