#N canvas 43 82 1237 696 10;
#X declare -path ../../ussstools;
#X floatatom 407 122 5 0 0 0 - - -;
#X floatatom 488 112 5 0 0 0 - - -;
#X floatatom 566 106 5 0 0 0 - - -;
#X floatatom 618 107 5 0 0 0 - - -;
#N canvas 4 11 590 504 randpitch 0;
#X obj 13 305 inlet;
#X obj 169 48 inlet;
#X obj 264 46 inlet;
#X obj 99 74 loadbang;
#X obj 106 118 metro;
#X obj 102 143 random 1000;
#X obj 110 196 *;
#X obj 76 277 pow;
#X obj 110 231 t b f;
#X msg 75 238 2;
#X floatatom 276 119 5 0 0 0 - - -;
#X obj 275 153 sel 0;
#X msg 273 190 1;
#X obj 262 317 gate 2;
#X obj 302 209 bng 15 250 50 0 empty empty empty 0 -6 0 10 -262144
-1 -1;
#X msg 302 233 2;
#X obj 254 420 * 1;
#X obj 305 363 expr ($f1/$f2) * $f2;
#X obj 254 463 outlet;
#X obj 105 169 * 0.001;
#X connect 0 0 16 1;
#X connect 1 0 6 1;
#X connect 2 0 10 0;
#X connect 3 0 4 0;
#X connect 4 0 5 0;
#X connect 5 0 19 0;
#X connect 6 0 8 0;
#X connect 7 0 13 1;
#X connect 8 0 9 0;
#X connect 8 1 7 1;
#X connect 9 0 7 0;
#X connect 10 0 11 0;
#X connect 11 0 12 0;
#X connect 11 1 14 0;
#X connect 11 1 17 1;
#X connect 12 0 13 0;
#X connect 13 0 16 0;
#X connect 13 1 17 0;
#X connect 14 0 15 0;
#X connect 15 0 13 0;
#X connect 16 0 18 0;
#X connect 17 0 16 0;
#X connect 19 0 6 0;
#X restore 546 139 pd randpitch;
#X obj 546 175 sig~;
#X obj 488 148 t b f;
#X obj 483 178 nbx 5 14 -1e+37 1e+37 0 0 empty empty empty 0 -6 0 10
-262144 -1 -1 0 256;
#X obj 403 204 expr 1000 / $f1 * $f2;
#X floatatom 478 252 5 0 0 0 - - -;
#X floatatom -90 381 5 0 0 0 - - -;
#X obj 27 435 noise~;
#X obj 28 468 +~ 1;
#X obj 71 469 / 2;
#X obj 30 507 *~;
#X floatatom 72 431 5 0 0 0 - - -;
#X obj -39 534 +~;
#X obj 481 367 noise~;
#X floatatom 484 346 5 0 0 0 - - -;
#X obj 476 314 / 256;
#X obj 482 406 *~;
#X obj 484 439 +~ 0.5;
#X obj -97 438 line~;
#X obj -89 358 *;
#X obj -38 560 send~ \$1.pos;
#X obj 544 208 send~ \$1.gdur;
#X obj 403 250 s \$1.gfreq;
#X obj 273 468 usss.window \$1.wndw;
#X obj 484 473 send~ \$1.pan;
#X obj 10 735 outlet~;
#X obj 149 734 outlet~;
#X obj -36 371 s \$1.gain;
#X obj -33 599 usss.grain~ \$1 0;
#X obj 2 27 usss.tabplay \$1;
#X obj -107 406 pack 0 20;
#X obj 2 89 usss.hslider \$1.position 0 1 0;
#X obj 2 159 usss.hslider \$1.grainsize 20 300 80;
#X obj 2 229 usss.hslider \$1.randpitch 0 4 0;
#X obj 2 264 usss.hslider \$1.graingain 0 1 0;
#X obj 2 299 usss.hslider \$1.grainpan 0 256 256;
#X obj 620 45 loadbang;
#X obj 2 194 usss.hslider \$1.mainpitch 0 3 1;
#X floatatom 90 70 8 0 0 1 Rand_Max - -;
#X obj 2 124 usss.hslider \$1.randomposition 0 100 3;
#X obj 418 597 usss.grain~ \$1 0.375;
#X obj 100 598 usss.grain~ \$1 0.125;
#X obj 261 599 usss.grain~ \$1 0.25;
#X obj 24 625 usss.grain~ \$1 0.5;
#X obj 171 623 usss.grain~ \$1 0.625;
#X obj 340 623 usss.grain~ \$1 0.75;
#X obj 492 623 usss.grain~ \$1 0.875;
#X obj 299 42 inlet~;
#X obj 358 41 inlet~;
#X obj 210 734 outlet~;
#X obj 423 731 outlet~;
#X obj 84 735 outlet~;
#X obj 277 736 outlet~;
#X obj 343 736 outlet~;
#X obj 493 732 outlet~;
#X obj -38 651 usss.grain~ \$1 0.0625;
#X obj 120 651 usss.grain~ \$1 0.1875;
#X obj 264 654 usss.grain~ \$1 0.3125;
#X obj 421 652 usss.grain~ \$1 0.4375;
#X obj 27 680 usss.grain~ \$1 0.5625;
#X obj 174 678 usss.grain~ \$1 0.6875;
#X obj 343 678 usss.grain~ \$1 0.8125;
#X obj 495 678 usss.grain~ \$1 0.9375;
#X msg 619 74 0;
#X obj 729 38 declare -path ../../ussstools;
#X connect 0 0 8 0;
#X connect 0 0 4 0;
#X connect 1 0 6 0;
#X connect 2 0 4 1;
#X connect 3 0 4 2;
#X connect 4 0 5 0;
#X connect 5 0 25 0;
#X connect 6 0 8 0;
#X connect 6 1 7 0;
#X connect 7 0 8 1;
#X connect 8 0 9 0;
#X connect 8 0 26 0;
#X connect 10 0 34 0;
#X connect 11 0 12 0;
#X connect 12 0 14 0;
#X connect 13 0 14 1;
#X connect 14 0 16 1;
#X connect 15 0 13 0;
#X connect 16 0 24 0;
#X connect 17 0 20 0;
#X connect 18 0 20 1;
#X connect 19 0 18 0;
#X connect 20 0 21 0;
#X connect 21 0 28 0;
#X connect 22 0 16 0;
#X connect 23 0 10 0;
#X connect 32 0 29 0;
#X connect 32 1 55 0;
#X connect 33 0 23 1;
#X connect 33 0 42 0;
#X connect 34 0 22 0;
#X connect 35 0 23 0;
#X connect 36 0 0 0;
#X connect 37 0 2 0;
#X connect 38 0 31 0;
#X connect 39 0 19 0;
#X connect 40 0 67 0;
#X connect 41 0 1 0;
#X connect 42 0 43 1;
#X connect 43 0 15 0;
#X connect 44 0 54 0;
#X connect 44 1 58 0;
#X connect 45 0 30 0;
#X connect 45 1 53 0;
#X connect 46 0 56 0;
#X connect 46 1 57 0;
#X connect 47 0 29 0;
#X connect 47 1 55 0;
#X connect 48 0 30 0;
#X connect 48 1 53 0;
#X connect 49 0 56 0;
#X connect 49 1 57 0;
#X connect 50 0 54 0;
#X connect 50 1 58 0;
#X connect 51 0 33 0;
#X connect 52 0 33 1;
#X connect 59 0 55 0;
#X connect 59 1 30 0;
#X connect 60 0 53 0;
#X connect 60 1 56 0;
#X connect 61 0 57 0;
#X connect 61 1 54 0;
#X connect 62 0 58 0;
#X connect 62 1 29 0;
#X connect 63 0 55 0;
#X connect 63 1 30 0;
#X connect 64 0 53 0;
#X connect 64 1 56 0;
#X connect 65 0 57 0;
#X connect 65 1 54 0;
#X connect 66 0 58 0;
#X connect 66 1 29 0;
#X connect 67 0 3 0;
#X coords 0 -1 1 1 200 335 1 0 0;
