#N canvas 43 82 1237 825 10;
#X declare -path ../../ussstools;
#X msg 32 19 \; pd dsp 1;
#X msg 105 19 \; pd dsp 0;
#N canvas 1077 301 714 554 arrays 0;
#X obj 27 216 soundfiler;
#X floatatom 27 238 0 0 0 0 - - -;
#N canvas 0 0 450 300 (subpatch) 0;
#X array aL 57432 float 2;
#X coords 0 1 57432 -1 100 50 1 0 0;
#X restore 406 37 graph;
#X msg 542 30 bang;
#X obj 542 51 openpanel;
#X obj 542 72 t s b;
#X obj 588 72 float \$0;
#X obj 542 93 route float;
#X obj 543 147 pack s s;
#X msg 543 168 read -resize \$1 \$2;
#X obj 542 114 makefilename %d-sample;
#N canvas 0 0 450 300 (subpatch) 0;
#X array aR 57432 float 2;
#X coords 0 1 57432 -1 100 50 1 0 0;
#X restore 406 112 graph;
#X msg 28 32 read -resize E:/soundfiles/counterattack/smallsources/dhit1.wav
aL aR \;;
#X connect 0 0 1 0;
#X connect 3 0 4 0;
#X connect 4 0 5 0;
#X connect 5 0 8 0;
#X connect 5 1 6 0;
#X connect 6 0 7 0;
#X connect 7 0 10 0;
#X connect 8 0 9 0;
#X connect 10 0 8 1;
#X connect 12 0 0 0;
#X restore 619 22 pd arrays;
#N canvas 793 232 450 300 drumpatch 0;
#X obj 25 170 hradio 15 1 0 16 empty empty empty 0 -8 0 10 -262144
-1 -1 0;
#X obj 41 106 metro 1000;
#X obj 42 149 counter 0 4;
#X obj 44 27 sel 1;
#X msg 76 126 0;
#X obj 43 53 t b b;
#X msg 39 79 1;
#X msg 40 3 1;
#X msg 68 4 0;
#X obj 147 80 expr (60000 / $f1);
#X floatatom 147 49 5 0 0 0 - - -;
#X obj 27 237 coll pattern1.coll;
#C restore;
#X msg 103 202 write;
#X floatatom 139 237 5 0 0 0 - - -;
#X floatatom 112 126 5 0 0 0 - - -;
#X obj 42 203 + 1;
#X obj 28 280 unpack 0 0 0 0 0 0;
#X obj 28 309 sel 1;
#X msg 68 202 read;
#X connect 1 0 2 0;
#X connect 2 0 0 0;
#X connect 2 0 15 0;
#X connect 3 0 5 0;
#X connect 3 1 1 0;
#X connect 4 0 2 2;
#X connect 5 0 6 0;
#X connect 5 1 4 0;
#X connect 6 0 1 0;
#X connect 7 0 3 0;
#X connect 8 0 3 0;
#X connect 9 0 1 1;
#X connect 10 0 9 0;
#X connect 11 0 16 0;
#X connect 11 1 13 0;
#X connect 12 0 11 0;
#X connect 14 0 2 4;
#X connect 15 0 11 0;
#X connect 16 0 17 0;
#X connect 18 0 11 0;
#X restore 511 22 pd drumpatch;
#X obj 6 318 tabread4~ aL;
#X obj 87 318 tabread4~ aR;
#X obj 9 272 vline~;
#X msg 9 233 0 0 \, 44100 \$1;
#X obj 9 178 random 1000;
#X obj 9 204 + 100;
#X obj 9 127 metro 1000;
#X obj 10 61 tgl 15 0 empty empty empty 17 7 0 10 -262144 -1 -1 0 1
;
#X floatatom 54 206 5 0 0 0 - - -;
#X floatatom 93 179 5 0 0 0 - - -;
#X floatatom 93 142 5 0 0 0 - - -;
#X obj 92 91 random 1000;
#X obj 92 116 + 100;
#X floatatom 140 115 5 0 0 0 - - -;
#X floatatom 155 65 5 0 0 0 - - -;
#N canvas 1685 117 875 575 bcfcontrol 1;
#X obj 77 63 ctlin;
#X obj 45 117 nbx 5 14 -1e+37 1e+37 0 0 empty empty empty 0 -6 0 10
-262144 -1 -1 0 256;
#X obj 113 117 nbx 5 14 -1e+37 1e+37 0 0 empty empty empty 0 -6 0 10
-262144 -1 -1 0 256;
#X text 245 59 make sure you have alsa-midi and bcf2000 - pd connected
;
#X obj 45 229 route 81 82 83 84 85 86 87 88;
#X obj 282 229 route 1 2 3 4 5 6 7 8;
#X obj 69 172 swap;
#X floatatom 39 263 5 0 0 0 - - -;
#X floatatom 53 305 5 0 0 0 - - -;
#X floatatom 70 286 5 0 0 0 - - -;
#X floatatom 97 308 5 0 0 0 - - -;
#X floatatom 110 283 5 0 0 0 - - -;
#X floatatom 143 307 5 0 0 0 - - -;
#X floatatom 162 282 5 0 0 0 - - -;
#X floatatom 197 283 5 0 0 0 - - -;
#X obj 69 144 pack 0 0;
#X obj 69 198 pack;
#X text 646 177 bcfader = preset number bcdial = preset dial bccontrol
1 - 16 = 1 - 8 fader 9 - 16 dial;
#X obj 495 380 bcf2000fader 0 127 0 1 f7;
#X obj 654 381 bcf2000fader 0 127 0 1 f8;
#X text 332 207 dials;
#X text 112 208 faders;
#X obj 218 351 bcf2000fader 0 127 0 5 f2;
#X obj 40 351 bcf2000fader 0 127 10 800 f1;
#X obj 380 351 bcf2000fader 0 127 2 800 f3;
#X obj 559 351 bcf2000fader 0 127 2 100 f4;
#X obj 133 385 bcf2000fader 0 127 -90 20 f5;
#X obj 330 383 bcf2000fader 0 127 0 180 f6;
#X connect 0 0 1 0;
#X connect 0 1 2 0;
#X connect 1 0 15 0;
#X connect 2 0 15 1;
#X connect 4 0 7 0;
#X connect 4 1 8 0;
#X connect 4 2 9 0;
#X connect 4 3 10 0;
#X connect 4 4 11 0;
#X connect 4 5 12 0;
#X connect 4 6 13 0;
#X connect 4 7 14 0;
#X connect 4 8 5 0;
#X connect 6 0 16 0;
#X connect 6 1 16 1;
#X connect 7 0 23 0;
#X connect 8 0 22 0;
#X connect 9 0 24 0;
#X connect 10 0 25 0;
#X connect 11 0 26 0;
#X connect 12 0 27 0;
#X connect 13 0 18 0;
#X connect 14 0 19 0;
#X connect 15 0 6 0;
#X connect 16 0 4 0;
#X restore 1001 122 pd bcfcontrol;
#X obj 178 114 r f1;
#X obj 67 556 usss.output6 myout6;
#X obj 27 148 s mbang;
#X obj 665 681 1in6out-distributor;
#X obj 849 642 random 6;
#X obj 1001 644 r f2;
#X floatatom 1001 669 5 0 0 0 - - -;
#X floatatom 1001 724 5 0 0 0 - - -;
#X obj 1001 697 i;
#X obj 1111 323 metro 100;
#X obj 1083 296 tgl 15 0 empty empty empty 17 7 0 10 -262144 -1 -1
0 1;
#X floatatom 1179 270 5 0 0 0 - - -;
#X obj 1104 473 i;
#X obj 1132 473 + 1;
#X floatatom 1105 535 5 0 0 0 - - -;
#X obj 1106 508 % 6;
#X floatatom 1137 508 5 0 0 0 - - -;
#X obj 1104 656 sel 0 1 2 3 4 5;
#X obj 1068 689 i;
#X obj 1103 687 i;
#X obj 1144 686 i;
#X obj 1177 688 i;
#X obj 1212 684 i;
#X obj 1251 688 i;
#X obj 1302 650 unpack 0 0 0 0 0 0;
#X msg 1302 620 0 2 4 5 3 1;
#X obj 849 617 r mbang;
#X floatatom 907 643 5 0 0 0 - - -;
#X msg 1391 620 0 1 3 5 4 2;
#X obj 476 76 usss.samplehold mysh;
#X obj 472 356 usss.envelope myenv;
#X obj 158 172 s myenv.trigger;
#X obj 208 227 s myenv.total_time;
#X obj 662 722 1in6out-distributor;
#X obj 859 729 random 6;
#X obj 859 704 r mbang;
#X floatatom 917 730 5 0 0 0 - - -;
#X obj 194 66 r f3;
#X obj 854 188 r f4;
#X obj 853 214 s mysh.chunksize;
#X obj 979 184 r f5;
#X obj 981 212 s mysh.transposition;
#X obj 1116 211 s mysh.precision;
#X obj 1114 183 r f6;
#X obj 250 59 declare -path ../../ussstools;
#X connect 6 0 4 0;
#X connect 6 0 5 0;
#X connect 7 0 6 0;
#X connect 8 0 9 0;
#X connect 9 0 7 0;
#X connect 10 0 8 0;
#X connect 10 0 15 0;
#X connect 10 0 22 0;
#X connect 10 0 51 0;
#X connect 11 0 10 0;
#X connect 12 0 9 1;
#X connect 13 0 8 1;
#X connect 14 0 10 1;
#X connect 14 0 52 0;
#X connect 15 0 16 0;
#X connect 16 0 14 0;
#X connect 17 0 16 1;
#X connect 18 0 15 1;
#X connect 20 0 17 0;
#X connect 23 0 21 0;
#X connect 23 1 21 1;
#X connect 23 2 21 2;
#X connect 23 3 21 3;
#X connect 23 4 21 4;
#X connect 23 5 21 5;
#X connect 24 0 23 1;
#X connect 24 0 47 0;
#X connect 25 0 26 0;
#X connect 26 0 28 0;
#X connect 28 0 27 0;
#X connect 30 0 29 0;
#X connect 31 0 29 1;
#X connect 32 0 33 0;
#X connect 32 0 35 0;
#X connect 33 0 32 1;
#X connect 34 0 37 0;
#X connect 35 0 34 0;
#X connect 36 0 35 1;
#X connect 37 0 38 0;
#X connect 37 1 39 0;
#X connect 37 2 40 0;
#X connect 37 3 41 0;
#X connect 37 4 42 0;
#X connect 37 5 43 0;
#X connect 38 0 23 1;
#X connect 39 0 23 1;
#X connect 40 0 23 1;
#X connect 41 0 23 1;
#X connect 42 0 23 1;
#X connect 43 0 23 1;
#X connect 44 0 38 1;
#X connect 44 1 39 1;
#X connect 44 2 40 1;
#X connect 44 3 41 1;
#X connect 44 4 42 1;
#X connect 44 5 43 1;
#X connect 45 0 44 0;
#X connect 46 0 24 0;
#X connect 48 0 44 0;
#X connect 49 0 50 0;
#X connect 49 1 50 1;
#X connect 50 0 23 0;
#X connect 50 1 53 0;
#X connect 53 0 21 0;
#X connect 53 1 21 1;
#X connect 53 2 21 2;
#X connect 53 3 21 3;
#X connect 53 4 21 4;
#X connect 53 5 21 5;
#X connect 54 0 56 0;
#X connect 54 0 53 1;
#X connect 55 0 54 0;
#X connect 57 0 18 0;
#X connect 58 0 59 0;
#X connect 60 0 61 0;
#X connect 63 0 62 0;
