#N canvas 1296 210 652 626 10;
#X declare -path ../../ussstools;
#X obj 29 344 usss.output myout;
#X obj 30 4 usss.sfplay mysfplay;
#X obj 29 195 usss.panner1 myp1;
#X obj 29 251 usss.panner1 myp2;
#X floatatom 442 240 5 0 0 0 - - -;
#X obj 430 296 -;
#X obj 399 297 +;
#X obj 442 266 t b f;
#X obj 443 190 hsl 128 15 0 127 0 0 empty empty width -2 -8 0 10 -262144
-1 -1 0 1;
#X msg 399 253 0.125;
#X obj 384 354 s myp1.pan;
#X obj 481 353 s myp2.pan;
#X obj 439 215 usss.zmap 0 127 -0.25 0.25;
#X obj 255 191 hsl 128 15 0 127 0 0 empty empty panning -2 -8 0 10
-262144 -1 -1 0 1;
#X obj 384 331 clip 0 0.25;
#X obj 480 329 clip 0 0.25;
#X obj 251 216 usss.zmap 0 127 0 0.25;
#X obj 399 152 loadbang;
#X obj 32 -25 declare -path ../../ussstools;
#X connect 1 0 2 0;
#X connect 1 1 3 0;
#X connect 2 0 0 0;
#X connect 2 1 0 1;
#X connect 3 0 0 0;
#X connect 3 1 0 1;
#X connect 4 0 7 0;
#X connect 5 0 15 0;
#X connect 6 0 14 0;
#X connect 7 0 6 0;
#X connect 7 0 5 0;
#X connect 7 1 5 1;
#X connect 7 1 6 1;
#X connect 8 0 12 0;
#X connect 9 0 6 0;
#X connect 9 0 5 0;
#X connect 12 0 4 0;
#X connect 13 0 16 0;
#X connect 14 0 10 0;
#X connect 15 0 11 0;
#X connect 16 0 6 0;
#X connect 16 0 5 0;
#X connect 17 0 9 0;
