#N canvas 43 349 1237 589 10;
#X declare -path ../../ussstools;
#X obj 102 116 usss.hslider \$1.amp 0 1 1;
#X obj 521 64 inlet~;
#X obj 464 64 inlet~;
#X obj 473 204 *~;
#X obj 416 204 *~;
#X obj 248 292 tgl 15 0 empty empty Record_start/stop 17 7 0 10 -191407
-4160 -258113 0 1;
#X obj 248 274 tgl 15 0 empty empty On/Off 17 7 0 10 -191407 -4160
-1 0 1;
#X msg 11 196 \; pd dsp \$1;
#X obj 248 310 bng 15 250 50 0 empty empty /tmp/sound.wav 17 7 0 10
-262144 -1 -1;
#X obj 105 354 savepanel;
#X obj 174 411 print \$1;
#X msg 47 437 start;
#X obj 47 378 sel 1;
#X msg 92 435 stop;
#X msg 174 355 label \$1;
#X obj 119 267 usss.monometer;
#X obj 105 267 usss.monometer;
#X obj 213 37 dsp;
#X floatatom 321 338 5 0 0 2 Avg_% - -;
#X floatatom 356 338 5 0 0 2 Peak_% - -;
#X text 296 338 CPU;
#X obj 413 235 hip~ 3;
#X obj 473 234 hip~ 3;
#X obj 756 393 loadbang;
#X obj -76 469 timer;
#X floatatom 249 328 5 0 0 0 - - -;
#X obj 92 403 t b;
#X obj 131 435 delay 5;
#X msg 391 431 label /tmp/sound.wav;
#X msg 391 465 open -wave -bytes 3 /tmp/sound.wav;
#X msg 107 376 open -wave -bytes 3 \$1;
#X text 539 430 sort out tmp file;
#X text 623 349 hipass filter to remove dc;
#X obj 102 17 r pd;
#X obj 102 41 route dsp;
#X msg 103 66 set \$1;
#X text -253 47 this allows the patch to know when dsp got turned on/off
;
#X obj -48 381 bang~;
#X obj -76 444 t b b;
#X obj -76 492 * 0.001;
#X obj -95 532 accum 0;
#X obj -76 406 gate;
#X msg 3 492 0;
#X obj 679 63 inlet~;
#X obj 622 63 inlet~;
#X obj 540 237 hip~ 3;
#X obj 600 236 hip~ 3;
#X obj 589 203 *~;
#X obj 532 203 *~;
#X text 392 530 comment;
#X obj 103 153 usss.hslider \$1.amp 0 1 1;
#X obj 150 267 usss.monometer;
#X obj 136 267 usss.monometer;
#X obj 103 190 usss.hslider \$1.amp 0 1 1;
#X obj 784 61 inlet~;
#X obj 727 61 inlet~;
#X obj 645 235 hip~ 3;
#X obj 705 234 hip~ 3;
#X obj 693 195 *~;
#X obj 637 201 *~;
#X obj 180 266 usss.monometer;
#X obj 165 267 usss.monometer;
#X obj 412 262 *~;
#X obj 471 263 *~;
#X obj 545 263 *~;
#X obj 598 263 *~;
#X obj 640 265 *~;
#X obj 705 265 *~;
#X obj 1057 251 line~;
#X msg 1061 225 \$1 20;
#X floatatom 303 128 5 0 1 2 #1.globalgain - -;
#X obj 771 250 hip~ 3;
#X obj 831 249 hip~ 3;
#X obj 820 216 *~;
#X obj 763 216 *~;
#X obj 766 280 *~;
#X obj 831 280 *~;
#X obj 886 67 inlet~;
#X obj 829 67 inlet~;
#X obj 104 228 usss.hslider \$1.amp 0 1 1;
#X obj 209 267 usss.monometer;
#X obj 195 267 usss.monometer;
#X obj 468 334 dac~ 1 2 3 4 5 6 7 8;
#X obj 407 363 usss.cubaseswitch;
#X obj 117 476 writesf~ 8;
#X obj 357 21 declare -path ../../ussstools;
#X connect 0 1 4 1;
#X connect 0 1 3 1;
#X connect 1 0 3 0;
#X connect 2 0 4 0;
#X connect 3 0 15 0;
#X connect 3 0 22 0;
#X connect 4 0 16 0;
#X connect 4 0 21 0;
#X connect 5 0 12 0;
#X connect 5 0 41 0;
#X connect 6 0 7 0;
#X connect 8 0 9 0;
#X connect 9 0 30 0;
#X connect 9 0 14 0;
#X connect 11 0 84 0;
#X connect 12 0 11 0;
#X connect 12 0 42 0;
#X connect 12 1 26 0;
#X connect 13 0 84 0;
#X connect 14 0 8 0;
#X connect 17 0 18 0;
#X connect 17 1 19 0;
#X connect 21 0 62 0;
#X connect 21 0 83 0;
#X connect 22 0 63 0;
#X connect 22 0 83 1;
#X connect 23 0 28 0;
#X connect 23 0 29 0;
#X connect 24 0 39 0;
#X connect 26 0 13 0;
#X connect 26 0 27 0;
#X connect 27 0 28 0;
#X connect 27 0 29 0;
#X connect 28 0 8 0;
#X connect 29 0 84 0;
#X connect 30 0 10 0;
#X connect 30 0 84 0;
#X connect 33 0 34 0;
#X connect 34 0 35 0;
#X connect 35 0 6 0;
#X connect 37 0 41 1;
#X connect 38 0 24 0;
#X connect 38 1 24 1;
#X connect 39 0 40 1;
#X connect 40 0 25 0;
#X connect 41 0 38 0;
#X connect 41 0 40 0;
#X connect 42 0 40 0;
#X connect 43 0 47 0;
#X connect 44 0 48 0;
#X connect 45 0 64 0;
#X connect 45 0 83 2;
#X connect 46 0 65 0;
#X connect 46 0 83 3;
#X connect 47 0 46 0;
#X connect 47 0 51 0;
#X connect 48 0 45 0;
#X connect 48 0 52 0;
#X connect 50 1 48 1;
#X connect 50 1 47 1;
#X connect 53 1 59 1;
#X connect 53 1 58 1;
#X connect 54 0 58 0;
#X connect 55 0 59 0;
#X connect 56 0 66 0;
#X connect 56 0 83 4;
#X connect 57 0 67 0;
#X connect 57 0 83 5;
#X connect 58 0 57 0;
#X connect 58 0 60 0;
#X connect 59 0 56 0;
#X connect 59 0 61 0;
#X connect 62 0 82 0;
#X connect 63 0 82 1;
#X connect 64 0 82 2;
#X connect 65 0 82 3;
#X connect 66 0 82 4;
#X connect 67 0 82 5;
#X connect 68 0 67 1;
#X connect 68 0 66 1;
#X connect 68 0 65 1;
#X connect 68 0 64 1;
#X connect 68 0 63 1;
#X connect 68 0 62 1;
#X connect 68 0 76 1;
#X connect 68 0 75 1;
#X connect 69 0 68 0;
#X connect 70 0 69 0;
#X connect 71 0 75 0;
#X connect 71 0 83 6;
#X connect 72 0 76 0;
#X connect 72 0 83 7;
#X connect 73 0 72 0;
#X connect 73 0 80 0;
#X connect 74 0 71 0;
#X connect 74 0 81 0;
#X connect 75 0 82 6;
#X connect 76 0 82 7;
#X connect 77 0 73 0;
#X connect 78 0 74 0;
#X connect 79 1 74 1;
#X connect 79 1 73 1;
#X connect 83 0 84 0;
#X connect 83 1 84 1;
#X connect 83 2 84 2;
#X connect 83 3 84 3;
#X connect 83 4 84 4;
#X connect 83 5 84 5;
#X connect 83 6 84 6;
#X connect 83 7 84 7;
#X coords 0 -1 1 1 300 260 1 100 100;
