#N canvas 1040 96 798 639 10;
#X floatatom 5 278 5 0 0 0 - - -;
#X floatatom 5 346 5 0 0 0 - - -;
#X obj -31 384 pack;
#X obj -35 437 t b f;
#X msg -35 466 1;
#X obj 5 310 mod 4;
#X obj 15 436 t b f;
#X msg 15 465 1;
#X obj 65 435 t b f;
#X msg 65 464 1;
#X obj 113 437 t b f;
#X msg 120 465 1;
#X obj 3 206 until;
#X obj 3 243 f;
#X obj 42 241 + 1;
#X obj 4 148 t f b;
#X msg 41 177 0;
#X msg 4 119 256;
#X floatatom 97 293 5 0 0 0 - - -;
#X floatatom 188 278 5 0 0 0 - - -;
#X obj 186 206 until;
#X obj 186 243 f;
#X obj 225 241 + 1;
#X obj 187 148 t f b;
#X msg 224 177 0;
#X msg 187 119 256;
#X obj 243 398 pack;
#X obj 176 356 t b f;
#X msg 174 387 1;
#X obj 249 435 t b f;
#X msg 247 466 1;
#X obj 363 427 t b f;
#X msg 361 458 1;
#X obj 306 428 t b f;
#X msg 304 459 1;
#X obj -41 500 pack 0 0;
#X obj 27 495 pack 0 0;
#X obj 98 495 pack 0 0;
#X obj 168 497 pack 0 0;
#X obj 11 560 s \$1.coord1;
#X obj 97 561 s \$1.coord2;
#X obj 187 561 s \$1.coord3;
#X obj 277 560 s \$1.coord4;
#X obj 446 429 random 100;
#X obj 448 492 pack;
#X obj 448 458 / 100;
#X obj 446 398 t b f;
#X obj 515 428 random 100;
#X obj 517 491 pack;
#X obj 517 457 / 100;
#X obj 515 397 t b f;
#X obj 587 428 random 100;
#X obj 589 491 pack;
#X obj 589 457 / 100;
#X obj 587 397 t b f;
#X obj 669 434 random 100;
#X obj 671 497 pack;
#X obj 671 463 / 100;
#X obj 669 403 t b f;
#X floatatom 454 316 5 0 0 0 - - -;
#X obj 452 244 until;
#X obj 452 281 f;
#X obj 491 279 + 1;
#X obj 453 186 t f b;
#X msg 490 215 0;
#X msg 453 157 256;
#X obj 386 140 metro 10;
#X obj 385 109 tgl 15 0 empty empty empty 17 7 0 10 -262144 -1 -1 0
1;
#X floatatom 430 117 5 0 0 0 - - -;
#X floatatom 234 283 5 0 0 0 - - -;
#X floatatom 301 317 5 0 0 0 - - -;
#X floatatom 363 351 5 0 0 0 - - -;
#X obj 187 315 moses 50;
#X obj 248 347 moses 100;
#X obj 309 381 moses 150;
#X obj 218 119 s \$1.resetgain;
#X obj 183 89 t b b;
#X obj 180 59 bng 15 250 50 0 empty empty empty 17 7 0 10 -262144 -1
-1;
#X obj 40 118 s \$1.resetgain;
#X obj -1 91 t b b;
#X obj -1 65 bng 15 250 50 0 empty empty empty 17 7 0 10 -262144 -1
-1;
#X obj 345 142 sel 1;
#X obj -36 406 route 0 1 2 3;
#X obj 483 117 bng 15 250 50 0 empty empty empty 17 7 0 10 -262144
-1 -1;
#X connect 0 0 2 1;
#X connect 0 0 5 0;
#X connect 1 0 2 0;
#X connect 2 0 82 0;
#X connect 3 0 4 0;
#X connect 3 1 35 1;
#X connect 4 0 35 0;
#X connect 5 0 1 0;
#X connect 6 0 7 0;
#X connect 6 1 36 1;
#X connect 7 0 36 0;
#X connect 8 0 9 0;
#X connect 8 1 37 1;
#X connect 9 0 37 0;
#X connect 10 0 11 0;
#X connect 10 1 38 1;
#X connect 11 0 38 0;
#X connect 12 0 13 0;
#X connect 13 0 14 0;
#X connect 13 0 0 0;
#X connect 14 0 13 1;
#X connect 15 0 12 0;
#X connect 15 1 16 0;
#X connect 16 0 13 1;
#X connect 17 0 15 0;
#X connect 18 0 5 1;
#X connect 19 0 72 0;
#X connect 20 0 21 0;
#X connect 21 0 22 0;
#X connect 21 0 19 0;
#X connect 22 0 21 1;
#X connect 23 0 20 0;
#X connect 23 1 24 0;
#X connect 24 0 21 1;
#X connect 25 0 23 0;
#X connect 26 0 29 0;
#X connect 27 0 28 0;
#X connect 27 1 35 1;
#X connect 28 0 35 0;
#X connect 29 0 30 0;
#X connect 29 1 36 1;
#X connect 30 0 36 0;
#X connect 31 0 32 0;
#X connect 31 1 38 1;
#X connect 32 0 38 0;
#X connect 33 0 34 0;
#X connect 33 1 37 1;
#X connect 34 0 37 0;
#X connect 35 0 39 0;
#X connect 36 0 40 0;
#X connect 37 0 41 0;
#X connect 38 0 42 0;
#X connect 43 0 45 0;
#X connect 44 0 39 0;
#X connect 45 0 44 0;
#X connect 46 0 43 0;
#X connect 46 1 44 1;
#X connect 47 0 49 0;
#X connect 48 0 40 0;
#X connect 49 0 48 0;
#X connect 50 0 47 0;
#X connect 50 1 48 1;
#X connect 51 0 53 0;
#X connect 52 0 41 0;
#X connect 53 0 52 0;
#X connect 54 0 51 0;
#X connect 54 1 52 1;
#X connect 55 0 57 0;
#X connect 56 0 42 0;
#X connect 57 0 56 0;
#X connect 58 0 55 0;
#X connect 58 1 56 1;
#X connect 59 0 46 0;
#X connect 59 0 50 0;
#X connect 59 0 54 0;
#X connect 59 0 58 0;
#X connect 60 0 61 0;
#X connect 61 0 62 0;
#X connect 61 0 59 0;
#X connect 62 0 61 1;
#X connect 63 0 60 0;
#X connect 63 1 64 0;
#X connect 64 0 61 1;
#X connect 65 0 63 0;
#X connect 66 0 65 0;
#X connect 67 0 66 0;
#X connect 67 0 81 0;
#X connect 68 0 66 1;
#X connect 69 0 72 1;
#X connect 70 0 73 1;
#X connect 71 0 74 1;
#X connect 72 0 27 0;
#X connect 72 1 73 0;
#X connect 73 0 26 0;
#X connect 73 1 74 0;
#X connect 74 0 33 0;
#X connect 74 1 31 0;
#X connect 76 0 25 0;
#X connect 76 1 75 0;
#X connect 77 0 76 0;
#X connect 79 0 17 0;
#X connect 79 1 78 0;
#X connect 80 0 79 0;
#X connect 81 0 75 0;
#X connect 82 0 3 0;
#X connect 82 1 6 0;
#X connect 82 2 8 0;
#X connect 82 3 10 0;
#X connect 83 0 65 0;
