#N canvas 1387 113 752 650 10;
#X declare -path ../../ussstools;
#X obj 95 339 usss.fftfilter myfftfilt;
#X obj 95 305 noise~;
#X obj 94 555 dac~;
#X obj 94 524 *~;
#X obj 288 524 *~;
#X floatatom 4 500 5 0 0 1 volume - -;
#X obj 383 453 s myfftfilt.coordinates;
#X obj 383 378 random 100;
#X obj 383 276 tgl 15 0 empty empty empty 17 7 0 10 -262144 -1 -1 0
1;
#X msg 557 341 0;
#X floatatom 428 357 5 0 0 0 - - -;
#X obj 556 315 sel 1;
#X obj 383 357 bng 15 250 50 0 empty empty empty 17 7 0 10 -262144
-1 -1;
#X obj 383 428 pack 0 0;
#X obj 383 303 metro 10;
#X obj 383 333 counter 0 128;
#X obj 556 283 == 127;
#X obj 383 401 / 100;
#X obj 390 188 s myfftfilt.coordinates;
#X obj 390 11 tgl 15 0 empty empty empty 17 7 0 10 -262144 -1 -1 0
1;
#X msg 564 76 0;
#X obj 563 50 sel 1;
#X obj 390 163 pack 0 0;
#X obj 390 38 metro 10;
#X obj 390 68 counter 0 128;
#X obj 563 18 == 127;
#X obj 390 98 mod 3;
#X floatatom 434 98 5 0 0 0 - - -;
#X obj 387 127 / 3;
#X floatatom 470 131 5 0 0 1 distance - -;
#X obj 98 261 s myfftfilt.coordinates;
#X obj 94 16 tgl 15 0 empty empty empty 17 7 0 10 -262144 -1 -1 0 1
;
#X msg 268 81 0;
#X obj 267 55 sel 1;
#X obj 99 236 pack 0 0;
#X obj 94 43 metro 10;
#X obj 267 23 == 127;
#X obj 94 103 mod 3;
#X floatatom 138 103 5 0 0 0 - - -;
#X floatatom 195 132 5 0 0 1 distance - -;
#X obj 94 129 sel 1;
#X obj 94 213 float;
#X msg 111 189 0;
#X obj 108 159 t b;
#X obj 94 73 counter 1 128;
#X obj 147 191 expr $f2/$f1;
#X obj 35 -18 declare -path ../../ussstools;
#X connect 0 0 3 0;
#X connect 0 1 4 0;
#X connect 1 0 0 0;
#X connect 1 0 0 1;
#X connect 3 0 2 0;
#X connect 4 0 2 1;
#X connect 5 0 3 1;
#X connect 5 0 4 1;
#X connect 7 0 17 0;
#X connect 8 0 14 0;
#X connect 9 0 8 0;
#X connect 10 0 13 1;
#X connect 11 0 9 0;
#X connect 12 0 7 0;
#X connect 13 0 6 0;
#X connect 14 0 15 0;
#X connect 15 0 10 0;
#X connect 15 0 12 0;
#X connect 15 0 16 0;
#X connect 16 0 11 0;
#X connect 17 0 13 0;
#X connect 19 0 23 0;
#X connect 20 0 19 0;
#X connect 21 0 20 0;
#X connect 22 0 18 0;
#X connect 23 0 24 0;
#X connect 24 0 25 0;
#X connect 24 0 26 0;
#X connect 24 0 27 0;
#X connect 25 0 21 0;
#X connect 26 0 28 0;
#X connect 27 0 22 1;
#X connect 28 0 22 0;
#X connect 29 0 26 1;
#X connect 29 0 28 1;
#X connect 31 0 35 0;
#X connect 32 0 31 0;
#X connect 33 0 32 0;
#X connect 34 0 30 0;
#X connect 35 0 44 0;
#X connect 36 0 33 0;
#X connect 37 0 40 0;
#X connect 38 0 34 1;
#X connect 38 0 45 0;
#X connect 39 0 37 1;
#X connect 39 0 45 1;
#X connect 40 0 41 0;
#X connect 40 1 43 0;
#X connect 41 0 34 0;
#X connect 42 0 34 0;
#X connect 43 0 42 0;
#X connect 44 0 36 0;
#X connect 44 0 37 0;
#X connect 44 0 38 0;
#X connect 45 0 41 1;
