#N canvas 183 82 833 787 10;
#X declare -lib iemgui;
#X declare -path ../../ussstools;
#X declare -path ../../ussstools;
#X obj 12 542 usss.output myout;
#X obj 1010 762 snapshot~;
#X obj 1029 736 metro 200;
#X floatatom 1010 788 0 0 0 0 - - -;
#X obj 1030 714 tgl 15 0 empty empty empty 17 7 0 10 -262144 -1 -1
0 1;
#X msg 310 60 \; pd dsp 1;
#X msg 383 60 \; pd dsp 0;
#N canvas 1280 306 714 554 arrays 1;
#X obj 27 216 soundfiler;
#X floatatom 27 238 0 0 0 0 - - -;
#N canvas 0 0 450 300 (subpatch) 0;
#X array aL 57432 float 2;
#X coords 0 1 57432 -1 100 50 1 0 0;
#X restore 406 37 graph;
#X msg 542 30 bang;
#X obj 542 51 openpanel;
#X obj 542 72 t s b;
#X obj 588 72 float \$0;
#X obj 542 93 route float;
#X obj 543 147 pack s s;
#X msg 543 168 read -resize \$1 \$2;
#X obj 542 114 makefilename %d-sample;
#N canvas 0 0 450 300 (subpatch) 0;
#X array aR 57432 float 2;
#X coords 0 1 57432 -1 100 50 1 0 0;
#X restore 406 112 graph;
#X msg 28 32 read -resize E:/soundfiles/counterattack/smallsources/dhit1.wav
aL aR \;;
#X connect 0 0 1 0;
#X connect 3 0 4 0;
#X connect 4 0 5 0;
#X connect 5 0 8 0;
#X connect 5 1 6 0;
#X connect 6 0 7 0;
#X connect 7 0 10 0;
#X connect 8 0 9 0;
#X connect 10 0 8 1;
#X connect 12 0 0 0;
#X restore 316 102 pd arrays;
#X obj 37 154 tabplay~ aL;
#X obj 118 154 tabplay~ aR;
#X msg 37 104 0 44100;
#N canvas 793 232 450 300 drumpatch 0;
#X obj 25 170 hradio 15 1 0 16 empty empty empty 0 -8 0 10 -262144
-1 -1 0;
#X obj 41 106 metro 1000;
#X obj 42 149 counter 0 4;
#X obj 44 27 sel 1;
#X msg 76 126 0;
#X obj 43 53 t b b;
#X msg 39 79 1;
#X msg 40 3 1;
#X msg 68 4 0;
#X obj 147 80 expr (60000 / $f1);
#X floatatom 147 49 5 0 0 0 - - -;
#X obj 27 237 coll pattern1.coll;
#C restore;
#X msg 103 202 write;
#X floatatom 139 237 5 0 0 0 - - -;
#X floatatom 112 126 5 0 0 0 - - -;
#X obj 42 203 + 1;
#X obj 28 280 unpack 0 0 0 0 0 0;
#X obj 28 309 sel 1;
#X msg 68 202 read;
#X connect 1 0 2 0;
#X connect 2 0 0 0;
#X connect 2 0 15 0;
#X connect 3 0 5 0;
#X connect 3 1 1 0;
#X connect 4 0 2 2;
#X connect 5 0 6 0;
#X connect 5 1 4 0;
#X connect 6 0 1 0;
#X connect 7 0 3 0;
#X connect 8 0 3 0;
#X connect 9 0 1 1;
#X connect 10 0 9 0;
#X connect 11 0 16 0;
#X connect 11 1 13 0;
#X connect 12 0 11 0;
#X connect 14 0 2 4;
#X connect 15 0 11 0;
#X connect 16 0 17 0;
#X connect 18 0 11 0;
#X restore 442 117 pd drumpatch;
#X obj 37 68 bng 15 250 50 0 empty empty empty 17 7 0 10 -262144 -1
-1;
#X obj 260 226 usss.dynamicdelay mydd;
#X obj 64 49 declare -path ../../ussstools;
#X connect 1 0 3 0;
#X connect 2 0 1 0;
#X connect 4 0 2 0;
#X connect 8 0 13 0;
#X connect 9 0 13 1;
#X connect 10 0 8 0;
#X connect 10 0 9 0;
#X connect 12 0 10 0;
#X connect 13 0 0 0;
#X connect 13 1 0 1;
