#N canvas 25 440 898 460 10;
#X obj 35 122 env~;
#X floatatom 106 120 5 0 0 1 threshold - -;
#X obj 35 199 line~;
#X obj 17 226 *~;
#X obj 35 87 inlet~;
#X obj 36 147 >;
#X obj 11 262 outlet~;
#X obj 272 71 loadbang;
#X msg 211 94 0;
#X obj 16 58 inlet~;
#X obj 106 68 r \$1.threshold;
#X obj 208 139 r \$1.decay;
#X obj 36 172 pack f f;
#X floatatom 106 140 5 0 0 1 decay - -;
#X msg 211 118 20;
#X connect 0 0 5 0;
#X connect 1 0 5 1;
#X connect 2 0 3 1;
#X connect 3 0 6 0;
#X connect 4 0 0 0;
#X connect 5 0 12 0;
#X connect 7 0 8 0;
#X connect 7 0 14 0;
#X connect 8 0 1 0;
#X connect 9 0 3 0;
#X connect 10 0 1 0;
#X connect 11 0 13 0;
#X connect 12 0 2 0;
#X connect 13 0 12 1;
#X connect 14 0 13 0;
#X coords 0 -1 1 1 100 60 1 100 100;
