#N canvas 43 54 1237 970 10;
#X declare -path E:/USSSTOOLSKIT/ussstools;
#X declare -path USSSTOOLSKIT/ussstools;
#X declare -path E:/USSSTOOLSKIT/ussstools;
#X declare -path E:/USSSTOOLSKIT/ussstools;
#X declare -path E:/USSSTOOLSKIT/ussstools;
#X declare -path E:/USSSTOOLSKIT/ussstools;
#X declare -path E:/USSSTOOLSKIT/ussstools;
#X declare -path E:/USSSTOOLSKIT/ussstools;
#X declare -path E:/USSSTOOLSKIT/ussstools;
#X declare -path ../../ussstools;
#X obj 107 134 grid grid1 200 0 199 200 0 199 1 1 1 10 10 121.853 298.258
;
#X floatatom 125 386 5 0 0 0 - - -;
#X floatatom 343 383 5 0 0 0 - - -;
#X obj 125 426 usss.zmap 0 200 0 1;
#X obj 343 421 usss.zmap 0 200 0 1;
#X obj 125 470 pack f f;
#X obj 45 535 usss.spatpanguts 0 1;
#X obj 542 588 sin;
#X floatatom 704 619 5 0 0 0 - - -;
#X obj 550 353 tgl 15 0 empty empty empty 17 7 0 10 -262144 -1 -1 0
1;
#X obj 549 382 metro 500;
#X floatatom 543 629 5 0 0 0 - - -;
#X floatatom 315 304 5 0 0 2 #1.speed #1.speed -;
#X msg 537 832 goto \$1 \$2;
#X obj 536 798 pack f f;
#X floatatom 548 481 5 0 0 0 - - -;
#X obj 548 452 counter 0 100;
#X obj 704 671 usss.zmap -1 1 0 200;
#X obj 545 529 usss.zmap 0 100 0 6.28;
#X obj 708 494 usss.zmap 0 100 0 6.28;
#X msg 567 426 1;
#X obj 542 669 usss.zmap -1 1 0 200;
#X floatatom 821 629 5 0 0 0 - - -;
#X floatatom 779 629 5 0 0 0 - - -;
#X obj 537 726 +;
#X obj 703 742 +;
#X floatatom 792 724 5 0 0 0 - - -;
#X floatatom 750 724 5 0 0 0 - - -;
#X obj 705 558 expr $f2 * cos($f1);
#X floatatom 316 224 5 -1 1 2 #1.direction #1.direction -;
#X floatatom 315 187 5 0 0 2 #1.centercircle #1.centercircle -;
#X obj 790 606 * -1;
#X floatatom 316 265 5 0 0 2 #1.radius #1.radius -;
#X obj 536 25 declare -path USSSTOOLSKIT/ussstools;
#X obj 897 361 loadbang;
#X obj 609 425 bng 15 250 50 0 empty empty empty 17 7 0 10 -262144
-1 -1;
#X text 864 531 1 clock -1 anticlock;
#X text 896 580 radius;
#X text 852 698 centered;
#X obj 46 751 outlet~;
#X obj 61 775 outlet~;
#X obj 82 798 outlet~;
#X obj 100 822 outlet~;
#X obj 115 840 outlet~;
#X obj 134 868 outlet~;
#X obj 166 901 outlet~;
#X obj 181 870 outlet~;
#X obj 44 487 inlet~;
#X obj 241 482 inlet~;
#X obj 316 146 tgl 20 0 empty \$1.startcircle \$1.startcircle 0 -10
0 10 -260097 -1 -1 0 1;
#X obj 961 461 s \$1.centercircle;
#X obj 879 463 s \$1.speed;
#X text 485 66 usss.multipan8 - 2 in 8 out panner with limited automation
;
#X obj 926 487 s \$1.direction;
#X msg 895 405 50 1 100 80;
#X obj 879 428 unpack 0 0 0 0;
#X obj 1023 490 s \$1.radius;
#X obj 547 192 r \$1.speakerpositions;
#X obj 547 251 pack 0 0;
#X obj 605 253 pack 0 0;
#X obj 666 257 pack 0 0;
#X obj 729 253 pack 0 0;
#X obj 792 252 pack 0 0;
#X obj 851 250 pack 0 0;
#X obj 910 247 pack 0 0;
#X obj 968 244 pack 0 0;
#X obj 547 220 unpack 0 0 0 0 0 0 0 0 0 0 0 0 0 0 0 0;
#X obj 236 531 usss.spatpanguts 1 1;
#X obj 237 661 usss.spatpanguts 1 0;
#X obj 97 651 usss.spatpanguts 0 0;
#X obj 245 608 usss.spatpanguts 1 0.333;
#X obj 62 567 usss.spatpanguts 0 0.6;
#X obj 252 560 usss.spatpanguts 1 0.6;
#X obj 85 607 usss.spatpanguts 0 0.3;
#X obj 769 25 declare -path ../../ussstools;
#X connect 0 0 1 0;
#X connect 0 1 2 0;
#X connect 1 0 3 0;
#X connect 2 0 4 0;
#X connect 3 0 5 0;
#X connect 4 0 5 1;
#X connect 5 0 6 1;
#X connect 5 0 67 1;
#X connect 5 0 68 1;
#X connect 5 0 69 1;
#X connect 5 0 70 1;
#X connect 5 0 71 1;
#X connect 5 0 72 1;
#X connect 5 0 73 1;
#X connect 6 0 39 0;
#X connect 7 0 11 0;
#X connect 8 0 17 0;
#X connect 9 0 10 0;
#X connect 10 0 16 0;
#X connect 11 0 21 0;
#X connect 12 0 10 1;
#X connect 13 0 0 0;
#X connect 14 0 13 0;
#X connect 15 0 18 0;
#X connect 15 0 19 0;
#X connect 16 0 15 0;
#X connect 17 0 25 0;
#X connect 18 0 7 0;
#X connect 19 0 28 0;
#X connect 20 0 16 1;
#X connect 21 0 24 0;
#X connect 22 0 17 4;
#X connect 22 0 21 4;
#X connect 23 0 21 3;
#X connect 23 0 17 3;
#X connect 24 0 14 0;
#X connect 25 0 14 1;
#X connect 26 0 25 1;
#X connect 27 0 24 1;
#X connect 28 0 8 0;
#X connect 29 0 28 1;
#X connect 30 0 27 0;
#X connect 30 0 26 0;
#X connect 31 0 23 0;
#X connect 32 0 31 0;
#X connect 32 0 22 0;
#X connect 34 0 54 0;
#X connect 35 0 20 0;
#X connect 47 0 6 0;
#X connect 47 0 69 0;
#X connect 47 0 71 0;
#X connect 47 0 73 0;
#X connect 48 0 67 0;
#X connect 48 0 68 0;
#X connect 48 0 70 0;
#X connect 48 0 72 0;
#X connect 49 0 10 0;
#X connect 54 0 55 0;
#X connect 55 0 51 0;
#X connect 55 1 35 0;
#X connect 55 1 53 0;
#X connect 55 2 50 0;
#X connect 55 3 56 0;
#X connect 57 0 66 0;
#X connect 58 0 6 2;
#X connect 59 0 67 2;
#X connect 60 0 71 2;
#X connect 61 0 72 2;
#X connect 62 0 73 2;
#X connect 63 0 70 2;
#X connect 64 0 69 2;
#X connect 65 0 68 2;
#X connect 66 0 58 0;
#X connect 66 1 58 1;
#X connect 66 2 59 0;
#X connect 66 3 59 1;
#X connect 66 4 60 0;
#X connect 66 5 60 1;
#X connect 66 6 61 0;
#X connect 66 7 61 1;
#X connect 66 8 62 0;
#X connect 66 9 62 1;
#X connect 66 10 63 0;
#X connect 66 11 63 1;
#X connect 66 12 64 0;
#X connect 66 13 64 1;
#X connect 66 14 65 0;
#X connect 66 15 65 1;
#X connect 67 0 40 0;
#X connect 68 0 46 0;
#X connect 69 0 45 0;
#X connect 70 0 44 0;
#X connect 71 0 41 0;
#X connect 72 0 42 0;
#X connect 73 0 43 0;
#X coords 0 -1 1 1 325 250 1 100 100;
