#N canvas 1299 502 489 393 10;
#X declare -path ../ussstools;
#X declare -path ../../ussstools;
#X obj 188 183 usss.output myout;
#X obj 33 16 usss.input myin;
#X obj 262 12 usss.sfplay mysfplay;
#X obj 34 230 send mysfplay.play;
#X msg 34 199 1;
#X msg 73 199 0;
#X obj 38 302 usss;
#X obj 35 -18 declare -path ../../ussstools;
#X connect 2 0 0 0;
#X connect 2 1 0 1;
#X connect 4 0 3 0;
#X connect 5 0 3 0;
