#N canvas 1280 82 1280 942 10;
#X declare -path ../../ussstools;
#X obj 14 66 usss.granular mygran;
#X obj -5 623 usss.output myout;
#X obj 453 631 usss.doppler mydoppler;
#X obj 564 314 usss.pitchshift myps;
#X obj 648 12 ctlin;
#X floatatom 642 128 5 0 0 0 - - -;
#X obj 643 96 route 32 33 34 35;
#X obj 645 59 pack 0 0;
#X floatatom 686 125 5 0 0 0 - - -;
#X floatatom 738 125 5 0 0 0 - - -;
#X floatatom 796 118 5 0 0 0 - - -;
#X obj 652 40 swap;
#X obj 20 435 addoriginal;
#X obj 240 417 addoriginal;
#X obj 542 544 addoriginal;
#X obj 889 268 blipvis;
#X floatatom 920 222 5 0 0 0 - - -;
#X obj 890 203 bng 15 250 50 0 empty empty empty 17 7 0 10 -262144
-1 -1;
#X floatatom 974 222 5 0 0 0 - - -;
#X obj 957 201 bng 15 250 50 0 empty empty empty 17 7 0 10 -262144
-1 -1;
#X obj 977 790 addoriginal;
#X obj 992 660 usss.ringmod r;
#X obj 1080 327 r~ audioblipvis;
#X obj 1038 369 *~;
#X obj 1078 368 *~;
#X obj 987 410 addoriginal;
#X obj 944 101 key;
#X floatatom 976 97 5 0 0 0 - - -;
#X obj 955 140 sel 118 98;
#X obj 1158 554 random 50;
#X floatatom 1206 509 5 0 0 0 - - -;
#X obj 1133 495 metro 1000;
#X floatatom 1193 455 5 0 0 0 - - -;
#X obj 1129 468 tgl 15 0 empty empty empty 17 7 0 10 -262144 -1 -1
0 1;
#X floatatom 1081 603 5 0 0 0 - - -;
#X obj 1303 584 usss.envelope myenv;
#X obj 1305 832 addoriginal;
#X obj 1421 293 r gest;
#X obj 1422 333 s myenv.trigger;
#X text 19 41 used with pizzplayglasslike;
#X obj 446 891 addoriginal;
#X obj 1158 610 + 250;
#X obj 1149 669 s specialgrainsize;
#X floatatom 1204 611 5 0 0 0 - - -;
#X floatatom 1193 586 5 0 0 0 - - -;
#X obj 1293 443 s mygran.position;
#X obj 1261 393 random 100;
#X obj 1265 418 usss.zmap 0 100 0 1;
#X obj 1150 48 usss.filtersweepst myfs;
#X obj 1099 13 noise~;
#X obj 1153 235 addoriginal;
#X obj 1404 79 metro;
#X obj 1410 41 tgl 15 0 empty empty empty 17 7 0 10 -262144 -1 -1 0
1;
#X floatatom 1437 46 5 0 0 0 - - -;
#X floatatom 1411 198 5 0 0 0 - - -;
#X obj 1409 220 s myfs.sweepspeed;
#X floatatom 1429 134 5 0 0 0 - - -;
#X obj 1408 114 counter 0 100;
#X obj 1401 157 usss.zmap 0 100 -5 5;
#X msg 1461 83 2;
#X obj 240 142 usss.bandpass mybandpass;
#X obj 293 3 declare -path ../../ussstools;
#X connect 0 0 12 0;
#X connect 0 0 60 0;
#X connect 0 1 12 1;
#X connect 0 1 60 1;
#X connect 2 0 40 0;
#X connect 2 1 40 1;
#X connect 3 0 14 0;
#X connect 3 0 21 0;
#X connect 3 0 2 0;
#X connect 3 1 14 1;
#X connect 3 1 21 1;
#X connect 3 1 2 0;
#X connect 4 0 11 0;
#X connect 4 1 11 1;
#X connect 6 0 5 0;
#X connect 6 1 8 0;
#X connect 6 2 9 0;
#X connect 6 3 10 0;
#X connect 7 0 6 0;
#X connect 11 0 7 0;
#X connect 11 1 7 1;
#X connect 12 0 23 0;
#X connect 12 1 24 0;
#X connect 13 0 1 0;
#X connect 13 1 1 1;
#X connect 14 0 1 0;
#X connect 14 0 48 0;
#X connect 14 1 1 1;
#X connect 14 1 48 1;
#X connect 16 0 15 1;
#X connect 17 0 15 0;
#X connect 18 0 15 3;
#X connect 19 0 15 2;
#X connect 20 0 1 0;
#X connect 20 1 1 1;
#X connect 21 0 20 0;
#X connect 21 1 20 1;
#X connect 22 0 23 1;
#X connect 22 0 24 1;
#X connect 23 0 25 0;
#X connect 24 0 25 1;
#X connect 25 0 3 0;
#X connect 25 1 3 1;
#X connect 26 0 27 0;
#X connect 26 0 28 0;
#X connect 28 0 17 0;
#X connect 28 1 19 0;
#X connect 29 0 41 0;
#X connect 30 0 29 1;
#X connect 31 0 29 0;
#X connect 31 0 46 0;
#X connect 32 0 31 1;
#X connect 33 0 31 0;
#X connect 34 0 21 2;
#X connect 35 0 36 0;
#X connect 35 1 36 1;
#X connect 36 0 1 0;
#X connect 36 1 1 1;
#X connect 37 0 38 0;
#X connect 40 0 1 0;
#X connect 40 1 1 1;
#X connect 41 0 42 0;
#X connect 41 0 43 0;
#X connect 44 0 41 1;
#X connect 46 0 47 0;
#X connect 47 0 45 0;
#X connect 48 0 50 0;
#X connect 48 1 50 1;
#X connect 50 0 1 0;
#X connect 50 1 1 1;
#X connect 51 0 57 0;
#X connect 52 0 51 0;
#X connect 53 0 51 1;
#X connect 54 0 55 0;
#X connect 57 0 56 0;
#X connect 57 0 58 0;
#X connect 58 0 54 0;
#X connect 59 0 57 1;
#X connect 60 0 13 0;
#X connect 60 0 35 0;
#X connect 60 1 13 1;
#X connect 60 1 35 1;
