#N canvas 1280 82 1280 942 10;
#X declare -path ../../collab/ussstools/ussstools;
#X declare -path ../../ussstools;
#X obj 14 66 usss.granular mygran;
#X obj 233 152 usss.bandpass mybandpass;
#X obj 551 193 usss.doppler mydoppler;
#X obj 556 549 usss.pitchshift myps;
#X obj 648 12 ctlin;
#X floatatom 642 128 5 0 0 0 - - -;
#X obj 643 96 route 32 33 34 35;
#X obj 645 59 pack 0 0;
#X floatatom 686 125 5 0 0 0 - - -;
#X floatatom 738 125 5 0 0 0 - - -;
#X floatatom 796 118 5 0 0 0 - - -;
#X obj 652 40 swap;
#X obj 20 435 addoriginal;
#X obj 483 2 declare -path ../../collab/ussstools/ussstools;
#X obj 240 417 addoriginal;
#X obj 534 779 addoriginal;
#X obj 889 268 blipvis;
#X floatatom 920 222 5 0 0 0 - - -;
#X obj 890 203 bng 15 250 50 0 empty empty empty 17 7 0 10 -262144
-1 -1;
#X floatatom 974 222 5 0 0 0 - - -;
#X obj 957 201 bng 15 250 50 0 empty empty empty 17 7 0 10 -262144
-1 -1;
#X obj 920 703 addoriginal;
#X obj 992 660 usss.ringmod r;
#X obj 1080 327 r~ audioblipvis;
#X obj 1038 369 *~;
#X obj 1078 368 *~;
#X obj 987 410 addoriginal;
#X obj 944 101 key;
#X floatatom 972 100 5 0 0 0 - - -;
#X obj 955 140 sel 118 98;
#X obj 1008 591 random 50;
#X floatatom 1056 546 5 0 0 0 - - -;
#X obj 983 532 metro 1000;
#X floatatom 1043 492 5 0 0 0 - - -;
#X obj 979 505 tgl 15 0 empty empty empty 17 7 0 10 -262144 -1 -1 0
1;
#X floatatom 1019 626 5 0 0 0 - - -;
#X obj 1368 517 usss.envelope myenv;
#X obj 1370 765 addoriginal;
#X obj 1237 231 r gest;
#X obj 1238 271 s myenv.trigger;
#X text 19 41 used with pizzplayglasslike;
#X obj 79 609 usss.output4 myout;
#X obj 1337 123 usss.granular mygran2;
#X obj 1319 474 addoriginal;
#X obj 1125 706 addoriginal;
#X obj 1197 663 usss.ringmod r;
#X obj 1213 594 random 50;
#X floatatom 1261 549 5 0 0 0 - - -;
#X obj 1188 535 metro 1000;
#X floatatom 1248 495 5 0 0 0 - - -;
#X obj 1184 508 tgl 15 0 empty empty empty 17 7 0 10 -262144 -1 -1
0 1;
#X floatatom 1224 629 5 0 0 0 - - -;
#X obj 281 3 declare -path ../../ussstools;
#X connect 0 0 1 0;
#X connect 0 0 12 0;
#X connect 0 1 1 1;
#X connect 0 1 12 1;
#X connect 1 0 3 0;
#X connect 1 0 14 0;
#X connect 1 0 36 0;
#X connect 1 1 3 1;
#X connect 1 1 14 1;
#X connect 1 1 36 1;
#X connect 3 0 15 0;
#X connect 3 0 22 0;
#X connect 3 0 24 0;
#X connect 3 0 45 0;
#X connect 3 1 15 1;
#X connect 3 1 22 1;
#X connect 3 1 25 0;
#X connect 3 1 45 1;
#X connect 4 0 11 0;
#X connect 4 1 11 1;
#X connect 6 0 5 0;
#X connect 6 1 8 0;
#X connect 6 2 9 0;
#X connect 6 3 10 0;
#X connect 7 0 6 0;
#X connect 11 0 7 0;
#X connect 11 1 7 1;
#X connect 17 0 16 1;
#X connect 18 0 16 0;
#X connect 19 0 16 3;
#X connect 20 0 16 2;
#X connect 21 0 41 0;
#X connect 21 1 41 1;
#X connect 22 0 21 0;
#X connect 22 1 21 1;
#X connect 23 0 24 1;
#X connect 23 0 25 1;
#X connect 24 0 26 0;
#X connect 25 0 26 1;
#X connect 27 0 28 0;
#X connect 27 0 29 0;
#X connect 29 0 18 0;
#X connect 29 1 20 0;
#X connect 30 0 35 0;
#X connect 31 0 30 1;
#X connect 32 0 30 0;
#X connect 33 0 32 1;
#X connect 34 0 32 0;
#X connect 35 0 22 2;
#X connect 36 0 37 0;
#X connect 36 1 37 1;
#X connect 38 0 39 0;
#X connect 42 0 43 0;
#X connect 42 1 43 1;
#X connect 44 0 41 2;
#X connect 44 1 41 3;
#X connect 45 0 44 0;
#X connect 45 1 44 1;
#X connect 46 0 51 0;
#X connect 47 0 46 1;
#X connect 48 0 46 0;
#X connect 49 0 48 1;
#X connect 50 0 48 0;
#X connect 51 0 45 2;
