#N canvas 165 190 656 601 10;
#X declare -path ../ussstools;
#X declare -path ../ussstools;
#X declare -path E:/USSSTOOLSKIT/ussstools;
#X obj 306 -17 declare -path ../ussstools;
#X obj 45 147 notein;
#X obj 143 148 makenote;
#X obj 141 0 metro 100;
#X obj 316 124 + 100;
#X obj 225 121 + 40;
#X obj 140 24 t b b b;
#X obj 140 -33 tgl 15 0 empty empty empty 17 7 0 10 -262144 -1 -1 1
1;
#X floatatom 198 -18 5 0 0 0 - - -;
#X obj 45 186 usss.dynamicsampler myds;
#X floatatom 351 75 5 0 0 0 - - -;
#X floatatom 172 70 5 0 0 0 - - -;
#X floatatom 258 74 5 0 0 0 - - -;
#X floatatom 359 123 5 0 0 0 - - -;
#X floatatom 181 112 5 0 0 0 - - -;
#X obj 142 90 random;
#X obj 225 96 random;
#X obj 317 96 random;
#X obj 144 111 + 69;
#X floatatom 264 121 5 0 0 0 - - -;
#X obj 344 272 s myds.startpos;
#X floatatom 346 236 5 0 1 0 - - -;
#X obj 349 192 hsl 128 15 0 127 0 0 empty empty empty -2 -8 0 10 -262144
-1 -1 3800 1;
#X obj 347 214 / 127;
#X obj 506 256 s myds.buflen;
#X floatatom 505 224 5 0 0 0 - - -;
#X obj 45 377 usss.output myout;
#X connect 1 0 9 0;
#X connect 1 1 9 1;
#X connect 2 0 9 0;
#X connect 2 1 9 1;
#X connect 3 0 6 0;
#X connect 4 0 2 2;
#X connect 5 0 2 1;
#X connect 6 0 15 0;
#X connect 6 1 16 0;
#X connect 6 2 17 0;
#X connect 7 0 3 0;
#X connect 8 0 3 1;
#X connect 9 0 26 0;
#X connect 9 1 26 1;
#X connect 10 0 17 1;
#X connect 11 0 15 1;
#X connect 12 0 16 1;
#X connect 13 0 4 1;
#X connect 14 0 18 1;
#X connect 15 0 18 0;
#X connect 16 0 5 0;
#X connect 17 0 4 0;
#X connect 18 0 2 0;
#X connect 19 0 5 1;
#X connect 21 0 20 0;
#X connect 22 0 23 0;
#X connect 23 0 21 0;
#X connect 25 0 24 0;
