#N canvas 58 311 561 542 10;
#X declare -path ../ussstools;
#X obj 294 96 declare -path ../ussstools;
#X obj 23 251 usss.output6 myout6;
#X obj 22 218 r~ audio.1;
#X obj 104 218 r~ audio.2;
#X obj 182 219 r~ audio.3;
#X obj 264 217 r~ audio.4;
#X obj 343 218 r~ audio.5;
#X obj 424 218 r~ audio.6;
#X obj 18 45 usss.Nchanplay audio;
#X connect 2 0 1 0;
#X connect 3 0 1 1;
#X connect 4 0 1 2;
#X connect 5 0 1 3;
#X connect 6 0 1 4;
#X connect 7 0 1 5;
