#N canvas 417 50 735 901 10;
#X declare -path ../ussstools;
#X obj 253 63 declare -path ../ussstools;
#X obj 39 59 usss.sfplay mysf;
#X text 240 198 comment;
#X text 40 28 page 115 multichannel panning;
#X obj 39 502 usss.output8 my8out;
#X obj 39 230 usss.multipan8 mypan;
#X obj 401 332 s mypan.speakerpostions;
#X msg 401 296 0 1 1 1 0 0.6 1 0.6 0 0.3 1 0.3 0 0 1 0;
#X text 371 253 coordinates go from 0 0 (top left) to top right \,
mid left \, mid right \, lower left \, lower right \, bottom left \,
bottom right;
#X text 373 357 order of creation is important as it is linked to outlets
;
#X obj 404 413 tgl 15 0 empty empty empty 17 7 0 10 -262144 -1 -1 0
1;
#X obj 404 447 metro 200;
#X obj 404 481 random 100;
#X obj 404 509 usss.zmap 0 100 -1 2;
#X obj 404 543 pack 0 0;
#X obj 404 577 line;
#X obj 404 612 send mypan.direction;
#X text 485 412 start the circle (orange toggle) then add this to randomise
the panning;
#X connect 1 0 5 0;
#X connect 1 0 5 1;
#X connect 5 0 4 0;
#X connect 5 1 4 1;
#X connect 5 4 4 4;
#X connect 5 5 4 5;
#X connect 5 6 4 6;
#X connect 5 7 4 7;
#X connect 7 0 6 0;
#X connect 10 0 11 0;
#X connect 11 0 12 0;
#X connect 12 0 13 0;
#X connect 13 0 14 0;
#X connect 14 0 15 0;
#X connect 15 0 16 0;
