#N canvas 299 71 1460 788 10;
#X declare -path ../ussstools;
#X obj 120 168 usss.fftfilter8 myf8;
#X obj 426 190 usss.makearrays myf8;
#X obj 425 219 usss.makearraysvar myf8;
#X obj 116 22 usss.sfplay mysf;
#X obj 372 27 declare -path ../ussstools;
#X obj 114 572 usss.output8 my8out;
#X obj 586 385 s myf8.spacing;
#X obj 424 301 s myf8.startrandom;
#X obj 585 300 s myf8.randomspeed;
#X floatatom 585 273 5 0 0 0 - - -, f 5;
#X obj 424 273 tgl 15 0 empty empty empty 17 7 0 10 -262144 -1 -1 0
1;
#X text 721 291 randomly fill the filters;
#X obj 422 355 bng 15 250 50 0 empty empty empty 17 7 0 10 -262144
-1 -1;
#X floatatom 586 353 5 0 0 0 - - -, f 5;
#X obj 422 385 s myf8.makespaces;
#X text 720 365 separate filters by X;
#X obj 424 430 bng 15 250 50 0 empty empty empty 17 7 0 10 -262144
-1 -1;
#X floatatom 589 425 5 0 0 0 - - -, f 5;
#X text 718 464 separate filters by blocks of X;
#X obj 424 472 s myf8.blockfilter;
#X obj 589 473 s myf8.blocksize;
#X connect 0 0 5 0;
#X connect 0 1 5 1;
#X connect 0 2 5 2;
#X connect 0 3 5 3;
#X connect 0 4 5 4;
#X connect 0 5 5 5;
#X connect 0 6 5 6;
#X connect 0 7 5 7;
#X connect 3 0 0 0;
#X connect 3 1 0 1;
#X connect 9 0 8 0;
#X connect 10 0 7 0;
#X connect 12 0 14 0;
#X connect 13 0 6 0;
#X connect 16 0 19 0;
#X connect 17 0 20 0;
