#N canvas 792 127 844 495 10;
#X declare -path ../ussstools;
#X obj 253 63 declare -path ../ussstools;
#X obj 39 59 usss.sfplay mysf;
#X obj 40 235 usss.output sfout;
#X text 41 31 Sound file in and out. Page 41;
#X obj 273 105 usss.input myin;
#X connect 1 0 2 0;
#X connect 1 1 2 1;
#X connect 4 0 2 0;
#X connect 4 1 2 1;
