#N canvas 417 50 521 709 10;
#X declare -path ../ussstools;
#X obj 253 63 declare -path ../ussstools;
#X obj 39 59 usss.sfplay mysf;
#X obj 40 475 usss.output sfout;
#X obj 39 217 usss.bandpass mybp;
#X text 40 31 Page 42 Bandpass filter;
#X connect 1 0 3 0;
#X connect 1 1 3 1;
#X connect 3 0 2 0;
#X connect 3 1 2 1;
