#N canvas 417 50 521 709 10;
#X declare -path ../ussstools;
#X obj 253 63 declare -path ../ussstools;
#X obj 39 59 usss.sfplay mysf;
#X obj 40 475 usss.output sfout;
#X obj 39 226 usss.combplayer mycp;
#X text 40 31 Page 42 combplayer experiement;
#X obj 343 186 metro 500;
#X obj 343 149 tgl 15 0 empty empty empty 17 7 0 10 -262144 -1 -1 0
1;
#X obj 343 224 random 70;
#X obj 343 251 + 10;
#X obj 343 282 makenote 64 500;
#X floatatom 405 150 5 0 0 0 - - -, f 5;
#X obj 343 341 send mycp.note;
#X obj 343 314 pack 0 0;
#X obj 271 210 notein;
#X connect 1 0 3 0;
#X connect 1 1 3 1;
#X connect 3 0 2 0;
#X connect 3 1 2 1;
#X connect 5 0 7 0;
#X connect 6 0 5 0;
#X connect 7 0 8 0;
#X connect 8 0 9 0;
#X connect 9 0 12 0;
#X connect 9 1 12 1;
#X connect 10 0 5 1;
#X connect 10 0 9 2;
#X connect 12 0 11 0;
#X connect 13 0 3 2;
#X connect 13 1 3 3;
