#N canvas 417 50 521 709 10;
#X declare -path ../ussstools;
#X obj 253 63 declare -path ../ussstools;
#X obj 39 59 usss.sfplay mysf;
#X obj 39 446 usss.output sfout;
#X text 40 31 Page 44 fftfilter;
#X obj 39 235 usss.filtersweepst myfftsweep;
#X connect 1 0 4 0;
#X connect 1 1 4 1;
#X connect 4 0 2 0;
#X connect 4 1 2 1;
