#N canvas 417 50 521 857 10;
#X declare -path ../ussstools;
#X declare -lib iemgui;
#X declare -path ../../ussstools;
#X obj 253 63 declare -path ../ussstools;
#X obj 39 59 usss.sfplay mysf;
#X obj 38 604 usss.output sfout;
#X text 40 31 page 46 dynamic reson;
#X obj 39 208 usss.dynamicreson mydr;
#X text 232 242;
#X connect 1 0 4 0;
#X connect 1 1 4 1;
#X connect 4 0 2 0;
#X connect 4 1 2 1;
