#N canvas 417 50 521 857 10;
#X declare -path ../ussstools;
#X obj 253 63 declare -path ../ussstools;
#X obj 39 59 usss.sfplay mysf;
#X obj 39 477 usss.output sfout;
#X text 40 29 page 54 reverberation;
#X obj 39 228 usss.reverb myrev;
#X connect 1 0 4 0;
#X connect 1 1 4 1;
#X connect 4 0 2 0;
#X connect 4 1 2 1;
