#N canvas 417 50 521 857 10;
#X declare -path ../ussstools;
#X declare -lib iemgui;
#X declare -path ../../ussstools;
#X obj 253 63 declare -path ../ussstools;
#X obj 39 59 usss.sfplay mysf;
#X obj 40 626 usss.output sfout;
#X obj 39 228 usss.dynamicdelay mydd;
#X text 40 29 page 55 dynamic delay;
#X text 249 288 careful with amplitude as you add many delays (> 20)
;
#X text 240 198 you probably want to envelope a sound so you can experience
the delays;
#X connect 1 0 3 0;
#X connect 1 1 3 1;
#X connect 3 0 2 0;
#X connect 3 1 2 1;
