#N canvas 573 50 949 896 10;
#X declare -path ../ussstools;
#X declare -path E:/USSSTOOLSKIT/ussstools;
#X obj 190 156 declare -path ../ussstools;
#X text 13 26 READ ME:;
#X text 14 48 Here is a blank canvas for you to experiemnt with audio
file manipulation using the ussstools begin by creating a usss object
of your choice and connecting the sfplayer to the inlet and the outlets
to the usss.output. Then select a file using the player and let the
fun begin!;
#X obj 95 132 declare -path E:/USSSTOOLSKIT/ussstools;
#X obj 54 480 usss.output myout;
#X obj 55 366 usss.shapee mys;
#X obj 183 206 usss.sfplay mysfp2;
#X obj 54 255 phasor~ 333;
#X obj 55 295 *~ 0.34;
#X obj 299 460 s block_size;
#X msg 299 409 set 2048 1 1;
#X msg 306 431 set 256 1 1;
#X text 298 385 PC and linux;
#X text 431 415 Mac;
#X msg 420 442 set 64;
#X connect 5 0 4 0;
#X connect 5 1 4 1;
#X connect 6 0 5 2;
#X connect 6 1 5 3;
#X connect 7 0 8 0;
#X connect 8 0 5 0;
#X connect 8 0 5 1;
#X connect 10 0 9 0;
#X connect 11 0 9 0;
#X connect 14 0 9 0;
