#N canvas 508 347 585 259 10;
#X obj 185 188 *~;
#X obj 289 187 *~;
#X msg 221 147 \$1 20;
#X obj 220 170 line~;
#X obj 143 121 hsl 128 15 0 5 0 0 empty \$1.vol empty -2 -8 0 10 -262144
-1 -1 0 1;
#X obj 287 158 inlet~;
#X obj 157 153 inlet~;
#X obj 171 218 outlet~;
#X obj 292 218 outlet~;
#X floatatom 104 120 5 0 0 0 - - -, f 5;
#X obj 316 104 r \$1;
#X connect 0 0 7 0;
#X connect 1 0 8 0;
#X connect 2 0 3 0;
#X connect 3 0 0 1;
#X connect 3 0 1 1;
#X connect 4 0 2 0;
#X connect 4 0 9 0;
#X connect 5 0 1 0;
#X connect 6 0 0 0;
#X connect 10 0 4 0;
#X coords 0 -1 1 1 200 40 1 100 100;
