#N canvas 1915 424 979 504 10;
#X obj 67 53 ctlin;
#X obj 35 107 nbx 5 14 -1e+037 1e+037 0 0 empty empty empty 0 -6 0
10 -262144 -1 -1 28 256;
#X obj 103 107 nbx 5 14 -1e+037 1e+037 0 0 empty empty empty 0 -6 0
10 -262144 -1 -1 1 256;
#X text 235 49 make sure you have alsa-midi and bcf2000 - pd connected
;
#X obj 35 219 route 81 82 83 84 85 86 87 88;
#X obj 266 216 route 1 2 3 4 5 6 7 8;
#X obj 59 162 swap;
#X floatatom 29 253 5 0 0 0 - - -, f 5;
#X floatatom 43 295 5 0 0 0 - - -, f 5;
#X floatatom 60 276 5 0 0 0 - - -, f 5;
#X floatatom 87 298 5 0 0 0 - - -, f 5;
#X floatatom 100 273 5 0 0 0 - - -, f 5;
#X floatatom 133 297 5 0 0 0 - - -, f 5;
#X floatatom 152 272 5 0 0 0 - - -, f 5;
#X floatatom 187 273 5 0 0 0 - - -, f 5;
#X obj 59 134 pack 0 0;
#X obj 59 188 pack;
#X text 636 167 bcfader = preset number bcdial = preset dial bccontrol
1 - 16 = 1 - 8 fader 9 - 16 dial;
#X obj 764 335 bcf2000fader 0 127 0 1 f7;
#X obj 766 360 bcf2000fader 0 127 0 1 f8;
#X text 322 197 dials;
#X text 102 198 faders;
#X obj 531 337 bcf2000fader 0 127 0 1 f5;
#X obj 30 341 bcf2000fader 0 127 20 500 f1;
#X obj 264 336 bcf2000fader 0 127 0 1 f3;
#X obj 272 248 bcf2000fader 0 127 0 1 v1;
#X obj 353 272 bcf2000fader 0 127 0 1 v2;
#X obj 389 292 bcf2000fader 0 127 0 1 v3;
#X obj 495 241 bcf2000fader 0 127 0 1 v4;
#X obj 579 265 bcf2000fader 0 127 0 1 v5;
#X obj 611 285 bcf2000fader 0 127 0 1 v6;
#X obj 28 370 bcf2000fader 0 127 0 1 f2;
#X obj 267 366 bcf2000fader 0 127 0 1 f4;
#X obj 535 365 bcf2000fader 0 127 0 1 f6;
#X connect 0 0 1 0;
#X connect 0 1 2 0;
#X connect 1 0 15 0;
#X connect 2 0 15 1;
#X connect 4 0 7 0;
#X connect 4 1 8 0;
#X connect 4 2 9 0;
#X connect 4 3 10 0;
#X connect 4 4 11 0;
#X connect 4 5 12 0;
#X connect 4 6 13 0;
#X connect 4 7 14 0;
#X connect 4 8 5 0;
#X connect 5 0 25 0;
#X connect 5 1 26 0;
#X connect 5 2 27 0;
#X connect 5 3 28 0;
#X connect 5 4 29 0;
#X connect 5 5 30 0;
#X connect 6 0 16 0;
#X connect 6 1 16 1;
#X connect 7 0 23 0;
#X connect 8 0 31 0;
#X connect 9 0 24 0;
#X connect 10 0 32 0;
#X connect 11 0 22 0;
#X connect 12 0 33 0;
#X connect 13 0 18 0;
#X connect 14 0 19 0;
#X connect 15 0 6 0;
#X connect 16 0 4 0;
