#N canvas 1099 148 766 758 10;
#X obj 52 95 unpack;
#X obj 266 498 *~;
#X obj 54 61 route \$1;
#X text 353 301 D = delay time;
#X text 219 282 D \, a \, b \, c inlets support signals aswell;
#X obj 210 174 - 3.485;
#N canvas 0 0 450 300 transratio 0;
#X obj 146 58 inlet;
#X obj 145 221 outlet;
#X obj 130 130 expr ((440 * exp (.057762265 * $f1))* 0.002273);
#X connect 0 0 2 0;
#X connect 2 0 1 0;
#X restore 210 198 pd transratio;
#X msg 213 227 \$1 10;
#X obj 209 253 line~;
#X obj 71 393 comb~ 1000 1 0.1 0 0.9;
#X obj 161 454 comb~ 1000 1 0.1 0 0.9;
#X obj 527 294 / 127;
#X floatatom 518 247 5 0 0 0 - - -;
#X msg 525 327 \$1 20;
#X obj 522 349 line~;
#X obj 98 513 *~;
#X obj 54 13 r \$2.events;
#X obj 100 192 r~ \$2.csigR;
#X obj 49 165 r~ \$2.csigL;
#X obj 80 594 throw~ \$2.outL;
#X obj 236 588 throw~ \$2.outR;
#X obj 262 359 r \$2.outamp;
#X obj 203 301 expr~ 100/($v1+0.001);
#X connect 0 0 5 0;
#X connect 0 1 12 0;
#X connect 1 0 20 0;
#X connect 2 0 0 0;
#X connect 5 0 6 0;
#X connect 6 0 7 0;
#X connect 7 0 8 0;
#X connect 8 0 22 0;
#X connect 9 0 15 0;
#X connect 10 0 1 1;
#X connect 11 0 13 0;
#X connect 12 0 11 0;
#X connect 13 0 14 0;
#X connect 14 0 1 0;
#X connect 14 0 15 1;
#X connect 15 0 19 0;
#X connect 16 0 2 0;
#X connect 17 0 10 0;
#X connect 18 0 9 0;
#X connect 21 0 9 4;
#X connect 21 0 10 4;
#X connect 22 0 9 1;
#X connect 22 0 10 1;
