#N canvas 2502 70 691 738 10;
#X obj 125 140 phasor~;
#X obj 125 100 mtof;
#X obj 124 332 *~ 2;
#X obj 124 359 -~ 1;
#X obj 286 522 delay~ 20;
#X obj 157 10 inlet;
#X obj 157 66 unpack;
#X obj 520 291 / 127;
#X floatatom 518 247 5 0 0 0 - - -;
#X msg 519 322 \$1 20;
#X obj 523 350 line~;
#X obj 125 422 *~;
#X obj 125 511 *~ 0.1;
#X obj 150 630 throw~ \$1.outL;
#X obj 293 630 throw~ \$1.outR;
#X floatatom 62 135 5 0 0 0 - - -;
#X obj 126 254 expr~ if ($v1 > $v2 \, 1 \, 0);
#X text 160 228 pulse train;
#X obj 279 224 sig~;
#X floatatom 279 196 5 0 1 0 - - -;
#X text 312 193 0 to 1;
#X obj 278 160 r \$1.pulsetrain;
#X connect 0 0 16 0;
#X connect 1 0 0 0;
#X connect 1 0 15 0;
#X connect 2 0 3 0;
#X connect 3 0 11 0;
#X connect 4 0 14 0;
#X connect 5 0 6 0;
#X connect 6 0 1 0;
#X connect 6 1 8 0;
#X connect 7 0 9 0;
#X connect 8 0 7 0;
#X connect 9 0 10 0;
#X connect 10 0 11 1;
#X connect 11 0 12 0;
#X connect 12 0 4 0;
#X connect 12 0 13 0;
#X connect 16 0 2 0;
#X connect 18 0 16 1;
#X connect 19 0 18 0;
#X connect 21 0 19 0;
