#N canvas 2464 97 691 738 10;
#X obj 125 140 phasor~;
#X obj 125 100 mtof;
#X obj 124 332 *~ 2;
#X obj 124 359 -~ 1;
#X obj 286 522 delay~ 20;
#X obj 157 10 inlet;
#X obj 157 66 unpack;
#X text 353 301 D = delay time;
#X obj 520 291 / 127;
#X floatatom 518 247 5 0 0 0 - - -;
#X msg 519 322 \$1 20;
#X obj 523 350 line~;
#X obj 125 422 *~;
#X obj 125 511 *~ 0.1;
#X obj 150 630 throw~ \$1.outL;
#X obj 293 630 throw~ \$1.outR;
#X obj 238 61 print;
#X obj 301 62 bang;
#X obj 301 91 print \$1;
#X floatatom 62 135 5 0 0 0 - - -;
#X connect 0 0 2 0;
#X connect 1 0 0 0;
#X connect 1 0 19 0;
#X connect 2 0 3 0;
#X connect 3 0 12 0;
#X connect 4 0 15 0;
#X connect 5 0 6 0;
#X connect 5 0 16 0;
#X connect 5 0 17 0;
#X connect 6 0 1 0;
#X connect 6 1 9 0;
#X connect 8 0 10 0;
#X connect 9 0 8 0;
#X connect 10 0 11 0;
#X connect 11 0 12 1;
#X connect 12 0 13 0;
#X connect 13 0 4 0;
#X connect 13 0 14 0;
#X connect 17 0 18 0;
