#N canvas 420 228 653 575 10;
#X obj 223 319 freeverb~;
#X msg 223 110 roomsize \$1;
#X msg 223 155 damping \$1;
#X msg 223 199 width \$1;
#X msg 223 243 wet \$1;
#X msg 223 287 dry \$1;
#X obj 218 366 outlet~;
#X obj 281 368 outlet~;
#X obj 60 251 inlet~;
#X obj 106 251 inlet~;
#X msg 314 304 freeze \$1;
#X obj 6 193 tgl 15 0 empty \$1.freeze \$1.freeze 17 7 0 10 -260097
-1 -1 0 1;
#X obj 4 16 usss.hslider \$1.roomsize 0.1 1.1 0.5;
#X obj 4 51 usss.hslider \$1.damping 0 2 1;
#X obj 4 86 usss.hslider \$1.width 0 1 0.3;
#X obj 4 121 usss.hslider \$1.wet 0 1 0.5;
#X obj 5 156 usss.hslider \$1.dry 0 1 0.5;
#X connect 0 0 6 0;
#X connect 0 1 7 0;
#X connect 1 0 0 0;
#X connect 2 0 0 0;
#X connect 3 0 0 0;
#X connect 4 0 0 0;
#X connect 5 0 0 0;
#X connect 8 0 0 0;
#X connect 9 0 0 1;
#X connect 10 0 0 0;
#X connect 11 0 10 0;
#X connect 12 0 1 0;
#X connect 13 0 2 0;
#X connect 14 0 3 0;
#X connect 15 0 4 0;
#X connect 16 0 5 0;
#X coords 0 -1 1 1 200 210 1 0 0;
