#N canvas 67 409 814 412 10;
#X obj 47 158 usss.shapee myshapee;
#X obj 47 291 dac~;
#X obj 44 6 usss.sfplay soundA;
#X obj 253 6 usss.sfplay soundB;
#X text 473 26 shapee makes a cross - synthesis between two sounds
;
#X text 477 82 SoundA should be predominantly pitched;
#X text 478 103 SoundB should be predominantly noise / transients;
#X obj 469 172 tgl 30 0 empty empty empty 17 7 0 10 -262144 -1 -1 0
1;
#X msg 469 216 \; pd dsp \$1;
#X text 262 229 comment;
#X obj 337 295 s block_size;
#X msg 337 244 set 2048 1 1;
#X msg 355 267 set 256 1 1;
#X connect 0 0 1 0;
#X connect 0 1 1 1;
#X connect 2 0 0 0;
#X connect 2 1 0 1;
#X connect 3 0 0 2;
#X connect 3 1 0 3;
#X connect 7 0 8 0;
#X connect 11 0 10 0;
#X connect 12 0 10 0;
