#N canvas 266 342 485 310 10;
#X obj 25 86 usss.simplescope scope;
#X obj 24 12 usss.phasor phasor;
#X obj 234 13 tgl 30 0 empty empty empty 17 7 0 10 -262144 -1 -1 0
1;
#X msg 234 50 \; pd dsp \$1;
#X text 236 135 DSP must be enabled for it;
#X text 236 110 A simple mono oscilliscope \,;
#X text 236 158 to function.;
#X connect 1 0 0 0;
#X connect 2 0 3 0;
