#N canvas 101 292 1049 626 10;
#X obj 4 17 usss.hslider \$1.mix1 0 1 0;
#X obj 5 55 usss.hslider \$1.mix2 0 1 0;
#X obj 6 92 usss.hslider \$1.mix3 0 1 0;
#X obj 5 128 usss.hslider \$1.mix4 0 1 0;
#X obj 346 22 inlet~;
#X obj 400 22 inlet~;
#X obj 459 23 inlet~;
#X obj 514 23 inlet~;
#X obj 581 24 inlet~;
#X obj 635 24 inlet~;
#X obj 706 25 inlet~;
#X obj 758 25 inlet~;
#X obj 413 342 outlet~;
#X obj 559 346 outlet~;
#X obj 341 166 *~;
#X obj 396 168 *~;
#X obj 455 169 *~;
#X obj 509 171 *~;
#X obj 577 170 *~;
#X obj 631 172 *~;
#X obj 700 175 *~;
#X obj 754 177 *~;
#X obj 203 75 usss.monometer;
#X obj 215 75 usss.monometer;
#X obj 341 191 *~ 0.25;
#X obj 396 190 *~ 0.25;
#X obj 455 193 *~ 0.25;
#X obj 509 193 *~ 0.25;
#X obj 576 194 *~ 0.25;
#X obj 630 194 *~ 0.25;
#X obj 700 199 *~ 0.25;
#X obj 754 199 *~ 0.25;
#X obj 232 51 s~ \$1.slider1;
#X obj 232 87 s~ \$1.slider2;
#X obj 233 124 s~ \$1.slider3;
#X obj 233 160 s~ \$1.slider4;
#X obj 450 257 throw~ \$1.left;
#X obj 590 257 throw~ \$1.right;
#X obj 380 122 r~ \$1.slider1;
#X obj 471 122 r~ \$1.slider2;
#X obj 591 122 r~ \$1.slider3;
#X obj 711 122 r~ \$1.slider4;
#X obj 434 305 catch~ \$1.left;
#X obj 477 340 s~ \$1.L;
#X obj 615 348 s~ \$1.R;
#X obj 233 8 r~ \$1.L;
#X obj 281 10 r~ \$1.R;
#X obj 563 306 catch~ \$1.right;
#X connect 0 1 32 0;
#X connect 1 1 33 0;
#X connect 2 1 34 0;
#X connect 3 1 35 0;
#X connect 4 0 14 0;
#X connect 5 0 15 0;
#X connect 6 0 16 0;
#X connect 7 0 17 0;
#X connect 8 0 18 0;
#X connect 9 0 19 0;
#X connect 10 0 20 0;
#X connect 11 0 21 0;
#X connect 14 0 24 0;
#X connect 15 0 25 0;
#X connect 16 0 26 0;
#X connect 17 0 27 0;
#X connect 18 0 28 0;
#X connect 19 0 29 0;
#X connect 20 0 30 0;
#X connect 21 0 31 0;
#X connect 24 0 36 0;
#X connect 25 0 37 0;
#X connect 26 0 36 0;
#X connect 27 0 37 0;
#X connect 28 0 36 0;
#X connect 29 0 37 0;
#X connect 30 0 36 0;
#X connect 31 0 37 0;
#X connect 38 0 14 1;
#X connect 38 0 15 1;
#X connect 39 0 16 1;
#X connect 39 0 17 1;
#X connect 40 0 18 1;
#X connect 40 0 19 1;
#X connect 41 0 20 1;
#X connect 41 0 21 1;
#X connect 42 0 12 0;
#X connect 42 0 43 0;
#X connect 45 0 22 0;
#X connect 46 0 23 0;
#X connect 47 0 13 0;
#X connect 47 0 44 0;
#X coords 0 -1 1 1 230 170 1 0 0;
