#N canvas 523 204 1130 746 10;
#N canvas 506 47 948 640 fft-analysis 0;
#X obj 241 179 *~;
#X obj 239 119 inlet~;
#X obj 244 254 rfft~;
#X obj 286 158 tabreceive~ \$0-hann;
#X obj 244 369 *~;
#X obj 298 370 *~;
#X obj 15 8 block~ 512 4;
#X text 446 100 The inlet~ now re-uses 3/4 of the previous block \,
along with the 128 new samples.;
#X text 458 146 window function as before.;
#X obj 309 257 *~;
#X obj 255 523 *~;
#X obj 289 494 tabreceive~ \$0-hann;
#X obj 313 323 /~ 768;
#X text 436 260 divide by 3N/2 (factor of N because rfft and rifft
aren't normalized \, and 3/2 is the gain of overlap-4 reconstruction
when Hann window function is applied twice.);
#X text 439 194 Just to show we're doing something \, we multiply each
channel by a gain controlled by an array in the main window. The control
is quartic-scaled for easy editing.;
#X obj 312 289 *~;
#X text 440 335 Multiply the (complex-valued) spectrum amplitudes by
the (real-valued) gain-and-normalization-factor;
#X obj 248 415 rifft~;
#X text 439 383 Real-valued inverse Fourier transform. This uses only
the first N/@ points of its inputs \, supplying the rest by symmerty
(so it's OK that rfft~ obly puts out those N/2 points.) There's only
one outlet because the output is real-valued.;
#X obj 257 583 outlet~;
#X text 453 488 Multiply by the Hann window function again \, necessary
because the operation we performed might result in a signal that doesn't
go smoothly to zero at both ends.;
#X text 472 550 This repackages the output into 64-sample chunks for
the parent window. Since we're operating with an overlap \, the outlet~
object performs an overlapped sum of the blocks computed in this window.
;
#X text 454 29 block~ object specifies vector size of 512 and overlap
four. This window now computes blocks of 512 samples at intervals of
128 samples computed on the parent patch.;
#X obj 42 179 *~;
#X obj 41 114 inlet~;
#X obj 42 233 rfft~;
#X obj 63 155 tabreceive~ \$0-hann;
#X obj 41 368 *~;
#X obj 83 368 *~;
#X obj 104 240 *~;
#X obj 43 521 *~;
#X obj 64 496 tabreceive~ \$0-hann;
#X obj 104 298 /~ 768;
#X obj 105 266 *~;
#X obj 42 414 rifft~;
#X obj 43 581 outlet~;
#X obj 96 209 tabreceive~ \$1.gainL;
#X obj 272 213 tabreceive~ \$1.gainL;
#X connect 0 0 2 0;
#X connect 1 0 0 0;
#X connect 2 0 4 0;
#X connect 2 1 5 0;
#X connect 3 0 0 1;
#X connect 4 0 17 0;
#X connect 5 0 17 1;
#X connect 9 0 15 0;
#X connect 9 0 15 1;
#X connect 10 0 19 0;
#X connect 11 0 10 1;
#X connect 12 0 4 1;
#X connect 12 0 5 1;
#X connect 15 0 12 0;
#X connect 17 0 10 0;
#X connect 23 0 25 0;
#X connect 24 0 23 0;
#X connect 25 0 27 0;
#X connect 25 1 28 0;
#X connect 26 0 23 1;
#X connect 27 0 34 0;
#X connect 28 0 34 1;
#X connect 29 0 33 0;
#X connect 29 0 33 1;
#X connect 30 0 35 0;
#X connect 31 0 30 1;
#X connect 32 0 27 1;
#X connect 32 0 28 1;
#X connect 33 0 32 0;
#X connect 34 0 30 0;
#X connect 36 0 29 0;
#X connect 36 0 29 1;
#X connect 37 0 9 0;
#X connect 37 0 9 1;
#X restore 500 263 pd fft-analysis;
#N canvas 109 66 592 433 Hann-window 0;
#N canvas 0 0 450 300 (subpatch) 0;
#X array \$0-hann 512 float 0;
#X coords 0 1 511 0 200 120 1;
#X restore 293 249 graph;
#X msg 171 263 0;
#X obj 65 312 osc~;
#X obj 65 264 samplerate~;
#X obj 65 335 *~ -0.5;
#X obj 65 358 +~ 0.5;
#X obj 57 383 tabwrite~ \$0-hann;
#X text 279 241 1;
#X text 272 359 0;
#X text 288 372 0;
#X obj 65 288 / 512;
#X obj 57 241 bng 15 250 50 0 empty empty empty 0 -6 0 8 -262144 -1
-1;
#X text 336 221 Hann window;
#X text 113 310 period 512;
#X text 90 215 recalculate Hann;
#X text 125 230 window table;
#X obj 57 146 loadbang;
#X msg 79 179 \; pd dsp 1;
#X text 40 27 The Hann window is now recomputed on 'loadbang' to make
the file smaller (it doesn't have to be saved with the array.);
#X text 474 375 511;
#X connect 1 0 2 1;
#X connect 2 0 4 0;
#X connect 3 0 10 0;
#X connect 4 0 5 0;
#X connect 5 0 6 0;
#X connect 10 0 2 0;
#X connect 11 0 3 0;
#X connect 11 0 1 0;
#X connect 11 0 6 0;
#X connect 16 0 11 0;
#X connect 16 0 17 0;
#X restore 310 34 pd Hann-window;
#X text 402 253 <- reset gain;
#X obj 601 54 inlet~;
#X obj 567 320 outlet~;
#X obj 499 53 inlet~;
#X obj 501 321 outlet~;
#N canvas 0 0 531 361 (subpatch) 0;
#X array \$1.gainL 360 float 2;
#X coords 0 1 360 -0.01 200 100 1 0 0;
#X restore 100 132 graph;
#X msg 321 249 const 1;
#X obj 250 234 bng 15 250 50 0 empty empty Reset 17 7 0 10 -262144
-1 -1;
#X obj 88 287 r \$1.coord1;
#X obj 89 314 unpack 0 0;
#X obj 91 351 tabwrite \$1.gainL;
#X obj 321 284 s \$1.gainL;
#X connect 0 0 6 0;
#X connect 0 1 4 0;
#X connect 3 0 0 1;
#X connect 5 0 0 0;
#X connect 8 0 13 0;
#X connect 9 0 8 0;
#X connect 10 0 11 0;
#X connect 11 0 12 0;
#X connect 11 1 12 1;
#X coords 0 -1 1 1 200 160 1 100 100;
