#N canvas 435 71 1329 809 10;
#X obj 26 36 usss.tabplay \$1;
#X floatatom 26 131 10 0 0 1 size_of_file - -;
#X obj 25 131 - 2;
#X obj 1060 571 print;
#X obj 1016 488 * 20;
#X obj 1102 317 i;
#X obj 1140 323 + 1;
#X floatatom 1103 345 5 0 0 0 - - -;
#X obj 1101 285 bng 15 250 50 0 empty empty empty 17 7 0 10 -262144
-1 -1;
#X obj 1100 259 until;
#X obj 1095 124 bng 15 250 50 0 empty empty empty 17 7 0 10 -262144
-1 -1;
#X msg 1007 256 clear;
#X msg 1141 287 1;
#X obj 1094 99 loadbang;
#X obj 971 571 s pd-\$0.sub;
#N canvas 1965 572 450 303 \$0.sub 0;
#X obj 200 20 usss.textureplay~ 1 myta;
#X obj 200 40 usss.textureplay~ 2 myta;
#X obj 200 60 usss.textureplay~ 3 myta;
#X obj 200 80 usss.textureplay~ 4 myta;
#X obj 200 100 usss.textureplay~ 5 myta;
#X obj 200 120 usss.textureplay~ 6 myta;
#X obj 200 140 usss.textureplay~ 7 myta;
#X obj 200 160 usss.textureplay~ 8 myta;
#X obj 200 180 usss.textureplay~ 9 myta;
#X obj 200 200 usss.textureplay~ 10 myta;
#X obj 200 220 usss.textureplay~ 11 myta;
#X obj 200 240 usss.textureplay~ 12 myta;
#X obj 200 260 usss.textureplay~ 13 myta;
#X obj 200 280 usss.textureplay~ 14 myta;
#X obj 200 300 usss.textureplay~ 15 myta;
#X obj 200 320 usss.textureplay~ 16 myta;
#X obj 200 340 usss.textureplay~ 17 myta;
#X obj 200 360 usss.textureplay~ 18 myta;
#X obj 200 380 usss.textureplay~ 19 myta;
#X obj 200 400 usss.textureplay~ 20 myta;
#X obj 200 420 usss.textureplay~ 21 myta;
#X obj 200 440 usss.textureplay~ 22 myta;
#X obj 200 460 usss.textureplay~ 23 myta;
#X obj 200 480 usss.textureplay~ 24 myta;
#X obj 200 500 usss.textureplay~ 25 myta;
#X obj 200 520 usss.textureplay~ 26 myta;
#X obj 200 540 usss.textureplay~ 27 myta;
#X obj 200 560 usss.textureplay~ 28 myta;
#X obj 200 580 usss.textureplay~ 29 myta;
#X obj 200 600 usss.textureplay~ 30 myta;
#X obj 200 620 usss.textureplay~ 31 myta;
#X obj 200 640 usss.textureplay~ 32 myta;
#X obj 200 660 usss.textureplay~ 33 myta;
#X obj 200 680 usss.textureplay~ 34 myta;
#X obj 200 700 usss.textureplay~ 35 myta;
#X obj 200 720 usss.textureplay~ 36 myta;
#X restore 1010 623 pd \$0.sub;
#X obj 1016 381 t f f b b;
#X obj 27 339 *~;
#X obj 72 346 *~;
#X obj 26 255 catch~ \$1.outL;
#X obj 73 282 catch~ \$1.outR;
#X obj 22 401 outlet~;
#X obj 83 398 outlet~;
#X obj 24 152 usss.hslider \$1.volume 0 1 0.2;
#X obj 43 209 s \$1.size;
#X obj 1134 479 symbol \$1;
#X obj 971 532 sprintf obj 200 %d usss.textureplay~ %d %s;
#X obj 1095 192 t f b b;
#X obj 1163 155 r \$1.numelements;
#X msg 1093 159 10;
#X obj 316 453 expr $f1*44100;
#X obj 414 453 expr $f1*1000*$f2;
#X obj 457 397 expr 1.0/$f1;
#X obj 350 650 print;
#X obj 351 371 t f f f;
#X obj 162 368 t b b f;
#X obj 156 407 counter 0;
#X floatatom 155 430 5 0 0 0 - - -;
#X obj 628 335 until;
#X obj 628 420 counter 0;
#X obj 622 270 t f b;
#X obj 623 451 + 1;
#X obj 290 530 *;
#X obj 397 535 *;
#X floatatom 469 507 5 0 0 0 - - -;
#X text 509 513 duration;
#X floatatom 626 486 5 0 0 0 - - -;
#X floatatom 627 570 5 0 0 0 - - -;
#X obj 629 604 + 1;
#X floatatom 176 36 5 0 0 1 #1.numpoints - #1.numpoints;
#X obj 608 159 t f b f;
#X floatatom 176 98 5 0 0 1 #1.makepoints - -;
#X obj 622 642 *;
#X floatatom 672 624 5 0 0 0 - - -;
#X obj 746 620 loadbang;
#X msg 744 655 1;
#X msg 734 341 resize \$1;
#X msg 814 346 print;
#X obj 840 314 r \$1.printpoints;
#X obj 605 133 r \$1.makepoints;
#X obj 468 480 r \$1.duration;
#X msg 507 539 2;
#X floatatom 176 57 5 0 0 1 #1.duration - #1.duration;
#X obj 677 187 send \$1.numelements;
#X floatatom 785 398 5 0 0 0 - - -;
#X msg 779 431 \; myt1 resize \$1;
#X obj 734 368 s \$1;
#X obj 736 315 r \$1.numpoints;
#X floatatom 696 310 5 0 0 0 - - -;
#X obj 628 530 tabread \$1;
#X obj 218 696 send \$1.events;
#X obj 691 587 r \$1.ambitus;
#X floatatom 176 77 5 0 0 1 #1.ambitus - #1.ambitus;
#X obj 24 106 tgl 20 0 \$1.randompan empty rand_pan 25 7 0 10 -260097
-1 -1 1 1;
#X obj 218 614 pack 0 0 0 0;
#X obj 359 594 r \$1.randompan;
#X obj 329 69 loadbang;
#X msg 329 95 1;
#X text 397 37 this must have the same name as your instance of usss.texture
else you can not edit the table;
#X obj 333 155 send \$1.makepoints;
#X obj 334 128 f;
#X obj 113 37 bng 30 250 50 0 empty empty run 10 37 0 10 -260097 -1
-1;
#X msg 467 286 1;
#X connect 0 0 1 0;
#X connect 1 0 2 0;
#X connect 2 0 24 0;
#X connect 4 0 26 0;
#X connect 5 0 6 0;
#X connect 5 0 7 0;
#X connect 6 0 5 1;
#X connect 7 0 16 0;
#X connect 8 0 5 0;
#X connect 9 0 8 0;
#X connect 10 0 29 0;
#X connect 10 0 61 0;
#X connect 11 0 14 0;
#X connect 12 0 5 1;
#X connect 13 0 10 0;
#X connect 16 0 4 0;
#X connect 16 1 26 1;
#X connect 16 3 25 0;
#X connect 17 0 21 0;
#X connect 18 0 22 0;
#X connect 19 0 17 0;
#X connect 20 0 18 0;
#X connect 23 1 17 1;
#X connect 23 1 18 1;
#X connect 25 0 26 2;
#X connect 26 0 3 0;
#X connect 26 0 14 0;
#X connect 27 0 9 0;
#X connect 27 1 12 0;
#X connect 27 2 11 0;
#X connect 28 0 27 0;
#X connect 29 0 27 0;
#X connect 30 0 42 0;
#X connect 31 0 43 0;
#X connect 32 0 31 1;
#X connect 34 0 30 0;
#X connect 34 1 31 0;
#X connect 34 2 32 0;
#X connect 35 0 36 0;
#X connect 35 2 34 0;
#X connect 36 0 37 0;
#X connect 37 0 74 0;
#X connect 38 0 39 0;
#X connect 39 0 41 0;
#X connect 40 0 38 0;
#X connect 40 1 39 2;
#X connect 41 0 46 0;
#X connect 42 0 74 1;
#X connect 43 0 74 2;
#X connect 44 0 43 1;
#X connect 44 0 42 1;
#X connect 46 0 69 0;
#X connect 47 0 48 0;
#X connect 48 0 52 0;
#X connect 50 0 40 0;
#X connect 50 1 82 0;
#X connect 50 2 63 0;
#X connect 51 0 80 1;
#X connect 52 0 35 0;
#X connect 53 0 52 1;
#X connect 54 0 55 0;
#X connect 55 0 53 0;
#X connect 56 0 66 0;
#X connect 57 0 66 0;
#X connect 58 0 57 0;
#X connect 59 0 50 0;
#X connect 60 0 44 0;
#X connect 61 0 44 0;
#X connect 64 0 65 0;
#X connect 67 0 56 0;
#X connect 68 0 56 0;
#X connect 69 0 47 0;
#X connect 71 0 53 0;
#X connect 74 0 33 0;
#X connect 74 0 70 0;
#X connect 75 0 74 3;
#X connect 76 0 77 0;
#X connect 77 0 73 0;
#X connect 80 0 79 0;
#X connect 81 0 80 0;
#X connect 82 0 36 2;
#X coords 0 -1 1 1 300 200 1 20 15;
