#N canvas 208 181 933 531 10;
#N canvas 0 0 450 300 (subpatch) 0;
#X array \$0.array 16 float 0;
#X coords 0 1 15 0 198 140 1;
#X restore 101 148 graph;
#X obj 103 117 bng 15 250 50 0 empty empty \$1.trigger 17 7 0 10 -262144
-1 -1;
#X obj 101 66 r \$1.trigger;
#X obj -43 196 line~;
#X obj -44 224 tabread4~ \$0.array;
#X obj -70 98 inlet~;
#X obj -71 303 outlet~;
#X obj -71 256 *~;
#X obj -33 63 tabwrite \$0.array;
#X msg -37 34 0 0 \, 0 1 \, 0 14 \, 0 15;
#X text -41 5 this is needed to null the edge values for the 4 point
interpolation;
#X msg -43 165 0 \, 15 \$1;
#X obj -9 131 int;
#X obj -135 302 outlet~;
#X obj -132 99 inlet~;
#X obj -135 256 *~;
#X floatatom 102 292 5 0 0 1 #1.total_time #1.total_time -;
#X obj 313 63 loadbang;
#X msg 313 97 250;
#X obj 313 134 s \$1.total_time;
#X connect 1 0 9 0;
#X connect 1 0 12 0;
#X connect 2 0 1 0;
#X connect 3 0 4 0;
#X connect 4 0 7 1;
#X connect 4 0 15 1;
#X connect 5 0 7 0;
#X connect 7 0 6 0;
#X connect 9 0 8 0;
#X connect 11 0 3 0;
#X connect 12 0 11 0;
#X connect 14 0 15 0;
#X connect 15 0 13 0;
#X connect 16 0 12 1;
#X connect 17 0 1 0;
#X connect 17 0 18 0;
#X connect 18 0 19 0;
#X coords 0 -1 1 1 200 210 1 100 100;
