#N canvas 605 70 783 894 10;
#X declare -lib iemgui;
#X declare -path ../../ussstools;
#X obj 44 574 usss.output myout;
#X obj 44 16 usss.sfplay mysf;
#X obj 373 45 tgl 30 0 empty empty empty 17 7 0 10 -262144 -1 -1 1
1;
#X msg 373 98 \; pd dsp \$1;
#X obj 43 171 usss.dynamicreson mydynres;
#X text 264 197 A dynamic bank of resonant filters with variable times
and levels.;
#X text 265 455 The Wobble toggle creates small pan movements in the
filters.;
#X connect 1 0 4 0;
#X connect 1 1 4 1;
#X connect 2 0 3 0;
#X connect 4 0 0 0;
#X connect 4 1 0 1;
