#N canvas 300 50 1497 853 10;
#X declare -path ../../ussstools;
#X msg 1216 18 \; pd-delsub obj 200 200 mydelabs \$1;
#X obj 252 871 print;
#X obj 191 788 * 20;
#X msg 569 834 clear;
#X obj 851 320 log;
#X floatatom 857 374 5 0 0 0 - - -, f 5;
#X obj 873 418 usss.zmap 0 4 0 10;
#X floatatom 106 349 5 0 0 1 start - -, f 5;
#X floatatom 233 348 5 0 0 1 end - -, f 5;
#X obj 459 716 i;
#X obj 491 716 + 1;
#X floatatom 472 775 5 0 0 0 - - -, f 5;
#X obj 459 693 bng 15 250 50 0 empty empty empty 17 7 0 10 -262144
-1 -1;
#X obj 459 665 until;
#X msg 502 666 1;
#X floatatom 201 162 5 0 100 1 num_delays - -, f 5;
#X obj 1148 121 loadbang;
#X obj 828 450 pack 0 0;
#X obj 459 602 t f b b;
#X obj 913 486 print;
#X obj 459 745 t f f;
#X obj 877 317 exp;
#X obj 112 132 hradio 20 1 1 3 empty empty direction_(a/d/reg) 65 8
0 10 -262144 -1 -1 2;
#X floatatom 634 248 5 0 0 0 - - -, f 5;
#X obj 1003 196 unpack 0 0;
#X floatatom 1060 238 5 0 0 0 - - -, f 5;
#X obj 900 375 unpack 0 0;
#X msg 1222 57 \; initnumdel 10 \; initdelstart 1 \; initdelend 5000
\; initdirection 3;
#X obj 102 -36 inlet~;
#X obj 303 -34 inlet~;
#X obj 99 676 outlet~;
#X obj 224 675 outlet~;
#X obj 103 369 usss.hslider \$1.feedback 0 0.99 0;
#X obj 371 800 symbol \$1;
#X obj 191 764 t f f b;
#X obj 22 35 r \$1.initdirection;
#X msg 1179 198 10;
#X obj 1179 244 s \$1.initnumdel;
#X obj 1246 269 s \$1.initdirection;
#X obj 806 554 s \$1.delaystart;
#X obj 1003 174 r \$1.rangein;
#X obj 927 196 r \$1.numdel;
#X obj 828 199 r \$1.fltnum;
#X obj 990 376 r \$1.delaystart;
#X obj 1098 377 r \$1.delayend;
#X obj 828 486 s \$1.events;
#X obj 310 145 r \$1.initnumdel;
#X obj 360 299 s \$1.numdel;
#X obj 459 575 r \$1.numdel;
#X obj 459 814 s \$1.fltnum;
#X obj 101 607 *~;
#X obj 224 602 *~;
#X obj 102 406 usss.hslider \$1.delayvolume 0 1 0;
#X obj 100 541 catch~ \$1.todacL;
#X obj 224 542 catch~ \$1.todacR;
#N canvas 1430 120 450 681 \$1.delsub 0;
#X restore 30 781 pd \$1.delsub;
#X obj 190 49 catch~ \$1.todellineL;
#X obj 170 72 delwrite~ \$1.mydelL 10000;
#X obj 338 72 delwrite~ \$1.mydelR 10000;
#X obj 352 49 catch~ \$1.todellineR;
#X obj 698 438 s \$1.rangein;
#X obj 607 438 s \$1.rangeout;
#X obj 469 349 t b b b;
#X obj 572 345 t b b b;
#X msg 572 374 0.3 7.389;
#X obj 705 345 t b b b;
#X obj 146 871 s pd-\$1.delsub;
#X obj 731 626 s \$1.delayend;
#X obj 103 442 usss.hslider \$1.original 0 1 0;
#X obj -74 598 *~;
#X obj -36 598 *~;
#X obj 637 291 sel 0 1 2;
#X msg 1246 197 2;
#X obj 898 350 r \$1.rangeout;
#X msg 716 374 0 1;
#X msg 785 374 0 1;
#X msg 642 374 -1 2;
#X msg 488 376 0 4;
#X msg 518 377 0 50;
#X obj 707 248 + 1;
#X obj 544 441 del 100;
#X obj 875 234 usss.zmap 0 1 0 50;
#X obj 1308 245 s \$1.initdel;
#X msg 1308 197 1 5000;
#X obj 711 22 r \$1.initdel;
#X obj 711 54 unpack f f;
#X obj 360 268 f;
#X obj 387 417 sig~;
#X obj 336 433 /~;
#X obj 335 459 s~ \$1.delfeedback;
#X obj 103 161 bng 20 250 50 0 empty empty make_delays 25 7 0 10 -260097
-1 -1;
#X obj 704 588 t b f;
#X obj 680 537 t b f;
#X obj 1148 157 t b b b b b;
#X obj 1122 199 del 500;
#X obj -52 109 t b b;
#X obj 680 777 i;
#X obj 717 777 + 1;
#X obj 680 745 bng 15 250 50 0 empty empty empty 17 7 0 10 -262144
-1 -1;
#X obj 680 716 until;
#X msg 722 716 1;
#X obj 680 809 s \$1.fltnum;
#X obj 680 682 f;
#X obj 680 625 t b b;
#X obj 1032 573 unpack f f;
#X floatatom 1032 654 5 0 0 0 - - -, f 5;
#X floatatom 1222 590 5 0 0 0 - - -, f 5;
#X obj 1032 695 usss.zmap 0 1 1 5000;
#X obj 1222 695 usss.zmap 0 1 100 5000;
#X obj 1032 734 +;
#X obj 1032 551 r \$1.delpad;
#X obj 146 825 sprintf obj 200 %d usssdelayunit %d %s;
#X obj 1023 23 declare -path ../../ussstools;
#X obj 695 654 r \$1.numdel;
#X obj 711 111 pack f f;
#X obj 1119 644 unpack f f;
#X obj 958 776 s \$1.sboxin;
#X obj 1032 777 s \$1.eboxin;
#X obj 704 565 r \$1.eboxout;
#X obj 680 514 r \$1.sboxout;
#X obj 313 364 s \$1.eboxout;
#X obj 314 331 r \$1.eboxin;
#X obj 16 332 r \$1.sboxin;
#X obj 16 365 s \$1.sboxout;
#X obj 631 83 s \$1.sboxin;
#X obj 785 83 s \$1.eboxin;
#X obj 1122 268 s \$1.doublebang;
#X obj -52 84 r \$1.doublebang;
#X obj 711 138 s \$1.initdelnums;
#X obj 1119 614 r \$1.initdelnums;
#X obj 387 391 r \$1.numdel;
#X obj 135 -2 s~ \$1.audioinL;
#X obj 333 0 s~ \$1.audioinR;
#X obj -97 540 r~ \$1.audioinL;
#X obj 0 541 r~ \$1.audioinR;
#X obj 230 495 s~ \$1.dryvolmult;
#X obj 334 495 s~ \$1.delvolmult;
#X obj 241 569 r~ \$1.delvolmult;
#X obj 375 239 r \$1.numdelbox;
#X obj 312 179 s \$1.numdelbox;
#X obj -15 199 s \$1.mkdelbang;
#X obj 337 217 r \$1.mkdelbang;
#X obj -58 159 s \$1.h-array;
#X obj 674 203 r \$1.h-array;
#X text 537 277 Delay Patterns;
#X text 930 295 I/O mapping;
#X text 1135 535 Trackpad ranges;
#X text 763 671 Changing Delay Times;
#X text 69 511 Audio Output;
#X text 305 118 Accel/Deccel/Reg;
#X text 288 745 Delay Subpatch Creation;
#X obj -3 569 r~ \$1.dryvolmult;
#X obj 107 184 usss.deltouch \$1;
#X obj 842 265 cyclone/gate 3;
#X connect 2 0 111 0;
#X connect 3 0 66 0;
#X connect 4 0 5 0;
#X connect 5 0 6 0;
#X connect 6 0 17 1;
#X connect 7 0 123 0;
#X connect 8 0 120 0;
#X connect 9 0 10 0;
#X connect 9 0 20 0;
#X connect 10 0 9 1;
#X connect 11 0 34 0;
#X connect 12 0 9 0;
#X connect 13 0 12 0;
#X connect 14 0 9 1;
#X connect 15 0 139 0;
#X connect 16 0 93 0;
#X connect 17 0 19 0;
#X connect 17 0 45 0;
#X connect 18 0 13 0;
#X connect 18 1 14 0;
#X connect 18 2 3 0;
#X connect 20 0 49 0;
#X connect 20 1 11 0;
#X connect 21 0 5 0;
#X connect 22 0 142 0;
#X connect 24 0 81 3;
#X connect 24 1 25 0;
#X connect 24 1 81 4;
#X connect 26 0 6 1;
#X connect 26 1 6 2;
#X connect 28 0 57 0;
#X connect 28 0 131 0;
#X connect 29 0 58 0;
#X connect 29 0 132 0;
#X connect 32 1 88 0;
#X connect 33 0 111 2;
#X connect 34 0 2 0;
#X connect 34 1 111 1;
#X connect 34 2 33 0;
#X connect 35 0 22 0;
#X connect 36 0 37 0;
#X connect 40 0 24 0;
#X connect 41 0 81 2;
#X connect 42 0 17 0;
#X connect 42 0 81 0;
#X connect 43 0 6 3;
#X connect 44 0 6 4;
#X connect 46 0 15 0;
#X connect 48 0 18 0;
#X connect 50 0 30 0;
#X connect 51 0 31 0;
#X connect 52 1 136 0;
#X connect 53 0 50 0;
#X connect 54 0 51 0;
#X connect 56 0 57 0;
#X connect 59 0 58 0;
#X connect 62 0 80 0;
#X connect 62 1 77 0;
#X connect 62 2 78 0;
#X connect 63 0 80 0;
#X connect 63 1 64 0;
#X connect 63 2 76 0;
#X connect 64 0 61 0;
#X connect 65 0 80 0;
#X connect 65 1 74 0;
#X connect 65 2 75 0;
#X connect 68 1 135 0;
#X connect 69 0 30 0;
#X connect 70 0 31 0;
#X connect 71 0 62 0;
#X connect 71 1 63 0;
#X connect 71 2 65 0;
#X connect 72 0 38 0;
#X connect 73 0 26 0;
#X connect 74 0 61 0;
#X connect 75 0 60 0;
#X connect 76 0 60 0;
#X connect 77 0 61 0;
#X connect 78 0 60 0;
#X connect 79 0 153 0;
#X connect 80 0 103 0;
#X connect 81 0 153 1;
#X connect 83 0 82 0;
#X connect 84 0 85 0;
#X connect 85 0 114 0;
#X connect 85 0 124 0;
#X connect 85 1 114 1;
#X connect 85 1 125 0;
#X connect 86 0 47 0;
#X connect 87 0 88 1;
#X connect 88 0 89 0;
#X connect 90 0 140 0;
#X connect 91 0 103 0;
#X connect 91 1 67 0;
#X connect 92 0 103 0;
#X connect 92 1 39 0;
#X connect 93 1 94 0;
#X connect 93 2 36 0;
#X connect 93 3 72 0;
#X connect 93 4 83 0;
#X connect 94 0 126 0;
#X connect 95 0 90 0;
#X connect 95 1 90 0;
#X connect 96 0 97 0;
#X connect 96 0 101 0;
#X connect 97 0 96 1;
#X connect 98 0 96 0;
#X connect 99 0 98 0;
#X connect 100 0 96 1;
#X connect 102 0 99 0;
#X connect 103 0 102 0;
#X connect 103 1 100 0;
#X connect 104 0 105 0;
#X connect 104 1 106 0;
#X connect 105 0 107 0;
#X connect 106 0 108 0;
#X connect 107 0 109 0;
#X connect 107 0 116 0;
#X connect 108 0 109 1;
#X connect 109 0 117 0;
#X connect 110 0 104 0;
#X connect 111 0 1 0;
#X connect 111 0 66 0;
#X connect 113 0 102 1;
#X connect 114 0 128 0;
#X connect 115 0 107 3;
#X connect 115 0 108 3;
#X connect 115 1 107 4;
#X connect 115 1 108 4;
#X connect 118 0 91 0;
#X connect 119 0 92 0;
#X connect 121 0 8 0;
#X connect 122 0 7 0;
#X connect 127 0 95 0;
#X connect 129 0 115 0;
#X connect 130 0 87 0;
#X connect 133 0 69 0;
#X connect 134 0 70 0;
#X connect 137 0 51 1;
#X connect 137 0 50 1;
#X connect 138 0 86 1;
#X connect 141 0 86 0;
#X connect 143 0 79 0;
#X connect 143 0 23 0;
#X connect 143 0 71 0;
#X connect 151 0 69 1;
#X connect 151 0 70 1;
#X connect 153 0 4 0;
#X connect 153 1 21 0;
#X connect 153 2 5 0;
#X coords 0 -1 1 1 200 380 1 100 100;
