#N canvas 191 76 1414 915 10;
#X obj 223 251 openpanel;
#X obj 110 117 bng 30 250 50 0 empty empty open_file 33 7 0 14 -159808
-1 -1;
#X msg 330 401 1;
#X msg 330 427 0;
#X obj 552 429 soundfile_info;
#X obj 225 306 symbol;
#X obj 397 362 *;
#X obj 519 298 samplerate~;
#X obj 518 274 loadbang;
#X obj 399 326 f;
#X obj 395 297 bng 15 250 50 0 empty empty empty 17 7 0 10 -262144
-1 -1;
#X floatatom 205 182 5 0 0 1 - - -, f 5;
#X obj 256 119 bng 30 250 50 0 empty empty Play 33 7 0 14 -4034 -1
-1;
#X obj 195 292 bng 15 250 50 0 empty empty empty 17 7 0 10 -262144
-1 -1;
#X msg 229 379 open \$1 \$2;
#X obj 229 343 pack s f;
#X obj 349 243 t b b b;
#X obj 582 273 bng 15 250 50 0 empty empty empty 17 7 0 10 -262144
-1 -1;
#X msg 552 399 read \$1;
#X obj 553 494 list split 1;
#X obj 554 460 list split 2;
#X obj 553 526 / 1;
#X obj 112 162 hsl 128 15 0 1 0 0 empty empty start_time_(sec) -2 -8
0 10 -257985 -1 -1 0 1;
#X obj 538 172 *;
#X obj 663 459 list split 4;
#X obj 662 492 list split 1;
#X floatatom 109 181 5 0 0 1 channels - -, f 5;
#X obj 256 153 bng 30 250 50 0 empty empty Stop 33 7 0 14 -260097 -1
-1;
#X msg 713 200 clear;
#X obj 925 455 i;
#X obj 963 461 + 1;
#X floatatom 926 483 5 0 0 0 - - -, f 5;
#X obj 924 423 bng 15 250 50 0 empty empty empty 17 7 0 10 -262144
-1 -1;
#X obj 922 400 until;
#X obj 922 284 bng 40 250 50 0 empty empty empty 17 7 0 10 -257985
-1 -1;
#X obj 922 372 f;
#X obj 922 333 t b b;
#X msg 742 255 2;
#X msg 745 302 connect 0 0 1 0;
#X msg 964 426 1;
#X obj 924 547 * 100;
#X msg 741 277 obj 100 70 readsf~ \$1;
#X msg 725 226 obj 100 50 receive playinstructions;
#X msg 779 635 connect 1 \$1 \$2 0;
#X obj 783 553 - 1;
#X obj 785 583 pack 0 0;
#X msg 1068 408 connect 1 0 2 0;
#X msg 1070 439 connect 1 1 3 0;
#X obj 842 559 + 1;
#X msg 1018 97 8;
#X floatatom 984 327 5 0 0 0 - - -, f 5;
#X msg 67 149 0;
#X obj 999 551 symbol \$1;
#X obj 924 579 pack 0 0 s;
#X obj 926 516 t f f f f b;
#X msg 924 641 obj \$1 100 send~ \$3.\$2;
#X obj 228 473 send \$1.playinstructions;
#N canvas 1976 259 1002 654 \$1.playerlink 0;
#X obj 100 50 receive audio.playinstructions;
#X obj 100 70 readsf~ 6;
#X obj 100 100 send~ audio.1;
#X obj 200 100 send~ audio.2;
#X obj 300 100 send~ audio.3;
#X obj 400 100 send~ audio.4;
#X obj 500 100 send~ audio.5;
#X obj 600 100 send~ audio.6;
#X obj 100 120 send audio.loop;
#X connect 0 0 1 0;
#X connect 1 0 2 0;
#X connect 1 1 3 0;
#X connect 1 2 4 0;
#X connect 1 3 5 0;
#X connect 1 4 6 0;
#X connect 1 5 7 0;
#X connect 1 6 8 0;
#X restore 233 536 pd \$1.playerlink;
#X obj 893 142 pack f s;
#X obj 925 103 symbol \$1;
#X obj 890 74 t f b;
#X obj 923 257 r \$1.audioplayermakeaudio;
#X obj 994 295 r \$1.audioplayerchannels;
#X msg 1018 128 \; pd-\$2.playerlink clear \; \$2.audioplayerchannels
\$1 \; pd-\$2.playerlink obj 100 50 receive \$2.playinstructions \;
pd-\$2.playerlink obj 100 70 readsf~ \$1 \; pd-\$2.playerlink connect
0 0 1 0 \; \$2.audioplayermakeaudio bang \;;
#X obj 714 377 s pd-\$1.playerlink;
#X floatatom 435 74 5 0 0 0 - - -, f 5;
#X obj 430 95 + 1;
#X obj 402 113 f;
#X obj 445 49 t b b;
#X obj 407 167 - 1;
#X obj 403 192 pack 0 0;
#X obj 460 168 + 1;
#X msg 402 212 connect 1 \$1 \$2 0;
#X obj 405 137 t f f;
#X obj 256 187 tgl 30 0 empty empty Loop 32 7 0 14 -232576 -1 -1 0
1;
#X obj 495 73 symbol;
#X obj 247 46 r \$1.loop;
#X obj 251 68 spigot;
#X msg 487 101 \; pd-\$1.playerlink obj 100 120 send \$1.loop;
#X obj 109 200 bng 15 250 50 0 empty empty make_loop_connection 17
7 0 10 -262144 -1 -1;
#X connect 0 0 5 1;
#X connect 0 0 18 0;
#X connect 1 0 51 0;
#X connect 1 0 0 0;
#X connect 2 0 56 0;
#X connect 3 0 56 0;
#X connect 4 0 20 0;
#X connect 4 0 24 0;
#X connect 5 0 15 0;
#X connect 6 0 15 1;
#X connect 7 0 6 1;
#X connect 7 0 21 1;
#X connect 8 0 7 0;
#X connect 9 0 6 0;
#X connect 10 0 9 0;
#X connect 11 0 9 1;
#X connect 12 0 16 0;
#X connect 13 0 5 0;
#X connect 14 0 56 0;
#X connect 15 0 14 0;
#X connect 16 0 2 0;
#X connect 16 1 13 0;
#X connect 16 2 10 0;
#X connect 17 0 7 0;
#X connect 18 0 4 0;
#X connect 19 0 21 0;
#X connect 20 1 19 0;
#X connect 21 0 23 1;
#X connect 22 0 23 0;
#X connect 23 0 11 0;
#X connect 24 1 25 0;
#X connect 25 0 26 0;
#X connect 25 0 60 0;
#X connect 27 0 3 0;
#X connect 28 0 64 0;
#X connect 29 0 30 0;
#X connect 29 0 31 0;
#X connect 30 0 29 1;
#X connect 31 0 54 0;
#X connect 32 0 29 0;
#X connect 33 0 32 0;
#X connect 34 0 36 0;
#X connect 35 0 33 0;
#X connect 36 0 35 0;
#X connect 36 1 39 0;
#X connect 37 0 41 0;
#X connect 38 0 64 0;
#X connect 39 0 29 1;
#X connect 40 0 53 0;
#X connect 41 0 64 0;
#X connect 42 0 64 0;
#X connect 43 0 64 0;
#X connect 44 0 45 0;
#X connect 45 0 43 0;
#X connect 46 0 64 0;
#X connect 47 0 64 0;
#X connect 48 0 45 1;
#X connect 49 0 63 0;
#X connect 50 0 35 1;
#X connect 51 0 22 0;
#X connect 51 0 74 0;
#X connect 52 0 53 2;
#X connect 53 0 55 0;
#X connect 54 0 44 0;
#X connect 54 1 48 0;
#X connect 54 2 40 0;
#X connect 54 3 53 1;
#X connect 54 4 52 0;
#X connect 55 0 64 0;
#X connect 58 0 63 0;
#X connect 59 0 58 1;
#X connect 59 0 75 1;
#X connect 60 0 58 0;
#X connect 60 1 59 0;
#X connect 61 0 34 0;
#X connect 62 0 50 0;
#X connect 62 0 65 0;
#X connect 65 0 66 0;
#X connect 66 0 67 1;
#X connect 67 0 73 0;
#X connect 68 0 67 0;
#X connect 68 1 75 0;
#X connect 69 0 70 0;
#X connect 70 0 72 0;
#X connect 71 0 70 1;
#X connect 72 0 64 0;
#X connect 73 0 69 0;
#X connect 73 1 71 0;
#X connect 74 0 77 1;
#X connect 75 0 78 0;
#X connect 76 0 77 0;
#X connect 77 0 12 0;
#X connect 79 0 68 0;
#X coords 0 -1 1 1 250 120 1 100 100;
