#N canvas 148 24 1130 906 10;
#X obj -484 762 outlet~;
#X obj -362 761 outlet~;
#X obj 3 187 usss.hslider \$1.gainL 0 1 0;
#X obj 3 223 usss.hslider \$1.gainR 0 1 0;
#X obj -490 721 *~;
#X obj -261 715 *~;
#X obj 4 22 usss.tabplay \$1;
#X obj -671 595 hip~ 5;
#X floatatom -669 113 4 0 100 0 - - -;
#X obj -670 542 *~;
#X floatatom -670 189 0 0 200 0 - - -;
#X obj -670 444 +~;
#X obj -671 396 samphold~;
#X obj -670 420 *~;
#X floatatom -313 123 0 0 0 0 - - -;
#X text -553 148 chunk size;
#X text -556 162 in seconds;
#X obj -301 185 t b f;
#X obj -505 475 -~ 0.5;
#X obj -505 499 *~ 0.5;
#X obj -505 522 cos~;
#X obj -313 265 phasor~;
#X obj -226 284 +~ 0.5;
#X obj -225 310 wrap~;
#X obj -671 571 +~;
#X text -279 124 <-- transposition \, halftones/10;
#X obj -669 133 * 0.001;
#X obj -670 281 phasor~;
#X obj -670 468 *~ 44100;
#X obj -671 494 +~ 1;
#X floatatom -305 242 5 0 0 0 - - -;
#X obj -188 184 t b f;
#X obj -670 212 * 0.01;
#X obj -419 551 *~;
#X obj -419 453 +~;
#X obj -420 405 samphold~;
#X obj -419 429 *~;
#X obj -254 484 -~ 0.5;
#X obj -254 508 *~ 0.5;
#X obj -254 531 cos~;
#X obj -419 477 *~ 44100;
#X obj -420 503 +~ 1;
#X text -640 189 <-- precession \, percent;
#X floatatom -538 258 4 0 900 0 - - -;
#X obj -538 278 * 0.001;
#X msg -538 236 900;
#X text -629 113 <-- chunk size (msec);
#X obj -313 217 expr (pow(2 \, $f1/120)-$f3)/$f2;
#X obj -538 303 t b f;
#X obj -538 212 loadbang;
#X text -495 254 <-- loop length;
#X text -454 269 (msec);
#X obj -670 305 *~;
#X obj -670 257 /;
#X obj 2 111 usss.hslider \$1.chunksize 0 100 25;
#X obj 2 79 usss.hslider \$1.transposition -200 200 0;
#X obj 2 147 usss.hslider \$1.precision 0 200 10;
#X obj -670 518 tabread4~ \$1.sf1;
#X obj -419 527 tabread4~ \$1.sf1;
#X obj -592 585 tabread4~ \$1.sf2;
#X obj -356 563 tabread4~ \$1.sf2;
#X obj -543 666 hip~ 5;
#X obj -571 612 *~;
#X obj -572 641 +~;
#X obj -311 615 *~;
#X obj -239 27 inlet~;
#X obj -189 27 inlet~;
#X obj -629 77 r \$1.realchunksize;
#X obj -301 160 r \$1.chunk-size;
#X obj -188 159 r \$1.precession;
#X obj -313 291 s~ \$1.phase;
#X obj -225 335 s~ \$1.phase2;
#X obj -254 460 r~ \$1.phase2;
#X obj -332 406 r~ \$1.phase2;
#X obj -384 430 r~ \$1.phase2;
#X obj -381 453 r~ \$1.read-pt;
#X obj -506 450 r~ \$1.phase;
#X obj -671 371 r \$1.chunk-size;
#X obj -420 380 r \$1.chunk-size;
#X obj -583 397 r~ \$1.phase;
#X obj -635 421 r~ \$1.phase;
#X obj -632 444 r~ \$1.read-pt;
#X obj -670 330 s~ \$1.read-pt;
#X obj -662 235 s \$1.precession;
#X obj -669 156 s \$1.chunk-size;
#X connect 2 0 4 1;
#X connect 3 0 5 1;
#X connect 4 0 0 0;
#X connect 5 0 1 0;
#X connect 6 0 43 0;
#X connect 7 0 4 0;
#X connect 8 0 26 0;
#X connect 9 0 24 0;
#X connect 10 0 32 0;
#X connect 11 0 28 0;
#X connect 12 0 13 0;
#X connect 13 0 11 0;
#X connect 14 0 47 0;
#X connect 17 0 47 0;
#X connect 17 1 47 1;
#X connect 18 0 19 0;
#X connect 19 0 20 0;
#X connect 20 0 9 1;
#X connect 20 0 62 1;
#X connect 21 0 22 0;
#X connect 21 0 70 0;
#X connect 22 0 23 0;
#X connect 23 0 71 0;
#X connect 24 0 7 0;
#X connect 26 0 84 0;
#X connect 27 0 52 0;
#X connect 28 0 29 0;
#X connect 29 0 57 0;
#X connect 29 0 59 0;
#X connect 31 0 47 0;
#X connect 31 1 47 2;
#X connect 32 0 53 0;
#X connect 32 0 83 0;
#X connect 33 0 24 1;
#X connect 34 0 40 0;
#X connect 35 0 36 0;
#X connect 36 0 34 0;
#X connect 37 0 38 0;
#X connect 38 0 39 0;
#X connect 39 0 33 1;
#X connect 39 0 64 1;
#X connect 40 0 41 0;
#X connect 41 0 58 0;
#X connect 41 0 60 0;
#X connect 43 0 44 0;
#X connect 44 0 48 0;
#X connect 44 0 52 1;
#X connect 45 0 43 0;
#X connect 47 0 21 0;
#X connect 47 0 30 0;
#X connect 48 0 53 0;
#X connect 48 1 53 1;
#X connect 49 0 45 0;
#X connect 52 0 82 0;
#X connect 53 0 27 0;
#X connect 54 0 8 0;
#X connect 55 0 14 0;
#X connect 56 0 10 0;
#X connect 57 0 9 0;
#X connect 58 0 33 0;
#X connect 59 0 62 0;
#X connect 60 0 64 0;
#X connect 61 0 5 0;
#X connect 62 0 63 0;
#X connect 63 0 61 0;
#X connect 64 0 63 1;
#X connect 65 0 6 0;
#X connect 66 0 6 1;
#X connect 67 0 8 0;
#X connect 68 0 17 0;
#X connect 69 0 31 0;
#X connect 72 0 37 0;
#X connect 73 0 35 1;
#X connect 74 0 36 1;
#X connect 75 0 34 1;
#X connect 76 0 18 0;
#X connect 77 0 12 0;
#X connect 78 0 35 0;
#X connect 79 0 12 1;
#X connect 80 0 13 1;
#X connect 81 0 11 1;
#X coords 0 -1 1 1 200 260 1 0 0;
