#N canvas 2517 349 450 300 10;
#X obj 105 106 grid delpad 150 0 1 150 0 1 1 0.001 0.001 10 10 214
169;
#X floatatom 107 272 5 0 0 0 - - -;
#X floatatom 248 272 5 0 0 0 - - -;
#X obj 107 318 s \$1.delpad;
#X obj 107 292 pack 0 0;
#X connect 0 0 1 0;
#X connect 0 1 2 0;
#X connect 1 0 4 0;
#X connect 2 0 4 1;
#X connect 4 0 3 0;
#X coords 0 -1 1 1 160 160 2 100 100;
