#N canvas 408 22 1088 700 10;
#X obj 76 535 *~;
#X obj 309 435 line~;
#X obj 309 409 pack 0 200;
#X obj 3 320 exp;
#X floatatom 3 346 6 0 0 0 - - -;
#X obj 3 436 /;
#X obj 139 356 * 0.001;
#X obj 464 388 line~;
#X obj 464 363 pack 0 200;
#X obj 76 561 +~;
#X obj 3 587 cos~;
#X obj 23 687 *~;
#X obj 22 734 +~;
#X obj 259 533 wrap~;
#X obj 342 539 *~;
#X obj 342 572 +~;
#X obj 260 623 cos~;
#X obj 260 650 *~;
#X obj 139 383 t b f;
#X floatatom 3 462 6 0 0 0 - - -;
#X obj 260 510 +~ 0.5;
#X obj 3 535 -~ 0.5;
#X obj 3 561 *~ 0.5;
#X obj 260 562 -~ 0.5;
#X obj 260 595 *~ 0.5;
#X obj 3 373 - 1;
#X obj 3 294 * 0.05776;
#X obj 3 399 * -1;
#X text 66 340 speed;
#X text 65 354 change;
#X text 38 429 tape head;
#X obj 3 493 phasor~;
#X obj 464 339 max 1.5;
#X obj 212 338 max 1;
#X text 39 442 rotation freq;
#X obj 215 21 inlet~;
#X obj 377 18 inlet~;
#X obj 344 601 vd~ \$0.delL;
#X obj 419 601 vd~ \$0.delR;
#X obj 350 667 *~;
#X obj 77 602 vd~ \$0.delL;
#X obj 160 603 vd~ \$0.delR;
#X obj 216 88 delwrite~ \$0.delL 5000;
#X obj 378 86 delwrite~ \$0.delR 5000;
#X obj 232 680 *~;
#X obj 232 730 +~;
#X obj 24 872 outlet~;
#X obj 231 868 outlet~;
#X obj 3 132 usss.hslider \$1.gainL 0 1 0;
#X obj 3 168 usss.hslider \$1.gainR 0 1 0;
#X obj 23 797 *~;
#X obj 232 792 *~;
#X obj 3 21 usss.hslider \$1.transposition -100 100 0;
#X obj 2 58 usss.hslider \$1.window 0 300 100;
#X obj 3 94 usss.hslider \$1.delay 0 1000 200;
#X obj 260 156 s~ \$1.Lgain;
#X obj 265 189 s~ \$1.Rgain;
#X obj 38 775 r~ \$1.Lgain;
#X obj 247 771 r~ \$1.Rgain;
#X obj 276 20 r~ \$1.Lfb;
#X obj 447 19 r~ \$1.Rfb;
#X obj 276 50 *~;
#X obj 446 50 *~;
#X obj 3 207 usss.hslider \$1.feedback 0 0.98 0.35;
#X obj 264 230 s~ \$1.fblevel;
#X obj 581 28 r~ \$1.fblevel;
#X obj 60 751 s~ \$1.Lfb;
#X obj 271 747 s~ \$1.Rfb;
#X connect 0 0 9 0;
#X connect 1 0 0 1;
#X connect 1 0 14 1;
#X connect 2 0 1 0;
#X connect 3 0 4 0;
#X connect 4 0 25 0;
#X connect 5 0 19 0;
#X connect 6 0 18 0;
#X connect 7 0 15 1;
#X connect 7 0 9 1;
#X connect 8 0 7 0;
#X connect 9 0 40 0;
#X connect 9 0 41 0;
#X connect 10 0 11 0;
#X connect 10 0 44 0;
#X connect 11 0 12 0;
#X connect 12 0 50 0;
#X connect 12 0 66 0;
#X connect 13 0 14 0;
#X connect 13 0 23 0;
#X connect 14 0 15 0;
#X connect 15 0 37 0;
#X connect 15 0 38 0;
#X connect 16 0 17 0;
#X connect 16 0 39 0;
#X connect 17 0 12 1;
#X connect 18 0 5 0;
#X connect 18 1 5 1;
#X connect 19 0 31 0;
#X connect 20 0 13 0;
#X connect 21 0 22 0;
#X connect 22 0 10 0;
#X connect 23 0 24 0;
#X connect 24 0 16 0;
#X connect 25 0 27 0;
#X connect 26 0 3 0;
#X connect 27 0 5 0;
#X connect 31 0 0 0;
#X connect 31 0 21 0;
#X connect 31 0 20 0;
#X connect 32 0 8 0;
#X connect 33 0 6 0;
#X connect 33 0 2 0;
#X connect 35 0 42 0;
#X connect 36 0 43 0;
#X connect 37 0 17 1;
#X connect 38 0 39 1;
#X connect 39 0 45 1;
#X connect 40 0 11 1;
#X connect 41 0 44 1;
#X connect 44 0 45 0;
#X connect 45 0 51 0;
#X connect 45 0 67 0;
#X connect 48 1 55 0;
#X connect 49 1 56 0;
#X connect 50 0 46 0;
#X connect 51 0 47 0;
#X connect 52 0 26 0;
#X connect 53 0 33 0;
#X connect 54 0 32 0;
#X connect 57 0 50 1;
#X connect 58 0 51 1;
#X connect 59 0 61 0;
#X connect 60 0 62 0;
#X connect 61 0 42 0;
#X connect 62 0 43 0;
#X connect 63 1 64 0;
#X connect 65 0 62 1;
#X connect 65 0 61 1;
#X coords 0 -1 1 1 200 250 1 0 0;
