#N canvas 421 303 571 579 10;
#X obj 190 237 *~;
#X obj 418 282 *~ -1;
#X obj 417 322 +~ 1;
#X obj 168 264 +~;
#X obj 167 361 *~;
#X obj 166 395 *~;
#X obj 168 432 *~;
#X obj 234 431 *~;
#X obj 217 97 phasor~;
#X obj 86 147 samphold~;
#X obj 229 192 samphold~;
#X obj 417 244 samphold~;
#X obj 151 488 outlet~;
#X obj 258 485 outlet~;
#X obj 258 73 f \$2;
#X obj 259 47 loadbang;
#X obj 85 107 r~ \$1.pos;
#X obj 228 160 r~ \$1.gdur;
#X obj 154 35 r \$1.gfreq;
#X obj 418 188 r~ \$1.pan;
#X obj 210 368 r \$1.gain;
#X obj 285 270 wave~ \$1.wndw;
#X obj 168 318 tabread4~ \$1.sf1;
#X obj 224 243 samplerate~;
#X obj 224 270 * 0.001;
#X obj 172 289 *~;
#X connect 0 0 3 1;
#X connect 1 0 2 0;
#X connect 2 0 7 1;
#X connect 3 0 25 0;
#X connect 4 0 5 0;
#X connect 5 0 6 0;
#X connect 5 0 7 0;
#X connect 6 0 12 0;
#X connect 7 0 13 0;
#X connect 8 0 0 0;
#X connect 8 0 9 1;
#X connect 8 0 10 1;
#X connect 8 0 11 1;
#X connect 8 0 21 0;
#X connect 9 0 3 0;
#X connect 10 0 0 1;
#X connect 11 0 1 0;
#X connect 11 0 6 1;
#X connect 14 0 8 1;
#X connect 15 0 14 0;
#X connect 15 0 23 0;
#X connect 16 0 9 0;
#X connect 17 0 10 0;
#X connect 18 0 8 0;
#X connect 19 0 11 0;
#X connect 20 0 5 1;
#X connect 21 0 4 1;
#X connect 22 0 4 0;
#X connect 23 0 24 0;
#X connect 24 0 25 1;
#X connect 25 0 22 0;
