#N canvas 793 182 926 710 10;
#X declare -path E:/USSSTOOLSKIT/ussstools;
#X obj 504 243 print;
#X obj 460 160 * 20;
#X obj 701 195 i;
#X obj 739 201 + 1;
#X floatatom 701 222 5 0 0 0 - - -, f 5;
#X obj 700 163 bng 15 250 50 0 empty empty empty 17 7 0 10 -262144
-1 -1;
#X obj 699 137 until;
#X msg 700 111 10;
#X obj 695 43 bng 15 250 50 0 empty empty empty 17 7 0 10 -262144 -1
-1;
#X msg 606 134 clear;
#X obj 694 70 t b b b;
#X msg 740 165 1;
#X obj 77 439 *~;
#X obj 122 446 *~;
#X obj 369 27 declare -path E:/USSSTOOLSKIT/ussstools;
#X obj 105 160 usss.hslider \$1.cvolume 0 4 0.8;
#X obj 104 122 usss.hslider \$1.coutamp 0 2 0.8;
#X obj 608 169 symbol \$1;
#X obj 415 204 sprintf obj 200 %d mydyncombvoice %d %s;
#X obj 458 132 t f f b;
#X obj 100 269 send~ \$1.csigL;
#X obj 211 265 send~ \$1.csigR;
#X obj 167 233 s \$1.outamp;
#X obj 76 355 catch~ \$1.outL;
#X obj 123 382 catch~ \$1.outR;
#X obj 72 501 outlet~;
#X obj 133 498 outlet~;
#X obj 694 18 loadbang;
#X obj 44 237 inlet~;
#X obj 98 236 inlet~;
#X obj 554 417 pack 0 0 0;
#X obj 554 385 poly 10;
#X obj 554 450 s \$1.events;
#X obj 415 243 s pd-\$0.sub;
#N canvas 1378 589 450 300 \$0.sub 0;
#X obj 200 20 mydyncombvoice 1 mycp;
#X obj 200 40 mydyncombvoice 2 mycp;
#X obj 200 60 mydyncombvoice 3 mycp;
#X obj 200 80 mydyncombvoice 4 mycp;
#X obj 200 100 mydyncombvoice 5 mycp;
#X obj 200 120 mydyncombvoice 6 mycp;
#X obj 200 140 mydyncombvoice 7 mycp;
#X obj 200 160 mydyncombvoice 8 mycp;
#X obj 200 180 mydyncombvoice 9 mycp;
#X obj 200 200 mydyncombvoice 10 mycp;
#X restore 419 360 pd \$0.sub;
#X obj 554 335 inlet;
#X obj 599 336 inlet;
#X obj 654 326 r \$1.note;
#X obj 650 350 unpack 0 0;
#X connect 1 0 18 0;
#X connect 2 0 3 0;
#X connect 2 0 4 0;
#X connect 3 0 2 1;
#X connect 4 0 19 0;
#X connect 5 0 2 0;
#X connect 6 0 5 0;
#X connect 7 0 6 0;
#X connect 8 0 10 0;
#X connect 9 0 33 0;
#X connect 10 0 7 0;
#X connect 10 1 11 0;
#X connect 10 2 9 0;
#X connect 11 0 2 1;
#X connect 12 0 25 0;
#X connect 13 0 26 0;
#X connect 15 1 12 1;
#X connect 15 1 13 1;
#X connect 16 0 22 0;
#X connect 17 0 18 2;
#X connect 18 0 0 0;
#X connect 18 0 33 0;
#X connect 19 0 1 0;
#X connect 19 1 18 1;
#X connect 19 2 17 0;
#X connect 23 0 12 0;
#X connect 24 0 13 0;
#X connect 27 0 8 0;
#X connect 28 0 20 0;
#X connect 29 0 21 0;
#X connect 30 0 32 0;
#X connect 31 0 30 0;
#X connect 31 1 30 1;
#X connect 31 2 30 2;
#X connect 35 0 31 0;
#X connect 36 0 31 1;
#X connect 37 0 38 0;
#X connect 38 0 31 0;
#X connect 38 1 31 1;
#X coords 0 -1 1 1 210 100 1 100 100;
