#N canvas 124 444 713 516 10;
#X obj 374 166 usss.fftfilter myfilter;
#X text 151 186 mouse over the darker line until;
#X text 150 207 the cursor changes then you can;
#X text 151 229 a filter shape;
#X msg 270 280 \; pd dsp \$1;
#X obj 270 242 tgl 30 0 empty empty empty 17 7 0 10 -262144 -1 -1 0
1;
#X obj 468 88 noise~;
#X obj 459 403 dac~;
#X text 150 168 A Drawable array based FFT Filter;
#X connect 0 0 7 0;
#X connect 0 1 7 1;
#X connect 5 0 4 0;
#X connect 6 0 0 0;
#X connect 6 0 0 1;
