#N canvas 111 175 1118 648 12;
#X obj -632 166 random 100;
#X obj -567 317 random 1000;
#X obj -374 316 random 1000;
#X obj -273 315 random 500;
#X obj -168 313 random 1000;
#X obj -74 360 + 10000;
#X obj -73 313 random 3000;
#X obj 25 362 + 11300;
#X obj 24 313 random 3000;
#X obj 119 310 random 3000;
#X obj 126 358 + 14000;
#X obj -240 71 bng 15 250 50 0 empty empty empty 0 -6 0 8 -262144 -1
-1;
#X obj -436 561 pack 0 0 0 0 0 0 0 0 0 0 0 0 0 0 0 0 0 0;
#X obj -244 43 inlet;
#X obj -442 606 outlet;
#X obj -632 215 + 100;
#X obj -530 215 + 200;
#X obj -530 166 random 200;
#X obj -435 165 random 200;
#X obj -439 215 + 300;
#X obj -337 165 random 500;
#X obj -333 212 + 500;
#X obj -236 164 random 500;
#X obj -236 211 + 500;
#X obj -130 162 random 500;
#X obj -130 210 + 1000;
#X obj -37 209 + 1500;
#X obj -36 162 random 500;
#X obj 61 162 random 1000;
#X obj 62 211 + 2000;
#X obj 163 207 + 2500;
#X obj 156 160 random 1000;
#X obj -669 317 random 1000;
#X obj -669 366 + 3500;
#X obj -567 366 + 4000;
#X obj -472 316 random 1500;
#X obj -469 366 + 5000;
#X obj -370 363 + 6000;
#X obj -272 360 + 7000;
#X obj -167 361 + 8000;
#X connect 0 0 15 0;
#X connect 1 0 34 0;
#X connect 2 0 37 0;
#X connect 3 0 38 0;
#X connect 4 0 39 0;
#X connect 5 0 12 15;
#X connect 6 0 5 0;
#X connect 7 0 12 16;
#X connect 8 0 7 0;
#X connect 9 0 10 0;
#X connect 10 0 12 17;
#X connect 11 0 0 0;
#X connect 11 0 1 0;
#X connect 11 0 2 0;
#X connect 11 0 3 0;
#X connect 11 0 4 0;
#X connect 11 0 6 0;
#X connect 11 0 8 0;
#X connect 11 0 9 0;
#X connect 11 0 17 0;
#X connect 11 0 18 0;
#X connect 11 0 20 0;
#X connect 11 0 22 0;
#X connect 11 0 24 0;
#X connect 11 0 27 0;
#X connect 11 0 28 0;
#X connect 11 0 31 0;
#X connect 11 0 32 0;
#X connect 11 0 35 0;
#X connect 12 0 14 0;
#X connect 13 0 11 0;
#X connect 15 0 12 0;
#X connect 16 0 12 1;
#X connect 17 0 16 0;
#X connect 18 0 19 0;
#X connect 19 0 12 2;
#X connect 20 0 21 0;
#X connect 21 0 12 3;
#X connect 22 0 23 0;
#X connect 23 0 12 4;
#X connect 24 0 25 0;
#X connect 25 0 12 5;
#X connect 26 0 12 6;
#X connect 27 0 26 0;
#X connect 28 0 29 0;
#X connect 29 0 12 7;
#X connect 30 0 12 8;
#X connect 31 0 30 0;
#X connect 32 0 33 0;
#X connect 33 0 12 9;
#X connect 34 0 12 10;
#X connect 35 0 36 0;
#X connect 36 0 12 11;
#X connect 37 0 12 12;
#X connect 38 0 12 13;
#X connect 39 0 12 14;
