#N canvas 2016 15 1077 863 16;
#X obj 113 85 unpack;
#X obj 349 378 / 127;
#X obj 132 617 *~;
#X msg 350 411 \$1 20;
#X obj 350 450 line~;
#X text -121 32 60 - 72;
#X floatatom -58 375 5 0 0 0 - - -;
#X floatatom -23 98 5 0 0 0 - - -;
#X obj 107 21 route \$1;
#X obj -63 464 phasor~;
#X obj -62 524 *~;
#X obj -58 344 expr pow(2 \, ($f1-69)/12);
#X obj -63 420 *;
#X obj 454 613 *~;
#X obj 4 577 tabread4~ \$2.sf1;
#X obj 326 573 tabread4~ \$2.sf2;
#X obj 125 672 throw~ \$2.out1;
#X obj 446 668 throw~ \$2.out2;
#X obj 109 -35 r \$2.events;
#X obj 43 455 expr (44100/$f1);
#X obj 42 411 r \$2.samplength;
#X obj 132 250 sel 0;
#X msg 131 282 0;
#X obj 240 110 r \$2.randphase;
#X obj 218 322 random 100;
#X obj 232 215 spigot;
#X obj 241 148 tgl 15 0 empty empty empty 17 7 0 10 -262144 -1 -1 0
1;
#X obj 215 183 == 0;
#X obj 141 215 spigot 1;
#X obj 220 292 t b;
#X obj 220 351 / 1;
#X obj 222 493 *;
#X obj 212 252 sel 0;
#X obj 558 115 r \$2.startpos;
#X obj 103 316 +;
#X obj 557 237 t b f;
#X obj 557 158 pack 0 20;
#X obj 559 198 line;
#X connect 0 0 7 0;
#X connect 0 1 1 0;
#X connect 0 1 25 0;
#X connect 0 1 28 0;
#X connect 1 0 3 0;
#X connect 2 0 16 0;
#X connect 3 0 4 0;
#X connect 4 0 2 1;
#X connect 4 0 13 1;
#X connect 6 0 12 0;
#X connect 7 0 11 0;
#X connect 8 0 0 0;
#X connect 9 0 10 0;
#X connect 10 0 14 0;
#X connect 10 0 15 0;
#X connect 11 0 6 0;
#X connect 12 0 9 0;
#X connect 13 0 17 0;
#X connect 14 0 2 0;
#X connect 15 0 13 0;
#X connect 18 0 8 0;
#X connect 19 0 12 1;
#X connect 19 0 31 1;
#X connect 20 0 19 0;
#X connect 20 0 10 1;
#X connect 21 1 22 0;
#X connect 22 0 34 0;
#X connect 23 0 26 0;
#X connect 24 0 30 0;
#X connect 25 0 32 0;
#X connect 26 0 27 0;
#X connect 26 0 25 1;
#X connect 27 0 28 1;
#X connect 28 0 21 0;
#X connect 29 0 24 0;
#X connect 30 0 31 0;
#X connect 31 0 14 1;
#X connect 31 0 15 1;
#X connect 32 1 29 0;
#X connect 33 0 36 0;
#X connect 34 0 9 1;
#X connect 35 0 34 0;
#X connect 35 1 34 1;
#X connect 36 0 37 0;
#X connect 37 0 35 0;
