#N canvas 0 0 631 328 10;
#X obj -680 25 usss.multislider multi;
#X obj -680 208 unpack 0 0 0 0 0 0 0 0;
#X floatatom -748 242 5 0 0 0 - - -;
#X floatatom -713 242 5 0 0 0 - - -;
#X floatatom -678 242 5 0 0 0 - - -;
#X floatatom -643 242 5 0 0 0 - - -;
#X floatatom -608 242 5 0 0 0 - - -;
#X floatatom -573 242 5 0 0 0 - - -;
#X floatatom -538 242 5 0 0 0 - - -;
#X floatatom -503 242 5 0 0 0 - - -;
#X text -527 71 8 numbers in a packed list;
#X text -527 100 with a range between 0 and 1;
#X text -527 43 A bank of sliders that output;
#X connect 0 0 1 0;
#X connect 1 0 2 0;
#X connect 1 1 3 0;
#X connect 1 2 4 0;
#X connect 1 3 5 0;
#X connect 1 4 6 0;
#X connect 1 5 7 0;
#X connect 1 6 8 0;
#X connect 1 7 9 0;
