#N canvas 558 133 812 656 12;
#X obj 60 228 reson~;
#X obj 193 58 route \$1;
#X obj 290 72 bng 15 250 50 0 empty empty empty 17 7 0 10 -262144 -1
-1;
#X obj 291 30 loadbang;
#X obj 197 20 r \$2.events;
#X obj 196 177 r \$2.global_gain;
#X obj 197 208 r \$2.global_q;
#X obj 245 537 throw~ \$2.todacL;
#X obj 57 70 receive~ \$2.siginL;
#X obj 126 172 sig~;
#X obj 506 236 reson~;
#X obj 654 103 route \$1;
#X obj 658 65 r \$2.events;
#X obj 642 185 r \$2.global_gain;
#X obj 643 216 r \$2.global_q;
#X obj 572 180 sig~;
#X obj 503 78 receive~ \$2.siginR;
#X obj 396 533 throw~ \$2.todacR;
#X obj 245 491 *~;
#X obj 397 497 *~;
#X obj 409 421 expr (1-$f1);
#X obj 374 150 random 100;
#X obj 375 390 / 100;
#X floatatom 328 475 5 0 0 0 - - -;
#X floatatom 449 472 5 0 0 0 - - -;
#X obj 414 30 r \$2.wobbleon;
#X obj 456 150 sel 0;
#X msg 440 216 0;
#X msg 454 249 1000;
#X obj 375 360 line;
#X msg 375 329 \$1 \$2;
#X obj 375 290 pack f f;
#X obj 419 64 tgl 15 0 empty empty empty 17 7 0 10 -262144 -1 -1 0
1;
#X obj 421 94 metro 1000;
#X connect 0 0 18 0;
#X connect 1 0 2 0;
#X connect 1 0 9 0;
#X connect 2 0 21 0;
#X connect 3 0 2 0;
#X connect 4 0 1 0;
#X connect 5 0 0 1;
#X connect 6 0 0 3;
#X connect 8 0 0 0;
#X connect 9 0 0 2;
#X connect 10 0 19 0;
#X connect 11 0 15 0;
#X connect 12 0 11 0;
#X connect 13 0 10 1;
#X connect 14 0 10 3;
#X connect 15 0 10 2;
#X connect 16 0 10 0;
#X connect 18 0 7 0;
#X connect 19 0 17 0;
#X connect 20 0 19 1;
#X connect 20 0 24 0;
#X connect 21 0 31 0;
#X connect 22 0 20 0;
#X connect 22 0 18 1;
#X connect 22 0 23 0;
#X connect 25 0 32 0;
#X connect 25 0 26 0;
#X connect 26 0 27 0;
#X connect 26 1 28 0;
#X connect 27 0 31 1;
#X connect 28 0 31 1;
#X connect 29 0 22 0;
#X connect 30 0 29 0;
#X connect 31 0 30 0;
#X connect 32 0 33 0;
#X connect 33 0 21 0;
