#N canvas 54 121 1280 700 10;
#X declare -path ../../ussstools;
#X obj 325 898 print;
#X obj 264 815 * 20;
#X msg 432 740 clear;
#X obj 883 359 log;
#X floatatom 889 413 5 0 0 0 - - -;
#X obj 889 445 usss.zmap 0 4 0 10;
#X floatatom 106 349 5 0 0 1 start - -;
#X floatatom 233 348 5 0 0 1 end - -;
#X obj 514 774 i;
#X obj 544 774 + 1;
#X floatatom 541 833 5 0 0 0 - - -;
#X obj 514 742 bng 15 250 50 0 empty empty empty 17 7 0 10 -262144
-1 -1;
#X obj 514 713 until;
#X msg 552 713 1;
#X floatatom 204 162 5 1 100 1 num_filters - -;
#X obj 1166 76 loadbang;
#X obj 862 489 pack 0 0;
#X obj 514 660 t f b b;
#X obj 514 803 t f f;
#X obj 915 360 exp;
#X obj 109 132 hradio 20 1 1 3 empty empty Grouping_(h/l/even) 65 8
0 10 -262144 -1 -1 2;
#X floatatom 725 259 5 0 0 0 - - -;
#X obj 1030 236 unpack 0 0;
#X floatatom 1067 285 5 0 0 0 - - -;
#X obj 932 414 unpack 0 0;
#X obj 136 4 inlet~;
#X obj 237 4 inlet~;
#X obj 147 673 outlet~;
#X obj 197 673 outlet~;
#X obj 407 817 symbol \$1;
#X obj 264 747 t f f b;
#X obj 16 71 r \$1.initdirection;
#X msg 1197 167 10;
#X obj 1253 249 s \$1.initdirection;
#X obj 1030 212 r \$1.rangein;
#X obj 862 238 r \$1.fltnum;
#X obj 862 525 s \$1.events;
#X obj 514 872 s \$1.fltnum;
#X obj 148 623 *~;
#X obj 196 622 *~;
#X obj 148 541 catch~ \$1.todacL;
#X obj 197 564 catch~ \$1.todacR;
#X obj 678 381 s \$1.rangein;
#X obj 590 400 s \$1.rangeout;
#X obj 452 301 t b b b;
#X obj 575 307 t b b b;
#X msg 575 336 0.3 7.389;
#X obj 688 307 t b b b;
#X obj 103 442 usss.hslider \$1.original 0 1 0;
#X obj -61 614 *~;
#X obj 20 614 *~;
#X obj 657 258 sel 0 1 2;
#X msg 1253 144 2;
#X obj 930 389 r \$1.rangeout;
#X msg 699 336 0 1;
#X msg 768 336 0 1;
#X msg 645 336 -1 2;
#X msg 466 328 0 4;
#X msg 518 326 0 50;
#X obj 762 260 + 1;
#X obj 539 400 del 100;
#X obj 907 273 usss.zmap 0 1 0 50;
#X obj 765 40 unpack f f;
#X obj 452 256 f;
#X obj 103 161 bng 20 250 50 0 empty empty make_filters 25 7 0 10 -260097
-1 -1;
#X obj 891 645 t b f;
#X obj 694 611 t b f;
#X obj 1143 146 del 500;
#X obj -51 106 t b b;
#X obj 711 837 i;
#X obj 746 838 + 1;
#X obj 711 805 bng 15 250 50 0 empty empty empty 17 7 0 10 -262144
-1 -1;
#X obj 703 776 until;
#X msg 739 804 1;
#X obj 711 869 s \$1.fltnum;
#X obj 703 745 f;
#X obj 703 681 t b b;
#X obj 1117 630 unpack f f;
#X floatatom 1117 658 5 0 0 0 - - -;
#X floatatom 1210 699 5 0 0 0 - - -;
#X obj 1078 699 usss.zmap 0 1 1 5000;
#X obj 1175 742 usss.zmap 0 1 100 5000;
#X obj 1113 771 +;
#X obj 439 469 s \$1.global_gain;
#X obj 543 470 s \$1.global_q;
#N canvas 1067 115 450 681 \$1.resonsub 0;
#X obj 200 20 usssresonunit3 1 0;
#X obj 200 40 usssresonunit3 2 0;
#X obj 200 60 usssresonunit3 3 0;
#X obj 200 80 usssresonunit3 4 0;
#X obj 200 100 usssresonunit3 5 0;
#X obj 200 120 usssresonunit3 6 0;
#X obj 200 140 usssresonunit3 7 0;
#X obj 200 160 usssresonunit3 8 0;
#X obj 200 180 usssresonunit3 9 0;
#X obj 200 200 usssresonunit3 10 0;
#X restore 4 801 pd \$1.resonsub;
#X obj 219 898 s pd-\$1.resonsub;
#X obj 514 633 r \$1.numflt;
#X obj 502 258 s \$1.numflt;
#X obj 102 406 usss.hslider \$1.resonvolume 0 1 0;
#X obj 1297 205 s \$1.initfreq;
#X obj 1197 208 s \$1.initnumflt;
#X obj 765 14 r \$1.initfreq;
#X obj 1116 590 r \$1.delpad;
#X obj 744 642 s \$1.freqstart;
#X obj 884 682 s \$1.freqend;
#X obj 1022 415 r \$1.freqstart;
#X obj 1120 416 r \$1.freqend;
#X obj 227 383 hsl 64 15 1 300 0 0 \$1.global_q \$1.gqsld global_Q
-2 -8 0 10 -99865 -262144 -1 1665 1;
#X obj 107 383 hsl 64 15 1 100 0 0 empty \$1.ggsld global_gain -2 -8
0 10 -99865 -262144 -1 573 1;
#X obj 949 237 r \$1.numflt;
#X obj 310 101 r \$1.initnumflt;
#X obj 439 409 f;
#X obj 439 441 /;
#X obj 543 439 f;
#X obj 452 370 t b f b;
#X msg 1297 159 1 15000;
#X obj 1356 181 s \$1.initsliders;
#X obj 1166 102 t b b b b b b;
#X obj 419 12 r \$1.initsliders;
#X obj 419 43 unpack f f;
#X msg 1356 139 10 80;
#X obj 136 61 send~ \$1.siginL;
#X obj 236 61 send~ \$1.siginR;
#X obj 1215 9 declare -path ../../ussstools;
#X text 329 707 subpatch creation;
#X obj -60 561 r~ \$1.siginL;
#X obj 21 561 r~ \$1.siginR;
#X obj 291 491 s~ \$1.origvolmult;
#X obj 36 590 r~ \$1.origvolmult;
#X obj 309 462 s~ \$1.resvolmult;
#X obj 212 591 r~ \$1.resvolmult;
#X text 4 774 Dynamic Subpatch;
#X text 50 532 Audio Output;
#X obj 1143 190 s \$1.tbb;
#X obj -51 76 r \$1.tbb;
#X obj -50 180 s \$1.h-array;
#X obj 657 220 r \$1.h-array;
#X obj 408 77 s \$1.ggsld;
#X obj 476 78 s \$1.gqsld;
#X obj 705 79 s \$1.sboxin;
#X obj 12 310 r \$1.sboxin;
#X obj 1113 806 s \$1.eboxin;
#X obj 1034 807 s \$1.sboxin;
#X obj 15 374 s \$1.sboxout;
#X obj 694 586 r \$1.sboxout;
#X obj 315 315 r \$1.eboxin;
#X obj 318 379 s \$1.eboxout;
#X obj 891 618 r \$1.eboxout;
#X obj 844 78 s \$1.eboxin;
#X obj 771 118 pack f f;
#X obj 771 152 s \$1.initfreqnums;
#X obj 1206 591 r \$1.initfreqnums;
#X obj 1206 629 unpack f f;
#X text 1286 674 Touchpad Ranges;
#X obj 436 689 loadbang;
#X obj 219 852 sprintf obj 200 %d usssresonunit3 %d %s;
#X obj 190 383 tgl 15 0 \$1.wobbleon empty Wobble -9 -7 0 10 -66577
-262144 -1 0 1;
#X obj 874 304 cyclone/gate 3;
#X obj 104 184 usss.restouch \$1;
#X connect 1 0 146 0;
#X connect 2 0 86 0;
#X connect 3 0 4 0;
#X connect 4 0 5 0;
#X connect 5 0 16 1;
#X connect 6 0 134 0;
#X connect 7 0 137 0;
#X connect 8 0 9 0;
#X connect 8 0 18 0;
#X connect 9 0 8 1;
#X connect 10 0 30 0;
#X connect 11 0 8 0;
#X connect 12 0 11 0;
#X connect 13 0 8 1;
#X connect 14 0 63 1;
#X connect 15 0 108 0;
#X connect 16 0 36 0;
#X connect 17 0 12 0;
#X connect 17 1 13 0;
#X connect 17 2 2 0;
#X connect 18 0 37 0;
#X connect 18 1 10 0;
#X connect 19 0 4 0;
#X connect 20 0 126 0;
#X connect 22 0 61 3;
#X connect 22 1 23 0;
#X connect 22 1 61 4;
#X connect 24 0 5 1;
#X connect 24 1 5 2;
#X connect 25 0 112 0;
#X connect 26 0 113 0;
#X connect 29 0 146 2;
#X connect 30 0 1 0;
#X connect 30 1 146 1;
#X connect 30 2 29 0;
#X connect 31 0 20 0;
#X connect 32 0 91 0;
#X connect 34 0 22 0;
#X connect 35 0 16 0;
#X connect 35 0 61 0;
#X connect 38 0 27 0;
#X connect 39 0 28 0;
#X connect 40 0 38 0;
#X connect 41 0 39 0;
#X connect 44 0 60 0;
#X connect 44 1 57 0;
#X connect 44 2 58 0;
#X connect 45 0 60 0;
#X connect 45 1 46 0;
#X connect 45 2 56 0;
#X connect 46 0 43 0;
#X connect 47 0 60 0;
#X connect 47 1 54 0;
#X connect 47 2 55 0;
#X connect 48 1 118 0;
#X connect 49 0 27 0;
#X connect 50 0 28 0;
#X connect 51 0 44 0;
#X connect 51 1 45 0;
#X connect 51 2 47 0;
#X connect 52 0 33 0;
#X connect 53 0 24 0;
#X connect 54 0 43 0;
#X connect 55 0 42 0;
#X connect 56 0 42 0;
#X connect 57 0 43 0;
#X connect 58 0 42 0;
#X connect 59 0 148 0;
#X connect 60 0 76 0;
#X connect 61 0 148 1;
#X connect 62 0 130 0;
#X connect 62 0 140 0;
#X connect 62 1 139 0;
#X connect 62 1 140 1;
#X connect 63 0 88 0;
#X connect 63 0 105 0;
#X connect 64 0 63 0;
#X connect 65 0 76 0;
#X connect 65 1 95 0;
#X connect 66 0 76 0;
#X connect 66 1 94 0;
#X connect 67 0 124 0;
#X connect 68 0 64 0;
#X connect 68 1 64 0;
#X connect 69 0 70 0;
#X connect 69 0 74 0;
#X connect 70 0 69 1;
#X connect 71 0 69 0;
#X connect 72 0 71 0;
#X connect 73 0 69 1;
#X connect 75 0 72 0;
#X connect 76 0 75 0;
#X connect 76 1 73 0;
#X connect 77 0 78 0;
#X connect 77 1 79 0;
#X connect 78 0 80 0;
#X connect 79 0 81 0;
#X connect 80 0 82 0;
#X connect 80 0 133 0;
#X connect 81 0 82 1;
#X connect 82 0 132 0;
#X connect 87 0 17 0;
#X connect 87 0 75 1;
#X connect 89 1 120 0;
#X connect 92 0 62 0;
#X connect 93 0 77 0;
#X connect 96 0 5 3;
#X connect 97 0 5 4;
#X connect 98 0 84 0;
#X connect 98 0 104 0;
#X connect 99 0 102 0;
#X connect 100 0 61 2;
#X connect 101 0 14 0;
#X connect 102 0 103 0;
#X connect 103 0 83 0;
#X connect 104 0 84 0;
#X connect 105 0 102 0;
#X connect 105 1 103 1;
#X connect 105 2 104 0;
#X connect 106 0 90 0;
#X connect 108 1 67 0;
#X connect 108 2 32 0;
#X connect 108 3 52 0;
#X connect 108 4 106 0;
#X connect 108 5 111 0;
#X connect 109 0 110 0;
#X connect 110 0 128 0;
#X connect 110 1 129 0;
#X connect 111 0 107 0;
#X connect 116 0 49 0;
#X connect 117 0 50 0;
#X connect 119 0 49 1;
#X connect 119 0 50 1;
#X connect 121 0 39 1;
#X connect 121 0 38 1;
#X connect 125 0 68 0;
#X connect 127 0 59 0;
#X connect 127 0 21 0;
#X connect 127 0 51 0;
#X connect 131 0 6 0;
#X connect 135 0 66 0;
#X connect 136 0 7 0;
#X connect 138 0 65 0;
#X connect 140 0 141 0;
#X connect 142 0 143 0;
#X connect 143 0 80 3;
#X connect 143 0 81 3;
#X connect 143 1 80 4;
#X connect 143 1 81 4;
#X connect 145 0 2 0;
#X connect 146 0 86 0;
#X connect 148 0 3 0;
#X connect 148 1 19 0;
#X connect 148 2 4 0;
#X coords 0 -1 1 1 205 380 1 100 100;
