#N canvas 1930 140 1192 709 12;
#X declare -path ../ussstools;
#X declare -path E:/USSSTOOLSKIT/ussstools;
#X obj -62 296 pack 0 0 0;
#X obj 457 307 print;
#X obj 319 232 * 20;
#X obj 701 192 i;
#X obj 759 194 + 1;
#X floatatom 701 222 5 0 0 0 - - -;
#X obj 700 163 bng 15 250 50 0 empty empty empty 17 7 0 10 -262144
-1 -1;
#X obj 699 137 until;
#X msg 700 111 10;
#X obj 695 43 bng 15 250 50 0 empty empty empty 17 7 0 10 -262144 -1
-1;
#X msg 573 137 clear;
#X obj 694 70 t b b b;
#X msg 774 158 1;
#X obj -61 245 poly 10;
#X obj 707 277 print;
#X floatatom 369 591 5 0 0 0 - - -;
#X floatatom 369 520 5 0 0 0 - - -;
#X obj 369 555 expr pow(2 \, ($f1-69)/12);
#X text 440 520 scroll from 69 to 81;
#X text 438 590 and notice the output here;
#X floatatom 106 174 8 0 0 0 - - -;
#X obj 105 118 usss.tabplay \$1;
#X obj 556 233 symbol \$1;
#X obj -19 537 outlet~;
#X obj -20 508 catch~ \$1.out1;
#X obj 132 506 catch~ \$1.out2;
#X obj 132 537 outlet~;
#X obj -69 337 s \$1.events;
#X obj -47 181 inlet;
#X obj 2 180 inlet;
#X obj 118 320 s \$1.samplength;
#X obj 317 204 t f f b;
#X obj 309 309 s pd-\$0.sub;
#N canvas 1217 229 450 478 \$0.sub 0;
#X obj 200 20 usss.dsvoice~ 1 myds;
#X obj 200 40 usss.dsvoice~ 2 myds;
#X obj 200 60 usss.dsvoice~ 3 myds;
#X obj 200 80 usss.dsvoice~ 4 myds;
#X obj 200 100 usss.dsvoice~ 5 myds;
#X obj 200 120 usss.dsvoice~ 6 myds;
#X obj 200 140 usss.dsvoice~ 7 myds;
#X obj 200 160 usss.dsvoice~ 8 myds;
#X obj 200 180 usss.dsvoice~ 9 myds;
#X obj 200 200 usss.dsvoice~ 10 myds;
#X restore 365 423 pd \$0.sub;
#X obj 250 8 declare -path ../ussstools;
#X obj 249 38 declare -path E:/USSSTOOLSKIT/ussstools;
#X obj 690 14 r \$1.makevoices;
#X obj 215 216 samplerate~;
#X floatatom 227 245 5 0 0 0 - - -;
#X obj 592 46 loadbang;
#X obj 120 243 *;
#X obj 309 263 sprintf obj 200 %d usss.dsvoice~ %d %s;
#X obj 121 278 / 1000;
#X obj 84 32 inlet~;
#X obj 169 33 inlet~;
#X obj 168 176 tgl 15 0 \$1.randphase empty randomise 17 7 0 10 -257985
-1 -1 0 1;
#X connect 0 0 27 0;
#X connect 2 0 41 0;
#X connect 3 0 4 0;
#X connect 3 0 5 0;
#X connect 4 0 3 1;
#X connect 5 0 14 0;
#X connect 5 0 31 0;
#X connect 6 0 3 0;
#X connect 7 0 6 0;
#X connect 8 0 7 0;
#X connect 9 0 11 0;
#X connect 10 0 32 0;
#X connect 11 0 8 0;
#X connect 11 1 12 0;
#X connect 11 2 10 0;
#X connect 12 0 3 1;
#X connect 13 0 0 0;
#X connect 13 1 0 1;
#X connect 13 2 0 2;
#X connect 16 0 17 0;
#X connect 17 0 15 0;
#X connect 20 0 40 0;
#X connect 21 0 20 0;
#X connect 22 0 41 2;
#X connect 24 0 23 0;
#X connect 25 0 26 0;
#X connect 28 0 13 0;
#X connect 29 0 13 1;
#X connect 31 0 2 0;
#X connect 31 1 41 1;
#X connect 31 2 22 0;
#X connect 36 0 9 0;
#X connect 37 0 38 0;
#X connect 38 0 40 1;
#X connect 39 0 9 0;
#X connect 39 0 37 0;
#X connect 40 0 42 0;
#X connect 41 0 1 0;
#X connect 41 0 32 0;
#X connect 42 0 30 0;
#X connect 43 0 21 0;
#X connect 44 0 21 1;
#X coords 0 -1 1 1 150 100 1 100 100;
