#N canvas 659 250 408 315 12;
#X obj 64 138 reson~;
#X obj 65 64 inlet~;
#X obj 125 64 inlet;
#X obj 179 63 inlet;
#X obj 64 187 outlet~;
#X text 64 39 signal;
#X text 172 35 frequency;
#X text 258 26 Q;
#X obj 225 61 inlet;
#X text 125 35 gain;
#X obj 227 95 r \$1.global_gain;
#X obj 228 120 r \$1.global_q;
#X connect 0 0 4 0;
#X connect 1 0 0 0;
#X connect 2 0 0 1;
#X connect 3 0 0 2;
#X connect 8 0 0 3;
#X connect 10 0 0 1;
#X connect 11 0 0 3;
