#N canvas 0 50 450 300 10;
#X obj 20 28 inlet notedata;
#X obj 20 50 unpack f f;
#X obj 20 72 mtof;
#X obj 20 216 osc~;
#X obj 20 238 *~;
#X obj 177 126 / 127;
#X msg 177 148 \$1 20;
#X obj 177 170 line~;
#X obj 20 260 outlet~;
#X obj 182 36 inlet~ ctom;
#X obj 282 36 inlet~ modIndex;
#X obj 41 130 osc~;
#X obj 20 183 +~;
#X obj 41 155 *~;
#X obj 40 104 *~;
#X obj 116 113 *~;
#X connect 0 0 1 0;
#X connect 1 0 2 0;
#X connect 1 1 5 0;
#X connect 2 0 12 0;
#X connect 2 0 14 0;
#X connect 2 0 15 0;
#X connect 3 0 4 0;
#X connect 4 0 8 0;
#X connect 5 0 6 0;
#X connect 6 0 7 0;
#X connect 7 0 4 1;
#X connect 9 0 14 1;
#X connect 10 0 15 1;
#X connect 11 0 13 0;
#X connect 12 0 3 0;
#X connect 13 0 12 1;
#X connect 14 0 11 0;
#X connect 15 0 13 1;
