#N canvas 60 308 806 639 10;
#X obj 256 89 bng 15 250 50 0 empty \$1.selectfile \$1.selectfile 17
7 0 10 -262144 -1 -1;
#X obj 264 438 print \$1;
#X obj 158 38 usss.monometer;
#X obj 146 38 usss.monometer;
#X obj 125 541 *~;
#X obj 151 541 *~;
#X obj 140 303 openpanel;
#X msg 266 349 1;
#X msg 330 311 0;
#X msg 140 387 open \$1;
#X obj 189 312 spigot;
#X obj 256 71 tgl 15 0 empty empty \$1.repeat 17 7 0 10 -262144 -1
-1 1 1;
#X obj 124 565 outlet~;
#X obj 174 565 outlet~;
#X obj 138 350 symbol;
#X obj 256 106 tgl 15 0 empty \$1.play \$1.play 17 7 0 10 -262144 -1
-1 0 1;
#X obj 54 327 t float bang;
#X obj 186 38 usss.monometer;
#X obj 174 38 usss.monometer;
#X obj 229 539 *~;
#X obj 255 539 *~;
#X obj 228 563 outlet~;
#X obj 278 563 outlet~;
#X obj 214 38 usss.monometer;
#X obj 202 38 usss.monometer;
#X obj 342 538 *~;
#X obj 368 538 *~;
#X obj 341 562 outlet~;
#X obj 391 562 outlet~;
#X obj 460 533 *~;
#X obj 486 533 *~;
#X obj 459 557 outlet~;
#X obj 509 557 outlet~;
#X obj 144 427 readsf~ 8;
#X obj 240 38 usss.monometer;
#X obj 228 38 usss.monometer;
#X obj 417 174 loadbang;
#X msg 419 199 1;
#X obj 148 129 usss.hslider \$1.amp1 0 1 1;
#X obj 148 164 usss.hslider \$1.amp2 0 1 1;
#X obj 147 200 usss.hslider \$1.amp3 0 1 1;
#X obj 147 235 usss.hslider \$1.amp4 0 1 1;
#X connect 0 0 6 0;
#X connect 4 0 12 0;
#X connect 4 0 3 0;
#X connect 5 0 13 0;
#X connect 5 0 2 0;
#X connect 6 0 14 0;
#X connect 7 0 10 0;
#X connect 8 0 33 0;
#X connect 9 0 1 0;
#X connect 9 0 33 0;
#X connect 10 0 16 0;
#X connect 11 0 10 1;
#X connect 14 0 9 0;
#X connect 15 0 16 0;
#X connect 16 0 33 0;
#X connect 16 1 14 0;
#X connect 19 0 21 0;
#X connect 19 0 18 0;
#X connect 20 0 22 0;
#X connect 20 0 17 0;
#X connect 25 0 27 0;
#X connect 25 0 24 0;
#X connect 26 0 28 0;
#X connect 26 0 23 0;
#X connect 29 0 31 0;
#X connect 29 0 35 0;
#X connect 30 0 32 0;
#X connect 30 0 34 0;
#X connect 33 0 4 0;
#X connect 33 1 5 0;
#X connect 33 2 19 0;
#X connect 33 3 20 0;
#X connect 33 4 25 0;
#X connect 33 5 26 0;
#X connect 33 6 29 0;
#X connect 33 7 30 0;
#X connect 33 8 7 0;
#X connect 36 0 37 0;
#X connect 37 0 11 0;
#X connect 38 1 4 1;
#X connect 38 1 5 1;
#X connect 39 1 19 1;
#X connect 39 1 20 1;
#X connect 40 1 25 1;
#X connect 40 1 26 1;
#X connect 41 1 29 1;
#X connect 41 1 30 1;
#X coords 0 -1 1 1 240 250 1 144 20;
