#N canvas 921 442 653 487 10;
#X obj 146 142 vline~;
#X obj 38 175 tabread4~ \$2.sf1;
#X obj 147 177 tabread4~ \$2.sf2;
#X obj 146 38 route \$1;
#X obj 224 140 print;
#X obj 42 314 throw~ \$2.outL;
#X obj 146 16 r \$2.events;
#X msg 726 683 0 0 0 \, \$1 \$2 0;
#X msg 736 693 0 0 0 \, \$1 \$2 0;
#X msg 146 79 0 0 0 \, \$1 \$2 0;
#X obj 151 316 throw~ \$2.outR;
#X obj 41 224 *~;
#X obj 149 218 *~;
#X obj 372 215 vline~;
#X obj 411 119 - 10;
#X obj 374 143 pack 0 0;
#X msg 372 178 0 0 0 \, 1 10 0 \, 1 \$1 10 \, 0 10 \$2;
#X obj 41 269 *~;
#X obj 149 263 *~;
#X obj 415 280 random 100;
#X obj 494 283 random 100;
#X obj 413 316 / 100;
#X obj 500 321 / 100;
#X obj 471 151 t b b;
#X obj 374 93 t f f;
#X obj 471 119 sel 0;
#X msg 285 258 1;
#X obj 339 62 unpack 0 0 0;
#X connect 0 0 1 0;
#X connect 0 0 2 0;
#X connect 1 0 11 0;
#X connect 2 0 12 0;
#X connect 3 0 9 0;
#X connect 3 0 27 0;
#X connect 6 0 3 0;
#X connect 9 0 0 0;
#X connect 9 0 4 0;
#X connect 11 0 17 0;
#X connect 12 0 18 0;
#X connect 13 0 12 1;
#X connect 13 0 11 1;
#X connect 14 0 15 1;
#X connect 15 0 16 0;
#X connect 16 0 13 0;
#X connect 17 0 5 0;
#X connect 18 0 10 0;
#X connect 19 0 21 0;
#X connect 20 0 22 0;
#X connect 21 0 17 1;
#X connect 22 0 18 1;
#X connect 23 0 19 0;
#X connect 23 1 20 0;
#X connect 24 0 15 0;
#X connect 24 1 14 0;
#X connect 25 0 26 0;
#X connect 25 1 23 0;
#X connect 26 0 18 1;
#X connect 26 0 17 1;
#X connect 27 1 24 0;
#X connect 27 2 25 0;
