#N canvas 256 25 924 688 10;
#X text 381 171 D = delay time;
#X text 333 149 D \, a \, b \, c inlets support signals aswell;
#X obj 226 42 inlet~;
#X obj 185 454 outlet~;
#X obj 324 41 - 3.485;
#N canvas 0 0 450 300 transratio 0;
#X obj 146 58 inlet;
#X obj 145 221 outlet;
#X obj 130 130 expr ((440 * exp (.057762265 * $f1))* 0.002273);
#X connect 0 0 2 0;
#X connect 2 0 1 0;
#X restore 324 65 pd transratio;
#X msg 327 94 \$1 10;
#X obj 323 120 line~;
#X obj 317 168 expr~ 100/$v1;
#X obj 341 2 inlet;
#X obj 234 297 comb~ 1000 1 0.1 0 0.9;
#X obj 2 57 usss.hslider \$1.outamp 0 2 0.9;
#X obj 2 94 usss.hslider \$1.combvol 0 1 0.2;
#X obj 199 362 *~;
#X obj 122 183 r \$1.clear;
#X obj 308 329 comb~ 1000 1 0.1 0 0.9;
#X obj 273 462 outlet~;
#X obj 287 370 *~;
#X obj 248 67 inlet~;
#X obj 2 21 usss.hslider \$1.midipitch 0 127 40;
#X connect 2 0 10 0;
#X connect 4 0 5 0;
#X connect 5 0 6 0;
#X connect 6 0 7 0;
#X connect 7 0 8 0;
#X connect 8 0 10 1;
#X connect 8 0 15 1;
#X connect 9 0 4 0;
#X connect 10 0 13 0;
#X connect 11 0 10 4;
#X connect 11 0 15 4;
#X connect 12 1 13 1;
#X connect 12 1 17 1;
#X connect 13 0 3 0;
#X connect 14 0 10 0;
#X connect 14 0 15 0;
#X connect 15 0 17 0;
#X connect 17 0 16 0;
#X connect 18 0 15 0;
#X connect 19 0 4 0;
#X coords 0 -1 1 1 200 130 1 0 0;
