#N canvas 0 0 564 668 10;
#X obj 227 259 line~;
#X obj 25 355 cos~;
#X obj 23 229 phasor~ 0;
#X obj 227 235 pack 0 50;
#X obj 23 253 -~ 0.5;
#X obj 24 279 *~;
#X obj 227 210 / 10;
#X obj 25 305 clip~ -0.5 0.5;
#X text 80 252 phase -1/2 to 1/2;
#X text 106 229 phase 0 to 1;
#X text 274 211 fix range;
#X text 281 260 smooth it;
#X text 269 283 add 1;
#X text 85 356 cosine wave lookup (-1/2 and 1/2 give -1);
#X obj 227 284 +~ 1;
#X obj 25 378 +~ 1;
#X obj 25 401 *~ 0.5;
#X text 83 377 add one (range now from 0 to 2);
#X text 91 400 ...and now from 0 to 1;
#X obj 26 425 hip~ 5;
#X obj 26 451 outlet~;
#X obj 23 52 usss.hslider \$1.frequency 0 5000 220;
#X obj 23 96 usss.hslider \$1.index 0 100 0;
#X connect 0 0 14 0;
#X connect 1 0 15 0;
#X connect 2 0 4 0;
#X connect 3 0 0 0;
#X connect 4 0 5 0;
#X connect 5 0 7 0;
#X connect 6 0 3 0;
#X connect 7 0 1 0;
#X connect 14 0 5 1;
#X connect 15 0 16 0;
#X connect 16 0 19 0;
#X connect 19 0 20 0;
#X connect 21 0 2 0;
#X connect 22 0 6 0;
#X coords 0 -1 1 1 200 120 1 20 20;
