#N canvas 1916 101 1245 829 10;
#X floatatom 70 129 5 0 0 0 - - -, f 5;
#X obj 69 70 until;
#X obj 69 107 f;
#X obj 108 105 + 1;
#X obj 70 12 t f b;
#X msg 107 41 0;
#X obj 64 621 s \$1.coord1;
#X obj 65 -45 t b b;
#X obj 65 -71 bng 15 250 50 0 empty empty empty 17 7 0 10 -262144 -1
-1;
#X msg 135 -16 const 0;
#X obj 136 9 s \$1.gainL;
#X obj 68 157 t f f;
#X obj 85 461 pack 0 0;
#X floatatom 60 429 5 0 0 0 - - -, f 5;
#X msg 70 -17 360;
#X obj 57 289 sin;
#X obj 55 263 * 6.28319;
#X obj 55 243 / 360;
#X obj 51 319 abs;
#X obj 51 210 * 1;
#X floatatom 80 211 5 0 0 0 - - -, f 5;
#X floatatom 268 132 5 0 0 0 - - -, f 5;
#X obj 267 73 until;
#X obj 267 110 f;
#X obj 306 108 + 1;
#X obj 268 15 t f b;
#X msg 305 44 0;
#X obj 263 -42 t b b;
#X obj 263 -68 bng 15 250 50 0 empty empty empty 17 7 0 10 -262144
-1 -1;
#X msg 333 -13 const 0;
#X obj 252 169 t f f;
#X obj 283 464 pack 0 0;
#X msg 268 -14 360;
#X obj 245 299 sin;
#X obj 253 266 * 6.28319;
#X obj 253 246 / 360;
#X obj 247 336 abs;
#X obj 251 223 * 1;
#X floatatom 283 221 5 0 0 0 - - -, f 5;
#X obj 262 613 s \$2.coord1;
#X floatatom 481 144 5 0 0 0 - - -, f 5;
#X obj 480 85 until;
#X obj 480 122 f;
#X obj 519 120 + 1;
#X obj 481 27 t f b;
#X msg 518 56 0;
#X obj 476 -30 t b b;
#X obj 476 -56 bng 15 250 50 0 empty empty empty 17 7 0 10 -262144
-1 -1;
#X msg 546 -1 const 0;
#X obj 479 172 t f f;
#X obj 479 462 pack 0 0;
#X msg 481 -2 360;
#X obj 468 304 sin;
#X obj 466 278 * 6.28319;
#X obj 466 258 / 360;
#X obj 469 332 abs;
#X obj 463 224 * 1;
#X floatatom 491 226 5 0 0 0 - - -, f 5;
#X floatatom 680 146 5 0 0 0 - - -, f 5;
#X obj 678 88 until;
#X obj 679 124 f;
#X obj 717 123 + 1;
#X obj 679 30 t f b;
#X msg 716 59 0;
#X obj 674 -27 t b b;
#X obj 674 -53 bng 15 250 50 0 empty empty empty 17 7 0 10 -262144
-1 -1;
#X msg 744 2 const 0;
#X obj 688 183 t f f;
#X obj 694 479 pack 0 0;
#X msg 679 1 360;
#X obj 681 313 sin;
#X obj 689 280 * 6.28319;
#X obj 689 260 / 360;
#X obj 676 334 abs;
#X obj 687 237 * 1;
#X floatatom 716 238 5 0 0 0 - - -, f 5;
#X obj 467 614 s \$3.coord1;
#X obj 686 616 s \$4.coord1;
#X obj 334 12 s \$2.gainL;
#X obj 551 22 s \$3.gainL;
#X obj 745 27 s \$4.gainL;
#X floatatom 410 100 5 0 0 0 - - -, f 5;
#X obj 351 614 s \$1.coord2;
#X obj 557 613 s \$1.coord3;
#X obj 773 615 s \$1.coord4;
#X obj 86 522 r \$1.filtercontrol;
#X obj 902 541 s \$1.filtercontrol;
#X msg 901 488 1;
#X msg 948 488 2;
#X text 846 466 single filters;
#X text 944 467 filter8;
#X obj 829 494 loadbang;
#X obj 56 181 + 0;
#X floatatom 90 182 5 0 0 0 - - -, f 5;
#X floatatom 295 187 5 0 0 0 - - -, f 5;
#X obj 253 193 + 0;
#X text 129 183 phase;
#X text 331 188 phase;
#X floatatom 502 200 5 0 0 0 - - -, f 5;
#X obj 470 200 + 0;
#X text 538 199 phase;
#X floatatom 722 210 5 0 0 0 - - -, f 5;
#X obj 687 212 + 0;
#X text 755 211 phase;
#X text 123 213 frequency;
#X text 324 222 frequency;
#X text 529 227 frequency;
#X text 759 239 frequency;
#X obj 74 381 expr 1 - $f1;
#X obj 24 354 tgl 15 0 empty empty empty 17 7 0 10 -262144 -1 -1 0
1;
#X obj 25 378 + 1;
#X text 128 350 invert;
#X floatatom 245 439 5 0 0 0 - - -, f 5;
#X obj 259 391 expr 1 - $f1;
#X obj 209 364 tgl 15 0 empty empty empty 17 7 0 10 -262144 -1 -1 0
1;
#X obj 210 388 + 1;
#X text 313 360 invert;
#X floatatom 443 432 5 0 0 0 - - -, f 5;
#X obj 457 384 expr 1 - $f1;
#X obj 407 357 tgl 15 0 empty empty empty 17 7 0 10 -262144 -1 -1 0
1;
#X obj 408 381 + 1;
#X text 511 353 invert;
#X floatatom 649 433 5 0 0 0 - - -, f 5;
#X obj 663 385 expr 1 - $f1;
#X obj 613 358 tgl 15 0 empty empty empty 17 7 0 10 -262144 -1 -1 0
1;
#X obj 614 382 + 1;
#X text 717 354 invert;
#X msg 827 520 0;
#X obj 613 332 r pg;
#X obj 827 549 s pg;
#X obj 411 326 r pg;
#X obj 202 334 r pg;
#X obj 19 325 r pg;
#X text 92 657 usss.fftfilter myfilt1;
#X text 93 673 usss.makearrays myfilt1 myfilt2 myfilt3;
#X obj 1045 431 counter 0 360;
#X obj 1057 491 + 30;
#X obj 1097 528 % 360;
#X obj 1040 373 tgl 15 0 empty empty empty 17 7 0 10 -262144 -1 -1
0 1;
#X obj 1045 404 metro 500;
#X floatatom 1088 373 5 0 0 0 - - -, f 5;
#X obj 1040 543 % 360;
#X obj 998 600 t b f;
#X obj 1089 598 t b f;
#X obj 1041 595 t b f;
#X obj 1100 470 + 60;
#X obj 374 69 r \$1.mainfreq;
#X obj 1101 331 r \$1.shepfreq;
#X obj 59 355 cyclone/gate 2;
#X obj 244 366 cyclone/gate 2;
#X obj 442 358 cyclone/gate 2;
#X obj 648 359 cyclone/gate 2;
#X obj 86 568 cyclone/gate 2;
#X obj 284 564 cyclone/gate 2;
#X obj 513 564 cyclone/gate 2;
#X obj 703 558 cyclone/gate 2;
#X obj 149 621 s \$1.coord1;
#X obj 1151 527 % 360;
#X obj 1143 597 t b f;
#X obj 1154 469 + 85;
#X obj 973 332 r \$1.shepfreqgo;
#X obj 134 156 r \$1.freq;
#X obj 351 161 r \$2.freq;
#X obj 537 170 r \$3.freq;
#X obj 742 163 r \$4.freq;
#X text 768 250;
#X connect 0 0 11 0;
#X connect 1 0 2 0;
#X connect 2 0 3 0;
#X connect 2 0 0 0;
#X connect 3 0 2 1;
#X connect 4 0 1 0;
#X connect 4 1 5 0;
#X connect 5 0 2 1;
#X connect 7 0 14 0;
#X connect 7 1 9 0;
#X connect 8 0 7 0;
#X connect 9 0 10 0;
#X connect 11 0 92 0;
#X connect 11 1 12 1;
#X connect 12 0 152 1;
#X connect 13 0 12 0;
#X connect 14 0 4 0;
#X connect 15 0 18 0;
#X connect 16 0 15 0;
#X connect 17 0 16 0;
#X connect 18 0 148 1;
#X connect 19 0 17 0;
#X connect 20 0 19 1;
#X connect 21 0 30 0;
#X connect 22 0 23 0;
#X connect 23 0 24 0;
#X connect 23 0 21 0;
#X connect 24 0 23 1;
#X connect 25 0 22 0;
#X connect 25 1 26 0;
#X connect 26 0 23 1;
#X connect 27 0 32 0;
#X connect 27 1 29 0;
#X connect 28 0 27 0;
#X connect 29 0 78 0;
#X connect 30 0 95 0;
#X connect 30 1 31 1;
#X connect 31 0 153 1;
#X connect 32 0 25 0;
#X connect 33 0 36 0;
#X connect 34 0 33 0;
#X connect 35 0 34 0;
#X connect 36 0 149 1;
#X connect 37 0 35 0;
#X connect 38 0 37 1;
#X connect 40 0 49 0;
#X connect 41 0 42 0;
#X connect 42 0 43 0;
#X connect 42 0 40 0;
#X connect 43 0 42 1;
#X connect 44 0 41 0;
#X connect 44 1 45 0;
#X connect 45 0 42 1;
#X connect 46 0 51 0;
#X connect 46 1 48 0;
#X connect 47 0 46 0;
#X connect 48 0 79 0;
#X connect 49 0 99 0;
#X connect 49 1 50 1;
#X connect 50 0 154 1;
#X connect 51 0 44 0;
#X connect 52 0 55 0;
#X connect 53 0 52 0;
#X connect 54 0 53 0;
#X connect 55 0 150 1;
#X connect 56 0 54 0;
#X connect 57 0 56 1;
#X connect 58 0 67 0;
#X connect 59 0 60 0;
#X connect 60 0 61 0;
#X connect 60 0 58 0;
#X connect 61 0 60 1;
#X connect 62 0 59 0;
#X connect 62 1 63 0;
#X connect 63 0 60 1;
#X connect 64 0 69 0;
#X connect 64 1 66 0;
#X connect 65 0 64 0;
#X connect 66 0 80 0;
#X connect 67 0 102 0;
#X connect 67 1 68 1;
#X connect 68 0 155 1;
#X connect 69 0 62 0;
#X connect 70 0 73 0;
#X connect 71 0 70 0;
#X connect 72 0 71 0;
#X connect 73 0 151 1;
#X connect 74 0 72 0;
#X connect 75 0 74 1;
#X connect 81 0 38 0;
#X connect 81 0 57 0;
#X connect 81 0 75 0;
#X connect 81 0 20 0;
#X connect 85 0 152 0;
#X connect 85 0 153 0;
#X connect 85 0 154 0;
#X connect 85 0 155 0;
#X connect 87 0 86 0;
#X connect 88 0 86 0;
#X connect 91 0 87 0;
#X connect 91 0 127 0;
#X connect 92 0 19 0;
#X connect 93 0 92 1;
#X connect 94 0 95 1;
#X connect 95 0 37 0;
#X connect 98 0 99 1;
#X connect 99 0 56 0;
#X connect 101 0 102 1;
#X connect 102 0 74 0;
#X connect 108 0 13 0;
#X connect 109 0 110 0;
#X connect 110 0 148 0;
#X connect 112 0 31 0;
#X connect 113 0 112 0;
#X connect 114 0 115 0;
#X connect 115 0 149 0;
#X connect 117 0 50 0;
#X connect 118 0 117 0;
#X connect 119 0 120 0;
#X connect 120 0 150 0;
#X connect 122 0 68 0;
#X connect 123 0 122 0;
#X connect 124 0 125 0;
#X connect 125 0 151 0;
#X connect 127 0 129 0;
#X connect 128 0 124 0;
#X connect 130 0 119 0;
#X connect 131 0 114 0;
#X connect 132 0 109 0;
#X connect 135 0 136 0;
#X connect 135 0 142 0;
#X connect 135 0 145 0;
#X connect 135 0 159 0;
#X connect 136 0 141 0;
#X connect 137 0 143 0;
#X connect 138 0 139 0;
#X connect 139 0 135 0;
#X connect 140 0 139 1;
#X connect 141 0 144 0;
#X connect 142 0 8 0;
#X connect 142 1 93 0;
#X connect 143 0 47 0;
#X connect 143 1 98 0;
#X connect 144 0 28 0;
#X connect 144 1 94 0;
#X connect 145 0 137 0;
#X connect 146 0 81 0;
#X connect 147 0 140 0;
#X connect 148 0 13 0;
#X connect 148 1 108 0;
#X connect 149 0 112 0;
#X connect 149 1 113 0;
#X connect 150 0 117 0;
#X connect 150 1 118 0;
#X connect 151 0 122 0;
#X connect 151 1 123 0;
#X connect 152 0 6 0;
#X connect 152 1 156 0;
#X connect 153 0 39 0;
#X connect 153 1 82 0;
#X connect 154 0 76 0;
#X connect 154 1 83 0;
#X connect 155 0 77 0;
#X connect 155 1 84 0;
#X connect 157 0 158 0;
#X connect 158 0 65 0;
#X connect 158 1 101 0;
#X connect 159 0 157 0;
#X connect 160 0 138 0;
#X connect 161 0 20 0;
#X connect 162 0 38 0;
#X connect 163 0 57 0;
#X connect 164 0 75 0;
