#N canvas 312 131 877 747 10;
#X obj 509 571 vd~ \$1.delay;
#X obj 687 526 delwrite~ \$1.delay 2000;
#X obj 442 447 expr~ sqrt($v1*$v1 + $v2*$v2);
#X obj 510 537 expr~ (1000/340.29) * $v1;
#X obj 442 390 line~;
#X obj 614 389 line~;
#X obj 463 354 pack 0 0;
#X obj 513 291 unpack 0 0 0;
#X obj 598 355 pack 0 0;
#X text 529 517 doppler delay calc;
#X text 451 429 distance calc;
#X text 415 388 x;
#X text 589 387 y;
#X obj 356 449 atan2~;
#X obj 289 587 bang~;
#X obj 406 556 sin~;
#X obj 373 555 cos~;
#X obj 356 471 +~ 1.571;
#X text 62 511 because sin cos take values between 0 and 0.5??;
#X obj 409 700 *~;
#X obj 437 701 *~;
#X obj 199 643 snapshot~;
#X floatatom 204 697 5 0 0 0 - - -;
#X floatatom 444 522 5 0 0 0 - - -;
#X obj 356 499 *~ 0.3188;
#X obj 362 523 *~ 0.25;
#X obj 454 619 expr~ (1/($v1 * 0.1)) * $v2;
#X obj 102 126 grid grid1 200 -200 199 200 -200 199 1 1 1 10 10 164
332;
#X obj 825 246 inlet;
#X obj 395 244 pack 0 0 5000;
#X obj 454 773 outlet~;
#X obj 402 773 outlet~;
#X obj 688 244 inlet~;
#X floatatom 110 332 5 0 0 0 x - -;
#X floatatom 187 332 5 0 0 0 y - -;
#X floatatom 270 332 5 0 0 0 ramp - -;
#X obj 343 160 loadbang;
#X msg 343 183 5000;
#X obj 514 232 receive traj;
#X obj 97 434 s \$1.x;
#X obj 196 435 s \$1.y;
#X obj 100 402 line;
#X obj 195 401 line;
#X connect 0 0 26 1;
#X connect 2 0 3 0;
#X connect 2 0 26 0;
#X connect 3 0 0 0;
#X connect 4 0 2 0;
#X connect 4 0 13 0;
#X connect 5 0 2 1;
#X connect 5 0 13 1;
#X connect 6 0 4 0;
#X connect 6 0 41 0;
#X connect 7 0 6 0;
#X connect 7 1 8 0;
#X connect 7 2 6 1;
#X connect 7 2 8 1;
#X connect 8 0 5 0;
#X connect 8 0 42 0;
#X connect 13 0 17 0;
#X connect 14 0 21 0;
#X connect 15 0 20 0;
#X connect 16 0 19 0;
#X connect 17 0 24 0;
#X connect 19 0 31 0;
#X connect 20 0 30 0;
#X connect 21 0 22 0;
#X connect 24 0 21 0;
#X connect 24 0 25 0;
#X connect 25 0 15 0;
#X connect 25 0 16 0;
#X connect 26 0 20 1;
#X connect 26 0 19 1;
#X connect 27 0 29 0;
#X connect 27 0 33 0;
#X connect 27 1 29 1;
#X connect 27 1 34 0;
#X connect 28 0 7 0;
#X connect 29 0 7 0;
#X connect 32 0 1 0;
#X connect 35 0 29 2;
#X connect 36 0 37 0;
#X connect 37 0 35 0;
#X connect 38 0 7 0;
#X connect 41 0 39 0;
#X connect 42 0 40 0;
#X coords 0 -1 1 1 202 250 1 100 100;
