#N canvas 425 394 786 453 10;
#X obj -586 78 usss.bandpass mybandpass;
#X obj -499 18 noise~;
#X obj -586 375 *~ 0.1;
#X obj -393 375 *~ 0.1;
#X obj -504 424 dac~;
#X floatatom -730 324 5 0 1 1 Volume - -;
#X text -364 9 This is a bandpass filter: the input audio is filtered
such that a narrow range of frequencies is heard.;
#X text -651 50 Audio Left In;
#X text -577 319 Audio Left Out;
#X text -384 319 Audio Right Out;
#X text -397 51 Audio Right In;
#X text -366 204 centerfreq: adjusts the center of the frequency range
that is allowed to pass through the filter.;
#X text -366 241 Q: adjusts the width of the frequency range that is
allowed to pass through the filter.;
#X text -365 278 filtergain: adjusts the gain of the filter. The amplification
of the frequencies allowed to pass.;
#X text -357 123 The X/Y control allows both the center frequency and
Q to be adjusted at the same time.;
#X obj -720 11 tgl 30 0 empty empty empty 17 7 0 10 -262144 -1 -1 0
1;
#X msg -720 57 \; pd dsp \$1;
#X connect 0 0 2 0;
#X connect 0 1 3 0;
#X connect 1 0 0 0;
#X connect 1 0 0 1;
#X connect 2 0 4 0;
#X connect 3 0 4 1;
#X connect 5 0 3 1;
#X connect 5 0 2 1;
#X connect 15 0 16 0;
