#N canvas 341 264 450 300 10;
#X obj 102 154 usss.hslider \$1.gain 0 2 1;
#X obj 200 263 *~;
#X obj 133 261 *~;
#X obj 45 96 adc~;
#X obj 311 101 usss.monometer;
#X obj 298 101 usss.monometer;
#X obj 202 302 outlet~;
#X obj 133 307 outlet~;
#X connect 0 0 2 1;
#X connect 0 1 1 1;
#X connect 1 0 6 0;
#X connect 1 0 4 0;
#X connect 2 0 7 0;
#X connect 2 0 5 0;
#X connect 3 0 2 0;
#X connect 3 1 1 0;
#X coords 0 -1 1 1 225 90 1 100 100;
