#N canvas 0 0 554 334 10;
#X obj 41 123 usss.plotfft plot;
#X obj 273 33 tgl 30 0 empty empty empty 17 7 0 10 -262144 -1 -1 0
1;
#X msg 273 80 \; pd dsp \$1;
#X obj 42 23 usss.phasor phasor;
#X obj 354 34 loadbang;
#X obj 354 81 s phasor.phasorfreq;
#X msg 354 57 1300;
#X text 261 238 A tool to plot FFT Analysis to an Array.;
#X connect 1 0 2 0;
#X connect 3 0 0 0;
#X connect 4 0 6 0;
#X connect 6 0 5 0;
