#N canvas 86 102 526 381 10;
#X obj 150 84 inlet~;
#X obj 117 275 outlet~;
#X obj 217 273 outlet~;
#X obj 248 164 cos~;
#X obj 151 218 *~;
#X obj 249 197 -~ 1;
#X obj 206 217 *~;
#X obj 2 15 usss.hslider \$1.pan 0 0.25 0.125;
#X connect 0 0 4 0;
#X connect 0 0 6 0;
#X connect 3 0 5 0;
#X connect 3 0 4 1;
#X connect 4 0 1 0;
#X connect 5 0 6 1;
#X connect 6 0 2 0;
#X connect 7 1 3 0;
#X coords 0 -1 1 1 200 50 1 0 0;
