#N canvas 1267 186 571 579 10;
#X obj 190 237 *~;
#X obj 418 282 *~ -1;
#X obj 417 322 +~ 1;
#X obj 168 264 +~;
#X obj 167 361 *~;
#X obj 166 395 *~;
#X obj 168 432 *~;
#X obj 234 431 *~;
#X obj 217 97 phasor~;
#X obj 86 147 samphold~;
#X obj 229 192 samphold~;
#X obj 411 242 samphold~;
#X obj 238 41 loadbang;
#X obj 224 243 samplerate~;
#X obj 224 270 * 0.001;
#X obj 172 289 *~;
#X obj 154 35 r \$2.gfreq;
#X obj 85 107 r~ \$2.pos;
#X obj 228 160 r~ \$2.gdur;
#X obj 418 188 r~ \$2.pan;
#X obj 285 270 wave~ \$2.wndw;
#X obj 168 318 tabread4~ \$2.sf1;
#X obj 210 368 r \$2.gain;
#X obj 258 73 f \$1;
#X obj 338 51 bng 15 250 50 0 empty empty empty 17 7 0 10 -262144 -1
-1;
#X obj 109 485 throw~ \$2.outL.\$3;
#X obj 277 482 throw~ \$2.outR.\$3;
#X obj 334 22 r \$2.initiate;
#X connect 0 0 3 1;
#X connect 1 0 2 0;
#X connect 2 0 7 1;
#X connect 3 0 15 0;
#X connect 4 0 5 0;
#X connect 5 0 6 0;
#X connect 5 0 7 0;
#X connect 6 0 25 0;
#X connect 7 0 26 0;
#X connect 8 0 0 0;
#X connect 8 0 9 1;
#X connect 8 0 10 1;
#X connect 8 0 11 1;
#X connect 8 0 20 0;
#X connect 9 0 3 0;
#X connect 10 0 0 1;
#X connect 11 0 1 0;
#X connect 11 0 6 1;
#X connect 12 0 13 0;
#X connect 12 0 23 0;
#X connect 13 0 14 0;
#X connect 14 0 15 1;
#X connect 15 0 21 0;
#X connect 16 0 8 0;
#X connect 17 0 9 0;
#X connect 18 0 10 0;
#X connect 19 0 11 0;
#X connect 20 0 4 1;
#X connect 21 0 4 0;
#X connect 22 0 5 1;
#X connect 23 0 8 1;
#X connect 24 0 23 0;
#X connect 24 0 13 0;
#X connect 27 0 24 0;
