#N canvas 537 38 743 593 10;
#X declare -stdpath /usr/lib/pd/extra/tof;
#X obj -56 30 declare -stdpath /usr/lib/pd/extra/tof;
#X obj 213 116 bng 15 250 50 0 empty \$1.trigger \$1.trigger 17 7 0
10 -262144 -1 -1;
#X obj 108 158 breakpoints 200 100;
#X text 105 260 backspace to delete points;
#X floatatom 212 135 5 0 0 1 #1.duration #1.duration -;
#X obj -29 107 inlet~;
#X obj -30 312 outlet~;
#X obj -30 265 *~;
#X obj -94 311 outlet~;
#X obj -91 108 inlet~;
#X obj -94 265 *~;
#X msg 401 130 duration \$1;
#X obj 281 59 r \$1.envshape;
#X obj 62 254 Line~;
#X connect 1 0 2 0;
#X connect 2 0 13 0;
#X connect 4 0 11 0;
#X connect 5 0 7 0;
#X connect 7 0 6 0;
#X connect 9 0 10 0;
#X connect 10 0 8 0;
#X connect 11 0 2 0;
#X connect 12 0 2 0;
#X connect 13 0 7 1;
#X connect 13 0 10 1;
#X coords 0 -1 1 1 250 180 1 100 100;
