#N canvas 0 0 527 402 10;
#X obj 183 139 until;
#X msg 183 113 512;
#X obj 166 207 expr sin($f1*(3.14159/512));
#X obj 166 269 pack 0 0;
#X obj 183 168 counter 0 512;
#X obj 181 69 loadbang;
#X obj 310 83 table \$1 512;
#X obj 167 296 tabwrite \$1;
#X connect 0 0 4 0;
#X connect 1 0 0 0;
#X connect 2 0 3 0;
#X connect 3 0 7 0;
#X connect 4 0 3 1;
#X connect 4 0 2 0;
#X connect 5 0 1 0;
#X connect 5 0 4 3;
