#N canvas 1948 43 1304 702 10;
#X floatatom 116 275 5 0 0 0 - - -;
#X floatatom 116 343 5 0 0 0 - - -;
#X obj 80 381 pack;
#X obj 76 434 t b f;
#X msg 76 463 1;
#X obj 116 307 mod 4;
#X obj 126 433 t b f;
#X msg 126 462 1;
#X obj 176 432 t b f;
#X msg 176 461 1;
#X obj 224 434 t b f;
#X msg 231 462 1;
#X obj 114 203 until;
#X obj 114 240 f;
#X obj 153 238 + 1;
#X obj 115 145 t f b;
#X msg 152 174 0;
#X floatatom 208 290 5 0 0 0 - - -;
#X floatatom 299 275 5 0 0 0 - - -;
#X obj 297 203 until;
#X obj 297 240 f;
#X obj 336 238 + 1;
#X obj 298 145 t f b;
#X msg 335 174 0;
#X obj 354 395 pack;
#X obj 287 353 t b f;
#X msg 285 384 1;
#X obj 360 432 t b f;
#X msg 358 463 1;
#X obj 474 424 t b f;
#X msg 472 455 1;
#X obj 417 425 t b f;
#X msg 415 456 1;
#X obj 70 497 pack 0 0;
#X obj 138 492 pack 0 0;
#X obj 209 492 pack 0 0;
#X obj 279 494 pack 0 0;
#X obj 114 644 s \$1.coord1;
#X obj 197 650 s \$1.coord2;
#X obj 292 641 s \$1.coord3;
#X obj 382 646 s \$1.coord4;
#X obj 578 490 random 100;
#X obj 580 553 pack;
#X obj 580 519 / 100;
#X obj 578 459 t b f;
#X obj 647 489 random 100;
#X obj 649 552 pack;
#X obj 649 518 / 100;
#X obj 647 458 t b f;
#X obj 719 489 random 100;
#X obj 721 552 pack;
#X obj 721 518 / 100;
#X obj 719 458 t b f;
#X obj 801 495 random 100;
#X obj 803 558 pack;
#X obj 803 524 / 100;
#X obj 801 464 t b f;
#X floatatom 565 313 5 0 0 0 - - -;
#X obj 563 241 until;
#X obj 563 278 f;
#X obj 602 276 + 1;
#X obj 566 208 t f b;
#X msg 603 237 0;
#X obj 485 110 metro 10;
#X obj 484 79 tgl 15 0 empty empty empty 17 7 0 10 -262144 -1 -1 0
1;
#X floatatom 549 78 5 0 0 0 - - -;
#X floatatom 345 280 5 0 0 0 - - -;
#X floatatom 412 314 5 0 0 0 - - -;
#X floatatom 474 348 5 0 0 0 - - -;
#X obj 298 312 moses 50;
#X obj 359 344 moses 100;
#X obj 420 378 moses 150;
#X obj 294 86 t b b;
#X obj 291 56 bng 15 250 50 0 empty empty empty 17 7 0 10 -262144 -1
-1;
#X obj 110 88 t b b;
#X obj 110 62 bng 15 250 50 0 empty empty empty 17 7 0 10 -262144 -1
-1;
#X obj 444 112 sel 1;
#X obj 75 403 route 0 1 2 3;
#X obj 596 139 bng 15 250 50 0 empty empty empty 17 7 0 10 -262144
-1 -1;
#X msg 180 117 const 0;
#X obj 181 142 s \$1.gainL;
#X obj 804 114 s \$1.gain1;
#X obj 803 146 s \$1.gain2;
#X obj 805 180 s \$1.gain3;
#X obj 803 213 s \$1.gain4;
#X msg 115 116 360;
#X msg 298 116 360;
#X msg 566 179 360;
#X obj 476 51 r \$1.startrandom;
#X obj 631 69 random 200;
#X obj 630 94 + 50;
#X floatatom 694 39 5 0 0 0 - - -;
#X floatatom 669 93 5 0 0 0 - - -;
#X text 704 90 actual;
#X text 730 37 randomness;
#X msg 18 528 1;
#X msg 17 550 2;
#X obj 3 450 loadbang;
#X obj 207 258 r \$1.spacing;
#X obj 105 34 r \$1.makespaces;
#X obj 691 9 r \$1.randomspeed;
#X obj 289 24 r \$1.blockfilter;
#X obj 386 223 r \$1.blocksize;
#X obj 398 263 * 2;
#X obj 454 279 * 3;
#X obj 399 541 cyclone/gate 3;
#X obj 285 537 cyclone/gate 3;
#X obj 188 543 cyclone/gate 3;
#X obj 72 533 cyclone/gate 3;
#X connect 0 0 2 1;
#X connect 0 0 5 0;
#X connect 1 0 2 0;
#X connect 2 0 77 0;
#X connect 3 0 4 0;
#X connect 3 1 33 1;
#X connect 4 0 33 0;
#X connect 5 0 1 0;
#X connect 6 0 7 0;
#X connect 6 1 34 1;
#X connect 7 0 34 0;
#X connect 8 0 9 0;
#X connect 8 1 35 1;
#X connect 9 0 35 0;
#X connect 10 0 11 0;
#X connect 10 1 36 1;
#X connect 11 0 36 0;
#X connect 12 0 13 0;
#X connect 13 0 14 0;
#X connect 13 0 0 0;
#X connect 14 0 13 1;
#X connect 15 0 12 0;
#X connect 15 1 16 0;
#X connect 16 0 13 1;
#X connect 17 0 5 1;
#X connect 18 0 69 0;
#X connect 19 0 20 0;
#X connect 20 0 21 0;
#X connect 20 0 18 0;
#X connect 21 0 20 1;
#X connect 22 0 19 0;
#X connect 22 1 23 0;
#X connect 23 0 20 1;
#X connect 24 0 27 0;
#X connect 25 0 26 0;
#X connect 25 1 33 1;
#X connect 26 0 33 0;
#X connect 27 0 28 0;
#X connect 27 1 34 1;
#X connect 28 0 34 0;
#X connect 29 0 30 0;
#X connect 29 1 36 1;
#X connect 30 0 36 0;
#X connect 31 0 32 0;
#X connect 31 1 35 1;
#X connect 32 0 35 0;
#X connect 33 0 108 1;
#X connect 34 0 107 1;
#X connect 35 0 106 1;
#X connect 36 0 105 1;
#X connect 41 0 43 0;
#X connect 42 0 37 0;
#X connect 43 0 42 0;
#X connect 44 0 41 0;
#X connect 44 1 42 1;
#X connect 45 0 47 0;
#X connect 46 0 38 0;
#X connect 47 0 46 0;
#X connect 48 0 45 0;
#X connect 48 1 46 1;
#X connect 49 0 51 0;
#X connect 50 0 39 0;
#X connect 51 0 50 0;
#X connect 52 0 49 0;
#X connect 52 1 50 1;
#X connect 53 0 55 0;
#X connect 54 0 40 0;
#X connect 55 0 54 0;
#X connect 56 0 53 0;
#X connect 56 1 54 1;
#X connect 57 0 44 0;
#X connect 57 0 48 0;
#X connect 57 0 52 0;
#X connect 57 0 56 0;
#X connect 58 0 59 0;
#X connect 59 0 60 0;
#X connect 59 0 57 0;
#X connect 60 0 59 1;
#X connect 61 0 58 0;
#X connect 61 1 62 0;
#X connect 62 0 59 1;
#X connect 63 0 87 0;
#X connect 63 0 89 0;
#X connect 64 0 63 0;
#X connect 64 0 76 0;
#X connect 65 0 63 1;
#X connect 66 0 69 1;
#X connect 67 0 70 1;
#X connect 68 0 71 1;
#X connect 69 0 25 0;
#X connect 69 1 70 0;
#X connect 70 0 24 0;
#X connect 70 1 71 0;
#X connect 71 0 31 0;
#X connect 71 1 29 0;
#X connect 72 0 86 0;
#X connect 72 1 79 0;
#X connect 73 0 72 0;
#X connect 74 0 85 0;
#X connect 74 1 79 0;
#X connect 75 0 74 0;
#X connect 76 0 79 0;
#X connect 77 0 3 0;
#X connect 77 1 6 0;
#X connect 77 2 8 0;
#X connect 77 3 10 0;
#X connect 78 0 87 0;
#X connect 79 0 80 0;
#X connect 79 0 81 0;
#X connect 79 0 82 0;
#X connect 79 0 83 0;
#X connect 79 0 84 0;
#X connect 85 0 15 0;
#X connect 86 0 22 0;
#X connect 87 0 61 0;
#X connect 88 0 64 0;
#X connect 89 0 90 0;
#X connect 90 0 65 0;
#X connect 91 0 89 1;
#X connect 92 0 90 1;
#X connect 95 0 105 0;
#X connect 95 0 106 0;
#X connect 95 0 107 0;
#X connect 95 0 108 0;
#X connect 96 0 105 0;
#X connect 96 0 106 0;
#X connect 96 0 107 0;
#X connect 96 0 108 0;
#X connect 97 0 95 0;
#X connect 98 0 17 0;
#X connect 99 0 75 0;
#X connect 100 0 91 0;
#X connect 101 0 73 0;
#X connect 102 0 66 0;
#X connect 102 0 103 0;
#X connect 102 0 104 0;
#X connect 103 0 67 0;
#X connect 104 0 68 0;
#X connect 105 0 40 0;
#X connect 105 1 37 0;
#X connect 106 0 39 0;
#X connect 106 1 38 0;
#X connect 107 0 38 0;
#X connect 107 1 39 0;
#X connect 108 0 37 0;
#X connect 108 1 40 0;
