#N canvas 522 94 646 676 10;
#X obj 103 194 usss.hslider \$1.feedback 0 1 0.5;
#X obj 103 227 usss.hslider \$1.level 0 1 0;
#X obj 308 595 *~;
#X obj 308 408 inlet~;
#X obj 306 648 outlet~;
#X obj 468 476 *~;
#X obj 81 604 *~;
#X obj 86 402 inlet~;
#X obj 81 644 outlet~;
#X obj -38 482 *~;
#X obj -44 592 *~;
#X obj 438 586 *~;
#X obj 103 262 usss.hslider \$1.crossfeedback 0 1 0;
#X obj 85 445 delwrite~ \$0.delayL 10000;
#X obj 82 521 vd~ \$0.delayL;
#X obj 306 446 delwrite~ \$0.delayR 10000;
#X obj 307 517 vd~ \$0.delayR;
#X obj 443 251 osc~ 1;
#X obj 444 284 *~;
#X obj 102 334 usss.hslider \$1.moddepth 0 100 0;
#X obj 102 299 usss.hslider \$1.modfreq 0 50 1;
#X obj 103 123 usss.hslider \$1.timeL 0 5000 200;
#X obj 103 158 usss.hslider \$1.timeR 0 5000 210;
#X obj 358 128 spigot;
#X obj 219 103 tgl 15 0 empty \$1.link \$1.link 17 7 0 10 -257985 -1
-1 0 1;
#X obj 358 187 Line~ 20;
#X connect 0 1 5 1;
#X connect 0 1 9 1;
#X connect 1 1 2 1;
#X connect 1 1 6 1;
#X connect 2 0 4 0;
#X connect 3 0 15 0;
#X connect 5 0 15 0;
#X connect 6 0 8 0;
#X connect 7 0 13 0;
#X connect 9 0 13 0;
#X connect 10 0 15 0;
#X connect 11 0 13 0;
#X connect 12 1 10 1;
#X connect 12 1 11 1;
#X connect 14 0 9 0;
#X connect 14 0 6 0;
#X connect 14 0 10 0;
#X connect 16 0 5 0;
#X connect 16 0 2 0;
#X connect 16 0 11 0;
#X connect 17 0 18 0;
#X connect 18 0 16 0;
#X connect 18 0 14 0;
#X connect 19 1 18 1;
#X connect 20 1 17 0;
#X connect 21 0 23 0;
#X connect 21 1 14 0;
#X connect 22 1 16 0;
#X connect 23 0 22 2;
#X connect 24 0 23 1;
#X coords 0 -1 1 1 200 270 1 100 100;
