#N canvas 78 265 731 352 10;
#X obj 15 25 hsl 128 16 0 0 0 0 empty empty empty -2 -8 1 10 -99865
-262144 -1 -2.14748e+009 1;
#X msg 10 -18 label \$1;
#X obj 10 -41 symbol \$1;
#X obj 179 -121 loadbang;
#X floatatom 148 25 7 0 0 0 - - -, f 7;
#X obj -54 -38 r \$1;
#X obj 148 130 outlet;
#X obj 209 106 line~;
#X msg 208 79 \$1 10;
#X obj 210 148 outlet~;
#X obj 91 -25 f \$4;
#X obj 166 -66 f \$2;
#X obj 201 -66 f \$3;
#X obj 164 -44 pack;
#X msg 156 -17 range \$1 \$2;
#X obj 91 -47 bang;
#X obj 81 -110 inlet;
#X obj 41 -109 inlet;
#X obj 208 -43 bang;
#X obj 121 -110 inlet;
#X text 40 -130 min;
#X text 80 -129 max;
#X text 121 -129 current;
#X obj 253 -112 inlet~;
#X text 254 -129 cv in;
#X obj 262 -77 catch~ \$1.cv;
#X connect 0 0 4 0;
#X connect 1 0 0 0;
#X connect 2 0 1 0;
#X connect 3 0 2 0;
#X connect 3 0 12 0;
#X connect 3 0 11 0;
#X connect 4 0 8 0;
#X connect 4 0 6 0;
#X connect 5 0 0 0;
#X connect 7 0 9 0;
#X connect 8 0 7 0;
#X connect 10 0 0 0;
#X connect 11 0 13 0;
#X connect 12 0 13 1;
#X connect 12 0 18 0;
#X connect 13 0 14 0;
#X connect 14 0 0 0;
#X connect 14 0 15 0;
#X connect 15 0 10 0;
#X connect 16 0 12 0;
#X connect 17 0 11 0;
#X connect 18 0 13 0;
#X connect 19 0 0 0;
#X connect 23 0 9 0;
#X connect 25 0 9 0;
#X coords 0 -1 1 1 194 33 2 10 10;
