#N canvas 351 413 537 359 10;
#X obj 12 176 tgl 15 0 empty empty empty 17 7 0 10 -262144 -1 -1 0
1;
#X obj 71 225 metro 500;
#N canvas 0 0 450 300 (subpatch) 0;
#X array \$1-output 441 float 0;
#X coords 0 1.02 440 -1.02 180 120 1;
#X restore 10 47 graph;
#X floatatom 30 176 5 0 0 0 - - -;
#X obj -27 219 inlet~;
#X obj 27 251 tabwrite~ \$1-output;
#X obj 174 175 bng 15 250 50 0 empty empty empty 17 7 0 10 -262144
-1 -1;
#X connect 0 0 1 0;
#X connect 1 0 5 0;
#X connect 3 0 1 1;
#X connect 4 0 5 0;
#X connect 6 0 5 0;
#X coords 0 -1 1 1 200 200 1 0 0;
