#N canvas 0 25 1213 761 10;
#X obj 6 42 bng 15 250 50 0 empty empty Randomise_Filters 25 8 0 10
-262144 -1 -1;
#X floatatom 80 240 5 0 0 0 - - -;
#X obj 860 152 unpack 0 0 0 0 0 0 0 0 0 0 0 0 0 0 0 0;
#X obj 295 -9 loadbang;
#X obj 238 645 outlet~;
#X obj 1089 641 outlet~;
#X msg 369 70 20 28.5 40.6 48 82 118 240 342 488 696 993 1416 2020
2881 4108 5860 8357 11919 1700;
#X text 62 239 Q;
#X obj 6 23 bng 15 250 50 0 empty empty Original 25 10 0 10 -262144
-1 -1;
#X obj 26 438 inlet~;
#X obj 150 435 inlet~;
#X obj 3 219 s \$1.global_gain;
#X obj 4 183 s \$1.global_q;
#X obj 28 459 usss.reson_unit \$1;
#X obj 860 49 usss.fltbankrand;
#X msg 233 70 1;
#X msg 300 72 80;
#X obj 280 27 t bang bang bang;
#X obj 149 462 usss.reson_unit \$1;
#X obj 296 459 usss.reson_unit \$1;
#X obj 428 457 usss.reson_unit \$1;
#X obj 565 457 usss.reson_unit \$1;
#X obj 701 457 usss.reson_unit \$1;
#X obj 836 457 usss.reson_unit \$1;
#X obj 969 457 usss.reson_unit \$1;
#X obj 26 556 usss.reson_unit \$1;
#X obj 163 557 usss.reson_unit \$1;
#X obj 299 557 usss.reson_unit \$1;
#X obj 434 557 usss.reson_unit \$1;
#X obj 570 557 usss.reson_unit \$1;
#X obj 705 557 usss.reson_unit \$1;
#X obj 838 557 usss.reson_unit \$1;
#X obj 972 557 usss.reson_unit \$1;
#X obj 860 115 inlet;
#X obj 3 61 usss.hslider \$1.gain 0 1 0.5;
#X obj 3 106 usss.hslider \$1.Q 0 100 80;
#X connect 0 0 14 0;
#X connect 1 0 12 0;
#X connect 2 0 13 2;
#X connect 2 1 18 2;
#X connect 2 2 19 2;
#X connect 2 3 20 2;
#X connect 2 4 21 2;
#X connect 2 5 22 2;
#X connect 2 6 23 2;
#X connect 2 7 24 2;
#X connect 2 8 25 2;
#X connect 2 9 26 2;
#X connect 2 10 27 2;
#X connect 2 11 28 2;
#X connect 2 12 29 2;
#X connect 2 13 30 2;
#X connect 2 14 31 2;
#X connect 2 15 32 2;
#X connect 3 0 17 0;
#X connect 6 0 2 0;
#X connect 8 0 6 0;
#X connect 9 0 13 0;
#X connect 9 0 19 0;
#X connect 9 0 21 0;
#X connect 9 0 23 0;
#X connect 9 0 25 0;
#X connect 9 0 27 0;
#X connect 9 0 29 0;
#X connect 9 0 31 0;
#X connect 10 0 18 0;
#X connect 10 0 20 0;
#X connect 10 0 22 0;
#X connect 10 0 24 0;
#X connect 10 0 26 0;
#X connect 10 0 28 0;
#X connect 10 0 30 0;
#X connect 10 0 32 0;
#X connect 13 0 4 0;
#X connect 14 0 2 0;
#X connect 15 0 13 1;
#X connect 15 0 18 1;
#X connect 15 0 19 1;
#X connect 15 0 20 1;
#X connect 15 0 21 1;
#X connect 15 0 22 1;
#X connect 15 0 23 1;
#X connect 15 0 24 1;
#X connect 15 0 25 1;
#X connect 15 0 26 1;
#X connect 15 0 27 1;
#X connect 15 0 28 1;
#X connect 15 0 29 1;
#X connect 15 0 30 1;
#X connect 15 0 31 1;
#X connect 15 0 32 1;
#X connect 16 0 1 0;
#X connect 16 0 13 3;
#X connect 16 0 18 3;
#X connect 16 0 19 3;
#X connect 16 0 20 3;
#X connect 16 0 21 3;
#X connect 16 0 22 3;
#X connect 16 0 23 3;
#X connect 16 0 24 3;
#X connect 16 0 25 3;
#X connect 16 0 26 3;
#X connect 16 0 27 3;
#X connect 16 0 28 3;
#X connect 16 0 29 3;
#X connect 16 0 30 3;
#X connect 16 0 31 3;
#X connect 16 0 32 3;
#X connect 17 0 6 0;
#X connect 17 1 16 0;
#X connect 17 2 15 0;
#X connect 18 0 5 0;
#X connect 19 0 4 0;
#X connect 20 0 5 0;
#X connect 21 0 4 0;
#X connect 22 0 5 0;
#X connect 23 0 4 0;
#X connect 24 0 5 0;
#X connect 25 0 4 0;
#X connect 26 0 5 0;
#X connect 27 0 4 0;
#X connect 28 0 5 0;
#X connect 29 0 4 0;
#X connect 30 0 5 0;
#X connect 31 0 4 0;
#X connect 32 0 5 0;
#X connect 33 0 2 0;
#X connect 34 0 11 0;
#X connect 35 0 12 0;
#X coords 0 -1 1 1 200 150 1 0 0;
