#N canvas 340 64 949 797 10;
#X text 271 519 Arguments initialize center frequency and Q.;
#X obj 104 117 grid grid1 100 0 127 100 0 127 1 1 1 10 10 128 190;
#X obj 132 575 *~;
#X obj 200 575 *~;
#X obj 102 299 usss.hslider \$1.filtergain 0 1 0;
#X obj 132 435 inlet~;
#X obj 202 434 inlet~;
#X obj 131 624 outlet~;
#X obj 199 622 outlet~;
#X text 156 648 bandpass name cflow cfhigh;
#X obj 102 227 usss.hslider \$1.centrefreq 0 20000 100;
#X floatatom 211 122 5 0 0 1 cf_low - -, f 5;
#X obj 483 68 loadbang;
#X msg 450 144 20;
#X msg 484 145 5000;
#X floatatom 211 142 5 0 0 1 cf_high - -, f 5;
#X floatatom 212 162 5 0 0 1 Q-low - -, f 5;
#X floatatom 211 182 5 0 0 1 Q-high - -, f 5;
#X msg 529 143 0;
#X obj 541 201 usss.zmap 0 127 0 0;
#X obj 449 258 usss.zmap 0 127 0 0;
#X obj 102 262 usss.hslider \$1.Q 0 10 0;
#X msg 570 143 5;
#X obj 201 512 vcf_bp4~;
#X obj 132 512 vcf_bp4~;
#X obj 443 368 r \$1.coordinates;
#X msg 441 399 goto \$1 \$2;
#X floatatom 369 220 5 0 0 0 - - -, f 5;
#X connect 1 0 19 0;
#X connect 1 1 20 0;
#X connect 2 0 7 0;
#X connect 3 0 8 0;
#X connect 4 1 3 1;
#X connect 4 1 2 1;
#X connect 5 0 24 0;
#X connect 6 0 23 0;
#X connect 10 1 23 1;
#X connect 10 1 24 1;
#X connect 11 0 19 3;
#X connect 11 0 10 0;
#X connect 12 0 13 0;
#X connect 12 0 14 0;
#X connect 12 0 18 0;
#X connect 12 0 22 0;
#X connect 13 0 11 0;
#X connect 14 0 15 0;
#X connect 15 0 19 4;
#X connect 15 0 10 1;
#X connect 16 0 20 3;
#X connect 16 0 21 0;
#X connect 17 0 20 4;
#X connect 17 0 21 1;
#X connect 18 0 16 0;
#X connect 19 0 27 0;
#X connect 20 0 21 2;
#X connect 21 1 23 2;
#X connect 21 1 24 2;
#X connect 22 0 17 0;
#X connect 23 0 3 0;
#X connect 24 0 2 0;
#X connect 25 0 26 0;
#X connect 26 0 1 0;
#X connect 27 0 10 2;
#X coords 0 -1 1 1 200 240 1 100 100;
