#N canvas 257 563 604 344 10;
#X obj 69 180 *~;
#X obj 70 48 route \$1;
#X obj 71 95 sig~;
#X obj 116 81 print events;
#X obj 347 183 *~;
#X obj 69 15 r \$2.events;
#X obj 447 230 throw~ \$2.todellineR;
#X obj 173 224 throw~ \$2.todellineL;
#X obj 37 235 throw~ \$2.todacL;
#X obj 312 251 throw~ \$2.todacR;
#X obj 70 125 vd~ \$2.mydelL;
#X obj 343 133 vd~ \$2.mydelR;
#X obj 180 144 r~ \$2.delfeedback;
#X connect 0 0 7 0;
#X connect 1 0 2 0;
#X connect 1 0 3 0;
#X connect 2 0 10 0;
#X connect 2 0 11 0;
#X connect 4 0 6 0;
#X connect 5 0 1 0;
#X connect 10 0 0 0;
#X connect 10 0 8 0;
#X connect 11 0 4 0;
#X connect 11 0 9 0;
#X connect 12 0 0 1;
#X connect 12 0 4 1;
