#N canvas 1016 381 739 512 10;
#X obj 201 201 inlet~;
#X obj 127 199 inlet~;
#X obj 342 423 outlet~;
#X obj 284 424 outlet~;
#X obj 103 120 usss.hslider \$1.morph 0 1 0.5;
#X obj 103 155 usss.hslider \$1.amp 0 1 0;
#X obj 332 390 *~;
#X obj 301 389 *~;
#X text 332 117 shapee~ is a tricky one becasue the original design
requires the block~ setting to auto window the system.;
#X obj 72 199 inlet~;
#X obj 313 203 inlet~;
#X obj 123 259 shapee~;
#X obj 232 260 shapee~;
#X obj 455 286 block~;
#X obj 455 239 r block_size;
#X obj 404 205 * 32;
#X floatatom 404 178 5 0 0 0 - - -, f 5;
#X connect 0 0 11 1;
#X connect 1 0 12 0;
#X connect 4 0 16 0;
#X connect 5 1 6 1;
#X connect 5 1 7 1;
#X connect 6 0 2 0;
#X connect 7 0 3 0;
#X connect 9 0 11 0;
#X connect 10 0 12 1;
#X connect 11 0 7 0;
#X connect 12 0 6 0;
#X connect 14 0 13 0;
#X connect 15 0 11 2;
#X connect 15 0 12 2;
#X connect 16 0 15 0;
#X coords 0 -1 1 1 200 90 1 100 100;
