#N canvas 129 189 454 304 10;
#X obj 135 88 float \$1;
#X obj 197 88 float \$2;
#X obj 259 88 float \$3;
#X obj 322 88 float \$4;
#X text 22 1 Simplistic version of maxmsp zmap object;
#X obj 135 63 inlet;
#X obj 197 63 inlet;
#X obj 259 62 inlet;
#X obj 322 61 inlet;
#X obj 73 127 expr (($f1-$f2)/($f3 - $f2))*($f5-$f4)+$f4;
#X obj 73 63 inlet;
#X obj 73 250 outlet;
#X obj 288 23 loadbang;
#X obj 73 189 clip \$3 \$4;
#X connect 0 0 9 1;
#X connect 1 0 9 2;
#X connect 2 0 9 3;
#X connect 2 0 13 1;
#X connect 3 0 9 4;
#X connect 3 0 13 2;
#X connect 5 0 0 0;
#X connect 6 0 1 0;
#X connect 7 0 2 0;
#X connect 8 0 3 0;
#X connect 9 0 13 0;
#X connect 10 0 9 0;
#X connect 12 0 0 0;
#X connect 12 0 1 0;
#X connect 12 0 2 0;
#X connect 12 0 3 0;
#X connect 13 0 11 0;
