#N canvas 35 204 1510 683 10;
#X floatatom 257 313 5 0 0 0 - - -, f 5;
#X floatatom 340 296 5 0 0 0 - - -, f 5;
#X floatatom 418 290 5 0 0 0 - - -, f 5;
#X floatatom 470 291 5 0 0 0 - - -, f 5;
#N canvas 4 50 590 504 randpitch 0;
#X obj 13 305 inlet;
#X obj 169 48 inlet;
#X obj 264 46 inlet;
#X obj 99 74 loadbang;
#X obj 106 118 metro;
#X obj 102 143 random 1000;
#X obj 110 196 *;
#X obj 76 277 pow;
#X obj 110 231 t b f;
#X msg 75 238 2;
#X floatatom 276 119 5 0 0 0 - - -, f 5;
#X obj 275 153 sel 0;
#X msg 273 190 1;
#X obj 302 209 bng 15 250 50 0 empty empty empty 0 -6 0 10 -262144
-1 -1;
#X msg 302 233 2;
#X obj 254 420 * 1;
#X obj 305 363 expr ($f1/$f2) * $f2;
#X obj 254 463 outlet;
#X obj 105 169 * 0.001;
#X obj 262 317 cyclone/gate 2;
#X connect 0 0 15 1;
#X connect 1 0 6 1;
#X connect 2 0 10 0;
#X connect 3 0 4 0;
#X connect 4 0 5 0;
#X connect 5 0 18 0;
#X connect 6 0 8 0;
#X connect 7 0 19 1;
#X connect 8 0 9 0;
#X connect 8 1 7 1;
#X connect 9 0 7 0;
#X connect 10 0 11 0;
#X connect 11 0 12 0;
#X connect 11 1 13 0;
#X connect 11 1 16 1;
#X connect 12 0 19 0;
#X connect 13 0 14 0;
#X connect 14 0 19 0;
#X connect 15 0 17 0;
#X connect 16 0 15 0;
#X connect 18 0 6 0;
#X connect 19 0 15 0;
#X connect 19 1 16 0;
#X restore 398 323 pd randpitch;
#X obj 398 359 sig~;
#X obj 340 332 t b f;
#X obj 335 362 nbx 5 14 -1e+037 1e+037 0 0 empty empty empty 0 -6 0
10 -262144 -1 -1 1 256;
#X obj 255 388 expr 1000 / $f1 * $f2;
#X floatatom 330 436 5 0 0 0 - - -, f 5;
#X floatatom -90 381 5 0 0 0 - - -, f 5;
#X obj 27 435 noise~;
#X obj 28 468 +~ 1;
#X obj 71 469 / 2;
#X obj 30 507 *~;
#X floatatom 72 431 5 0 0 0 - - -, f 5;
#X obj -39 534 +~;
#X obj 132 458 noise~;
#X floatatom 135 437 5 0 0 0 - - -, f 5;
#X obj 127 405 / 256;
#X obj 133 497 *~;
#X obj 135 530 +~ 0.5;
#X obj -97 438 line~;
#X obj -89 358 *;
#X obj -38 560 send~ \$1.pos;
#X obj 396 392 send~ \$1.gdur;
#X obj 255 434 s \$1.gfreq;
#X obj 273 468 usss.window \$1.wndw;
#X obj 135 564 send~ \$1.pan;
#X obj -61 382 s \$1.gain;
#X obj 2 27 usss.tabplay \$1;
#X obj -107 406 pack 0 20;
#X obj 3 152 usss.hslider \$1.position 0 1 0;
#X obj 3 221 usss.hslider \$1.grainsize 20 300 80;
#X obj 3 292 usss.hslider \$1.randpitch 0 4 0;
#X obj 3 327 usss.hslider \$1.graingain 0 1 0;
#X obj 3 363 usss.hslider \$1.grainpan 0 256 256;
#X obj 470 254 loadbang;
#X obj 3 257 usss.hslider \$1.mainpitch 0 3 1;
#X floatatom 88 60 8 0 0 1 Rand_Max - -, f 8;
#X obj 3 187 usss.hslider \$1.randomposition 0 100 3;
#X obj 299 42 inlet~;
#X obj 358 41 inlet~;
#X obj -68 630 outlet~;
#X obj 37 629 outlet~;
#X obj 900 619 print;
#X obj 788 524 * 20;
#X obj 1159 577 i;
#X obj 1197 583 + 1;
#X floatatom 1159 604 5 0 0 0 - - -, f 5;
#X obj 1158 545 bng 15 250 50 0 empty empty empty 17 7 0 10 -262144
-1 -1;
#X obj 1157 519 until;
#X obj 1149 403 bng 15 250 50 0 empty empty empty 17 7 0 10 -262144
-1 -1;
#X msg 927 463 clear;
#X obj 997 535 symbol \$1;
#X obj 1148 376 loadbang;
#X obj 877 529 /;
#X msg 1205 406 10;
#X obj 1232 352 r \$1.numgrains;
#X obj 1230 380 t b f;
#X msg 1198 548 0;
#X obj 1148 426 t b b b;
#X obj 1148 465 f;
#X obj 1145 493 t f f;
#X obj 556 282 r params;
#X obj 626 352 s \$1.grainsize;
#X msg 635 329 100;
#X obj 554 310 t b b;
#X obj 549 377 s \$1.graingain;
#X msg 552 339 0.5;
#X obj 150 630 outlet~;
#X obj 254 630 outlet~;
#X obj 363 629 outlet~;
#X obj 457 631 outlet~;
#X obj 567 631 outlet~;
#X obj 672 632 outlet~;
#X obj -68 592 catch~ \$1.outL.1;
#X obj 36 591 catch~ \$1.outR.1;
#X obj 150 593 catch~ \$1.outL.2;
#X obj 254 592 catch~ \$1.outR.2;
#X obj 363 591 catch~ \$1.outL.3;
#X obj 457 593 catch~ \$1.outR.3;
#X obj 567 593 catch~ \$1.outL.4;
#X obj 672 594 catch~ \$1.outR.4;
#X obj 825 485 t f f b b;
#X obj 1072 562 + 1;
#X obj 817 590 sprintf obj 200 %d usss.grainX~ %f %s %f;
#X obj 1074 534 random \$2;
#X obj 1053 495 r \$1.numchans;
#X floatatom 5 118 5 0 0 2 #1.numgrains - -, f 5;
#X obj 604 174 float;
#X obj 4 83 bng 15 250 50 0 empty \$1.makegrains \$1.makegrains 17
7 0 10 -262144 -1 -1;
#X obj 570 104 s params;
#X obj 632 131 spigot;
#X msg 628 98 10;
#X obj 41 117 tgl 15 0 empty empty 1_=_default_0_=_own_value 0 25 0
10 -262144 -1 -1 1 1;
#X text 684 103 default 10 grains;
#X text 682 171 number of grains;
#X floatatom 126 117 5 1 4 2 #1.numchans - -, f 5;
#X obj 778 185 float;
#X obj 804 135 spigot;
#X obj 167 117 tgl 15 0 empty empty empty 17 7 0 10 -262144 -1 -1 1
1;
#X msg 800 102 1;
#X text 854 175 num channels 1 \, 2 \, 3 \, 4;
#X text 854 186 for 2 \, 4 \, 6 \, 8 chans;
#X text 856 107 default 2 channels;
#X text 858 120 1 pair of channels;
#X obj 570 21 loadbang;
#X obj 603 209 s \$1.numgrains;
#X obj 778 214 s \$1.numchans;
#X obj 578 244 s \$1.initiate;
#X obj 572 65 t b b b b b b;
#N canvas 189 408 991 252 \$0.sub 0;
#X restore 299 513 pd \$0.sub;
#X obj 817 620 s pd-\$0.sub;
#X obj 248 241 r \$1.grainsizereal;
#X connect 0 0 8 0;
#X connect 0 0 4 0;
#X connect 1 0 6 0;
#X connect 2 0 4 1;
#X connect 3 0 4 2;
#X connect 4 0 5 0;
#X connect 5 0 25 0;
#X connect 6 0 8 0;
#X connect 6 1 7 0;
#X connect 7 0 8 1;
#X connect 8 0 9 0;
#X connect 8 0 26 0;
#X connect 10 0 31 0;
#X connect 11 0 12 0;
#X connect 12 0 14 0;
#X connect 13 0 14 1;
#X connect 14 0 16 1;
#X connect 15 0 13 0;
#X connect 16 0 24 0;
#X connect 17 0 20 0;
#X connect 18 0 20 1;
#X connect 19 0 18 0;
#X connect 20 0 21 0;
#X connect 21 0 28 0;
#X connect 22 0 16 0;
#X connect 23 0 10 0;
#X connect 30 0 23 1;
#X connect 30 0 39 0;
#X connect 31 0 22 0;
#X connect 32 0 23 0;
#X connect 33 0 0 0;
#X connect 34 0 2 0;
#X connect 35 0 29 0;
#X connect 36 0 19 0;
#X connect 37 0 3 0;
#X connect 38 0 1 0;
#X connect 39 0 40 1;
#X connect 40 0 15 0;
#X connect 41 0 30 0;
#X connect 42 0 30 1;
#X connect 46 0 86 0;
#X connect 47 0 48 0;
#X connect 47 0 49 0;
#X connect 48 0 47 1;
#X connect 49 0 84 0;
#X connect 50 0 47 0;
#X connect 51 0 50 0;
#X connect 52 0 61 0;
#X connect 53 0 113 0;
#X connect 54 0 86 2;
#X connect 55 0 52 0;
#X connect 55 0 57 0;
#X connect 56 0 86 1;
#X connect 57 0 62 1;
#X connect 58 0 59 0;
#X connect 59 0 52 0;
#X connect 59 1 62 1;
#X connect 60 0 47 1;
#X connect 61 0 62 0;
#X connect 61 1 60 0;
#X connect 61 2 53 0;
#X connect 62 0 63 0;
#X connect 63 0 51 0;
#X connect 63 1 56 1;
#X connect 64 0 67 0;
#X connect 66 0 65 0;
#X connect 67 0 69 0;
#X connect 67 1 66 0;
#X connect 69 0 68 0;
#X connect 76 0 43 0;
#X connect 77 0 44 0;
#X connect 78 0 70 0;
#X connect 79 0 71 0;
#X connect 80 0 72 0;
#X connect 81 0 73 0;
#X connect 82 0 74 0;
#X connect 83 0 75 0;
#X connect 84 0 46 0;
#X connect 84 1 56 0;
#X connect 84 2 54 0;
#X connect 84 3 87 0;
#X connect 85 0 86 3;
#X connect 86 0 45 0;
#X connect 86 0 113 0;
#X connect 87 0 85 0;
#X connect 88 0 87 1;
#X connect 89 0 90 1;
#X connect 90 0 108 0;
#X connect 91 0 111 0;
#X connect 93 0 90 1;
#X connect 94 0 93 0;
#X connect 95 0 93 1;
#X connect 98 0 99 1;
#X connect 99 0 109 0;
#X connect 100 0 99 1;
#X connect 101 0 100 1;
#X connect 102 0 100 0;
#X connect 107 0 91 0;
#X connect 107 0 95 0;
#X connect 107 0 101 0;
#X connect 111 0 92 0;
#X connect 111 1 110 0;
#X connect 111 2 90 0;
#X connect 111 3 94 0;
#X connect 111 4 99 0;
#X connect 111 5 102 0;
#X connect 114 0 0 0;
#X coords 0 -1 1 1 200 400 1 0 0;
