#N canvas 868 339 1022 505 10;
#X obj 103 125 usss.hslider \$1.amp 0 1 1;
#X obj 390 69 inlet~;
#X obj 333 69 inlet~;
#X obj 389 206 *~;
#X obj 332 206 *~;
#X obj 138 181 tgl 15 0 empty empty Record_start/stop 17 7 0 10 -191407
-4160 -258113 0 1;
#X obj 138 163 tgl 15 0 empty empty On/Off 17 7 0 10 -191407 -4160
-1 0 1;
#X msg 11 196 \; pd dsp \$1;
#X obj 138 199 bng 15 250 50 0 empty empty /tmp/sound.wav 17 7 0 10
-262144 -1 -1;
#X obj 108 262 savepanel;
#X obj 176 331 print \$1;
#X obj 111 455 writesf~ 2;
#X msg 49 357 start;
#X obj 49 298 sel 1;
#X msg 94 355 stop;
#X msg 177 263 label \$1;
#X obj 117 161 usss.monometer;
#X obj 103 161 usss.monometer;
#X obj 213 37 dsp;
#X floatatom 229 230 5 0 0 2 Avg_% - -, f 5;
#X floatatom 264 230 5 0 0 2 Peak_% - -, f 5;
#X text 204 230 CPU;
#X obj 329 237 hip~ 3;
#X obj 389 236 hip~ 3;
#X obj 654 104 loadbang;
#X obj -74 389 timer;
#X floatatom 138 218 5 0 0 0 - - -, f 5;
#X obj 94 323 t b;
#X obj 133 355 delay 5;
#X msg 393 351 label /tmp/sound.wav;
#X msg 393 385 open -wave -bytes 3 /tmp/sound.wav;
#X msg 109 296 open -wave -bytes 3 \$1;
#X text 541 350 sort out tmp file;
#X text 448 236 hipass filter to remove dc;
#X obj 102 17 r pd;
#X obj 102 41 route dsp;
#X msg 103 66 set \$1;
#X text -253 47 this allows the patch to know when dsp got turned on/off
;
#X obj -25 293 bang~;
#X obj -74 364 t b b;
#X obj -74 412 * 0.001;
#X obj -93 452 accum 0;
#X obj -74 326 gate;
#X msg 5 412 0;
#X obj 358 302 dac~ 1 2 3 4;
#X obj 508 68 inlet~;
#X obj 451 68 inlet~;
#X connect 0 1 4 1;
#X connect 0 1 3 1;
#X connect 1 0 3 0;
#X connect 2 0 4 0;
#X connect 3 0 16 0;
#X connect 3 0 23 0;
#X connect 4 0 17 0;
#X connect 4 0 22 0;
#X connect 5 0 13 0;
#X connect 5 0 42 0;
#X connect 6 0 7 0;
#X connect 8 0 9 0;
#X connect 9 0 31 0;
#X connect 9 0 15 0;
#X connect 12 0 11 0;
#X connect 13 0 12 0;
#X connect 13 0 43 0;
#X connect 13 1 27 0;
#X connect 14 0 11 0;
#X connect 15 0 8 0;
#X connect 18 0 19 0;
#X connect 18 1 20 0;
#X connect 22 0 11 0;
#X connect 22 0 44 0;
#X connect 23 0 11 1;
#X connect 23 0 44 1;
#X connect 24 0 29 0;
#X connect 24 0 30 0;
#X connect 25 0 40 0;
#X connect 27 0 14 0;
#X connect 27 0 28 0;
#X connect 28 0 29 0;
#X connect 28 0 30 0;
#X connect 29 0 8 0;
#X connect 30 0 11 0;
#X connect 31 0 10 0;
#X connect 31 0 11 0;
#X connect 34 0 35 0;
#X connect 35 0 36 0;
#X connect 36 0 6 0;
#X connect 39 0 25 0;
#X connect 39 1 25 1;
#X connect 40 0 41 1;
#X connect 41 0 26 0;
#X connect 42 0 39 0;
#X connect 42 0 41 0;
#X connect 43 0 41 0;
#X connect 45 0 44 3;
#X connect 46 0 44 2;
#X coords 0 -1 1 1 200 150 1 100 100;
