#N canvas 2059 146 926 710 10;
#X declare -path E:/USSSTOOLSKIT/ussstools;
#X obj 504 243 print;
#X obj 460 160 * 20;
#X obj 701 195 i;
#X obj 739 201 + 1;
#X floatatom 701 222 5 0 0 0 - - -;
#X obj 700 163 bng 15 250 50 0 empty empty empty 17 7 0 10 -262144
-1 -1;
#X obj 699 137 until;
#X msg 700 111 10;
#X obj 695 43 bng 15 250 50 0 empty empty empty 17 7 0 10 -262144 -1
-1;
#X msg 606 134 clear;
#X obj 694 70 t b b b;
#X msg 740 165 1;
#X obj 77 439 *~;
#X obj 122 446 *~;
#X obj 369 27 declare -path E:/USSSTOOLSKIT/ussstools;
#X obj 555 170 symbol \$1;
#X obj 76 355 catch~ \$1.outL;
#X obj 123 382 catch~ \$1.outR;
#X obj 72 501 outlet~;
#X obj 133 498 outlet~;
#X obj 694 18 loadbang;
#X obj 555 349 makenote;
#X msg 546 317 64 64 500;
#X obj 554 385 poly 10;
#X obj 554 450 s \$1.events;
#X obj 415 243 s pd-\$0.sub;
#N canvas 1965 572 450 303 \$0.sub 0;
#X obj 200 20 myphasorsynthvoice 1 myps2 squarewave;
#X obj 200 40 myphasorsynthvoice 2 myps2 squarewave;
#X obj 200 60 myphasorsynthvoice 3 myps2 squarewave;
#X obj 200 80 myphasorsynthvoice 4 myps2 squarewave;
#X obj 200 100 myphasorsynthvoice 5 myps2 squarewave;
#X obj 200 120 myphasorsynthvoice 6 myps2 squarewave;
#X obj 200 140 myphasorsynthvoice 7 myps2 squarewave;
#X obj 200 160 myphasorsynthvoice 8 myps2 squarewave;
#X obj 200 180 myphasorsynthvoice 9 myps2 squarewave;
#X obj 200 200 myphasorsynthvoice 10 myps2 squarewave;
#X restore 419 360 pd \$0.sub;
#X obj 415 204 sprintf obj 200 %d myphasorsynthvoice %d %s %s;
#X obj 458 132 t f f b b;
#X obj 624 172 symbol \$2;
#X obj 555 417 pack 0 0 0;
#X obj 104 126 usss.hslider \$1.volume 0 1 0.2;
#X obj 629 319 inlet;
#X obj 632 343 unpack 0 0;
#X connect 1 0 27 0;
#X connect 2 0 3 0;
#X connect 2 0 4 0;
#X connect 3 0 2 1;
#X connect 4 0 28 0;
#X connect 5 0 2 0;
#X connect 6 0 5 0;
#X connect 7 0 6 0;
#X connect 8 0 10 0;
#X connect 9 0 25 0;
#X connect 10 0 7 0;
#X connect 10 1 11 0;
#X connect 10 2 9 0;
#X connect 11 0 2 1;
#X connect 12 0 18 0;
#X connect 13 0 19 0;
#X connect 15 0 27 2;
#X connect 16 0 12 0;
#X connect 17 0 13 0;
#X connect 20 0 8 0;
#X connect 21 0 23 0;
#X connect 21 1 23 1;
#X connect 22 0 21 0;
#X connect 23 0 30 0;
#X connect 23 1 30 1;
#X connect 23 2 30 2;
#X connect 27 0 0 0;
#X connect 27 0 25 0;
#X connect 28 0 1 0;
#X connect 28 1 27 1;
#X connect 28 2 15 0;
#X connect 28 3 29 0;
#X connect 29 0 27 3;
#X connect 30 0 24 0;
#X connect 31 1 12 1;
#X connect 31 1 13 1;
#X connect 32 0 33 0;
#X connect 33 0 23 0;
#X connect 33 1 23 1;
#X coords 0 -1 1 1 210 70 1 100 100;
