#N canvas 290 439 667 493 12;
#X obj 378 1 soundfiler;
#X obj 379 -124 openpanel;
#X obj 446 -149 t b;
#N canvas 32 259 206 239 samples2len 0;
#X obj 45 25 inlet;
#X obj 61 86 samplerate~;
#X obj 45 115 /;
#X obj 45 59 t f b;
#X obj 45 140 * 1000;
#X obj 45 175 outlet;
#X connect 0 0 3 0;
#X connect 1 0 2 1;
#X connect 2 0 4 0;
#X connect 3 0 2 0;
#X connect 3 1 1 0;
#X connect 4 0 5 0;
#X restore 378 32 pd samples2len;
#X obj 379 -97 symbol;
#X msg 379 -29 read -resize \$1 \$2 \$3;
#X obj 379 -61 pack s s s;
#X obj 379 -154 t b b b;
#X obj 452 -92 symbol \$1.sf1;
#X obj 555 -92 symbol \$1.sf2;
#X obj 378 65 outlet;
#X obj 104 123 bng 15 250 50 0 empty empty open 17 7 0 10 -262144 -1
-1;
#X obj 438 -205 bng 15 250 50 0 empty empty again 17 7 0 10 -262144
-1 -1;
#X msg 380 -183 open;
#X msg 443 -178 again;
#X obj 554 -168 table \$1.sf1;
#X obj 554 -145 table \$1.sf2;
#X obj 12 -236 inlet~;
#X obj 61 -236 inlet~;
#X obj 12 -46 tabwrite~ \$1.sf1;
#X obj 133 -47 tabwrite~ \$1.sf2;
#X obj 115 -103 send \$1.sf1;
#X obj 203 -103 send \$1.sf2;
#X obj 104 104 tgl 15 0 empty empty record 17 7 0 10 -262144 -1 -1
0 1;
#X obj 135 -218 sel 1;
#X obj 143 -188 bng 15 250 50 0 empty empty empty 17 7 0 10 -262144
-1 -1;
#X obj 178 -185 bng 15 250 50 0 empty empty empty 17 7 0 10 -262144
-1 -1;
#X msg 189 -74 stop;
#X obj 133 -163 t b b;
#X msg 203 -131 resize \$1;
#N canvas 448 306 450 300 len2samples 0;
#X obj 45 25 inlet;
#X obj 61 86 samplerate~;
#X obj 45 59 t f b;
#X obj 45 175 outlet;
#X obj 45 116 *;
#X obj 45 140 / 1000;
#X connect 0 0 2 0;
#X connect 1 0 4 1;
#X connect 2 0 4 0;
#X connect 2 1 1 0;
#X connect 4 0 5 0;
#X connect 5 0 3 0;
#X restore 247 -160 pd len2samples;
#X obj 247 -222 r \$1.buflen;
#X obj 247 -190 float;
#X msg 295 -190 1000;
#X obj 338 -224 loadbang;
#X connect 0 0 3 0;
#X connect 1 0 4 0;
#X connect 2 0 4 0;
#X connect 3 0 10 0;
#X connect 4 0 6 0;
#X connect 5 0 0 0;
#X connect 6 0 5 0;
#X connect 7 0 1 0;
#X connect 7 1 8 0;
#X connect 7 2 9 0;
#X connect 8 0 6 1;
#X connect 9 0 6 2;
#X connect 11 0 13 0;
#X connect 12 0 14 0;
#X connect 13 0 7 0;
#X connect 14 0 2 0;
#X connect 17 0 19 0;
#X connect 18 0 20 0;
#X connect 23 0 24 0;
#X connect 24 0 25 0;
#X connect 24 1 26 0;
#X connect 25 0 28 0;
#X connect 26 0 27 0;
#X connect 27 0 20 0;
#X connect 27 0 19 0;
#X connect 28 0 20 0;
#X connect 28 0 19 0;
#X connect 28 1 32 0;
#X connect 29 0 21 0;
#X connect 29 0 22 0;
#X connect 30 0 29 0;
#X connect 30 0 3 0;
#X connect 31 0 32 0;
#X connect 32 0 30 0;
#X connect 33 0 32 1;
#X connect 34 0 33 0;
#X coords 0 -1 1 1 80 50 2 100 100;
