#N canvas 0 50 450 300 10;
#X obj 20 28 inlet notedata;
#X obj 20 50 unpack f f;
#X obj 20 72 mtof;
#X obj 20 106 osc~;
#X obj 20 128 *~;
#X obj 87 76 / 127;
#X msg 87 98 \$1 20;
#X obj 87 120 line~;
#X obj 20 150 outlet~;
#X connect 0 0 1 0;
#X connect 1 0 2 0;
#X connect 1 1 5 0;
#X connect 2 0 3 0;
#X connect 3 0 4 0;
#X connect 4 0 8 0;
#X connect 5 0 6 0;
#X connect 6 0 7 0;
#X connect 7 0 4 1;
