#N canvas 234 293 687 538 10;
#X obj 108 153 usss.octave 0;
#X obj 200 153 usss.octave 1;
#X obj 93 450 outlet;
#X obj 293 450 outlet;
#X obj 104 105 tgl 15 0 empty empty MIDI_On/Off 17 7 0 10 -262144 -1
-1 1 1;
#X floatatom 102 239 8 -5 5 1 Octave_Shift - -;
#X floatatom 102 262 8 0 0 1 Duration - -;
#X obj 110 342 expr $i1 + $i2 * 12;
#X obj 164 411 makenote 60 250;
#X obj 336 205 loadbang;
#X msg 336 232 250;
#X obj 419 6 notein;
#X obj 419 58 pack 0 0;
#X obj 440 109 gate;
#X obj 283 102 bng 15 250 50 0 empty empty empty 17 7 0 10 -228856
-2176 -1;
#X text 300 79 activity light;
#X obj 419 152 gate;
#X obj 105 135 hradio 12 1 0 16 empty empty Channel_Select 0 -8 0 10
-262144 -1 -1 0;
#X obj 421 177 unpack 0 0;
#X obj 64 179 print;
#X obj 513 11 + 1;
#X obj 485 57 == 1;
#X connect 0 0 7 0;
#X connect 1 0 7 0;
#X connect 1 0 8 1;
#X connect 1 1 8 1;
#X connect 4 0 16 0;
#X connect 5 0 7 1;
#X connect 6 0 8 2;
#X connect 7 0 2 0;
#X connect 7 0 8 0;
#X connect 8 0 2 0;
#X connect 8 1 3 0;
#X connect 9 0 10 0;
#X connect 10 0 6 0;
#X connect 11 0 12 0;
#X connect 11 1 12 1;
#X connect 11 2 21 0;
#X connect 12 0 13 1;
#X connect 13 0 16 1;
#X connect 16 0 14 0;
#X connect 16 0 18 0;
#X connect 17 0 19 0;
#X connect 17 0 20 0;
#X connect 18 0 2 0;
#X connect 18 1 3 0;
#X connect 20 0 21 1;
#X connect 21 0 13 0;
#X coords 0 -1 1 1 200 180 2 100 100;
