#N canvas 429 495 450 300 10;
#X obj 61 106 phasor~;
#X obj 62 142 *~ 2;
#X obj 61 175 -~ 1;
#X obj 4 19 usss.hslider \$1.phasorfreq 0 5000 0;
#X obj 62 213 outlet~;
#X connect 0 0 1 0;
#X connect 1 0 2 0;
#X connect 2 0 4 0;
#X connect 3 0 0 0;
#X coords 0 -1 1 1 200 60 1 0 0;
