#N canvas 218 438 443 417 10;
#X obj 40 255 phasor~;
#X floatatom 38 225 5 0 0 0 - - -;
#X floatatom 31 136 5 0 0 0 - - -;
#X text 69 135 startpoint (msec);
#X text 85 154 endpoint (msec);
#X obj 30 157 nbx 5 14 -1e+37 1e+37 0 0 empty empty empty 0 -6 0 10
-262144 -1 -1 0 256;
#X obj 248 286 expr (1000/$f1);
#X floatatom 246 312 5 0 0 0 - - -;
#X obj 36 373 outlet~;
#X obj 84 373 outlet~;
#X obj 36 304 wave~ \$1.sf1;
#X obj 67 333 wave~ \$1.sf2;
#X obj 39 199 *;
#X obj 24 95 usss.hslider \$1.speed -2 2 1;
#X obj 173 220 t bang float;
#X obj 262 45 inlet~;
#X obj 313 44 inlet~;
#X obj 26 33 usss.tabplay \$1;
#X connect 0 0 10 0;
#X connect 0 0 11 0;
#X connect 1 0 0 0;
#X connect 2 0 10 1;
#X connect 2 0 11 1;
#X connect 5 0 10 2;
#X connect 5 0 11 2;
#X connect 6 0 7 0;
#X connect 7 0 12 1;
#X connect 10 0 8 0;
#X connect 11 0 9 0;
#X connect 12 0 1 0;
#X connect 13 0 12 0;
#X connect 14 0 13 0;
#X connect 14 1 6 0;
#X connect 15 0 17 0;
#X connect 16 0 17 1;
#X connect 17 0 5 0;
#X connect 17 0 14 0;
#X coords 0 -1 1 1 200 170 1 20 15;
