#N canvas 428 354 812 534 12;
#X obj 79 228 reson~;
#X obj 208 95 route \$1;
#X obj 406 164 bng 15 250 50 0 empty empty empty 17 7 0 10 -262144
-1 -1;
#X obj 407 122 loadbang;
#X obj 212 57 r \$2.events;
#X obj 196 177 r \$2.global_gain;
#X obj 197 208 r \$2.global_q;
#X obj 347 374 symbol \$2.todacL;
#X msg 347 405 set \$1;
#X obj 470 371 symbol \$2.todacR;
#X obj 60 324 throw~ \$2.todacL;
#X obj 573 263 / 100;
#X obj 572 227 + 1;
#X obj 603 286 expr (1-$f1);
#X obj 412 189 random 2;
#X obj 407 243 sel 0;
#X obj 464 241 sel 1;
#X msg 350 339 set \$1;
#X obj 350 310 symbol \$2.siginL;
#X obj 477 311 symbol \$2.siginR;
#X obj 57 70 receive~ \$2.siginL;
#X obj 126 172 sig~;
#X connect 0 0 10 0;
#X connect 1 0 2 0;
#X connect 1 0 21 0;
#X connect 2 0 14 0;
#X connect 3 0 2 0;
#X connect 4 0 1 0;
#X connect 5 0 0 1;
#X connect 6 0 0 3;
#X connect 7 0 8 0;
#X connect 8 0 10 0;
#X connect 9 0 8 0;
#X connect 11 0 13 0;
#X connect 12 0 11 0;
#X connect 14 0 15 0;
#X connect 14 0 16 0;
#X connect 15 0 7 0;
#X connect 15 0 18 0;
#X connect 16 0 19 0;
#X connect 16 0 9 0;
#X connect 17 0 20 0;
#X connect 18 0 17 0;
#X connect 19 0 17 0;
#X connect 20 0 0 0;
#X connect 21 0 0 2;
