#N canvas 354 404 512 403 10;
#X obj 3 19 usss.hslider \$1.cutoff 0 19000 100;
#X obj 41 153 lop~;
#X obj 84 152 lop~;
#X obj 15 122 inlet~;
#X obj 69 121 inlet~;
#X obj 35 204 outlet~;
#X obj 103 203 outlet~;
#X connect 0 0 1 1;
#X connect 0 0 2 1;
#X connect 1 0 5 0;
#X connect 2 0 6 0;
#X connect 3 0 1 0;
#X connect 4 0 2 0;
#X coords 0 -1 1 1 200 60 1 0 0;
