#N canvas 285 143 857 543 10;
#X obj 91 211 +~ 1;
#X obj 91 270 pd_scope;
#X obj 295 270 pd_scope;
#X obj 499 270 pd_scope;
#X floatatom 522 187 5 0 0 0 - - -;
#X floatatom 333 191 5 0 0 0 - - -;
#X floatatom 114 190 5 0 0 0 - - -;
#X obj 500 99 osc~ 120;
#X obj 296 210 *~ 0.2;
#X obj 622 97 loadbang;
#X msg 622 125 \; pd dsp 1 \;;
#X obj 91 104 osc~ 210;
#X obj 501 208 *~ 0.5;
#X connect 0 0 1 0;
#X connect 4 0 12 1;
#X connect 5 0 8 1;
#X connect 6 0 0 1;
#X connect 7 0 12 0;
#X connect 8 0 2 0;
#X connect 9 0 10 0;
#X connect 11 0 0 0;
#X connect 11 0 8 0;
#X connect 11 0 12 0;
#X connect 12 0 3 0;
