#N canvas 565 209 623 535 10;
#X obj 223 304 delwrite~ \$0_mydelay_unit 10000;
#X text 257 282 10 second delay unit;
#X obj 223 380 vd~ \$0_mydelay_unit;
#X obj 222 439 dac~;
#X obj 106 213 loadbang;
#X floatatom 106 277 5 0 0 0 - - -;
#X obj 106 309 sig~;
#X obj 293 188 vline~;
#X obj 224 230 *~;
#X msg 106 246 250;
#X msg 293 154 0 0 \, 0.7 20 \, 0 200 50;
#X obj 293 102 bng 15 250 50 0 empty empty empty 17 7 0 10 -262144
-1 -1;
#X text 319 101 trigger bleep;
#X obj 223 153 osc~ 440;
#X obj 281 344 *~ 0.75;
#X text 344 344 feedback loop;
#X connect 2 0 3 0;
#X connect 2 0 3 1;
#X connect 2 0 14 0;
#X connect 4 0 9 0;
#X connect 5 0 6 0;
#X connect 6 0 2 0;
#X connect 7 0 8 1;
#X connect 8 0 0 0;
#X connect 9 0 5 0;
#X connect 10 0 7 0;
#X connect 11 0 10 0;
#X connect 13 0 8 0;
#X connect 14 0 0 0;
