#N canvas 586 334 482 346 10;
#X obj 184 253 dac~;
#X obj 184 207 *~;
#X obj 183 168 osc~ 440;
#X obj 180 59 osc~ 10;
#X obj 181 92 *~;
#X obj 182 127 +~;
#X floatatom 220 93 5 0 0 0 - - -;
#X floatatom 220 126 5 0 0 0 - - -;
#X floatatom 223 206 5 0 0 0 - - -;
#X floatatom 180 35 5 0 0 0 - - -;
#X connect 1 0 0 0;
#X connect 1 0 0 1;
#X connect 2 0 1 0;
#X connect 3 0 4 0;
#X connect 4 0 5 0;
#X connect 5 0 2 0;
#X connect 6 0 4 1;
#X connect 7 0 5 1;
#X connect 8 0 1 1;
#X connect 9 0 3 0;
