#N canvas 602 368 849 526 10;
#X msg 208 68 30 20 1.4 oneword "a whole string of text";
#X floatatom 354 131 5 0 0 0 - - -;
#X msg 354 155 blah \$1;
#X obj 208 419 print;
#X floatatom 358 225 5 0 0 0 - - -;
#X floatatom 390 241 5 0 0 0 - - -;
#X obj 358 289 pack f f f;
#X floatatom 423 257 5 0 0 0 - - -;
#X obj 358 345 unpack f f f;
#X floatatom 397 416 5 0 0 0 - - -;
#X floatatom 437 434 5 0 0 0 - - -;
#X floatatom 358 398 5 0 0 0 - - -;
#X text 207 47 a list in a message;
#X text 250 111 constructing a list with the \$1 identifier;
#X text 360 201 packing and unpacking a list;
#X connect 0 0 3 0;
#X connect 1 0 2 0;
#X connect 2 0 3 0;
#X connect 4 0 6 0;
#X connect 5 0 6 1;
#X connect 6 0 3 0;
#X connect 6 0 8 0;
#X connect 7 0 6 2;
#X connect 8 0 11 0;
#X connect 8 1 9 0;
#X connect 8 2 10 0;
