#N canvas 136 293 530 261 10;
#X obj 179 122 osc~;
#X obj 179 87 mtof;
#X obj 179 52 notein;
#X obj 179 169 dac~;
#X text 214 80 converting from MIDI note number 0..127 -> frequency
;
#X connect 0 0 3 0;
#X connect 0 0 3 1;
#X connect 1 0 0 0;
#X connect 2 0 1 0;
