#N canvas 985 437 604 456 10;
#X obj 144 388 dac~;
#X obj 210 204 metro;
#X obj 176 162 tgl 15 0 empty empty empty 17 7 0 10 -262144 -1 -1 0
1;
#X text 53 162 metronome on/off;
#X obj 143 250 osc~ 440;
#X obj 143 349 *~;
#X obj 160 314 line~;
#X msg 210 250 0 \, 1 50 0 50;
#X obj 262 53 ctlin;
#X obj 262 116 + 50;
#X obj 262 85 * 1.5748;
#X text 309 53 range 0..127;
#X text 331 82 range 0..200;
#X text 303 116 range 50..250;
#X obj 262 151 expr 60000/$f1;
#X text 370 150 convert to milliseconds;
#X floatatom 212 52 5 0 0 0 - - -, f 5;
#X connect 1 0 7 0;
#X connect 2 0 1 0;
#X connect 4 0 5 0;
#X connect 5 0 0 0;
#X connect 5 0 0 1;
#X connect 6 0 5 1;
#X connect 7 0 6 0;
#X connect 8 0 10 0;
#X connect 9 0 14 0;
#X connect 10 0 9 0;
#X connect 14 0 1 1;
#X connect 16 0 10 0;
