#N canvas 155 284 577 408 10;
#X obj 177 336 tabwrite~ \$0_array;
#X obj 177 308 metro 33;
#X obj 177 258 loadbang;
#X msg 177 283 1;
#N canvas 0 0 450 300 (subpatch) 0;
#X array \$0_array 512 float 2;
#X coords 0 2 512 -2 200 140 1;
#X restore 101 101 graph;
#X obj 128 308 inlet~;
#X connect 1 0 0 0;
#X connect 2 0 3 0;
#X connect 3 0 1 0;
#X connect 5 0 0 0;
#X coords 0 -1 1 1 202 142 2 100 100;
