#N canvas 300 124 788 475 10;
#X obj 288 171 phasor~ 440;
#X obj 191 171 osc~ 440;
#X obj 251 171 tgl 15 0 empty empty empty 17 7 0 10 -262144 -1 -1 0
1;
#X obj 190 207 *~ 0;
#X obj 288 208 *~ 0;
#X obj 370 171 tgl 15 0 empty empty empty 17 7 0 10 -262144 -1 -1 0
1;
#X obj 395 208 *~ 0;
#X obj 451 171 tgl 15 0 empty empty empty 17 7 0 10 -262144 -1 -1 0
1;
#X obj 403 171 noise~;
#X obj 489 207 *~ 0;
#X obj 543 170 tgl 15 0 empty empty empty 17 7 0 10 -262144 -1 -1 0
1;
#X obj 489 170 readsf~;
#X obj 489 96 tgl 15 0 empty empty empty 17 7 0 10 -262144 -1 -1 0
1;
#X obj 510 120 openpanel;
#X msg 510 146 open \$1;
#X obj 510 96 bng 15 250 50 0 empty empty empty 17 7 0 10 -262144 -1
-1;
#X obj 335 322 dac~;
#X connect 0 0 4 0;
#X connect 1 0 3 0;
#X connect 2 0 3 1;
#X connect 3 0 16 0;
#X connect 3 0 16 1;
#X connect 4 0 16 0;
#X connect 4 0 16 1;
#X connect 5 0 4 1;
#X connect 6 0 16 0;
#X connect 6 0 16 1;
#X connect 7 0 6 1;
#X connect 8 0 6 0;
#X connect 9 0 16 0;
#X connect 9 0 16 1;
#X connect 10 0 9 1;
#X connect 11 0 9 0;
#X connect 12 0 11 0;
#X connect 13 0 14 0;
#X connect 14 0 11 0;
#X connect 15 0 13 0;
