#N canvas 505 156 450 300 10;
#X obj 159 53 noise~;
#X obj 218 53 sig~;
#X floatatom 263 55 5 0 0 0 - - -;
#X obj 159 114 vcf~ 20;
#X floatatom 218 27 5 0 0 0 - - -;
#X obj 159 197 dac~;
#X text 306 53 Q;
#X text 263 25 Frequency;
#X connect 0 0 3 0;
#X connect 1 0 3 1;
#X connect 2 0 3 2;
#X connect 3 0 5 0;
#X connect 3 0 5 1;
#X connect 4 0 1 0;
